<svg width="35" height="40" viewBox="0 0 35 40" fill="none" xmlns="http://www.w3.org/2000/svg">
<path d="M16.4453 0.020504C15.4531 0.129879 14.75 0.247066 14.1016 0.411129C11.7188 1.00488 9.58594 2.21582 7.8125 3.99707C5.41406 6.3955 4.03906 9.43457 3.82031 12.8486C3.76562 13.6299 3.75781 13.6533 3.5625 13.6924C2.01562 14.0283 1.00781 14.7393 0.46875 15.8721C0 16.8721 0 16.8564 0 21.7314C0 25.7393 0.015625 26.2314 0.140625 26.6846C0.578125 28.2705 1.67188 29.3252 3.26562 29.6924C3.65625 29.7861 4.21875 29.8174 5.42188 29.8174H7.04688L7.24219 29.6221C7.35156 29.5127 7.46094 29.3174 7.49219 29.1846C7.55469 28.8643 7.55469 14.5986 7.49219 14.2783C7.46094 14.1455 7.35156 13.9502 7.25 13.8408C7.07031 13.6611 6.99219 13.6455 6.17969 13.6299L5.3125 13.6064L5.33594 12.9814C5.42969 10.7393 6.24219 8.41113 7.59375 6.51269C8.50781 5.23144 10.1562 3.76269 11.5781 2.96582C13.2344 2.04394 15.5156 1.458 17.4609 1.458C19.4062 1.458 21.6875 2.04394 23.3438 2.96582C24.7656 3.76269 26.4141 5.23144 27.3281 6.51269C28.6797 8.41113 29.4922 10.7393 29.5859 12.9814L29.6094 13.6064L28.7422 13.6299C27.9219 13.6455 27.8516 13.6611 27.6719 13.8486C27.5469 13.9736 27.4531 14.1768 27.4219 14.3721C27.3984 14.5518 27.3828 17.9971 27.3984 22.0283L27.4219 29.3643L27.6797 29.5908C27.9297 29.8096 27.9531 29.8174 28.7891 29.8174H29.6406L29.6016 30.2236C29.3828 32.4814 28.8516 33.8564 27.8203 34.8018C26.8047 35.7236 25.0781 36.2783 22.7656 36.4268L21.9375 36.4814L21.8906 35.9971C21.8281 35.4189 21.7031 35.1533 21.3359 34.833C20.9062 34.458 20.5078 34.4111 17.7109 34.4424C15.4688 34.4658 15.2109 34.4814 14.9609 34.6143C14.5781 34.8174 14.4219 34.9736 14.25 35.3018C14.1172 35.5596 14.1016 35.7783 14.1016 37.1924C14.1016 38.8877 14.1328 39.0908 14.4766 39.458C14.9453 39.958 15.0312 39.9736 18.0078 39.9736C20.6562 39.9736 20.7188 39.9736 21.0547 39.7939C21.5469 39.5518 21.8359 39.1064 21.8906 38.5049L21.9375 38.0283L22.3359 37.9893C22.5547 37.9658 23.1406 37.9111 23.6328 37.8643C27 37.5439 29.0625 36.3799 30.1562 34.1924C30.6484 33.208 30.9141 32.2002 31.0781 30.6846L31.1719 29.7861L31.7266 29.6533C33.3047 29.2627 34.3516 28.2471 34.7891 26.6768C34.9062 26.2314 34.9219 25.7236 34.9219 21.6924C34.9219 17.5752 34.9062 17.1611 34.7812 16.6924C34.3125 15.0518 33.2344 14.0986 31.3594 13.6924C31.1641 13.6533 31.1562 13.6299 31.1016 12.8486C30.6875 6.41894 25.9844 1.208 19.6484 0.161129C18.9844 0.051754 16.9531 -0.041996 16.4453 0.020504ZM5.97656 21.6924V28.333H5.21875C2.89062 28.3252 1.83594 27.6611 1.53125 26.0283C1.41406 25.4033 1.41406 17.9814 1.53125 17.3564C1.70312 16.4189 2.19531 15.7471 2.97656 15.3877C3.47656 15.1611 4.04688 15.0752 5.14062 15.0596L5.97656 15.0518V21.6924ZM31.6797 15.3174C32.4766 15.6143 33.0625 16.2158 33.2969 16.9893C33.4219 17.3955 33.4375 17.8174 33.4219 21.6924C33.4062 25.7549 33.3984 25.9736 33.2422 26.4814C33.1016 26.9268 33 27.0986 32.6328 27.4736C31.9844 28.1299 31.5703 28.2705 30.1016 28.3174L28.9453 28.3486V21.7314V15.1143L30.1406 15.1533C30.9766 15.1768 31.4297 15.2236 31.6797 15.3174ZM20.3516 37.2393V38.4893H17.9688H15.5859V37.2393V35.9893H17.9688H20.3516V37.2393Z" fill="white"/>
</svg>
