<svg width="36" height="41" viewBox="0 0 36 41" fill="none" xmlns="http://www.w3.org/2000/svg">
<path d="M5.97407 0.0711937C5.75905 0.195244 5.67634 0.64183 5.61845 2.10564L5.56056 3.45367H3.71633H1.86382L1.69842 3.66869C1.30145 4.17317 1.57437 7.06771 2.2029 8.94503C3.07953 11.5915 4.95684 13.9236 7.37172 15.3626C7.91755 15.6852 8.00025 15.7679 8.34759 16.3881C9.00093 17.5459 9.80313 18.5963 10.7873 19.5804C12.1022 20.8953 13.4503 21.7885 14.9223 22.3178C15.2201 22.417 15.4847 22.5494 15.5178 22.5907C15.5509 22.6403 15.5839 24.253 15.5839 26.1717V29.6617L13.6735 29.6865C11.7797 29.7113 11.7632 29.7113 11.606 29.9098C11.4654 30.0834 11.4489 30.2488 11.4489 31.7871V33.4659L9.88583 33.4907C8.48818 33.5155 8.30624 33.5321 8.14911 33.6727C7.97544 33.8298 7.97544 33.8877 7.97544 36.7988V39.7595H4.3035C1.91344 39.7595 0.548872 39.7926 0.38347 39.8505C-0.0300362 39.991 -0.129278 40.4873 0.184987 40.8511C0.300768 40.9917 1.25183 41 17.9823 41C35.5894 41 35.6555 41 35.8044 40.8346C36.0111 40.603 35.9946 40.2061 35.7713 39.9828C35.5976 39.8008 35.5811 39.8008 31.752 39.776L27.9064 39.7512V36.8319C27.9064 34.0035 27.8981 33.9042 27.7327 33.6892L27.5673 33.4742H26.0043H24.4412L24.4164 31.7457C24.3916 30.1827 24.3751 30.0007 24.2345 29.8436C24.0856 29.6782 24.0029 29.6699 22.1835 29.6699H20.2979V26.089V22.4998L21.1167 22.1938C22.6466 21.6148 23.912 20.7548 25.1773 19.4398C26.2359 18.3482 26.7982 17.579 27.6914 16.0077C27.8485 15.7348 28.0305 15.5529 28.3613 15.3626C30.2965 14.2544 32.0994 12.2862 33.0835 10.2021C33.8774 8.50671 34.1834 7.21658 34.2496 5.22348C34.3158 3.30481 34.4894 3.45367 32.1407 3.45367H30.3296L30.2717 1.98986C30.2303 0.807232 30.189 0.476429 30.0732 0.269676L29.9243 0.0215721L18.0154 0.00503159C10.1587 -0.0115089 6.06504 0.0133018 5.97407 0.0711937ZM29.0973 1.94024C29.1883 3.08979 29.1635 6.29859 29.0642 7.34063C28.8658 9.30064 28.3944 11.484 27.8237 13.047C27.4598 14.056 26.5915 15.7844 26.0208 16.6445C24.5405 18.8692 22.5308 20.4901 20.3806 21.1931C19.8761 21.3502 19.4461 21.6397 19.289 21.9208C19.2063 22.0532 19.1732 23.0456 19.1401 25.8657L19.0987 29.6286L18.0071 29.6534L16.9072 29.6782V26.0311C16.9072 22.6073 16.8989 22.3674 16.75 22.078C16.5019 21.6066 16.2456 21.4164 15.4103 21.1021C10.87 19.415 7.7356 14.4281 6.94167 7.62181C6.80108 6.43091 6.75973 2.8913 6.86724 1.78311L6.92513 1.22074H17.9823H29.0394L29.0973 1.94024ZM5.52748 5.41369C5.64326 7.18349 5.75905 8.34131 5.91618 9.23448C6.10639 10.3427 6.55298 12.0959 6.8507 12.923C6.96648 13.2372 7.04918 13.5019 7.04091 13.5184C6.98302 13.568 5.82521 12.5012 5.43651 12.0463C3.85692 10.1855 2.98029 8.01878 2.80661 5.49639L2.74872 4.69419H4.11329H5.47786L5.52748 5.41369ZM33.1579 5.49639C32.9512 8.44882 31.8182 10.9133 29.7755 12.8568C29.3289 13.2786 28.9485 13.6176 28.9236 13.6011C28.9071 13.5763 28.965 13.3778 29.056 13.1545C29.6845 11.5501 30.3875 7.85337 30.3875 6.10011C30.3875 5.80238 30.4123 5.36407 30.4371 5.12423L30.495 4.69419H31.8595H33.2158L33.1579 5.49639ZM23.1098 32.1923V33.4742H17.9409H12.7721V32.1923V30.9105H17.9409H23.1098V32.1923ZM26.6659 37.2371V39.7595H17.9823H9.29866V37.2371V34.7147H17.9823H26.6659V37.2371Z" fill="#102c6d"/>
<path d="M17.7095 4.29764C17.6351 4.35553 17.2133 5.14946 16.775 6.05917C16.3284 6.96889 15.9397 7.73801 15.8983 7.76282C15.857 7.78763 15.0217 7.92822 14.0376 8.07708C13.0617 8.22594 12.1685 8.38308 12.061 8.4327C11.8377 8.54021 11.6971 8.88755 11.7798 9.11912C11.8377 9.26798 12.6482 10.0867 14.0872 11.4513L14.6247 11.9558L14.3187 13.7587C14.1451 14.7593 14.0127 15.669 14.0127 15.7931C14.0127 16.0991 14.2857 16.3555 14.5999 16.3555C14.7736 16.3555 15.4269 16.0577 16.5021 15.4871C17.4118 15.0074 18.1892 14.6187 18.2305 14.6187C18.2801 14.6187 18.9996 15.0074 19.8349 15.4871C21.4393 16.4051 21.7288 16.4961 22.0348 16.1901C22.1257 16.0991 22.2002 15.9254 22.2002 15.7931C22.2002 15.669 22.0678 14.7593 21.8942 13.7587L21.5882 11.9558L22.0844 11.4926C23.3911 10.2604 24.3008 9.35068 24.4 9.16874C24.5323 8.91236 24.4083 8.54848 24.1436 8.4327C24.0361 8.38308 23.143 8.21767 22.1588 8.06881C21.1829 7.92822 20.3477 7.78763 20.3146 7.76282C20.2732 7.73801 19.8845 6.96889 19.4379 6.05917C18.9996 5.14946 18.5778 4.35553 18.5034 4.29764C18.429 4.24802 18.247 4.1984 18.1065 4.1984C17.9659 4.1984 17.7839 4.24802 17.7095 4.29764ZM18.7267 7.58087C19.0823 8.30864 19.4214 8.92063 19.4628 8.94544C19.5041 8.97852 20.0747 9.0695 20.7281 9.16047C21.3814 9.25144 22.0348 9.34241 22.1919 9.36722L22.4731 9.41684L21.4228 10.4754C20.2153 11.6994 20.2732 11.5092 20.5875 13.2046C20.7033 13.8165 20.7942 14.3789 20.7942 14.4533C20.7942 14.5691 20.5296 14.4533 19.5785 13.9489C18.9004 13.5932 18.2553 13.2955 18.123 13.2955C17.9989 13.2955 17.296 13.5932 16.5682 13.9654C15.2533 14.6187 15.2367 14.627 15.2863 14.3955C15.5344 13.1632 15.7495 11.749 15.7164 11.6002C15.6916 11.5009 15.2036 10.9799 14.633 10.4423C14.0624 9.90478 13.6075 9.44992 13.6323 9.43338C13.6489 9.40857 14.2857 9.30933 15.0382 9.20182C15.8074 9.09431 16.4938 8.96198 16.6013 8.88755C16.7005 8.82139 17.0561 8.21767 17.4035 7.51471C17.7426 6.82829 18.032 6.26593 18.0403 6.26593C18.0568 6.26593 18.3628 6.86137 18.7267 7.58087Z" fill="#102c6d"/>
</svg>
