<svg width="23" height="41" viewBox="0 0 23 41" fill="none" xmlns="http://www.w3.org/2000/svg">
<path d="M10.7236 0.144142C10.1951 0.33633 9.77865 0.656643 9.50638 1.08105C9.39427 1.26524 8.88978 2.25019 8.38529 3.25918L7.4724 5.10098L6.90384 5.18906C6.28724 5.28516 6.05501 5.45332 6.05501 5.82168C6.05501 6.07793 6.39134 6.40625 6.6556 6.40625C7.08001 6.40625 8.02493 6.23008 8.20111 6.10996C8.32122 6.03789 8.77767 5.21309 9.48236 3.7877C10.7156 1.30527 10.7636 1.24121 11.5003 1.24121C12.237 1.24121 12.2851 1.30527 13.5183 3.7877C14.223 5.19707 14.6794 6.03789 14.7995 6.11797C14.9117 6.19004 15.9126 6.36621 17.306 6.56641C18.5872 6.75059 19.7163 6.95078 19.8285 7.00684C19.9406 7.06289 20.1167 7.20703 20.2208 7.31914C20.4691 7.5834 20.5492 8.27207 20.365 8.62442C20.2929 8.75254 19.4761 9.60137 18.5392 10.4982C17.6103 11.3951 16.8175 12.2039 16.7855 12.292C16.7454 12.3961 16.8736 13.333 17.1138 14.7344C17.5382 17.2248 17.5622 17.441 17.3941 17.7613C17.1779 18.1777 16.8976 18.3619 16.4331 18.402C16.0087 18.434 15.9687 18.418 13.8466 17.3049C12.6615 16.6883 11.6044 16.1758 11.5003 16.1758C11.3962 16.1758 10.3392 16.6883 9.15404 17.3049C7.03197 18.418 6.99193 18.434 6.56751 18.402C6.10306 18.3619 5.82279 18.1777 5.60658 17.7613C5.43841 17.441 5.46243 17.2248 5.88685 14.7344C6.12708 13.325 6.25521 12.3961 6.21517 12.292C6.18314 12.2039 5.39036 11.3951 4.45345 10.4902C3.52454 9.59336 2.70775 8.75254 2.63568 8.62442C2.44349 8.24805 2.53157 7.5834 2.81185 7.29512C3.08411 7.00684 3.30033 6.91875 4.00501 6.81465C4.66165 6.71856 4.85384 6.57441 4.85384 6.16602C4.85384 5.67754 4.66165 5.57344 3.8929 5.6375C2.67572 5.73359 1.92298 6.19805 1.51458 7.10293C1.33841 7.4873 1.31439 7.62344 1.34642 8.2C1.37044 8.73652 1.41849 8.93672 1.59466 9.225C1.70677 9.4252 2.53157 10.29 3.41243 11.1549L5.022 12.7164L4.65365 14.8145C4.45345 15.9676 4.29329 17.0807 4.29329 17.2889C4.29329 17.6012 5.67064 22.3738 7.62454 28.8441C7.66458 28.9803 7.51243 28.9883 5.27825 28.9883C2.6597 28.9963 2.66771 28.9883 2.53157 29.4768C2.48353 29.6369 2.4515 31.3746 2.4515 33.6008V37.4525L1.99505 37.6207C0.978059 37.9971 0.217317 39.0141 0.145247 40.0791C0.113215 40.5996 0.129231 40.6717 0.297395 40.8238L0.481575 41H11.5003H22.5191L22.7033 40.8238C22.8714 40.6717 22.8874 40.5996 22.8554 40.0791C22.7833 39.0141 22.0226 37.9971 21.0136 37.6207L20.5492 37.4525V33.6008C20.5492 31.3746 20.5171 29.6369 20.4691 29.4768C20.3329 28.9883 20.341 28.9963 17.7224 28.9883C15.4882 28.9883 15.3361 28.9803 15.3761 28.8441C15.4001 28.7721 15.6324 27.9793 15.8966 27.0904C16.1689 26.2016 16.3851 25.3848 16.3851 25.2807C16.3851 24.7922 15.7605 24.5359 15.4161 24.8803C15.312 24.9844 15.0398 25.7451 14.6714 26.9943L14.0868 28.9482H11.5003H8.9138L7.52044 24.3037C6.7597 21.7492 6.13509 19.6512 6.13509 19.6512C6.13509 19.6432 6.41536 19.6191 6.7597 19.5951C7.09603 19.5711 7.46439 19.5311 7.5765 19.499C7.76868 19.451 7.81673 19.523 8.81771 21.5891C9.38626 22.7662 9.95482 23.8713 10.0829 24.0475C10.3632 24.4318 10.9958 24.7441 11.5003 24.7441C12.0048 24.7441 12.6374 24.4318 12.9177 24.0475C13.0378 23.8713 13.6144 22.7662 14.1829 21.5891C15.1919 19.523 15.232 19.451 15.4242 19.499C15.5363 19.5311 15.9046 19.5711 16.249 19.5951C16.7775 19.6271 16.8656 19.6592 16.8335 19.7713C16.4492 20.9805 15.9046 22.8863 15.9046 22.9984C15.9046 23.4229 16.321 23.7031 16.7134 23.535C16.9937 23.4229 17.0097 23.3988 17.9466 20.2277C18.4191 18.6262 18.7074 17.5291 18.7074 17.3049C18.7074 17.1047 18.5472 15.9836 18.347 14.8305L17.9786 12.7164L19.5882 11.1549C20.4691 10.29 21.2939 9.4252 21.414 9.21699C21.6062 8.88867 21.6302 8.76855 21.6302 8.08789C21.6302 7.45527 21.5982 7.2711 21.446 6.99082C21.1898 6.51035 20.6613 6.02988 20.1888 5.85371C19.9726 5.77363 18.8275 5.57344 17.6583 5.40527L15.5202 5.10098L14.5193 3.08301C13.9667 1.96992 13.4062 0.928905 13.262 0.77676C12.6935 0.128124 11.5644 -0.152149 10.7236 0.144142ZM12.7896 18.1057C13.4702 18.466 14.0548 18.7863 14.1029 18.8264C14.215 18.9385 13.6304 20.0275 13.254 20.4119C12.7415 20.9244 12.3011 21.0926 11.5003 21.1006C10.9158 21.1006 10.7636 21.0686 10.4033 20.8764C10.171 20.7563 9.86673 20.54 9.72259 20.3959C9.43431 20.1076 8.82572 19.0266 8.87376 18.8824C8.90579 18.7943 11.3161 17.473 11.4683 17.465C11.5243 17.457 12.1169 17.7453 12.7896 18.1057ZM12.4613 22.3258C12.4613 22.3338 12.3331 22.598 12.181 22.9023C11.8847 23.4949 11.7085 23.615 11.3001 23.5109C11.156 23.4709 11.0279 23.3107 10.8197 22.9023C10.6675 22.598 10.5394 22.3338 10.5394 22.3258C10.5394 22.3098 10.9718 22.3018 11.5003 22.3018C12.0288 22.3018 12.4613 22.3098 12.4613 22.3258ZM19.2679 33.793V37.3965H11.5003H3.73275V33.793V30.1895H11.5003H19.2679V33.793ZM20.8054 38.8619C21.1417 39.0541 21.5902 39.5586 21.5902 39.7348C21.5902 39.7748 17.0497 39.7988 11.5003 39.7988C5.95091 39.7988 1.41048 39.7748 1.41048 39.7508C1.41048 39.6146 1.77083 39.1422 1.98704 38.99C2.53958 38.5896 2.23529 38.6057 11.6204 38.6217L20.429 38.6377L20.8054 38.8619Z" fill="white"/>
<path d="M5.1498 31.5025C4.90957 31.6867 4.85352 32.0951 4.85352 33.7928C4.85352 35.4904 4.90957 35.8988 5.1498 36.083C5.36602 36.2432 17.634 36.2432 17.8502 36.083C18.0904 35.8988 18.1465 35.4904 18.1465 33.7928C18.1465 32.0951 18.0904 31.6867 17.8502 31.5025C17.634 31.3424 5.36602 31.3424 5.1498 31.5025ZM16.8652 33.7928V34.9939H11.5H6.13477V33.7928V32.5916H11.5H16.8652V33.7928Z" fill="white"/>
</svg>
