<svg width="51" height="41" viewBox="0 0 51 41" fill="none" xmlns="http://www.w3.org/2000/svg">
<path d="M15.5903 0.2836C13.2624 1.25025 11.7533 2.81859 11.2009 4.84067C10.9642 5.69882 10.9543 7.77021 11.191 8.70727L11.3587 9.38787L10.7274 10.2263C10.3723 10.6899 9.85942 11.4691 9.57337 11.9525L9.05059 12.8303L8.84345 12.061C8.33053 10.1079 6.99892 8.64809 4.74997 7.55321C3.91155 7.1488 3.61564 7.05016 3.20136 7.05016C2.52076 7.05016 2.25444 7.31648 1.99798 8.21408C1.02146 11.6171 1.94866 14.7045 4.50338 16.5293C5.11493 16.9534 6.87069 17.851 7.11728 17.851C7.20606 17.851 7.22579 17.9595 7.1666 18.2653C6.97919 19.3996 6.92001 19.9717 6.86083 21.0765L6.79178 22.27L6.20982 21.8754C5.05575 21.0863 3.48741 20.6326 1.76125 20.603C0.705822 20.5833 0.429636 20.6819 0.15345 21.2146C-0.181919 21.8656 0.242224 24.0553 1.02146 25.6434C2.02757 27.7148 3.70441 28.8984 6.27886 29.3522C6.71287 29.4311 7.37374 29.4903 7.7387 29.4903H8.40944L8.69549 30.1314C8.85331 30.4865 9.15909 31.0783 9.38595 31.4532C9.60296 31.828 9.78051 32.1535 9.78051 32.1831C9.78051 32.2028 9.32677 32.2225 8.7744 32.2324C7.48224 32.2423 6.50573 32.4889 5.17412 33.1497C3.13231 34.1558 3.06327 34.8266 4.78943 36.6612C6.79178 38.8017 9.09991 39.5711 11.7237 38.9595C12.5029 38.7721 13.9628 38.1507 14.6236 37.7167C14.8899 37.549 14.8899 37.549 15.6988 38.0718C17.3263 39.1075 20.1769 40.2813 21.3902 40.4095C21.8439 40.4588 21.9228 40.4391 22.1497 40.2122C22.3075 40.0544 22.4062 39.8472 22.4062 39.6697C22.4062 39.1568 22.1497 38.9694 20.9069 38.6044C17.9674 37.7463 15.541 36.2667 13.3611 33.998C9.17882 29.6481 7.56115 23.3451 9.09004 17.4071C9.7016 15.0398 10.5893 13.2249 12.1873 11.0746C12.6311 10.4729 12.8777 10.2362 13.1342 10.1474C13.3216 10.0882 13.7753 9.88106 14.1403 9.70352C16.0341 8.77632 17.2375 7.49403 17.8294 5.76786C18.0661 5.06754 18.0957 4.83081 18.1055 3.64715C18.1154 1.90126 17.8787 0.786652 17.4151 0.31319C17.1488 0.0468712 17.0304 -0.00244904 16.6753 0.00741577C16.4386 0.00741577 15.9454 0.135643 15.5903 0.2836ZM16.4583 3.20328C16.5175 4.2883 16.3597 5.20563 15.9848 5.93555C15.5607 6.77397 14.2784 7.86885 13.2032 8.31272C12.8679 8.46068 12.858 8.45082 12.7988 8.25354C12.6509 7.76035 12.6213 6.20187 12.7396 5.60018C13.0356 4.05157 13.8641 3.05532 15.6495 2.09854L16.2413 1.78289L16.3202 1.9999C16.3695 2.11826 16.4287 2.66077 16.4583 3.20328ZM4.01019 9.03278C4.65134 9.2991 5.71663 10.0487 6.19009 10.5814C7.03837 11.5283 7.4132 12.564 7.4132 13.9745C7.4132 14.6058 7.25538 15.9572 7.1666 16.0558C7.14687 16.0755 6.92001 15.9867 6.66355 15.8585C4.10883 14.6157 3.06327 12.781 3.34932 10.0981C3.45782 9.16101 3.517 8.87496 3.60578 8.87496C3.6255 8.87496 3.81291 8.944 4.01019 9.03278ZM3.69455 22.5363C4.95711 22.8618 6.10131 23.7101 6.71287 24.7951C7.06796 25.4165 7.47238 26.6002 7.56115 27.3104L7.6302 27.843L7.0581 27.774C4.25678 27.4485 2.63912 26.0873 1.98811 23.5325C1.87961 23.0985 1.79084 22.6349 1.79084 22.487V22.2305L2.44185 22.3094C2.80681 22.3489 3.36904 22.4475 3.69455 22.5363ZM10.4315 34.1756C10.7866 34.3137 11.3587 34.6194 11.6941 34.8562C12.3056 35.2902 13.3315 36.3061 13.3315 36.4738C13.3315 36.6021 12.0689 37.1544 11.3784 37.3418C10.5006 37.5687 9.25773 37.549 8.54753 37.2827C7.70911 36.967 6.74246 36.3061 6.03227 35.5466C5.3418 34.8069 5.32207 34.8759 6.41695 34.4123C7.94584 33.7712 9.16895 33.7021 10.4315 34.1756Z" fill="white"/>
<path d="M33.118 0.313187C32.6544 0.786648 32.4177 1.90126 32.4276 3.64715C32.4374 4.8308 32.467 5.06753 32.7038 5.76786C33.2956 7.49403 34.499 8.77632 36.3928 9.70351C36.7578 9.88106 37.2115 10.0882 37.3989 10.1474C37.6554 10.2362 37.902 10.4729 38.3458 11.0746C39.9438 13.2249 40.8315 15.0398 41.4431 17.4071C43.8104 26.5903 38.5826 35.9806 29.6262 38.6044C28.3834 38.9694 28.127 39.1568 28.127 39.6697C28.127 39.8472 28.2256 40.0544 28.3834 40.2122C28.6103 40.4391 28.6892 40.4588 29.1429 40.4095C30.3562 40.2813 33.2068 39.1075 34.8343 38.0718C35.6432 37.549 35.6432 37.549 35.9095 37.7167C36.5704 38.1507 38.0302 38.7721 38.8094 38.9595C41.4332 39.5711 43.7413 38.8017 45.7437 36.6612C47.4698 34.8266 47.4008 34.1558 45.359 33.1497C44.0274 32.4889 43.0509 32.2423 41.7686 32.2324C41.2063 32.2225 40.7526 32.2028 40.7526 32.1831C40.7526 32.1535 40.9301 31.828 41.1472 31.4532C41.374 31.0783 41.6798 30.4865 41.8376 30.1314L42.1237 29.4903H42.7944C43.1594 29.4903 43.8202 29.4311 44.2542 29.3522C46.01 29.0464 47.243 28.4447 48.3083 27.3794C48.8804 26.8073 49.1072 26.4917 49.5116 25.6434C50.2909 24.0553 50.715 21.8656 50.3797 21.2146C50.1035 20.6819 49.8273 20.5833 48.762 20.603C47.0654 20.6326 45.4576 21.0962 44.3233 21.8754L43.7413 22.27L43.6723 21.0765C43.6131 19.9717 43.5539 19.3996 43.3665 18.2653C43.3073 17.9595 43.327 17.851 43.4158 17.851C43.6624 17.851 45.4182 16.9534 46.0297 16.5293C48.5844 14.7045 49.5116 11.6171 48.5351 8.21408C48.2787 7.31647 48.0123 7.05016 47.3317 7.05016C46.9175 7.05016 46.6216 7.14879 45.7831 7.55321C43.5342 8.64809 42.2026 10.1079 41.6897 12.061L41.4825 12.8303L40.9597 11.9525C40.6737 11.4691 40.1608 10.6899 39.8057 10.2263L39.1744 9.38787L39.3421 8.70727C39.5788 7.77021 39.5689 5.69881 39.3322 4.84067C38.77 2.789 37.172 1.16147 34.8245 0.244141C33.9466 -0.101089 33.5126 -0.0813637 33.118 0.313187ZM35.8306 2.67063C37.3397 3.6866 37.9907 5.13658 37.8625 7.12907C37.8231 7.63212 37.7737 8.13517 37.7343 8.25354C37.6751 8.45081 37.6652 8.46068 37.3299 8.31272C36.2547 7.86885 34.9724 6.77397 34.5483 5.93555C34.1735 5.20563 34.0156 4.2883 34.0748 3.20328C34.1143 2.66077 34.1636 2.11826 34.203 1.9999L34.2622 1.78289L34.7751 2.03935C35.0513 2.17744 35.5248 2.46349 35.8306 2.67063ZM47.0852 9.27937C47.1246 9.46678 47.1838 10.0093 47.2134 10.5025C47.3909 12.9191 46.2862 14.6847 43.8696 15.8585C43.6131 15.9867 43.3862 16.0755 43.3665 16.0558C43.2777 15.9572 43.1199 14.6058 43.1199 13.9745C43.1199 12.564 43.4947 11.5283 44.343 10.5814C44.9743 9.88106 46.592 8.8355 46.9175 8.91441C46.9668 8.92427 47.0457 9.09196 47.0852 9.27937ZM48.5549 23.503C48.0025 25.6828 46.7991 26.975 44.7968 27.5076C44.3923 27.6162 43.8005 27.7345 43.475 27.774L42.9029 27.843L42.972 27.3104C43.0114 27.0145 43.1495 26.4424 43.2876 26.0379C44.0372 23.7594 45.5464 22.5856 48.0814 22.3094C48.6634 22.2404 48.6929 22.2502 48.7225 22.4673C48.7423 22.5856 48.6634 23.0492 48.5549 23.503ZM43.475 34.1756C43.8893 34.3137 44.4219 34.5307 44.6685 34.649L45.1124 34.8858L44.5008 35.5368C43.7906 36.3061 42.8339 36.967 41.9856 37.2827C41.2754 37.549 40.0325 37.5687 39.1547 37.3418C38.4642 37.1544 37.2016 36.6021 37.2016 36.4738C37.2016 36.3061 38.2275 35.2902 38.8292 34.866C39.4506 34.4222 40.22 34.0671 40.9006 33.929C41.522 33.7909 42.6662 33.8994 43.475 34.1756Z" fill="white"/>
<path d="M24.6946 10.3843C24.379 10.7197 22.6035 14.4778 22.6035 14.8033C22.6035 15.405 23.3532 15.7897 23.8365 15.4444C23.945 15.3655 24.3001 14.7737 24.6256 14.1128C24.9412 13.452 25.2371 12.9193 25.2667 12.9193C25.3062 12.9193 25.898 14.0931 26.5983 15.5332C27.2888 16.9635 27.9596 18.2359 28.0878 18.3543C28.2752 18.5318 28.7487 18.6206 31.2541 18.9954C32.8717 19.2321 34.2329 19.4294 34.2822 19.4294C34.3316 19.4294 33.3649 20.4158 32.1319 21.6192C30.1493 23.5623 29.8929 23.8582 29.9027 24.1246C29.9027 24.6079 30.2381 24.9531 30.7017 24.9531C31.0765 24.9531 31.185 24.8644 33.9863 22.1222C35.5843 20.5736 36.9159 19.2025 36.9455 19.0743C37.0145 18.7981 36.8961 18.4529 36.6495 18.226C36.5115 18.1077 35.5251 17.9301 32.8224 17.5356L29.1728 17.0128L27.6045 13.807C26.7364 12.0414 25.9473 10.5027 25.829 10.3744C25.5528 10.0785 24.9807 10.0785 24.6946 10.3843Z" fill="white"/>
<path d="M17.7208 17.5253C14.377 18.0185 14.0515 18.0777 13.8246 18.2947C13.6569 18.4624 13.5879 18.6399 13.5879 18.8964C13.5879 19.2219 13.7457 19.3994 16.261 21.8752L18.9439 24.5089L18.3126 28.0993C17.9773 30.0819 17.7208 31.7686 17.7504 31.8475C17.8589 32.1829 18.2041 32.4492 18.5001 32.4492C18.7072 32.4492 19.8909 31.8771 22.0017 30.7724C23.7575 29.8452 25.2272 29.0955 25.2666 29.0955C25.3061 29.0955 26.7758 29.8452 28.5315 30.7724C30.6424 31.8771 31.826 32.4492 32.0332 32.4492C32.4376 32.4492 32.8025 32.0547 32.7927 31.6305C32.773 31.0584 32.0726 27.2214 31.9543 27.0241C31.757 26.7085 31.3328 26.5803 30.9876 26.7282C30.4352 26.9551 30.3958 27.251 30.6818 28.9476C30.7805 29.5394 30.8594 30.0425 30.8397 30.0622C30.8298 30.0819 29.6264 29.4704 28.1863 28.7108C26.4996 27.8132 25.454 27.32 25.2666 27.32C25.0792 27.32 24.0336 27.8132 22.3469 28.7108C20.9068 29.4704 19.7034 30.0819 19.6936 30.0622C19.6738 30.0425 19.881 28.77 20.1473 27.2214C20.4136 25.6728 20.6306 24.2721 20.6306 24.1143C20.6405 23.8579 20.3446 23.5324 18.4014 21.6188C17.1684 20.4154 16.2018 19.429 16.2511 19.429C16.3004 19.429 17.6616 19.2317 19.2793 18.995C21.8636 18.6103 22.2582 18.5314 22.4653 18.3341C22.7908 18.0284 22.7809 17.5253 22.4554 17.2097C22.1299 16.8743 22.0412 16.8842 17.7208 17.5253Z" fill="white"/>
</svg>
