<svg width="20" height="24" viewBox="0 0 20 24" fill="none" xmlns="http://www.w3.org/2000/svg">
<path d="M10.2832 0.0975533C10.1409 0.171381 8.80668 1.80087 5.09946 6.4204C2.352 9.84814 0.0844174 12.7063 0.0580502 12.7854C-0.089606 13.1704 0.0527768 13.6292 0.390277 13.8507L0.606488 13.9931L4.20825 14.0089C7.00317 14.0194 7.81 14.0352 7.81 14.088C7.81 14.1249 7.4145 16.0286 6.93461 18.3173C6.45473 20.6112 6.05922 22.5888 6.05922 22.7206C6.0434 23.3798 6.75004 23.8175 7.31957 23.5011C7.4936 23.4061 8.79086 21.8927 13.2206 16.6034C16.3424 12.8751 18.9422 9.75322 18.995 9.66884C19.1215 9.46845 19.1268 9.0624 19.0055 8.81455C18.958 8.71435 18.8262 8.56669 18.7102 8.49287L18.494 8.35048L14.4967 8.37158L10.4942 8.39267L10.5206 8.21337C10.7315 7.00576 11.5541 1.00986 11.5383 0.804193C11.5172 0.466694 11.3485 0.224115 11.0584 0.0922794C10.7842 -0.0342827 10.5258 -0.0290089 10.2832 0.0975533Z" fill="white"/>
</svg>
