<svg width="23" height="34" viewBox="0 0 23 34" fill="none" xmlns="http://www.w3.org/2000/svg">
<path d="M10.6794 0.571968C6.10379 1.01233 2.24377 4.19117 0.915811 8.61539C0.57178 9.77134 0.496094 10.3355 0.496094 11.8149C0.496094 12.9777 0.523616 13.3148 0.654348 13.9616C0.963975 15.4891 1.65204 17.1198 2.49147 18.2826L2.93871 18.9019V23.9798V29.0577L3.11072 29.2228C3.30338 29.4223 3.59237 29.443 3.83319 29.2779C3.92952 29.2159 4.47996 28.7824 5.05793 28.3146L6.10379 27.4614V30.2755C6.10379 32.9796 6.11067 33.0966 6.2414 33.2686C6.44094 33.5232 6.68864 33.5576 6.9845 33.3787C7.18404 33.2617 9.81931 31.4177 10.1358 31.1769C10.184 31.1356 10.7276 31.5347 11.6152 32.2572C12.3858 32.8833 13.0945 33.4269 13.1839 33.4613C13.3903 33.5438 13.7137 33.4269 13.8101 33.2411C13.8513 33.1723 13.8789 32.3466 13.8789 31.3352V29.5531L14.8146 28.8925L15.7504 28.232L17.1403 29.3535C17.8971 29.9659 18.599 30.5095 18.6815 30.5576C18.888 30.6677 19.1288 30.6058 19.3145 30.4132C19.4522 30.2687 19.4522 30.193 19.4522 25.177V20.0922L20.0026 19.5005C21.4819 17.9111 22.4727 15.9432 22.8649 13.8103C23.0438 12.8607 23.0438 10.7071 22.8718 9.8195C22.1425 6.1315 19.8444 3.15219 16.5417 1.59718C15.3032 1.01921 14.1128 0.695816 12.6748 0.565086C11.8285 0.489399 11.567 0.489399 10.6794 0.571968ZM12.6472 1.67286C14.0027 1.81048 14.9247 2.05818 16.1219 2.62927C17.2297 3.15219 17.9453 3.66136 18.9086 4.62464C20.4292 6.13838 21.2755 7.67275 21.7434 9.77134C21.9567 10.7415 21.9567 12.8883 21.7434 13.8584C21.4338 15.2208 20.9797 16.3079 20.2572 17.4088C18.0072 20.8216 13.9958 22.5555 9.99133 21.8606C8.55328 21.606 6.82625 20.8629 5.69095 20.0097C2.92495 17.9317 1.45938 14.863 1.58323 11.4364C1.68644 8.72548 2.63596 6.55809 4.58317 4.62464C5.54646 3.66824 6.16571 3.221 7.30789 2.66367C9.04181 1.81736 10.8239 1.48709 12.6472 1.67286ZM5.51205 21.2344C5.7804 21.4064 6.01434 21.5509 6.04874 21.5509C6.07626 21.5509 6.10379 22.5624 6.10379 23.8009V26.0577L5.16114 26.8146C4.6451 27.2274 4.1841 27.599 4.13593 27.6265C4.05337 27.6747 4.03961 27.0692 4.03961 23.8903V20.0991L4.54189 20.5051C4.81023 20.7321 5.25059 21.0555 5.51205 21.2344ZM18.3513 24.9568V28.9201L17.4774 28.2045C16.1908 27.1586 15.9499 26.9866 15.7779 26.9866C15.6885 26.9866 15.2481 27.2481 14.7871 27.5715C14.333 27.8949 13.9408 28.1563 13.9202 28.1563C13.8995 28.1563 13.8789 26.9797 13.8789 25.5417V22.9339L14.1747 22.8582C15.771 22.4454 16.7825 22.0188 17.904 21.2826C18.1311 21.1312 18.3237 21.0074 18.3375 21.0074C18.3444 21.0005 18.3513 22.7826 18.3513 24.9568ZM9.47528 22.8858C10.3285 23.0578 11.4638 23.1541 12.145 23.1128L12.778 23.0784V27.4063C12.778 30.8604 12.7573 31.7342 12.6954 31.6929C12.6472 31.6585 12.1174 31.2388 11.5188 30.7572C10.7207 30.1104 10.3766 29.8765 10.239 29.8765C10.1152 29.8765 9.66106 30.1517 8.78722 30.7778C8.0854 31.2801 7.44551 31.7273 7.36294 31.7893L7.20468 31.8856V27.0417V22.1908L8.0854 22.4867C8.56704 22.6518 9.19318 22.8307 9.47528 22.8858Z" fill="#102c6d"/>
<path d="M10.7691 3.25545C6.916 3.73022 3.86789 6.64071 3.24176 10.4388C3.0835 11.4227 3.13855 12.9502 3.37249 13.8516C3.81285 15.5442 4.61788 16.9272 5.83574 18.0694C7.03297 19.1978 8.53294 19.9684 10.143 20.2918C10.9618 20.4501 12.5306 20.4501 13.3494 20.2918C16.9066 19.5831 19.6726 16.7483 20.2437 13.2048C20.98 8.65673 17.9869 4.30819 13.4801 3.38618C12.6751 3.22793 11.4916 3.16601 10.7691 3.25545ZM12.5512 4.35635C15.3998 4.67286 17.8493 6.59255 18.8057 9.2691C20.1199 12.9571 18.4548 16.9479 14.8906 18.6267C13.3218 19.3698 11.4366 19.535 9.75081 19.0671C9.06275 18.8813 7.82424 18.2689 7.26691 17.8492C5.88391 16.7965 4.89998 15.3378 4.47338 13.714C4.26009 12.8952 4.19128 11.5879 4.31513 10.7347C4.83806 7.13612 7.92057 4.41828 11.6292 4.28754C11.7737 4.28754 12.1865 4.31507 12.5512 4.35635Z" fill="#102c6d"/>
<path d="M11.5057 7.26691C11.3268 7.3426 11.2098 7.54902 10.6869 8.62239C10.3498 9.31733 10.0677 9.8953 10.0677 9.90218C10.0608 9.90218 9.41401 10.0054 8.61586 10.1224C6.99892 10.3632 6.90259 10.4113 6.90259 10.8655C6.90259 11.0994 6.96451 11.182 7.95532 12.1177L9.00805 13.1223L8.76035 14.5535C8.52641 15.8608 8.51953 15.9915 8.60898 16.1773C8.83604 16.6039 9.00805 16.5695 10.4874 15.8057L11.7534 15.1452L12.9369 15.7713C14.1754 16.4319 14.4506 16.5282 14.6983 16.3906C14.9942 16.2323 15.0011 16.0603 14.7396 14.5466L14.4988 13.1292L15.5446 12.1246C16.5286 11.182 16.5905 11.1063 16.5905 10.8655C16.5905 10.4045 16.4804 10.3563 14.946 10.1292C14.1891 10.0192 13.5493 9.92283 13.5217 9.92283C13.4873 9.92283 13.1777 9.33797 12.8199 8.62239C12.2351 7.45957 12.1456 7.31508 11.9461 7.24627C11.8222 7.20499 11.7259 7.17058 11.719 7.17058C11.7121 7.17746 11.6158 7.21875 11.5057 7.26691ZM12.1938 9.8609C12.4208 10.315 12.6685 10.7416 12.7442 10.8173C12.8405 10.9068 13.1089 10.9756 13.6731 11.0581C15.0286 11.2439 14.9735 11.1338 14.141 11.9801C13.7419 12.3792 13.3979 12.7576 13.3841 12.8127C13.3635 12.8746 13.4185 13.3494 13.508 13.8792C13.5974 14.4021 13.6593 14.8493 13.6456 14.8562C13.6318 14.87 13.2327 14.6842 12.7649 14.4365C12.2901 14.1819 11.8429 13.9824 11.7603 13.9824C11.6777 13.9824 11.2236 14.1888 10.7488 14.4365C10.2741 14.6911 9.86813 14.8837 9.86125 14.87C9.84749 14.8562 9.90941 14.409 9.99886 13.8792C10.0883 13.3494 10.164 12.8884 10.164 12.854C10.164 12.8196 9.81996 12.4411 9.39337 12.0076C8.96677 11.5811 8.64338 11.2301 8.6709 11.2301C8.87044 11.2301 10.6112 10.9412 10.7007 10.893C10.7626 10.8586 11.0172 10.4251 11.2649 9.92971C11.5057 9.4343 11.7259 9.02835 11.7465 9.02835C11.7672 9.02835 11.9667 9.3999 12.1938 9.8609Z" fill="#102c6d"/>
</svg>
