<svg width="26" height="26" viewBox="0 0 26 26" fill="none" xmlns="http://www.w3.org/2000/svg">
<path d="M1.71795 0.051651C0.897153 0.24659 0.214866 0.959658 0.0404463 1.81636C-0.175013 2.85775 0.491885 3.98635 1.52814 4.33006L1.78464 4.41726V7.75689V11.1016L1.5384 11.1888C0.974103 11.3889 0.553445 11.7993 0.343115 12.3482C0.255906 12.5893 0.240516 12.7227 0.255906 13.1023C0.281555 13.6461 0.394415 13.918 0.743254 14.3079C0.963843 14.5541 1.49736 14.8722 1.6923 14.8722C1.77951 14.8722 1.78464 15.0056 1.78464 18.258V21.6437L1.64613 21.7002C0.712474 22.049 0.143046 22.839 0.143046 23.7983C0.143046 24.773 0.774034 25.6297 1.69743 25.9119C2.79525 26.2402 3.97001 25.5938 4.35989 24.4396L4.4471 24.1831L7.73542 24.1677C10.8339 24.1574 11.0237 24.1626 11.0494 24.2446C11.2443 24.8397 11.6291 25.2963 12.1369 25.5323C12.3934 25.6554 12.4909 25.6708 12.9424 25.6708C13.4194 25.6708 13.4759 25.6554 13.7683 25.5066C14.271 25.245 14.6301 24.7987 14.7943 24.219C14.8097 24.1728 15.4971 24.1574 18.0159 24.1574H21.2221L21.2837 24.3729C21.6531 25.758 23.2177 26.4095 24.5515 25.7272C24.8337 25.5836 25.2389 25.1937 25.4082 24.9013C25.7468 24.3165 25.7878 23.4752 25.4954 22.8596C25.2748 22.3876 24.8542 21.9721 24.3976 21.772L24.0488 21.6232V18.2733V14.9286L24.3412 14.8465C25.7622 14.431 26.2136 12.6458 25.1466 11.6403C24.8798 11.3889 24.4233 11.1273 24.2437 11.1273C23.9821 11.1273 23.9975 11.3222 23.9975 7.73636C23.9975 4.60708 24.0026 4.40187 24.0898 4.3711C24.7003 4.1659 25.244 3.71446 25.4852 3.20659C26.2341 1.63169 25.0748 -0.0971184 23.3408 0.00547981C22.3713 0.0619106 21.5248 0.795498 21.3196 1.74967L21.2581 2.04721H18.0416H14.8302L14.7943 1.83175C14.743 1.50344 14.466 1.04174 14.1787 0.785238C13.7991 0.45179 13.4553 0.333799 12.8911 0.328671C12.4704 0.328671 12.3986 0.344059 12.0856 0.497959C11.547 0.764717 11.1007 1.32902 11.034 1.84201L11.0032 2.04721H7.73542H4.46762L4.40606 1.77532C4.37528 1.63169 4.2932 1.38545 4.22138 1.23668C4.07261 0.918617 3.59039 0.41588 3.28259 0.256849C2.8209 0.0208702 2.19504 -0.0612087 1.71795 0.051651ZM2.88759 0.954527C3.14409 1.09304 3.38006 1.33928 3.53396 1.63681C3.6776 1.92409 3.69299 2.48326 3.55961 2.77567C3.44675 3.04243 3.20052 3.30919 2.91837 3.47335C2.70804 3.59647 2.63109 3.61186 2.22069 3.61186C1.81029 3.61186 1.73334 3.59647 1.52301 3.47335C1.23573 3.30406 1.03566 3.07834 0.897153 2.77054C0.743254 2.4217 0.784294 1.83688 0.989493 1.50857C1.16904 1.22129 1.4358 0.990437 1.71282 0.887838C2.0001 0.785238 2.62083 0.821148 2.88759 0.954527ZM24.1462 0.975048C24.6695 1.23668 24.9516 1.72915 24.9106 2.31397C24.8747 2.8834 24.572 3.31945 24.0539 3.5503C23.7256 3.69394 23.1254 3.65803 22.8073 3.46822C22.5303 3.30919 22.284 3.04243 22.1712 2.77567C22.0583 2.5243 22.0583 1.92922 22.1712 1.67273C22.5046 0.913488 23.3921 0.600559 24.1462 0.975048ZM13.404 1.22129C13.6349 1.32389 13.8709 1.57525 13.9786 1.82662C14.153 2.25241 13.953 2.86288 13.5477 3.14503C13.0963 3.45796 12.4242 3.37075 12.0703 2.95522C11.5778 2.38066 11.7522 1.53422 12.4294 1.22129C12.6961 1.09817 13.1373 1.09817 13.404 1.22129ZM11.193 3.09373C11.3623 3.43744 11.7522 3.8068 12.1369 3.98635C12.3883 4.10434 12.496 4.12486 12.9167 4.12486C13.3374 4.12486 13.4451 4.10434 13.6965 3.98635C14.0812 3.8068 14.4557 3.45283 14.6301 3.09886L14.7738 2.81671H18.0518H21.3299L21.3863 2.95522C21.5146 3.28867 21.6223 3.46309 21.8737 3.73498C22.1763 4.0633 22.5149 4.2685 22.9253 4.3711L23.2023 4.44291L23.2177 7.7774L23.228 11.1119L22.9202 11.2248C22.5046 11.3787 22.0994 11.7531 21.8839 12.1943C21.73 12.5021 21.7146 12.5791 21.7146 12.9997C21.7146 13.4101 21.7351 13.4973 21.8737 13.7949C21.9609 13.9796 22.1353 14.2309 22.2584 14.354C22.4636 14.5592 23.0074 14.8722 23.1664 14.8722C23.2126 14.8722 23.228 15.575 23.228 18.2272V21.5822L23.0074 21.613C22.2687 21.7258 21.5299 22.3927 21.3042 23.1571L21.2427 23.3623L18.0416 23.3777L14.8404 23.3879L14.6917 23.0545C14.4865 22.5825 14.2146 22.3004 13.7529 22.0695C13.3938 21.8951 13.3322 21.8797 12.9218 21.8797C12.532 21.8797 12.4396 21.9002 12.1318 22.0388C11.6855 22.2491 11.3367 22.6031 11.1417 23.0494L10.993 23.3879L7.7149 23.3777L4.43684 23.3623L4.34963 23.1007C4.11878 22.4286 3.58526 21.9002 2.92863 21.695L2.63109 21.6027L2.6157 18.2477L2.60544 14.8927L2.88759 14.7747C3.2672 14.6157 3.6263 14.2822 3.84176 13.8872C4.01105 13.5794 4.01618 13.5435 4.01618 13.0254C4.01618 12.5483 4.00079 12.4508 3.87767 12.1943C3.69812 11.8096 3.34415 11.4659 2.93889 11.2709L2.60544 11.117V7.76715V4.41726L2.77473 4.38649C3.32876 4.27876 3.93923 3.78115 4.22651 3.19633L4.41632 2.81671H7.73542H11.0596L11.193 3.09373ZM24.3463 12.0096C24.6079 12.1328 24.8029 12.3739 24.9003 12.7022C25.0491 13.1895 24.8337 13.7128 24.3771 13.9796C23.8897 14.2668 23.1715 14.1181 22.8535 13.6615C22.4841 13.1382 22.6431 12.3585 23.1767 12.0558C23.5665 11.8404 23.941 11.825 24.3463 12.0096ZM2.49258 11.9789C3.28773 12.3072 3.4211 13.4255 2.72343 13.9129C2.44641 14.1129 2.0001 14.2155 1.75899 14.1386C1.50762 14.0616 1.17417 13.7641 1.06131 13.5179C0.948453 13.2716 0.933063 12.8356 1.03053 12.5996C1.27164 12.0302 1.93854 11.7429 2.49258 11.9789ZM24.1616 22.5056C24.4951 22.6544 24.6951 22.8442 24.8644 23.193C25.1312 23.7163 25.0748 24.2857 24.7208 24.7525C24.1975 25.4399 23.2126 25.5323 22.5713 24.9526C21.6787 24.1472 22.0429 22.7057 23.2126 22.4132C23.4845 22.3466 23.8949 22.3876 24.1616 22.5056ZM2.83629 22.5364C3.45701 22.8288 3.79559 23.547 3.61091 24.178C3.24669 25.4297 1.57431 25.599 0.979233 24.4447C0.866373 24.2344 0.840724 24.1113 0.840724 23.7983C0.835594 23.4649 0.856114 23.3777 0.984363 23.1417C1.14339 22.8544 1.40502 22.6184 1.6923 22.4902C1.96932 22.3722 2.53362 22.3927 2.83629 22.5364ZM13.4348 22.8134C13.7939 22.9981 13.994 23.3059 14.0299 23.7316C14.0504 23.9881 14.035 24.0651 13.9068 24.3113C13.5426 24.9988 12.691 25.127 12.1421 24.573C11.5932 24.0292 11.7163 23.1674 12.3986 22.8134C12.7628 22.6236 13.0706 22.6236 13.4348 22.8134Z" fill="#3C2FC0"/>
<path d="M12.655 7.12082C12.537 7.21316 12.5319 7.2542 12.5165 7.98266C12.5011 8.69572 12.5062 8.75215 12.6088 8.88553C12.7525 9.06508 13.0552 9.08047 13.2039 8.91631C13.286 8.82397 13.3014 8.71111 13.3168 8.14169C13.327 7.77233 13.3219 7.41836 13.3065 7.35167C13.2296 7.04387 12.891 6.92588 12.655 7.12082Z" fill="#3C2FC0"/>
<path d="M8.73589 7.79282C8.68459 7.84925 8.64355 7.96211 8.64355 8.03906C8.64355 8.23913 9.10525 9.50111 9.20785 9.57293C9.34123 9.67553 9.61825 9.65501 9.73624 9.53702C9.79267 9.48059 9.83884 9.36773 9.83884 9.29078C9.83884 9.1061 9.39766 7.90055 9.28993 7.78256C9.17194 7.65431 8.85388 7.65944 8.73589 7.79282Z" fill="#3C2FC0"/>
<path d="M16.5641 7.77745C16.4461 7.88005 15.9946 9.0856 15.9946 9.30105C15.9946 9.60372 16.4512 9.76788 16.6461 9.53703C16.7693 9.39339 17.1745 8.2648 17.1745 8.06473C17.1745 7.76206 16.7949 7.58764 16.5641 7.77745Z" fill="#3C2FC0"/>
<path d="M5.33451 9.80887C5.11905 10.0346 5.17548 10.1885 5.69874 10.8143C6.1707 11.3889 6.28869 11.4761 6.5298 11.4146C6.6837 11.3735 6.83247 11.1119 6.78117 10.958C6.735 10.8143 5.8629 9.7627 5.75517 9.72166C5.59614 9.6601 5.44224 9.69088 5.33451 9.80887Z" fill="#3C2FC0"/>
<path d="M20.0372 9.74729C19.95 9.79346 19.2728 10.5783 19.1087 10.8195C18.9855 10.9939 19.0009 11.1632 19.1497 11.3068C19.4113 11.5736 19.5857 11.471 20.2065 10.7169C20.663 10.1577 20.7041 10.0346 20.4835 9.81911C20.3552 9.68573 20.186 9.66008 20.0372 9.74729Z" fill="#3C2FC0"/>
<path d="M12.1215 10.2603C10.2337 10.5168 8.2997 11.5736 6.45291 13.364C5.71419 14.0822 5.58081 14.2874 5.58081 14.7234C5.58081 15.1184 5.76549 15.4057 6.43752 16.0572C7.51481 17.0935 8.54594 17.8425 9.65915 18.3914C10.875 18.9864 11.7419 19.2019 12.9167 19.2019C14.0966 19.2019 14.9635 18.9864 16.1742 18.3914C17.3285 17.8219 18.3801 17.0473 19.4369 16.0008C19.7652 15.6725 20.0781 15.3288 20.1294 15.2313C20.2577 14.9902 20.2577 14.4515 20.1294 14.2104C20.0063 13.9745 18.9547 12.9331 18.3545 12.456C16.9899 11.3582 15.5484 10.6246 14.2505 10.3578C13.6349 10.2296 12.6499 10.1885 12.1215 10.2603ZM14.1222 11.1273C15.2662 11.3787 16.6257 12.0764 17.8158 13.0254C18.4468 13.5333 19.4215 14.5131 19.4625 14.6875C19.4933 14.826 19.4472 14.8825 18.811 15.5083C17.1284 17.155 15.4458 18.099 13.6657 18.3862C13.2912 18.4478 12.2703 18.417 11.8599 18.3349C10.1773 17.9912 8.38178 16.9139 6.8274 15.3185C6.49395 14.9851 6.35031 14.7952 6.35031 14.7132C6.35031 14.6208 6.52986 14.4105 7.02747 13.9232C8.8127 12.1687 10.7262 11.1581 12.4806 11.0298C12.9936 10.9939 13.7272 11.035 14.1222 11.1273Z" fill="#3C2FC0"/>
<path d="M12.1474 12.5227C10.7161 13.0203 10.1467 14.744 10.988 16.0162C11.6446 17.0012 12.9836 17.3141 14.0608 16.7293C14.343 16.5805 14.738 16.1752 14.9329 15.8469C15.3126 15.1954 15.3126 14.2771 14.9329 13.5795C14.738 13.2255 14.266 12.7946 13.8557 12.5996C13.5479 12.456 13.4453 12.4355 12.9938 12.4201C12.5629 12.4098 12.4244 12.4252 12.1474 12.5227ZM13.5684 13.3384C14.5072 13.7949 14.7175 15.0672 13.9685 15.8059C13.6658 16.1034 13.3683 16.2214 12.9169 16.2265C12.291 16.2317 11.8242 15.9495 11.5215 15.3698C11.3522 15.0569 11.3522 14.3797 11.5266 14.0514C11.737 13.6461 12.0653 13.3691 12.5065 13.2255C12.7219 13.1537 13.317 13.2152 13.5684 13.3384Z" fill="#3C2FC0"/>
</svg>
