<svg width="38" height="38" viewBox="0 0 38 38" fill="none" xmlns="http://www.w3.org/2000/svg">
<path d="M34.2895 0.118595C32.5453 0.586172 31.6324 2.54555 32.3895 4.1932L32.5899 4.63109L28.1739 9.04711L23.7653 13.4557L23.2903 13.2405C22.8746 13.0475 22.741 13.0252 22.0805 13.0252C21.4199 13.0252 21.2864 13.0475 20.8707 13.2405L20.3957 13.4557L18.4586 11.5186L16.5215 9.58148L16.6774 9.22523C16.9594 8.6018 17.0188 8.31234 16.9817 7.72602C16.9297 6.78344 16.4696 5.96703 15.7125 5.46977C15.1781 5.12094 14.6883 4.9725 14.0649 4.9725C12.484 4.9725 11.2371 6.14516 11.1481 7.72602C11.111 8.31234 11.1703 8.6018 11.4524 9.22523L11.6082 9.58148L8.11994 13.0698L4.62424 16.5655L4.26057 16.3799C2.52385 15.4819 0.430882 16.5655 0.0597883 18.5545C-0.296462 20.4471 1.51448 22.2358 3.42932 21.8944C5.34416 21.5455 6.41291 19.5268 5.61135 17.7752L5.41096 17.3373L8.91409 13.8342L12.4172 10.3311L12.766 10.5166C13.5379 10.9174 14.5992 10.9174 15.3711 10.5092L15.7125 10.3311L17.6719 12.2905L19.6238 14.2424L19.4903 14.5245C18.5477 16.4764 19.75 18.651 21.8653 18.8291C23.0676 18.933 24.218 18.2577 24.7449 17.1444C24.9528 16.7065 24.975 16.5952 24.975 15.9198C24.975 15.2592 24.9528 15.1256 24.7598 14.71L24.5446 14.235L28.9531 9.82641L33.3692 5.41039L33.7922 5.61078C35.5809 6.42719 37.6145 5.3436 37.9485 3.38422C38.1488 2.1893 37.4883 0.897892 36.3899 0.348673C35.7071 0.007267 35.002 -0.0743752 34.2895 0.118595ZM35.6328 1.20219C36.3305 1.41 36.8871 2.19672 36.8871 2.97602C36.8871 4.61625 34.8535 5.41781 33.7254 4.21547C33.3469 3.81469 33.2207 3.50297 33.2133 2.9686C33.2133 1.67719 34.386 0.823673 35.6328 1.20219ZM14.8145 6.19711C15.9723 6.67953 16.2617 8.29008 15.3563 9.19555C15 9.5518 14.5918 9.7225 14.0649 9.7225C12.2985 9.7225 11.5489 7.48852 12.9516 6.41234C13.4563 6.03383 14.2059 5.94477 14.8145 6.19711ZM22.9117 14.2647C23.8246 14.6877 24.1957 15.8678 23.7059 16.7733C23.3571 17.4116 22.8004 17.7381 22.0656 17.7381C20.9746 17.7307 20.2028 16.8846 20.277 15.7788C20.3586 14.4651 21.6946 13.6932 22.9117 14.2647ZM3.49612 17.2334C4.61682 17.612 5.12893 18.8663 4.56487 19.8756C4.08244 20.7588 2.98401 21.1002 2.10823 20.6475C1.03205 20.0909 0.77971 18.6065 1.61838 17.7084C2.06369 17.2334 2.88752 17.0256 3.49612 17.2334Z" fill="#3C2FC0"/>
<path d="M31.3203 24.6035V38H34.6602H38V24.6035V11.207H34.6602H31.3203V24.6035ZM36.8867 24.6035V36.8867H34.623H32.3594V24.6035V12.3203H34.623H36.8867V24.6035Z" fill="#3C2FC0"/>
<path d="M10.4648 29.8359V38H13.8047H17.1445V29.8359V21.6719H13.8047H10.4648V29.8359ZM16.0312 29.8359V36.8867H13.7676H11.5039V29.8359V22.7852H13.7676H16.0312V29.8359Z" fill="#3C2FC0"/>
<path d="M20.8555 30.2441V38H24.1953H27.5352V30.2441V22.4883H24.1953H20.8555V30.2441ZM26.4812 30.2219L26.4961 36.8867H24.2324H21.9688V30.207V23.5273L24.2176 23.5422L26.459 23.5645L26.4812 30.2219Z" fill="#3C2FC0"/>
<path d="M0 31.8398V38H3.33984H6.67969V31.8398V25.6797H3.33984H0V31.8398ZM5.64062 31.8398V36.8867H3.37695H1.11328V31.8398V26.793H3.37695H5.64062V31.8398Z" fill="#3C2FC0"/>
</svg>
