<svg width="80" height="80" viewBox="0 0 80 80" fill="none" xmlns="http://www.w3.org/2000/svg">
<circle cx="40" cy="40" r="40" fill="url(#paint0_linear_39_143)"/>
<path d="M34.3825 20.1034C32.9188 20.379 31.3982 21.5671 30.7234 22.9737C30.2577 23.9526 30.1531 24.5419 30.1531 26.2336V27.5927H25.0589C21.3332 27.5927 19.8506 27.6212 19.5654 27.7068C19.0142 27.8683 18.2538 28.6477 18.0923 29.2084C18.0067 29.5316 17.9877 30.7291 18.0067 34.0081L18.0352 38.38L18.3394 39.0168C18.501 39.3684 18.8336 39.8436 19.0712 40.0907L19.5084 40.5184L19.5274 49.3383L19.5559 58.1582L19.9076 58.8806C20.3353 59.7454 20.8865 60.2777 21.7704 60.6959L22.4072 61H40.0375H57.6678L58.3046 60.6959C59.1885 60.2777 59.7397 59.7454 60.1674 58.8806L60.519 58.1582L60.5476 49.3573L60.5666 40.5469L61.0038 40.0907C61.2509 39.8436 61.574 39.3494 61.7451 39.0073L62.0397 38.38L62.0682 34.0081C62.0872 30.7291 62.0682 29.5316 61.9827 29.2084C61.8211 28.6477 61.0608 27.8683 60.5095 27.7068C60.2244 27.6212 58.7418 27.5927 55.0161 27.5927H49.9219V26.2336C49.9219 24.5419 49.8173 23.9526 49.3516 22.9737C48.6578 21.5195 47.1561 20.3695 45.6069 20.0939C44.9036 19.9608 35.0668 19.9703 34.3825 20.1034ZM46.1392 21.8617C47.0231 22.2799 47.5743 22.8121 48.002 23.677L48.3537 24.3993L48.3917 25.996L48.4202 27.5927H47.6504H46.8805V26.3001C46.8805 25.5588 46.833 24.8365 46.7665 24.6084C46.6144 24.0857 45.8255 23.2968 45.3028 23.1447C45.0177 23.0592 43.5826 23.0307 40.0375 23.0307C36.4924 23.0307 35.0573 23.0592 34.7722 23.1447C34.2494 23.2968 33.4606 24.0857 33.3085 24.6084C33.242 24.8365 33.1945 25.5588 33.1945 26.3001V27.5927H32.4246H31.6548L31.6928 25.996C31.7213 24.4468 31.7308 24.3993 32.0254 23.772C32.187 23.4204 32.5006 22.9452 32.7097 22.7171C33.1279 22.2609 33.9928 21.7571 34.5821 21.6146C34.7912 21.5671 37.2337 21.529 40.2276 21.5385L45.5024 21.5575L46.1392 21.8617ZM45.1222 24.789C45.3503 25.0076 45.3598 25.0646 45.3598 26.3097V27.5927H40.0375H34.7151V26.3097C34.7151 25.0646 34.7246 25.0076 34.9527 24.789L35.1808 24.5514H40.0375H44.8941L45.1222 24.789ZM60.329 29.351L60.5666 29.5791V33.6849C60.5666 36.6312 60.538 37.8953 60.4525 38.1804C60.3004 38.7031 59.5116 39.492 58.9889 39.6441C58.6942 39.7296 56.8979 39.7581 51.9748 39.7581H45.3598V39.2259C45.3598 38.9312 45.3123 38.5131 45.2458 38.2945C45.0937 37.7717 44.3049 36.9829 43.7821 36.8308C43.2309 36.6692 36.8441 36.6692 36.2928 36.8308C35.7701 36.9829 34.9812 37.7717 34.8292 38.2945C34.7626 38.5131 34.7151 38.9312 34.7151 39.2259V39.7581H28.1002C23.177 39.7581 21.3807 39.7296 21.0861 39.6441C20.5634 39.492 19.7745 38.7031 19.6225 38.1804C19.5369 37.8953 19.5084 36.6312 19.5084 33.6849V29.5791L19.746 29.351L19.9741 29.1134H40.0375H60.1009L60.329 29.351ZM43.6016 38.475C43.8392 38.7031 43.8392 38.7221 43.8392 40.5184C43.8392 42.3147 43.8392 42.3337 43.6016 42.5618L43.3735 42.7994H40.0375H36.7015L36.4734 42.5618C36.2358 42.3337 36.2358 42.3147 36.2358 40.5184C36.2358 38.7221 36.2358 38.7031 36.4734 38.475L36.7015 38.2374H40.0375H43.3735L43.6016 38.475ZM28.0242 41.2788H34.7151V41.811C34.7151 42.6379 34.8862 43.0751 35.4279 43.6073C35.8651 44.054 36.3974 44.3201 36.8251 44.3201C36.9391 44.3201 36.9771 44.4912 37.0151 45.0995C37.1007 46.3825 37.5854 47.1809 38.6309 47.7511C39.1821 48.0458 39.2962 48.0743 40.0375 48.0648C40.7218 48.0648 40.9214 48.0268 41.3301 47.8177C42.0429 47.447 42.347 47.1524 42.6987 46.4966C42.9553 46.0119 43.0123 45.7838 43.0598 45.1185C43.0978 44.4912 43.1359 44.3201 43.2499 44.3201C43.6776 44.3201 44.2098 44.054 44.647 43.6073C45.1888 43.0751 45.3598 42.6379 45.3598 41.811V41.2788H52.0508C55.7289 41.2788 58.8083 41.2503 58.8938 41.2217C59.0364 41.1647 59.0459 41.9251 59.0459 49.3573C59.0459 55.5161 59.0174 57.6545 58.9318 57.9492C58.7798 58.4719 57.9909 59.2607 57.4682 59.4128C56.8979 59.5839 23.177 59.5839 22.6068 59.4128C22.084 59.2607 21.2952 58.4719 21.1431 57.9492C21.0576 57.6545 21.0291 55.5161 21.0291 49.3573C21.0291 41.9251 21.0386 41.1647 21.1811 41.2217C21.2667 41.2503 24.346 41.2788 28.0242 41.2788ZM41.5391 44.9854C41.4916 45.9358 41.0354 46.4776 40.2086 46.5726C39.6573 46.6391 39.1821 46.4301 38.84 45.9834C38.6214 45.6887 38.5643 45.5081 38.5358 44.9759L38.4978 44.3201H40.0375H41.5772L41.5391 44.9854Z" fill="#102c6d"/>
<defs>
<linearGradient id="paint0_linear_39_143" x1="14" y1="2" x2="68" y2="84" gradientUnits="userSpaceOnUse">
<stop stop-color="#EFEDFF"/>
<stop offset="0.76197" stop-color="#EFEDFF" stop-opacity="0"/>
</linearGradient>
</defs>
</svg>
