<svg width="35" height="23" viewBox="0 0 35 23" fill="none" xmlns="http://www.w3.org/2000/svg">
<path d="M27.9878 2.21773C26.3253 3.50481 25.0717 4.53045 25.0181 4.631C24.9578 4.75837 24.9511 4.84551 24.998 4.93936C25.065 5.05332 25.0248 5.08684 24.6293 5.24102C23.9924 5.49576 23.3757 5.58961 22.8528 5.50246C22.6182 5.46224 21.787 5.22091 21.0161 4.97288C19.7491 4.55726 19.5547 4.51034 19.0721 4.51034C18.5894 4.51034 18.4821 4.53715 17.9928 4.76507L17.4498 5.02651L16.9873 4.87903C16.3906 4.69133 16.1158 4.69804 14.5472 4.89914C13.3405 5.06003 12.3886 5.14717 10.7127 5.24773L10.0558 5.28795L10.1161 5.12706C10.1496 5.03321 10.1631 4.89914 10.1429 4.8187C10.1228 4.73826 8.9229 3.76624 7.19338 2.42554C4.14327 0.0591888 4.04272 -0.0011425 3.77458 0.273703C3.70084 0.340738 3.18467 2.47246 2.26628 6.46777C1.50208 9.81284 0.871948 12.6216 0.871948 12.7021C0.871948 12.9032 1.07976 13.0439 2.58805 13.8886C4.10976 14.7399 4.1835 14.7533 4.51197 14.264L4.73319 13.9355L5.11529 14.2104L5.49068 14.4852L5.34991 14.76C5.15551 15.1354 5.11529 15.7656 5.25606 16.1879C5.47057 16.8381 6.11411 17.361 6.79787 17.4549C7.09283 17.4951 7.09283 17.5018 7.13976 17.8102C7.29394 18.8224 8.07155 19.5196 9.05026 19.5196H9.4927L9.61336 19.9151C9.76754 20.4446 10.2636 20.9608 10.7865 21.1351C11.2021 21.2692 11.7987 21.2491 12.1339 21.0815C12.3283 20.9809 12.3417 20.9809 12.3819 21.0882C12.697 22.0267 13.488 22.5831 14.3796 22.4892C14.8488 22.4423 15.1706 22.268 15.7806 21.7317C16.1493 21.41 16.3236 21.3027 16.404 21.3362C16.4711 21.3563 17.0007 21.6513 17.5839 21.9865C18.1604 22.3216 18.7503 22.63 18.8911 22.6836C19.4407 22.878 20.1714 22.7373 20.6273 22.3417C20.9222 22.087 21.2507 21.5172 21.2507 21.2491C21.2507 21.1083 21.2708 21.0949 21.4049 21.1351C21.7669 21.2491 22.3836 21.2491 22.7322 21.1351C23.3288 20.934 23.845 20.2972 23.9187 19.6603L23.9455 19.3922L24.3276 19.3788C25.2862 19.3587 26.0437 18.6347 26.1376 17.656L26.1778 17.2471L26.4996 17.2001C27.3241 17.0862 28.0146 16.3086 28.0414 15.4639L28.0548 15.1354L29.0536 14.15C29.5966 13.6003 30.0591 13.1847 30.0726 13.2249C30.1396 13.3992 30.8166 14.3645 30.9105 14.4182C31.0848 14.5254 31.2658 14.445 32.7473 13.607C33.8131 13.0037 34.1684 12.7758 34.2153 12.6484C34.2891 12.4272 31.5607 0.441292 31.3797 0.186556C31.1049 -0.195545 31.0982 -0.195545 27.9878 2.21773ZM32.0099 6.74932C32.6936 9.7525 33.2366 12.2261 33.2031 12.2596C33.1763 12.2864 32.7205 12.5546 32.1976 12.8428L31.2457 13.3791L30.9574 12.9032C30.7965 12.635 30.6491 12.3669 30.6222 12.2998C30.5954 12.2328 30.4949 12.0853 30.4077 11.9647C30.3206 11.844 29.3084 10.215 28.1553 8.33806C26.332 5.36169 26.0772 4.91925 26.1644 4.83211C26.2851 4.71144 30.7295 1.26583 30.7496 1.27923C30.7496 1.28594 31.3194 3.74614 32.0099 6.74932ZM6.76436 3.26348C8.01792 4.2422 9.05026 5.05332 9.05026 5.08014C9.05026 5.12706 3.97569 13.3925 3.89524 13.473C3.86173 13.5132 2.01825 12.5412 1.88418 12.4205C1.87078 12.4004 4.0025 2.98864 4.30416 1.74178C4.34438 1.58089 4.39801 1.46023 4.42482 1.47364C4.45164 1.48704 5.50409 2.29147 6.76436 3.26348ZM20.815 5.88456C21.606 6.146 22.4774 6.38733 22.7523 6.42755C23.4293 6.5147 24.0863 6.42085 24.9108 6.11248C25.2661 5.98512 25.5611 5.88456 25.5678 5.89797C25.5946 5.93149 29.4424 12.2127 29.4826 12.2797C29.4961 12.3066 29.0938 12.7557 28.5844 13.2652L27.6593 14.1969L27.3844 13.9355C27.0292 13.5936 19.8899 7.78837 19.7022 7.69452C19.5815 7.62748 19.4542 7.661 18.8374 7.95596C17.8721 8.4118 17.2353 8.57938 16.3906 8.58609C15.8745 8.59279 15.613 8.55927 15.251 8.44531C14.6812 8.27102 14.2455 8.02969 14.2455 7.89562C14.2455 7.83529 15.1036 7.33923 16.4912 6.60855C18.4955 5.54268 18.7704 5.41532 19.0586 5.41532C19.2799 5.41532 19.8363 5.56279 20.815 5.88456ZM16.1225 5.72368C16.0488 5.77731 15.4924 6.08567 14.8823 6.40074C14.2723 6.72251 13.6958 7.06439 13.5953 7.15824C13.3405 7.41297 13.2333 7.82859 13.3271 8.15706C13.4545 8.55927 13.6422 8.74697 14.2321 9.03523C15.0566 9.43073 15.546 9.52458 16.5917 9.48436C17.5503 9.44414 17.9727 9.35029 18.938 8.93467C19.4542 8.71346 19.5279 8.69335 19.6284 8.78719C19.6888 8.84082 21.311 10.1547 23.2282 11.7166C25.1455 13.2719 26.7945 14.6394 26.8951 14.7466C27.1096 14.988 27.1833 15.3634 27.0828 15.6382C26.9085 16.1075 26.3923 16.4024 25.9633 16.2817C25.8493 16.2482 24.4952 15.3097 22.9534 14.1969C21.4049 13.0842 20.0441 12.1256 19.9301 12.0652C19.7558 11.9848 19.6754 11.9781 19.5413 12.0384C19.3134 12.1457 19.2128 12.4138 19.3201 12.6417C19.3737 12.7423 20.4932 13.5936 22.1557 14.7936C23.8718 16.0337 24.9578 16.865 25.0516 17.0057C25.2259 17.2672 25.2527 17.6023 25.1052 17.8772C24.8103 18.4604 24.1399 18.6012 23.5902 18.2057C23.4293 18.085 22.2428 17.2404 20.9557 16.3287C19.0452 14.9746 18.5693 14.6662 18.395 14.6662C18.1403 14.6662 17.966 14.8606 17.966 15.1489C17.966 15.3768 18.0263 15.4237 20.5938 17.2404C21.7267 18.0448 22.7322 18.7889 22.826 18.9028C23.2752 19.4324 22.8394 20.2972 22.1155 20.2972C21.7535 20.2972 22.0015 20.4513 18.9782 18.3531C16.8733 16.8985 16.7392 16.8247 16.4778 17.1398C16.3236 17.3409 16.3236 17.5554 16.4912 17.7297C16.5649 17.8102 17.3895 18.4068 18.3347 19.057C19.2732 19.7073 20.1044 20.3173 20.1781 20.4111C20.4932 20.8066 20.3725 21.3831 19.9167 21.6848C19.5145 21.9596 19.3067 21.906 18.1269 21.229C17.5436 20.8938 17.0476 20.6055 17.0342 20.5921C17.0141 20.5787 17.0543 20.4513 17.1213 20.3173C17.6442 19.2246 16.8867 17.8772 15.6532 17.7029C15.3717 17.6694 15.3516 17.6493 15.3181 17.4213C15.184 16.6303 14.6678 15.9734 14.0176 15.779C13.8165 15.7187 13.5819 15.6717 13.5014 15.6717C13.374 15.6717 13.3405 15.6248 13.307 15.417C13.193 14.7265 12.8512 14.2171 12.2814 13.8819C11.859 13.6339 11.1418 13.5869 10.6926 13.788C10.5183 13.8618 10.3642 13.9288 10.3575 13.9288C10.3507 13.9288 10.3239 13.8484 10.3038 13.7411C10.2368 13.426 9.86809 12.93 9.54632 12.7222C9.1173 12.454 8.61453 12.3535 8.15199 12.454C7.71626 12.5412 7.45482 12.7088 6.76436 13.3322C6.48281 13.5869 6.21467 13.7947 6.16774 13.7947C6.12752 13.7947 5.9063 13.654 5.67838 13.4797C5.45046 13.3121 5.24936 13.1579 5.23595 13.1512C5.22254 13.1378 6.16774 11.5826 7.33416 9.68547L9.45918 6.23315L10.3776 6.19293C11.8657 6.11919 13.7964 5.9516 14.9628 5.78401C16.337 5.59631 16.2901 5.59631 16.1225 5.72368ZM9.02345 13.4931C9.41896 13.7545 9.57314 14.3712 9.33181 14.7466C9.27148 14.8472 8.81564 15.2762 8.33298 15.6985C7.19338 16.684 6.90513 16.7577 6.35544 16.2147C6.12752 15.9868 6.10071 15.9198 6.10071 15.6315C6.10741 15.4505 6.14093 15.236 6.18785 15.1556C6.30181 14.9544 7.89725 13.5333 8.14529 13.4193C8.38661 13.3054 8.78883 13.3389 9.02345 13.4931ZM11.906 14.7332C12.3417 15.0081 12.4959 15.6248 12.2344 16.0471C12.1808 16.1276 11.5373 16.7175 10.7999 17.3677C9.36533 18.628 9.22456 18.7084 8.75531 18.5542C8.46035 18.4604 8.13188 18.0917 8.07825 17.79C7.9911 17.361 8.13188 17.1331 8.90279 16.4627C9.29159 16.1209 9.86139 15.6181 10.1563 15.3433C10.4513 15.0751 10.7865 14.7936 10.8937 14.7265C11.1619 14.5589 11.6177 14.5589 11.906 14.7332ZM14.0042 16.7912C14.098 16.865 14.2321 17.0594 14.2991 17.2202C14.4064 17.4683 14.4131 17.5688 14.3528 17.79C14.2924 18.018 14.1248 18.199 13.2132 19.0101C12.63 19.533 12.0333 20.0357 11.8993 20.1296C11.2691 20.5519 10.458 20.1162 10.458 19.352C10.458 19.1844 10.5049 18.99 10.5586 18.9028C10.706 18.7017 12.8244 16.8314 13.0523 16.7041C13.2936 16.5767 13.7696 16.6169 14.0042 16.7912ZM16.0689 18.9028C16.337 19.1777 16.4242 19.5665 16.2901 19.9017C16.2029 20.1028 15.0298 21.2156 14.6477 21.4502C14.2522 21.6915 13.6623 21.544 13.4076 21.1351C13.2668 20.9005 13.2333 20.5452 13.3338 20.2771C13.3942 20.1229 14.7483 18.876 15.0499 18.695C15.1237 18.6548 15.3315 18.628 15.5058 18.6414C15.7739 18.6682 15.8812 18.7151 16.0689 18.9028Z" fill="#3C2FC0"/>
</svg>
