<svg width="21" height="20" viewBox="0 0 21 20" fill="none" xmlns="http://www.w3.org/2000/svg">
<path d="M3.22274 0.0554771C3.11714 0.0906773 2.57741 0.395742 2.02986 0.728188C0.90737 1.40872 0.664882 1.61601 0.410661 2.09316C0.129061 2.63289 -0.0391158 3.61849 0.00781738 4.48284C0.172084 7.52177 2.33492 11.0848 6.32816 14.902C9.3749 17.8119 12.1987 19.4976 14.7175 19.9121C15.883 20.1038 17.1893 19.9747 17.9128 19.5953C18.39 19.345 18.5973 19.0986 19.2778 17.9761C19.6102 17.4286 19.9114 16.8889 19.9505 16.7833C20.0326 16.5408 20.0366 16.3296 19.9622 16.0753C19.8449 15.6764 19.8058 15.6451 17.5608 14.1472C16.4071 13.3767 15.3824 12.704 15.2885 12.657C15.0734 12.5475 14.7214 12.5123 14.4867 12.5788C14.1386 12.6766 14.0056 12.8018 13.3095 13.6974C12.9418 14.1667 12.6094 14.5813 12.5703 14.6126C12.5272 14.6478 12.4177 14.6713 12.2808 14.6713C12.0814 14.6713 12.0188 14.6439 11.5925 14.4014C10.5013 13.7795 9.72299 13.1616 8.46753 11.9218C7.00478 10.4786 6.28904 9.60247 5.6398 8.46434C5.31518 7.89723 5.26434 7.7095 5.36994 7.50612C5.40514 7.43181 5.76887 7.12284 6.29687 6.71217C7.20033 6.00817 7.3294 5.87519 7.42717 5.51928C7.49366 5.28462 7.45846 4.93262 7.34895 4.71751C7.30202 4.62364 6.62931 3.59893 5.85882 2.44516C4.36087 0.200188 4.32958 0.161077 3.93065 0.043745C3.67643 -0.0305672 3.46523 -0.0266552 3.22274 0.0554771ZM3.81332 0.716454C3.93847 0.779032 4.14576 1.06845 5.31518 2.82063C6.0622 3.9392 6.70362 4.91306 6.74273 4.98738C6.82486 5.15164 6.80531 5.37457 6.69189 5.51928C6.64887 5.57013 6.28122 5.87519 5.87838 6.18808C5.0062 6.8647 4.91234 6.95075 4.77545 7.1815C4.68158 7.33795 4.66985 7.39661 4.66985 7.72906V8.10061L4.93971 8.5895C5.65153 9.86843 6.36727 10.7719 7.79873 12.2073C9.23019 13.6387 10.1376 14.3545 11.4087 15.0624C11.8545 15.3088 11.9132 15.3283 12.1752 15.3479C12.5272 15.3713 12.7854 15.2931 13.0083 15.1054C13.0904 15.0311 13.4503 14.6009 13.7984 14.1472C14.4476 13.3141 14.5649 13.2046 14.7996 13.2046C14.8544 13.2046 14.9521 13.232 15.0147 13.2633C15.0734 13.2946 16.0472 13.936 17.1736 14.6908C19.3795 16.1731 19.3912 16.1809 19.3443 16.4782C19.3091 16.6816 18.2023 18.4924 17.9676 18.7232C17.5882 19.1025 17.0015 19.2864 16.0511 19.3294C13.947 19.4272 11.3344 18.2734 8.62006 16.048C7.52495 15.1484 5.99571 13.6935 5.02576 12.6179C2.42488 9.74718 1.02079 7.2519 0.715726 4.94044C0.598393 4.07218 0.711815 2.99663 0.969948 2.46863C1.15768 2.08534 1.42755 1.86632 2.46008 1.24836C2.96461 0.947208 3.40656 0.689075 3.43785 0.677343C3.54736 0.638231 3.66861 0.649965 3.81332 0.716454Z" fill="#102c6d"/>
<path d="M11.2599 2.67201C11.0253 2.75805 10.9431 3.06312 11.1152 3.22347C11.1934 3.29778 11.2795 3.31734 11.698 3.34863C12.2885 3.39165 12.6836 3.46987 13.1568 3.63023C14.7408 4.16996 16.0236 5.39413 16.622 6.93902C16.8372 7.50222 17.0053 8.3079 17.0092 8.80461C17.0092 9.07448 17.0679 9.20746 17.2087 9.28959C17.33 9.35608 17.4864 9.32479 17.5959 9.20746C17.6585 9.13706 17.6741 9.07057 17.6741 8.83199C17.6741 8.23359 17.4981 7.34968 17.2478 6.70435C16.4265 4.58845 14.4475 3.02401 12.2181 2.72676C11.8075 2.67592 11.3342 2.64854 11.2599 2.67201Z" fill="#102c6d"/>
<path d="M11.1154 4.76434C10.9941 4.8934 10.9941 5.1046 11.1193 5.22194C11.1975 5.29625 11.2796 5.3158 11.6121 5.34318C12.1244 5.39011 12.5233 5.49963 12.9614 5.71474C13.6537 6.055 14.2364 6.62993 14.5923 7.3222C14.8505 7.81891 15.0147 8.44468 15.0147 8.91402C15.0147 9.07046 15.0343 9.12522 15.1281 9.21908C15.2807 9.3677 15.4176 9.3677 15.5701 9.21126C15.6913 9.09393 15.6913 9.09393 15.6679 8.75366C15.5975 7.69766 15.1633 6.71598 14.432 5.97287C13.6654 5.19065 12.6993 4.74478 11.6512 4.69003C11.2131 4.67047 11.2014 4.67047 11.1154 4.76434Z" fill="#102c6d"/>
<path d="M11.1233 6.77081C10.9356 6.95463 11.0333 7.26361 11.2875 7.31445C11.3462 7.32619 11.4909 7.34574 11.6043 7.36139C11.9094 7.39659 12.3044 7.6117 12.5469 7.86592C12.7972 8.13187 12.9263 8.40174 12.9811 8.78503C13.0319 9.13312 13.0749 9.23089 13.204 9.28956C13.3448 9.35214 13.4347 9.3404 13.5482 9.24263C13.6811 9.1292 13.7085 8.92192 13.6303 8.55818C13.4426 7.66254 12.7972 6.97028 11.9407 6.75126C11.5105 6.64174 11.2445 6.64566 11.1233 6.77081Z" fill="#102c6d"/>
</svg>
