<svg width="207" height="46" viewBox="0 0 207 46" fill="none" xmlns="http://www.w3.org/2000/svg">
<path d="M68.075 4.7V4H75.45C77.5833 4 79.2167 4.625 80.35 5.875C81.5 7.125 82.075 9.06667 82.075 11.7V13.275C82.075 15.9083 81.5 17.8583 80.35 19.125C79.2167 20.375 77.5833 21 75.45 21H68.075V20.3L69.45 20.125C69.7167 20.0917 69.875 20.025 69.925 19.925C69.975 19.8083 70 19.4667 70 18.9V6.1C70 5.53333 69.975 5.2 69.925 5.1C69.875 4.98333 69.7167 4.90833 69.45 4.875L68.075 4.7ZM75.325 4.875H73V20.125H75.325C76.175 20.125 76.8583 19.9833 77.375 19.7C77.8917 19.4 78.2667 18.85 78.5 18.05C78.75 17.2333 78.875 16.0583 78.875 14.525V10.45C78.875 8.91667 78.75 7.75 78.5 6.95C78.2667 6.15 77.8917 5.60833 77.375 5.325C76.8583 5.025 76.175 4.875 75.325 4.875ZM97.0486 20.375C96.782 20.625 96.457 20.8333 96.0736 21C95.707 21.1667 95.257 21.25 94.7236 21.25C94.0403 21.25 93.4653 21.1 92.9986 20.8C92.5486 20.5 92.2486 20.075 92.0986 19.525C91.5486 20.125 90.9403 20.5667 90.2736 20.85C89.6236 21.1167 88.957 21.25 88.2736 21.25C87.1236 21.25 86.2653 20.9333 85.6986 20.3C85.132 19.65 84.8486 18.8417 84.8486 17.875C84.8486 16.8917 85.207 16.1 85.9236 15.5C86.6403 14.8833 87.907 14.575 89.7236 14.575H91.9986V12.55C91.9986 11.1667 91.8153 10.225 91.4486 9.725C91.0986 9.20833 90.607 8.95 89.9736 8.95C89.557 8.95 89.1736 9.05833 88.8236 9.275C88.4736 9.475 88.2236 9.85833 88.0736 10.425C87.9403 10.975 87.9653 11.775 88.1486 12.825L85.3986 12.425C85.2653 11.6583 85.3486 10.95 85.6486 10.3C85.9653 9.63333 86.4903 9.1 87.2236 8.7C87.957 8.28333 88.8903 8.075 90.0236 8.075C91.307 8.075 92.2986 8.28333 92.9986 8.7C93.6986 9.11667 94.182 9.66667 94.4486 10.35C94.732 11.0333 94.8736 11.7667 94.8736 12.55V18.325C94.8736 19.175 94.9486 19.7083 95.0986 19.925C95.2486 20.1417 95.4153 20.25 95.5986 20.25C95.8986 20.25 96.232 20.075 96.5986 19.725L97.0486 20.375ZM89.3736 19.925C89.807 19.925 90.232 19.8167 90.6486 19.6C91.082 19.3667 91.532 18.9417 91.9986 18.325V15.45H90.1236C89.307 15.45 88.7153 15.6417 88.3486 16.025C87.982 16.4083 87.7986 17.0083 87.7986 17.825C87.7986 18.4917 87.932 19.0083 88.1986 19.375C88.4653 19.7417 88.857 19.925 89.3736 19.925ZM106.651 18.4C106.434 19.4167 106.017 20.15 105.401 20.6C104.801 21.0333 104.067 21.25 103.201 21.25C102.317 21.25 101.592 21.0583 101.026 20.675C100.459 20.275 100.042 19.75 99.7758 19.1C99.5091 18.45 99.3758 17.7583 99.3758 17.025V10.425C99.3758 9.85833 99.3508 9.525 99.3008 9.425C99.2508 9.30833 99.0924 9.23333 98.8258 9.2L97.4508 9.025V8.325H99.3758V5.425L102.251 4.85V8.325H106.251V9.2H102.251V17.525C102.251 18.5917 102.384 19.3333 102.651 19.75C102.917 20.15 103.259 20.35 103.676 20.35C104.109 20.35 104.442 20.1833 104.676 19.85C104.926 19.5167 105.084 18.9083 105.151 18.025L106.651 18.4ZM120.364 20.375C120.097 20.625 119.772 20.8333 119.389 21C119.022 21.1667 118.572 21.25 118.039 21.25C117.356 21.25 116.781 21.1 116.314 20.8C115.864 20.5 115.564 20.075 115.414 19.525C114.864 20.125 114.256 20.5667 113.589 20.85C112.939 21.1167 112.272 21.25 111.589 21.25C110.439 21.25 109.581 20.9333 109.014 20.3C108.447 19.65 108.164 18.8417 108.164 17.875C108.164 16.8917 108.522 16.1 109.239 15.5C109.956 14.8833 111.222 14.575 113.039 14.575H115.314V12.55C115.314 11.1667 115.131 10.225 114.764 9.725C114.414 9.20833 113.922 8.95 113.289 8.95C112.872 8.95 112.489 9.05833 112.139 9.275C111.789 9.475 111.539 9.85833 111.389 10.425C111.256 10.975 111.281 11.775 111.464 12.825L108.714 12.425C108.581 11.6583 108.664 10.95 108.964 10.3C109.281 9.63333 109.806 9.1 110.539 8.7C111.272 8.28333 112.206 8.075 113.339 8.075C114.622 8.075 115.614 8.28333 116.314 8.7C117.014 9.11667 117.497 9.66667 117.764 10.35C118.047 11.0333 118.189 11.7667 118.189 12.55V18.325C118.189 19.175 118.264 19.7083 118.414 19.925C118.564 20.1417 118.731 20.25 118.914 20.25C119.214 20.25 119.547 20.075 119.914 19.725L120.364 20.375ZM112.689 19.925C113.122 19.925 113.547 19.8167 113.964 19.6C114.397 19.3667 114.847 18.9417 115.314 18.325V15.45H113.439C112.622 15.45 112.031 15.6417 111.664 16.025C111.297 16.4083 111.114 17.0083 111.114 17.825C111.114 18.4917 111.247 19.0083 111.514 19.375C111.781 19.7417 112.172 19.925 112.689 19.925ZM134.882 21.25C133.349 21.25 132.049 20.925 130.982 20.275C129.915 19.6083 129.107 18.675 128.557 17.475C128.007 16.275 127.732 14.875 127.732 13.275V11.7C127.732 10.1 127.974 8.70833 128.457 7.525C128.957 6.325 129.699 5.4 130.682 4.75C131.665 4.08333 132.899 3.75 134.382 3.75C135.649 3.75 136.707 4 137.557 4.5C138.407 4.98333 139.032 5.63333 139.432 6.45C139.849 7.25 140.024 8.125 139.957 9.075L137.032 9.8C137.199 8.13333 137.024 6.85833 136.507 5.975C136.007 5.075 135.257 4.625 134.257 4.625C133.19 4.625 132.365 5.075 131.782 5.975C131.215 6.875 130.932 8.36667 130.932 10.45V14.525C130.932 16.5917 131.257 18.0833 131.907 19C132.557 19.9167 133.549 20.375 134.882 20.375C135.432 20.375 135.94 20.275 136.407 20.075C136.89 19.875 137.29 19.5333 137.607 19.05C137.94 18.55 138.149 17.85 138.232 16.95L140.032 17.425C139.799 18.3583 139.424 19.1083 138.907 19.675C138.39 20.2417 137.782 20.65 137.082 20.9C136.399 21.1333 135.665 21.25 134.882 21.25ZM152.849 18.025C152.549 19.1917 151.991 20.025 151.174 20.525C150.357 21.0083 149.407 21.25 148.324 21.25C146.324 21.25 144.824 20.675 143.824 19.525C142.824 18.3583 142.324 16.8167 142.324 14.9V14.4C142.324 12.4833 142.791 10.95 143.724 9.8C144.674 8.65 146.041 8.075 147.824 8.075C148.824 8.075 149.707 8.275 150.474 8.675C151.257 9.05833 151.866 9.61667 152.299 10.35C152.749 11.0833 152.974 11.975 152.974 13.025C152.974 13.275 152.957 13.5417 152.924 13.825C152.907 14.1083 152.866 14.3917 152.799 14.675H145.399V15.4C145.399 17.1667 145.649 18.4417 146.149 19.225C146.649 19.9917 147.457 20.375 148.574 20.375C149.291 20.375 149.899 20.1667 150.399 19.75C150.899 19.3167 151.182 18.5917 151.249 17.575L152.849 18.025ZM147.824 8.95C147.007 8.95 146.399 9.325 145.999 10.075C145.599 10.825 145.399 12.0667 145.399 13.8H149.924C149.991 13.4667 150.032 13.1583 150.049 12.875C150.082 12.575 150.099 12.3 150.099 12.05C150.099 10.9833 149.891 10.2 149.474 9.7C149.057 9.2 148.507 8.95 147.824 8.95ZM169.531 20.3V21H162.806V20.3L164.181 20.125C164.448 20.0917 164.606 20.025 164.656 19.925C164.706 19.8083 164.731 19.4667 164.731 18.9V12.6C164.731 11.45 164.556 10.6167 164.206 10.1C163.873 9.56667 163.373 9.3 162.706 9.3C162.423 9.3 162.09 9.375 161.706 9.525C161.34 9.65833 160.965 9.90833 160.581 10.275C160.215 10.6417 159.89 11.1833 159.606 11.9V18.9C159.606 19.4667 159.631 19.8083 159.681 19.925C159.731 20.025 159.89 20.0917 160.156 20.125L161.531 20.3V21H154.806V20.3L156.181 20.125C156.448 20.0917 156.606 20.025 156.656 19.925C156.706 19.8083 156.731 19.4667 156.731 18.9V10.425C156.731 9.85833 156.706 9.525 156.656 9.425C156.606 9.30833 156.448 9.23333 156.181 9.2L154.806 9.025V8.325H159.456V10.525C159.94 9.675 160.556 9.05833 161.306 8.675C162.073 8.275 162.84 8.075 163.606 8.075C164.84 8.075 165.815 8.46667 166.531 9.25C167.248 10.0333 167.606 11.1417 167.606 12.575V18.9C167.606 19.4667 167.631 19.8083 167.681 19.925C167.731 20.025 167.89 20.0917 168.156 20.125L169.531 20.3ZM179.283 18.4C179.066 19.4167 178.649 20.15 178.033 20.6C177.433 21.0333 176.699 21.25 175.833 21.25C174.949 21.25 174.224 21.0583 173.658 20.675C173.091 20.275 172.674 19.75 172.408 19.1C172.141 18.45 172.008 17.7583 172.008 17.025V10.425C172.008 9.85833 171.983 9.525 171.933 9.425C171.883 9.30833 171.724 9.23333 171.458 9.2L170.083 9.025V8.325H172.008V5.425L174.883 4.85V8.325H178.883V9.2H174.883V17.525C174.883 18.5917 175.016 19.3333 175.283 19.75C175.549 20.15 175.891 20.35 176.308 20.35C176.741 20.35 177.074 20.1833 177.308 19.85C177.558 19.5167 177.716 18.9083 177.783 18.025L179.283 18.4ZM191.521 18.025C191.221 19.1917 190.663 20.025 189.846 20.525C189.029 21.0083 188.079 21.25 186.996 21.25C184.996 21.25 183.496 20.675 182.496 19.525C181.496 18.3583 180.996 16.8167 180.996 14.9V14.4C180.996 12.4833 181.463 10.95 182.396 9.8C183.346 8.65 184.713 8.075 186.496 8.075C187.496 8.075 188.379 8.275 189.146 8.675C189.929 9.05833 190.538 9.61667 190.971 10.35C191.421 11.0833 191.646 11.975 191.646 13.025C191.646 13.275 191.629 13.5417 191.596 13.825C191.579 14.1083 191.538 14.3917 191.471 14.675H184.071V15.4C184.071 17.1667 184.321 18.4417 184.821 19.225C185.321 19.9917 186.129 20.375 187.246 20.375C187.963 20.375 188.571 20.1667 189.071 19.75C189.571 19.3167 189.854 18.5917 189.921 17.575L191.521 18.025ZM186.496 8.95C185.679 8.95 185.071 9.325 184.671 10.075C184.271 10.825 184.071 12.0667 184.071 13.8H188.596C188.663 13.4667 188.704 13.1583 188.721 12.875C188.754 12.575 188.771 12.3 188.771 12.05C188.771 10.9833 188.563 10.2 188.146 9.7C187.729 9.2 187.179 8.95 186.496 8.95ZM193.478 9.025V8.325H198.128V10.375C199.145 8.84167 200.353 8.075 201.753 8.075C202.27 8.075 202.77 8.24167 203.253 8.575C203.737 8.89167 204.137 9.49167 204.453 10.375L202.228 11.575C201.995 10.8917 201.72 10.4333 201.403 10.2C201.103 9.95 200.778 9.825 200.428 9.825C200.062 9.825 199.703 9.94167 199.353 10.175C199.003 10.4083 198.645 10.8417 198.278 11.475V18.9C198.278 19.4667 198.303 19.8083 198.353 19.925C198.403 20.025 198.562 20.0917 198.828 20.125L200.703 20.3V21H193.478V20.3L194.853 20.125C195.12 20.0917 195.278 20.025 195.328 19.925C195.378 19.8083 195.403 19.4667 195.403 18.9V10.425C195.403 9.85833 195.378 9.525 195.328 9.425C195.278 9.30833 195.12 9.23333 194.853 9.2L193.478 9.025Z" fill="#1F2E54"/>
<path d="M69.0128 33.6364H70.2216L73.0639 40.5788H73.1619L76.0043 33.6364H77.2131V42H76.2656V35.6456H76.1839L73.5703 42H72.6555L70.0419 35.6456H69.9602V42H69.0128V33.6364ZM80.9589 42.147C80.5614 42.147 80.2007 42.0721 79.8767 41.9224C79.5527 41.7699 79.2955 41.5508 79.1049 41.2649C78.9143 40.9763 78.819 40.6278 78.819 40.2195C78.819 39.8601 78.8898 39.5688 79.0314 39.3455C79.173 39.1196 79.3622 38.9426 79.599 38.8146C79.8359 38.6867 80.0973 38.5914 80.3831 38.5288C80.6717 38.4634 80.9617 38.4117 81.253 38.3736C81.6341 38.3246 81.9431 38.2878 82.18 38.2633C82.4196 38.2361 82.5938 38.1912 82.7027 38.1286C82.8143 38.0659 82.8702 37.957 82.8702 37.8018V37.7692C82.8702 37.3662 82.7599 37.0531 82.5394 36.8299C82.3216 36.6067 81.9908 36.495 81.547 36.495C81.0869 36.495 80.7262 36.5958 80.4648 36.7972C80.2034 36.9987 80.0197 37.2138 79.9135 37.4425L78.9987 37.1158C79.1621 36.7346 79.3799 36.4379 79.6521 36.2255C79.9271 36.0104 80.2266 35.8607 80.5506 35.7763C80.8773 35.6892 81.1985 35.6456 81.5143 35.6456C81.7158 35.6456 81.9472 35.6701 82.2086 35.7191C82.4727 35.7654 82.7272 35.862 82.9723 36.0091C83.22 36.1561 83.4256 36.378 83.5889 36.6747C83.7523 36.9715 83.8339 37.369 83.8339 37.8672V42H82.8702V41.1506H82.8212C82.7558 41.2867 82.6469 41.4324 82.4945 41.5875C82.342 41.7427 82.1392 41.8748 81.886 41.9837C81.6328 42.0926 81.3238 42.147 80.9589 42.147ZM81.106 41.2812C81.4871 41.2812 81.8084 41.2064 82.0697 41.0566C82.3338 40.9069 82.5326 40.7136 82.666 40.4767C82.8021 40.2399 82.8702 39.9908 82.8702 39.7294V38.8473C82.8293 38.8963 82.7395 38.9412 82.6006 38.9821C82.4645 39.0202 82.3066 39.0542 82.1269 39.0842C81.9499 39.1114 81.7771 39.1359 81.6083 39.1577C81.4422 39.1767 81.3074 39.1931 81.204 39.2067C80.9535 39.2393 80.7194 39.2924 80.5016 39.3659C80.2865 39.4367 80.1122 39.5443 79.9788 39.6886C79.8481 39.8301 79.7828 40.0234 79.7828 40.2685C79.7828 40.6033 79.9067 40.8565 80.1544 41.0281C80.4049 41.1969 80.7221 41.2812 81.106 41.2812ZM85.593 42V35.7273H86.5241V36.6747H86.5895C86.7038 36.3643 86.9107 36.1125 87.2102 35.9192C87.5097 35.7259 87.8473 35.6293 88.223 35.6293C88.2938 35.6293 88.3823 35.6306 88.4885 35.6333C88.5946 35.6361 88.675 35.6402 88.7294 35.6456V36.6257C88.6967 36.6175 88.6219 36.6053 88.5048 36.589C88.3904 36.5699 88.2693 36.5604 88.1413 36.5604C87.8364 36.5604 87.5642 36.6243 87.3246 36.7523C87.0877 36.8775 86.8999 37.0518 86.761 37.275C86.6249 37.4956 86.5568 37.7474 86.5568 38.0305V42H85.593ZM90.7703 39.7131L90.754 38.5206H90.95L93.6943 35.7273H94.8868L91.9628 38.6839H91.8811L90.7703 39.7131ZM89.8718 42V33.6364H90.8356V42H89.8718ZM93.8576 42L91.4074 38.8963L92.0934 38.2266L95.0828 42H93.8576ZM98.4989 42.1307C97.8945 42.1307 97.3731 41.9973 96.9348 41.7305C96.4992 41.4609 96.163 41.0852 95.9261 40.6033C95.692 40.1187 95.5749 39.5552 95.5749 38.9126C95.5749 38.2701 95.692 37.7038 95.9261 37.2138C96.163 36.721 96.4924 36.3371 96.9144 36.0621C97.3391 35.7844 97.8346 35.6456 98.4009 35.6456C98.7276 35.6456 99.0502 35.7 99.3687 35.8089C99.6873 35.9179 99.9772 36.0948 100.239 36.3398C100.5 36.5821 100.708 36.9034 100.863 37.3036C101.019 37.7038 101.096 38.1966 101.096 38.782V39.1903H96.261V38.3572H100.116C100.116 38.0033 100.045 37.6875 99.9037 37.4098C99.7649 37.1321 99.5661 36.9129 99.3075 36.7523C99.0516 36.5917 98.7494 36.5114 98.4009 36.5114C98.017 36.5114 97.6849 36.6067 97.4044 36.7972C97.1267 36.9851 96.913 37.2301 96.7633 37.5323C96.6135 37.8345 96.5387 38.1585 96.5387 38.5043V39.0597C96.5387 39.5334 96.6203 39.935 96.7837 40.2644C96.9498 40.5911 97.1798 40.8402 97.4739 41.0117C97.7679 41.1805 98.1096 41.2649 98.4989 41.2649C98.7521 41.2649 98.9808 41.2295 99.185 41.1587C99.3919 41.0852 99.5702 40.9763 99.7199 40.832C99.8697 40.685 99.9854 40.5026 100.067 40.2848L100.998 40.5462C100.9 40.862 100.735 41.1397 100.504 41.3793C100.273 41.6161 99.9868 41.8013 99.6464 41.9347C99.3061 42.0653 98.9236 42.1307 98.4989 42.1307ZM105.29 35.7273V36.544H102.04V35.7273H105.29ZM102.987 34.2244H103.951V40.2031C103.951 40.4754 103.99 40.6796 104.069 40.8157C104.151 40.9491 104.254 41.0389 104.38 41.0852C104.508 41.1288 104.642 41.1506 104.784 41.1506C104.89 41.1506 104.977 41.1451 105.045 41.1342C105.113 41.1206 105.168 41.1097 105.209 41.1016L105.405 41.9673C105.339 41.9918 105.248 42.0163 105.131 42.0408C105.014 42.0681 104.866 42.0817 104.686 42.0817C104.414 42.0817 104.147 42.0231 103.885 41.9061C103.627 41.789 103.412 41.6107 103.24 41.3711C103.071 41.1315 102.987 40.8293 102.987 40.4645V34.2244ZM110.448 42H109.386L112.457 33.6364H113.503L116.574 42H115.512L113.013 34.9595H112.947L110.448 42ZM110.84 38.733H115.12V39.6314H110.84V38.733ZM118.71 38.2266V42H117.746V35.7273H118.677V36.7074H118.759C118.906 36.3888 119.129 36.1329 119.428 35.9396C119.728 35.7436 120.114 35.6456 120.588 35.6456C121.013 35.6456 121.385 35.7327 121.703 35.907C122.022 36.0785 122.269 36.3398 122.446 36.6911C122.623 37.0395 122.712 37.4806 122.712 38.0142V42H121.748V38.0795C121.748 37.5868 121.62 37.2029 121.364 36.9279C121.108 36.6502 120.757 36.5114 120.311 36.5114C120.003 36.5114 119.728 36.5781 119.486 36.7115C119.246 36.8449 119.057 37.0395 118.918 37.2955C118.779 37.5514 118.71 37.8617 118.71 38.2266ZM126.319 42.147C125.921 42.147 125.561 42.0721 125.237 41.9224C124.913 41.7699 124.655 41.5508 124.465 41.2649C124.274 40.9763 124.179 40.6278 124.179 40.2195C124.179 39.8601 124.25 39.5688 124.391 39.3455C124.533 39.1196 124.722 38.9426 124.959 38.8146C125.196 38.6867 125.457 38.5914 125.743 38.5288C126.032 38.4634 126.322 38.4117 126.613 38.3736C126.994 38.3246 127.303 38.2878 127.54 38.2633C127.779 38.2361 127.954 38.1912 128.063 38.1286C128.174 38.0659 128.23 37.957 128.23 37.8018V37.7692C128.23 37.3662 128.12 37.0531 127.899 36.8299C127.681 36.6067 127.351 36.495 126.907 36.495C126.447 36.495 126.086 36.5958 125.825 36.7972C125.563 36.9987 125.38 37.2138 125.273 37.4425L124.359 37.1158C124.522 36.7346 124.74 36.4379 125.012 36.2255C125.287 36.0104 125.586 35.8607 125.91 35.7763C126.237 35.6892 126.558 35.6456 126.874 35.6456C127.076 35.6456 127.307 35.6701 127.568 35.7191C127.833 35.7654 128.087 35.862 128.332 36.0091C128.58 36.1561 128.785 36.378 128.949 36.6747C129.112 36.9715 129.194 37.369 129.194 37.8672V42H128.23V41.1506H128.181C128.116 41.2867 128.007 41.4324 127.854 41.5875C127.702 41.7427 127.499 41.8748 127.246 41.9837C126.993 42.0926 126.684 42.147 126.319 42.147ZM126.466 41.2812C126.847 41.2812 127.168 41.2064 127.43 41.0566C127.694 40.9069 127.892 40.7136 128.026 40.4767C128.162 40.2399 128.23 39.9908 128.23 39.7294V38.8473C128.189 38.8963 128.099 38.9412 127.96 38.9821C127.824 39.0202 127.666 39.0542 127.487 39.0842C127.31 39.1114 127.137 39.1359 126.968 39.1577C126.802 39.1767 126.667 39.1931 126.564 39.2067C126.313 39.2393 126.079 39.2924 125.861 39.3659C125.646 39.4367 125.472 39.5443 125.339 39.6886C125.208 39.8301 125.143 40.0234 125.143 40.2685C125.143 40.6033 125.267 40.8565 125.514 41.0281C125.765 41.1969 126.082 41.2812 126.466 41.2812ZM131.917 33.6364V42H130.953V33.6364H131.917ZM134.303 44.3523C134.139 44.3523 133.994 44.3387 133.866 44.3114C133.738 44.2869 133.649 44.2624 133.6 44.2379L133.845 43.3885C134.079 43.4484 134.286 43.4702 134.466 43.4538C134.646 43.4375 134.805 43.3572 134.944 43.2129C135.085 43.0713 135.215 42.8413 135.332 42.5227L135.511 42.0327L133.192 35.7273H134.237L135.969 40.7259H136.034L137.766 35.7273H138.811L136.149 42.9148C136.029 43.2388 135.88 43.5069 135.703 43.7193C135.526 43.9344 135.321 44.0936 135.087 44.1971C134.855 44.3005 134.594 44.3523 134.303 44.3523ZM144.526 37.1321L143.661 37.3771C143.606 37.2328 143.526 37.0926 143.42 36.9565C143.316 36.8176 143.175 36.7033 142.995 36.6135C142.815 36.5236 142.585 36.4787 142.305 36.4787C141.921 36.4787 141.601 36.5672 141.345 36.7441C141.092 36.9184 140.965 37.1403 140.965 37.4098C140.965 37.6494 141.052 37.8386 141.227 37.9775C141.401 38.1163 141.673 38.232 142.044 38.3246L142.975 38.5533C143.535 38.6894 143.953 38.8977 144.228 39.1781C144.503 39.4558 144.641 39.8138 144.641 40.2521C144.641 40.6115 144.537 40.9328 144.33 41.2159C144.126 41.4991 143.84 41.7223 143.473 41.8857C143.105 42.049 142.678 42.1307 142.191 42.1307C141.551 42.1307 141.021 41.9918 140.602 41.7141C140.183 41.4364 139.917 41.0308 139.806 40.4972L140.72 40.2685C140.807 40.6061 140.972 40.8593 141.214 41.0281C141.46 41.1969 141.779 41.2812 142.174 41.2812C142.623 41.2812 142.98 41.186 143.244 40.9954C143.511 40.8021 143.644 40.5707 143.644 40.3011C143.644 40.0833 143.568 39.9009 143.416 39.7539C143.263 39.6042 143.029 39.4925 142.713 39.419L141.668 39.174C141.093 39.0379 140.671 38.8269 140.402 38.541C140.135 38.2524 140.002 37.8917 140.002 37.4588C140.002 37.1049 140.101 36.7918 140.3 36.5195C140.501 36.2473 140.775 36.0336 141.121 35.8784C141.469 35.7232 141.864 35.6456 142.305 35.6456C142.926 35.6456 143.413 35.7817 143.767 36.054C144.124 36.3262 144.377 36.6856 144.526 37.1321ZM146.092 42V35.7273H147.055V42H146.092ZM146.582 34.6818C146.394 34.6818 146.232 34.6178 146.096 34.4899C145.962 34.3619 145.896 34.2081 145.896 34.0284C145.896 33.8487 145.962 33.6949 146.096 33.5669C146.232 33.439 146.394 33.375 146.582 33.375C146.769 33.375 146.93 33.439 147.064 33.5669C147.2 33.6949 147.268 33.8487 147.268 34.0284C147.268 34.2081 147.2 34.3619 147.064 34.4899C146.93 34.6178 146.769 34.6818 146.582 34.6818ZM153.264 37.1321L152.398 37.3771C152.344 37.2328 152.263 37.0926 152.157 36.9565C152.054 36.8176 151.912 36.7033 151.732 36.6135C151.553 36.5236 151.323 36.4787 151.042 36.4787C150.658 36.4787 150.338 36.5672 150.082 36.7441C149.829 36.9184 149.703 37.1403 149.703 37.4098C149.703 37.6494 149.79 37.8386 149.964 37.9775C150.138 38.1163 150.411 38.232 150.781 38.3246L151.712 38.5533C152.273 38.6894 152.691 38.8977 152.966 39.1781C153.241 39.4558 153.378 39.8138 153.378 40.2521C153.378 40.6115 153.275 40.9328 153.068 41.2159C152.864 41.4991 152.578 41.7223 152.21 41.8857C151.843 42.049 151.415 42.1307 150.928 42.1307C150.288 42.1307 149.758 41.9918 149.339 41.7141C148.92 41.4364 148.655 41.0308 148.543 40.4972L149.458 40.2685C149.545 40.6061 149.709 40.8593 149.952 41.0281C150.197 41.1969 150.517 41.2812 150.911 41.2812C151.361 41.2812 151.717 41.186 151.981 40.9954C152.248 40.8021 152.382 40.5707 152.382 40.3011C152.382 40.0833 152.305 39.9009 152.153 39.7539C152.001 39.6042 151.766 39.4925 151.451 39.419L150.405 39.174C149.831 39.0379 149.409 38.8269 149.139 38.541C148.872 38.2524 148.739 37.8917 148.739 37.4588C148.739 37.1049 148.838 36.7918 149.037 36.5195C149.238 36.2473 149.512 36.0336 149.858 35.8784C150.206 35.7232 150.601 35.6456 151.042 35.6456C151.663 35.6456 152.15 35.7817 152.504 36.054C152.861 36.3262 153.114 36.6856 153.264 37.1321ZM162.768 35.7273C162.719 35.3134 162.52 34.9922 162.172 34.7635C161.823 34.5348 161.396 34.4205 160.889 34.4205C160.519 34.4205 160.195 34.4804 159.917 34.6001C159.642 34.7199 159.427 34.8846 159.272 35.0943C159.12 35.3039 159.043 35.5421 159.043 35.8089C159.043 36.0322 159.096 36.2241 159.203 36.3848C159.312 36.5427 159.45 36.6747 159.619 36.7809C159.788 36.8844 159.965 36.9701 160.15 37.0382C160.335 37.1035 160.505 37.1566 160.661 37.1974L161.51 37.4261C161.728 37.4833 161.97 37.5623 162.237 37.663C162.506 37.7637 162.764 37.9012 163.009 38.0755C163.256 38.247 163.461 38.4675 163.621 38.737C163.782 39.0066 163.862 39.3374 163.862 39.7294C163.862 40.1813 163.744 40.5897 163.507 40.9545C163.273 41.3194 162.93 41.6093 162.478 41.8244C162.029 42.0395 161.483 42.147 160.84 42.147C160.241 42.147 159.723 42.0504 159.284 41.8571C158.849 41.6638 158.506 41.3942 158.255 41.0485C158.007 40.7027 157.867 40.3011 157.835 39.8438H158.88C158.907 40.1596 159.013 40.4209 159.199 40.6278C159.386 40.832 159.623 40.9845 159.909 41.0852C160.198 41.1832 160.508 41.2322 160.84 41.2322C161.227 41.2322 161.574 41.1696 161.882 41.0444C162.189 40.9164 162.433 40.7395 162.613 40.5135C162.792 40.2848 162.882 40.018 162.882 39.7131C162.882 39.4354 162.805 39.2094 162.649 39.0352C162.494 38.8609 162.29 38.7193 162.037 38.6104C161.784 38.5015 161.51 38.4062 161.216 38.3246L160.187 38.0305C159.533 37.8427 159.016 37.5745 158.635 37.226C158.254 36.8775 158.063 36.4215 158.063 35.858C158.063 35.3897 158.19 34.9813 158.443 34.6328C158.699 34.2816 159.042 34.0094 159.472 33.8161C159.905 33.62 160.388 33.522 160.922 33.522C161.461 33.522 161.94 33.6187 162.359 33.812C162.779 34.0025 163.111 34.2639 163.356 34.5961C163.604 34.9282 163.734 35.3053 163.748 35.7273H162.768ZM168.027 42.1307C167.422 42.1307 166.901 41.9973 166.463 41.7305C166.027 41.4609 165.691 41.0852 165.454 40.6033C165.22 40.1187 165.103 39.5552 165.103 38.9126C165.103 38.2701 165.22 37.7038 165.454 37.2138C165.691 36.721 166.02 36.3371 166.442 36.0621C166.867 35.7844 167.362 35.6456 167.929 35.6456C168.255 35.6456 168.578 35.7 168.897 35.8089C169.215 35.9179 169.505 36.0948 169.766 36.3398C170.028 36.5821 170.236 36.9034 170.391 37.3036C170.546 37.7038 170.624 38.1966 170.624 38.782V39.1903H165.789V38.3572H169.644C169.644 38.0033 169.573 37.6875 169.432 37.4098C169.293 37.1321 169.094 36.9129 168.835 36.7523C168.579 36.5917 168.277 36.5114 167.929 36.5114C167.545 36.5114 167.213 36.6067 166.932 36.7972C166.655 36.9851 166.441 37.2301 166.291 37.5323C166.141 37.8345 166.066 38.1585 166.066 38.5043V39.0597C166.066 39.5334 166.148 39.935 166.312 40.2644C166.478 40.5911 166.708 40.8402 167.002 41.0117C167.296 41.1805 167.637 41.2649 168.027 41.2649C168.28 41.2649 168.509 41.2295 168.713 41.1587C168.92 41.0852 169.098 40.9763 169.248 40.832C169.398 40.685 169.513 40.5026 169.595 40.2848L170.526 40.5462C170.428 40.862 170.263 41.1397 170.032 41.3793C169.8 41.6161 169.515 41.8013 169.174 41.9347C168.834 42.0653 168.451 42.1307 168.027 42.1307ZM172.09 42V35.7273H173.021V36.6747H173.087C173.201 36.3643 173.408 36.1125 173.707 35.9192C174.007 35.7259 174.344 35.6293 174.72 35.6293C174.791 35.6293 174.879 35.6306 174.986 35.6333C175.092 35.6361 175.172 35.6402 175.226 35.6456V36.6257C175.194 36.6175 175.119 36.6053 175.002 36.589C174.888 36.5699 174.766 36.5604 174.638 36.5604C174.333 36.5604 174.061 36.6243 173.822 36.7523C173.585 36.8775 173.397 37.0518 173.258 37.275C173.122 37.4956 173.054 37.7474 173.054 38.0305V42H172.09ZM181.689 35.7273L179.369 42H178.389L176.07 35.7273H177.115L178.847 40.7259H178.912L180.644 35.7273H181.689ZM182.961 42V35.7273H183.925V42H182.961ZM183.451 34.6818C183.263 34.6818 183.101 34.6178 182.965 34.4899C182.832 34.3619 182.765 34.2081 182.765 34.0284C182.765 33.8487 182.832 33.6949 182.965 33.5669C183.101 33.439 183.263 33.375 183.451 33.375C183.639 33.375 183.8 33.439 183.933 33.5669C184.069 33.6949 184.137 33.8487 184.137 34.0284C184.137 34.2081 184.069 34.3619 183.933 34.4899C183.8 34.6178 183.639 34.6818 183.451 34.6818ZM188.239 42.1307C187.65 42.1307 187.144 41.9918 186.719 41.7141C186.295 41.4364 185.968 41.0539 185.739 40.5666C185.511 40.0792 185.396 39.5225 185.396 38.8963C185.396 38.2592 185.513 37.697 185.747 37.2097C185.984 36.7196 186.314 36.3371 186.736 36.0621C187.16 35.7844 187.656 35.6456 188.222 35.6456C188.663 35.6456 189.061 35.7273 189.415 35.8906C189.769 36.054 190.059 36.2827 190.284 36.5767C190.51 36.8707 190.651 37.2138 190.705 37.6058H189.741C189.668 37.32 189.504 37.0668 189.251 36.8462C189.001 36.623 188.663 36.5114 188.239 36.5114C187.863 36.5114 187.533 36.6094 187.25 36.8054C186.97 36.9987 186.751 37.2723 186.593 37.6262C186.438 37.9775 186.36 38.3899 186.36 38.8636C186.36 39.3482 186.436 39.7702 186.589 40.1296C186.744 40.489 186.962 40.7681 187.242 40.9668C187.525 41.1655 187.857 41.2649 188.239 41.2649C188.489 41.2649 188.716 41.2214 188.92 41.1342C189.125 41.0471 189.298 40.9219 189.439 40.7585C189.581 40.5952 189.681 40.3991 189.741 40.1705H190.705C190.651 40.5407 190.516 40.8742 190.301 41.171C190.088 41.465 189.807 41.6992 189.455 41.8734C189.107 42.0449 188.701 42.1307 188.239 42.1307ZM194.744 42.1307C194.14 42.1307 193.618 41.9973 193.18 41.7305C192.744 41.4609 192.408 41.0852 192.171 40.6033C191.937 40.1187 191.82 39.5552 191.82 38.9126C191.82 38.2701 191.937 37.7038 192.171 37.2138C192.408 36.721 192.737 36.3371 193.159 36.0621C193.584 35.7844 194.08 35.6456 194.646 35.6456C194.973 35.6456 195.295 35.7 195.614 35.8089C195.932 35.9179 196.222 36.0948 196.484 36.3398C196.745 36.5821 196.953 36.9034 197.109 37.3036C197.264 37.7038 197.341 38.1966 197.341 38.782V39.1903H192.506V38.3572H196.361C196.361 38.0033 196.29 37.6875 196.149 37.4098C196.01 37.1321 195.811 36.9129 195.553 36.7523C195.297 36.5917 194.994 36.5114 194.646 36.5114C194.262 36.5114 193.93 36.6067 193.65 36.7972C193.372 36.9851 193.158 37.2301 193.008 37.5323C192.859 37.8345 192.784 38.1585 192.784 38.5043V39.0597C192.784 39.5334 192.865 39.935 193.029 40.2644C193.195 40.5911 193.425 40.8402 193.719 41.0117C194.013 41.1805 194.355 41.2649 194.744 41.2649C194.997 41.2649 195.226 41.2295 195.43 41.1587C195.637 41.0852 195.815 40.9763 195.965 40.832C196.115 40.685 196.231 40.5026 196.312 40.2848L197.243 40.5462C197.145 40.862 196.981 41.1397 196.749 41.3793C196.518 41.6161 196.232 41.8013 195.892 41.9347C195.551 42.0653 195.169 42.1307 194.744 42.1307ZM203.251 37.1321L202.385 37.3771C202.33 37.2328 202.25 37.0926 202.144 36.9565C202.04 36.8176 201.899 36.7033 201.719 36.6135C201.539 36.5236 201.309 36.4787 201.029 36.4787C200.645 36.4787 200.325 36.5672 200.069 36.7441C199.816 36.9184 199.689 37.1403 199.689 37.4098C199.689 37.6494 199.777 37.8386 199.951 37.9775C200.125 38.1163 200.397 38.232 200.768 38.3246L201.699 38.5533C202.26 38.6894 202.677 38.8977 202.952 39.1781C203.227 39.4558 203.365 39.8138 203.365 40.2521C203.365 40.6115 203.261 40.9328 203.055 41.2159C202.85 41.4991 202.564 41.7223 202.197 41.8857C201.829 42.049 201.402 42.1307 200.915 42.1307C200.275 42.1307 199.745 41.9918 199.326 41.7141C198.907 41.4364 198.641 41.0308 198.53 40.4972L199.444 40.2685C199.532 40.6061 199.696 40.8593 199.939 41.0281C200.184 41.1969 200.504 41.2812 200.898 41.2812C201.348 41.2812 201.704 41.186 201.968 40.9954C202.235 40.8021 202.368 40.5707 202.368 40.3011C202.368 40.0833 202.292 39.9009 202.14 39.7539C201.987 39.6042 201.753 39.4925 201.437 39.419L200.392 39.174C199.817 39.0379 199.395 38.8269 199.126 38.541C198.859 38.2524 198.726 37.8917 198.726 37.4588C198.726 37.1049 198.825 36.7918 199.024 36.5195C199.225 36.2473 199.499 36.0336 199.845 35.8784C200.193 35.7232 200.588 35.6456 201.029 35.6456C201.65 35.6456 202.137 35.7817 202.491 36.054C202.848 36.3262 203.101 36.6856 203.251 37.1321Z" fill="#1F2E54"/>
<path fill-rule="evenodd" clip-rule="evenodd" d="M54.3486 11.2661V46H31.8035V41.7248H36.9361V36.5872H31.8035V33.3761H36.9361V28.2569H31.8035V16.6972H36.9361V11.5596H31.8035V0H54.0936H54.3486V11.2661ZM44.1767 36.5872H39.0441V41.7248H44.1767V36.5872ZM44.1767 19.9083H39.0441V25.0275H44.1767V19.9083Z" fill="#DBDEE4"/>
<path d="M23.8481 36.5869V41.7245H28.9807V36.5869H23.8481Z" fill="#3C2FC0"/>
<path d="M23.8481 19.9082V25.0458H28.9807V19.9082H23.8481Z" fill="#3C2FC0"/>
<path d="M23.8481 11.5596V16.6972H28.9807V11.5596H23.8481Z" fill="#3C2FC0"/>
<path d="M7.95532 11.5596V16.6972H13.0879V11.5596H7.95532Z" fill="#3C2FC0"/>
<path d="M15.9109 36.5869V41.7245H21.0435V36.5869H15.9109Z" fill="#3C2FC0"/>
<path d="M15.9109 19.9082V25.0458H21.0435V19.9082H15.9109Z" fill="#3C2FC0"/>
<path d="M15.9109 3.21118V8.3488H21.0435V3.21118H15.9109Z" fill="#3C2FC0"/>
<path d="M7.95532 28.2568V33.3761H13.0879V28.2568H7.95532Z" fill="#3C2FC0"/>
<path d="M7.95532 19.9082V25.0458H13.0879V19.9082H7.95532Z" fill="#3C2FC0"/>
<path d="M0 19.9082V25.0458H5.13259V19.9082H0Z" fill="#3C2FC0"/>
</svg>
