<svg width="154" height="54" viewBox="0 0 154 54" fill="none" xmlns="http://www.w3.org/2000/svg">
<path d="M79.2 25.2878C77.92 25.2878 76.736 25.0558 75.648 24.5918C74.56 24.1278 73.608 23.4798 72.792 22.6478C71.976 21.8158 71.336 20.8398 70.872 19.7198C70.424 18.5998 70.2 17.3758 70.2 16.0478C70.2 14.7198 70.416 13.4958 70.848 12.3758C71.296 11.2398 71.92 10.2638 72.72 9.44776C73.536 8.61576 74.488 7.97575 75.576 7.52775C76.664 7.06376 77.848 6.83176 79.128 6.83176C80.408 6.83176 81.552 7.04776 82.56 7.47976C83.584 7.91176 84.448 8.48776 85.152 9.20775C85.856 9.91176 86.36 10.6878 86.664 11.5358L83.76 12.9278C83.424 11.9998 82.856 11.2478 82.056 10.6718C81.256 10.0958 80.28 9.80776 79.128 9.80776C78.008 9.80776 77.016 10.0718 76.152 10.5998C75.304 11.1278 74.64 11.8558 74.16 12.7838C73.696 13.7118 73.464 14.7998 73.464 16.0478C73.464 17.2958 73.704 18.3918 74.184 19.3358C74.68 20.2638 75.36 20.9918 76.224 21.5198C77.088 22.0478 78.08 22.3118 79.2 22.3118C80.112 22.3118 80.952 22.1358 81.72 21.7838C82.488 21.4158 83.104 20.9038 83.568 20.2478C84.032 19.5758 84.264 18.7838 84.264 17.8718V16.5038L85.752 17.7998H79.128V15.0398H87.528V16.8398C87.528 18.2158 87.296 19.4318 86.832 20.4878C86.368 21.5438 85.736 22.4318 84.936 23.1518C84.152 23.8558 83.264 24.3918 82.272 24.7598C81.28 25.1118 80.256 25.2878 79.2 25.2878ZM96.2308 25.2878C94.9508 25.2878 93.7828 24.9918 92.7268 24.3998C91.6868 23.8078 90.8548 22.9998 90.2308 21.9758C89.6228 20.9518 89.3188 19.7838 89.3188 18.4718C89.3188 17.1598 89.6228 15.9918 90.2308 14.9678C90.8548 13.9438 91.6868 13.1358 92.7268 12.5438C93.7668 11.9518 94.9348 11.6558 96.2308 11.6558C97.5108 11.6558 98.6708 11.9518 99.7108 12.5438C100.751 13.1358 101.575 13.9438 102.183 14.9678C102.807 15.9758 103.119 17.1438 103.119 18.4718C103.119 19.7838 102.807 20.9518 102.183 21.9758C101.559 22.9998 100.727 23.8078 99.6868 24.3998C98.6468 24.9918 97.4948 25.2878 96.2308 25.2878ZM96.2308 22.4078C96.9348 22.4078 97.5508 22.2398 98.0788 21.9038C98.6228 21.5678 99.0468 21.1038 99.3508 20.5118C99.6708 19.9038 99.8308 19.2238 99.8308 18.4718C99.8308 17.7038 99.6708 17.0318 99.3508 16.4558C99.0468 15.8638 98.6228 15.3998 98.0788 15.0638C97.5508 14.7118 96.9348 14.5358 96.2308 14.5358C95.5108 14.5358 94.8788 14.7118 94.3348 15.0638C93.7908 15.3998 93.3588 15.8638 93.0388 16.4558C92.7348 17.0318 92.5828 17.7038 92.5828 18.4718C92.5828 19.2238 92.7348 19.9038 93.0388 20.5118C93.3588 21.1038 93.7908 21.5678 94.3348 21.9038C94.8788 22.2398 95.5108 22.4078 96.2308 22.4078ZM112.631 25.2878C111.687 25.2878 110.815 25.1038 110.015 24.7358C109.231 24.3518 108.607 23.8078 108.143 23.1038L108.455 22.4798V24.9998H105.503V6.83176H108.647V14.5358L108.167 13.8878C108.615 13.1838 109.223 12.6398 109.991 12.2558C110.759 11.8558 111.647 11.6558 112.655 11.6558C113.887 11.6558 114.999 11.9598 115.991 12.5678C116.983 13.1758 117.767 13.9918 118.343 15.0158C118.935 16.0398 119.231 17.1918 119.231 18.4718C119.231 19.7358 118.943 20.8878 118.367 21.9278C117.791 22.9678 117.007 23.7918 116.015 24.3998C115.023 24.9918 113.895 25.2878 112.631 25.2878ZM112.271 22.4078C112.991 22.4078 113.631 22.2398 114.191 21.9038C114.751 21.5678 115.183 21.1038 115.487 20.5118C115.807 19.9198 115.967 19.2398 115.967 18.4718C115.967 17.7038 115.807 17.0318 115.487 16.4558C115.183 15.8638 114.751 15.3998 114.191 15.0638C113.631 14.7118 112.991 14.5358 112.271 14.5358C111.583 14.5358 110.959 14.7038 110.399 15.0398C109.855 15.3758 109.423 15.8478 109.103 16.4558C108.799 17.0478 108.647 17.7198 108.647 18.4718C108.647 19.2398 108.799 19.9198 109.103 20.5118C109.423 21.1038 109.855 21.5678 110.399 21.9038C110.959 22.2398 111.583 22.4078 112.271 22.4078ZM121.628 24.9998V11.9438H124.772V24.9998H121.628ZM121.628 10.4798V7.11975H124.772V10.4798H121.628ZM127.675 24.9998V11.9438H130.627V14.5118L130.387 14.0558C130.691 13.2718 131.187 12.6798 131.875 12.2798C132.579 11.8638 133.395 11.6558 134.323 11.6558C135.283 11.6558 136.131 11.8638 136.867 12.2798C137.619 12.6958 138.203 13.2798 138.619 14.0318C139.035 14.7678 139.243 15.6238 139.243 16.5998V24.9998H136.099V17.3438C136.099 16.7678 135.987 16.2718 135.763 15.8558C135.539 15.4398 135.227 15.1198 134.827 14.8958C134.443 14.6558 133.987 14.5358 133.459 14.5358C132.947 14.5358 132.491 14.6558 132.091 14.8958C131.691 15.1198 131.379 15.4398 131.155 15.8558C130.931 16.2718 130.819 16.7678 130.819 17.3438V24.9998H127.675ZM146.87 25.2878C145.478 25.2878 144.262 24.9598 143.222 24.3038C142.198 23.6318 141.494 22.7278 141.11 21.5918L143.462 20.4638C143.798 21.1998 144.262 21.7758 144.854 22.1918C145.462 22.6078 146.134 22.8158 146.87 22.8158C147.446 22.8158 147.902 22.6878 148.238 22.4318C148.574 22.1758 148.742 21.8398 148.742 21.4238C148.742 21.1678 148.67 20.9598 148.526 20.7998C148.398 20.6238 148.214 20.4798 147.974 20.3678C147.75 20.2398 147.502 20.1358 147.23 20.0558L145.094 19.4558C143.99 19.1358 143.15 18.6478 142.574 17.9918C142.014 17.3358 141.734 16.5598 141.734 15.6638C141.734 14.8638 141.934 14.1678 142.334 13.5758C142.75 12.9678 143.318 12.4958 144.038 12.1598C144.774 11.8238 145.614 11.6558 146.558 11.6558C147.79 11.6558 148.878 11.9518 149.822 12.5438C150.766 13.1358 151.438 13.9678 151.838 15.0398L149.438 16.1678C149.214 15.5758 148.838 15.1038 148.31 14.7518C147.782 14.3998 147.19 14.2238 146.534 14.2238C146.006 14.2238 145.59 14.3438 145.286 14.5838C144.982 14.8238 144.83 15.1358 144.83 15.5198C144.83 15.7598 144.894 15.9678 145.022 16.1438C145.15 16.3198 145.326 16.4638 145.55 16.5758C145.79 16.6878 146.062 16.7918 146.366 16.8878L148.454 17.5118C149.526 17.8318 150.35 18.3118 150.926 18.9518C151.518 19.5918 151.814 20.3758 151.814 21.3038C151.814 22.0878 151.606 22.7838 151.19 23.3918C150.774 23.9838 150.198 24.4478 149.462 24.7838C148.726 25.1198 147.862 25.2878 146.87 25.2878Z" fill="#102c6d"/>
<path d="M70.233 47.9998V37.8179H76.3381V38.9117H71.4659V42.352H75.8807V43.4458H71.4659V47.9998H70.233ZM78.2907 47.9998V40.3634H79.464V47.9998H78.2907ZM78.8873 39.0907C78.6586 39.0907 78.4614 39.0128 78.2956 38.857C78.1332 38.7012 78.052 38.514 78.052 38.2952C78.052 38.0765 78.1332 37.8892 78.2956 37.7334C78.4614 37.5776 78.6586 37.4998 78.8873 37.4998C79.1159 37.4998 79.3115 37.5776 79.4739 37.7334C79.6396 37.8892 79.7225 38.0765 79.7225 38.2952C79.7225 38.514 79.6396 38.7012 79.4739 38.857C79.3115 39.0128 79.1159 39.0907 78.8873 39.0907ZM82.7862 43.406V47.9998H81.6129V40.3634H82.7464V41.5566H82.8459C83.0249 41.1688 83.2966 40.8572 83.6612 40.6219C84.0258 40.3833 84.4964 40.264 85.0732 40.264C85.5902 40.264 86.0426 40.37 86.4304 40.5821C86.8182 40.7909 87.1198 41.1091 87.3352 41.5367C87.5507 41.9609 87.6584 42.4979 87.6584 43.1475V47.9998H86.4851V43.227C86.4851 42.6271 86.3293 42.1598 86.0178 41.825C85.7062 41.487 85.2786 41.3179 84.7351 41.3179C84.3606 41.3179 84.0258 41.3991 83.7308 41.5615C83.4392 41.724 83.2088 41.9609 83.0398 42.2725C82.8707 42.584 82.7862 42.9619 82.7862 43.406ZM92.0495 48.1787C91.5656 48.1787 91.1265 48.0876 90.7321 47.9053C90.3377 47.7197 90.0244 47.4529 89.7924 47.1049C89.5604 46.7535 89.4444 46.3293 89.4444 45.8321C89.4444 45.3946 89.5306 45.04 89.7029 44.7682C89.8753 44.4931 90.1056 44.2777 90.394 44.1219C90.6824 43.9661 91.0005 43.8501 91.3485 43.7739C91.6999 43.6944 92.0529 43.6314 92.4075 43.585C92.8715 43.5253 93.2477 43.4806 93.536 43.4507C93.8277 43.4176 94.0398 43.3629 94.1724 43.2867C94.3083 43.2105 94.3762 43.0779 94.3762 42.889V42.8492C94.3762 42.3587 94.242 41.9775 93.9735 41.7057C93.7084 41.4339 93.3057 41.2981 92.7654 41.2981C92.2053 41.2981 91.7662 41.4207 91.448 41.6659C91.1298 41.9112 90.9061 42.1731 90.7768 42.4515L89.6632 42.0537C89.862 41.5897 90.1272 41.2284 90.4586 40.9699C90.7934 40.7081 91.158 40.5258 91.5524 40.4231C91.9501 40.317 92.3412 40.264 92.7257 40.264C92.9709 40.264 93.2527 40.2938 93.5708 40.3534C93.8923 40.4098 94.2022 40.5275 94.5005 40.7064C94.8021 40.8854 95.0524 41.1555 95.2512 41.5168C95.4501 41.8781 95.5495 42.362 95.5495 42.9685V47.9998H94.3762V46.9657H94.3166C94.237 47.1314 94.1045 47.3087 93.9189 47.4976C93.7333 47.6865 93.4863 47.8473 93.1781 47.9799C92.8699 48.1124 92.4937 48.1787 92.0495 48.1787ZM92.2285 47.1248C92.6925 47.1248 93.0836 47.0336 93.4018 46.8513C93.7233 46.669 93.9653 46.4337 94.1277 46.1454C94.2934 45.857 94.3762 45.5537 94.3762 45.2356V44.1617C94.3265 44.2213 94.2172 44.276 94.0481 44.3257C93.8824 44.3722 93.6902 44.4136 93.4714 44.45C93.256 44.4832 93.0455 44.513 92.84 44.5395C92.6378 44.5627 92.4738 44.5826 92.3478 44.5992C92.0429 44.639 91.7579 44.7036 91.4927 44.7931C91.2309 44.8793 91.0188 45.0102 90.8564 45.1858C90.6973 45.3582 90.6177 45.5935 90.6177 45.8918C90.6177 46.2995 90.7685 46.6077 91.0701 46.8165C91.3751 47.022 91.7612 47.1248 92.2285 47.1248ZM98.8643 43.406V47.9998H97.6911V40.3634H98.8246V41.5566H98.924C99.103 41.1688 99.3748 40.8572 99.7393 40.6219C100.104 40.3833 100.575 40.264 101.151 40.264C101.668 40.264 102.121 40.37 102.509 40.5821C102.896 40.7909 103.198 41.1091 103.413 41.5367C103.629 41.9609 103.737 42.4979 103.737 43.1475V47.9998H102.563V43.227C102.563 42.6271 102.407 42.1598 102.096 41.825C101.784 41.487 101.357 41.3179 100.813 41.3179C100.439 41.3179 100.104 41.3991 99.8089 41.5615C99.5173 41.724 99.2869 41.9609 99.1179 42.2725C98.9489 42.584 98.8643 42.9619 98.8643 43.406ZM108.983 48.1588C108.267 48.1588 107.65 47.9898 107.133 47.6517C106.616 47.3137 106.219 46.848 105.94 46.2547C105.662 45.6615 105.523 44.9837 105.523 44.2213C105.523 43.4458 105.665 42.7614 105.95 42.1681C106.238 41.5715 106.64 41.1058 107.153 40.7711C107.67 40.433 108.273 40.264 108.963 40.264C109.5 40.264 109.984 40.3634 110.415 40.5623C110.845 40.7611 111.198 41.0395 111.474 41.3975C111.749 41.7554 111.919 42.1731 111.986 42.6503H110.812C110.723 42.3023 110.524 41.9941 110.216 41.7256C109.911 41.4538 109.5 41.3179 108.983 41.3179C108.525 41.3179 108.124 41.4373 107.78 41.6759C107.438 41.9112 107.171 42.2443 106.979 42.6752C106.79 43.1027 106.696 43.6049 106.696 44.1816C106.696 44.7715 106.789 45.2853 106.974 45.7228C107.163 46.1603 107.428 46.5 107.77 46.7419C108.114 46.9839 108.519 47.1049 108.983 47.1049C109.288 47.1049 109.564 47.0518 109.813 46.9458C110.062 46.8397 110.272 46.6873 110.444 46.4884C110.617 46.2895 110.739 46.0509 110.812 45.7725H111.986C111.919 46.2232 111.755 46.6293 111.493 46.9905C111.235 47.3485 110.892 47.6335 110.464 47.8456C110.04 48.0544 109.546 48.1588 108.983 48.1588ZM116.903 48.1588C116.167 48.1588 115.532 47.9964 114.998 47.6716C114.468 47.3435 114.059 46.8861 113.77 46.2995C113.485 45.7095 113.343 45.0234 113.343 44.2412C113.343 43.459 113.485 42.7696 113.77 42.1731C114.059 41.5731 114.46 41.1058 114.974 40.7711C115.491 40.433 116.094 40.264 116.783 40.264C117.181 40.264 117.574 40.3302 117.961 40.4628C118.349 40.5954 118.702 40.8108 119.02 41.1091C119.339 41.4041 119.592 41.7952 119.781 42.2824C119.97 42.7696 120.064 43.3695 120.064 44.0821V44.5793H114.178V43.5651H118.871C118.871 43.1342 118.785 42.7498 118.613 42.4117C118.444 42.0736 118.202 41.8068 117.887 41.6113C117.575 41.4157 117.207 41.3179 116.783 41.3179C116.316 41.3179 115.912 41.4339 115.57 41.6659C115.232 41.8946 114.972 42.1929 114.79 42.5608C114.607 42.9287 114.516 43.3231 114.516 43.7441V44.4202C114.516 44.9969 114.616 45.4858 114.814 45.8868C115.017 46.2846 115.297 46.5878 115.655 46.7966C116.013 47.0021 116.429 47.1049 116.903 47.1049C117.211 47.1049 117.489 47.0618 117.738 46.9756C117.99 46.8861 118.207 46.7535 118.389 46.5779C118.571 46.3989 118.712 46.1768 118.812 45.9117L119.945 46.2299C119.826 46.6143 119.625 46.9524 119.344 47.2441C119.062 47.5324 118.714 47.7578 118.3 47.9202C117.885 48.0793 117.42 48.1588 116.903 48.1588ZM125.946 47.9998V37.8179H127.179V42.352H132.608V37.8179H133.841V47.9998H132.608V43.4458H127.179V47.9998H125.946ZM140.963 44.8776V40.3634H142.136V47.9998H140.963V46.7071H140.883C140.704 47.0949 140.426 47.4247 140.048 47.6965C139.67 47.965 139.193 48.0992 138.616 48.0992C138.139 48.0992 137.714 47.9948 137.343 47.786C136.972 47.5739 136.68 47.2557 136.468 46.8314C136.256 46.4039 136.15 45.8653 136.15 45.2157V40.3634H137.323V45.1361C137.323 45.6929 137.479 46.1371 137.791 46.4685C138.106 46.7999 138.507 46.9657 138.994 46.9657C139.285 46.9657 139.582 46.8911 139.884 46.7419C140.189 46.5928 140.444 46.3641 140.649 46.0559C140.858 45.7476 140.963 45.3549 140.963 44.8776ZM144.444 47.9998V37.8179H145.617V41.5765H145.717C145.803 41.4439 145.922 41.2749 146.075 41.0694C146.23 40.8606 146.452 40.6749 146.741 40.5125C147.032 40.3468 147.427 40.264 147.924 40.264C148.567 40.264 149.134 40.4247 149.624 40.7462C150.115 41.0677 150.498 41.5234 150.773 42.1134C151.048 42.7034 151.185 43.3994 151.185 44.2015C151.185 45.0102 151.048 45.7112 150.773 46.3044C150.498 46.8944 150.116 47.3518 149.629 47.6766C149.142 47.9981 148.58 48.1588 147.944 48.1588C147.453 48.1588 147.061 48.0776 146.766 47.9152C146.471 47.7495 146.244 47.5623 146.085 47.3534C145.925 47.1413 145.803 46.9657 145.717 46.8265H145.577V47.9998H144.444ZM145.597 44.1816C145.597 44.7583 145.682 45.267 145.851 45.7079C146.02 46.1454 146.267 46.4884 146.592 46.737C146.916 46.9822 147.314 47.1049 147.785 47.1049C148.275 47.1049 148.685 46.9756 149.013 46.7171C149.344 46.4552 149.593 46.1039 149.759 45.6631C149.928 45.219 150.012 44.7251 150.012 44.1816C150.012 43.6446 149.929 43.1607 149.763 42.7299C149.601 42.2957 149.354 41.9526 149.023 41.7007C148.695 41.4455 148.282 41.3179 147.785 41.3179C147.308 41.3179 146.906 41.4389 146.582 41.6809C146.257 41.9195 146.012 42.2543 145.846 42.6851C145.68 43.1127 145.597 43.6115 145.597 44.1816Z" fill="#102c6d"/>
<path d="M26.8655 53.7228C19.9701 53.7228 13.4139 51.1224 8.42136 46.3738C7.72429 45.7332 7.0649 45.036 6.46203 44.3387L10.7763 40.6266C11.2662 41.1919 11.7748 41.7383 12.3212 42.2471C16.2587 45.9781 21.4396 48.0321 26.8655 48.0321C38.5461 48.0321 48.0413 38.5349 48.0413 26.852C48.0413 15.169 38.5461 5.67189 26.8655 5.67189C16.1457 5.67189 7.27214 13.6804 5.878 24.0255H13.9791V29.6973H0V26.852C0 12.041 12.0574 0 26.8655 0C41.6735 0 53.7309 12.041 53.7309 26.852C53.7309 41.663 41.6735 53.7228 26.8655 53.7228Z" fill="#DBDEE4"/>
<path d="M42.5966 24.0068V26.8522C42.584 27.8321 42.4961 28.7805 42.3328 29.6976C42.314 29.7729 42.2952 29.8295 42.2952 29.9048C40.8633 37.1219 34.4955 42.5865 26.8654 42.5865C19.16 42.5865 12.7356 37.0088 11.4168 29.6976C11.2284 28.7742 11.1531 27.8321 11.1531 26.8522C11.1531 25.8912 11.2284 24.9302 11.4168 24.0068C12.7356 16.6955 19.16 11.1367 26.8654 11.1367V16.8086C21.3265 16.8086 16.8238 21.3311 16.8238 26.8522C16.8238 32.3922 21.3265 36.8958 26.8654 36.8958C30.8029 36.8958 34.2318 34.6157 35.8708 31.2993C36.1157 30.7905 36.3418 30.244 36.4925 29.6976H27.4306V24.0068H42.5966Z" fill="#102c6d"/>
</svg>
