<svg width="211" height="52" viewBox="0 0 211 52" fill="none" xmlns="http://www.w3.org/2000/svg">
<path fill-rule="evenodd" clip-rule="evenodd" d="M46.444 27.2271C46.444 14.4104 36.0359 4 23.222 4C10.408 4 0 14.4104 0 27.2271C0 29.6898 0.384251 32.0636 1.09599 34.2918L11.8464 23.539L13.4416 25.1607L20.7377 32.4584L32.1918 21.0018H21.6269V16.4505H39.9586V34.7863H35.4084V24.219L20.7377 38.8929L19.1425 37.2712L11.8464 29.9735L3.06418 38.7577C7.07066 45.7432 14.6019 50.4543 23.222 50.4543C36.0359 50.4543 46.444 40.0439 46.444 27.2271Z" fill="#DBDEE4"/>
<mask id="mask0_2016_4364" style="mask-type:alpha" maskUnits="userSpaceOnUse" x="0" y="4" width="47" height="47">
<path d="M23.222 4C36.0359 4 46.444 14.4104 46.444 27.2271C46.444 40.0439 36.0359 50.4543 23.222 50.4543C10.408 50.4543 0 40.0439 0 27.2271C0 14.4104 10.408 4 23.222 4Z" fill="#1F2E54"/>
</mask>
<g mask="url(#mask0_2016_4364)">
<path d="M12 30L1.5 40L5 48C6.33333 49 9.4 51.2 11 52C13 53 20.5 53 22.5 53C24.5 53 38 51 39 50C40 49 43.5 44 44 43C44.4 42.2 45.5 35.5 45.5 34.5H35.5V24L21 39L12 30Z" fill="#3C2FC0"/>
</g>
<path d="M72.2734 10.3984C72.2005 9.71615 71.8932 9.1849 71.3516 8.80469C70.8151 8.42448 70.1172 8.23437 69.2578 8.23437C68.6536 8.23437 68.1354 8.32552 67.7031 8.50781C67.2708 8.6901 66.9401 8.9375 66.7109 9.25C66.4818 9.5625 66.3646 9.91927 66.3594 10.3203C66.3594 10.6536 66.4349 10.9427 66.5859 11.1875C66.7422 11.4323 66.9531 11.6406 67.2188 11.8125C67.4844 11.9792 67.7786 12.1198 68.1016 12.2344C68.4245 12.349 68.75 12.4453 69.0781 12.5234L70.5781 12.8984C71.1823 13.0391 71.763 13.2292 72.3203 13.4687C72.8828 13.7083 73.3854 14.0104 73.8281 14.375C74.276 14.7396 74.6302 15.1797 74.8906 15.6953C75.151 16.2109 75.2813 16.8151 75.2813 17.5078C75.2813 18.4453 75.0417 19.2708 74.5625 19.9844C74.0833 20.6927 73.3906 21.2474 72.4844 21.6484C71.5833 22.0443 70.4922 22.2422 69.2109 22.2422C67.9661 22.2422 66.8854 22.0495 65.9688 21.6641C65.0573 21.2786 64.3438 20.7161 63.8281 19.9766C63.3177 19.237 63.0417 18.3359 63 17.2734H65.8516C65.8932 17.8307 66.0651 18.2943 66.3672 18.6641C66.6693 19.0339 67.0625 19.3099 67.5469 19.4922C68.0365 19.6745 68.5833 19.7656 69.1875 19.7656C69.8177 19.7656 70.3698 19.6719 70.8438 19.4844C71.3229 19.2917 71.6979 19.026 71.9688 18.6875C72.2396 18.3437 72.3776 17.9427 72.3828 17.4844C72.3776 17.0677 72.2552 16.724 72.0156 16.4531C71.776 16.1771 71.4401 15.9479 71.0078 15.7656C70.5807 15.5781 70.0807 15.4115 69.5078 15.2656L67.6875 14.7969C66.3698 14.4583 65.3281 13.9453 64.5625 13.2578C63.8021 12.5651 63.4219 11.6458 63.4219 10.5C63.4219 9.55729 63.6771 8.73177 64.1875 8.02344C64.7031 7.3151 65.4036 6.76562 66.2891 6.375C67.1745 5.97917 68.1771 5.78125 69.2969 5.78125C70.4323 5.78125 71.4271 5.97917 72.2813 6.375C73.1406 6.76562 73.8151 7.3099 74.3047 8.00781C74.7943 8.70052 75.0469 9.4974 75.0625 10.3984H72.2734ZM82.9746 22.2344C81.8027 22.2344 80.7871 21.9766 79.9277 21.4609C79.0684 20.9453 78.4017 20.224 77.9277 19.2969C77.459 18.3698 77.2246 17.2865 77.2246 16.0469C77.2246 14.8073 77.459 13.7214 77.9277 12.7891C78.4017 11.8568 79.0684 11.1328 79.9277 10.6172C80.7871 10.1016 81.8027 9.84375 82.9746 9.84375C84.1465 9.84375 85.1621 10.1016 86.0215 10.6172C86.8809 11.1328 87.5449 11.8568 88.0137 12.7891C88.4876 13.7214 88.7246 14.8073 88.7246 16.0469C88.7246 17.2865 88.4876 18.3698 88.0137 19.2969C87.5449 20.224 86.8809 20.9453 86.0215 21.4609C85.1621 21.9766 84.1465 22.2344 82.9746 22.2344ZM82.9902 19.9687C83.6257 19.9687 84.1569 19.7943 84.584 19.4453C85.0111 19.0911 85.3288 18.6172 85.5371 18.0234C85.7507 17.4297 85.8574 16.7682 85.8574 16.0391C85.8574 15.3047 85.7507 14.6406 85.5371 14.0469C85.3288 13.4479 85.0111 12.9714 84.584 12.6172C84.1569 12.263 83.6257 12.0859 82.9902 12.0859C82.3392 12.0859 81.7975 12.263 81.3652 12.6172C80.9382 12.9714 80.6178 13.4479 80.4043 14.0469C80.196 14.6406 80.0918 15.3047 80.0918 16.0391C80.0918 16.7682 80.196 17.4297 80.4043 18.0234C80.6178 18.6172 80.9382 19.0911 81.3652 19.4453C81.7975 19.7943 82.3392 19.9687 82.9902 19.9687ZM97.2031 10V12.1875H90.1094V10H97.2031ZM91.8828 22V8.86719C91.8828 8.05989 92.0495 7.38802 92.3828 6.85156C92.7214 6.3151 93.1745 5.91406 93.7422 5.64844C94.3099 5.38281 94.9401 5.25 95.6328 5.25C96.1224 5.25 96.5573 5.28906 96.9375 5.36719C97.3177 5.44531 97.599 5.51562 97.7813 5.57812L97.2188 7.76562C97.099 7.72917 96.9479 7.69271 96.7656 7.65625C96.5833 7.61458 96.3802 7.59375 96.1562 7.59375C95.6302 7.59375 95.2578 7.72135 95.0391 7.97656C94.8255 8.22656 94.7188 8.58594 94.7188 9.05469V22H91.8828ZM105.41 10V12.1875H98.5117V10H105.41ZM100.215 7.125H103.043V18.3906C103.043 18.7708 103.1 19.0625 103.215 19.2656C103.335 19.4635 103.491 19.599 103.684 19.6719C103.876 19.7448 104.09 19.7812 104.324 19.7812C104.501 19.7812 104.663 19.7682 104.809 19.7422C104.96 19.7161 105.074 19.6927 105.152 19.6719L105.629 21.8828C105.478 21.9349 105.262 21.9922 104.98 22.0547C104.704 22.1172 104.366 22.1536 103.965 22.1641C103.257 22.1849 102.618 22.0781 102.051 21.8437C101.483 21.6042 101.033 21.2344 100.699 20.7344C100.371 20.2344 100.21 19.6094 100.215 18.8594V7.125ZM113.357 22V6H119.482C120.639 6 121.6 6.18229 122.365 6.54687C123.136 6.90625 123.712 7.39844 124.092 8.02344C124.477 8.64844 124.67 9.35677 124.67 10.1484C124.67 10.7995 124.545 11.3568 124.295 11.8203C124.045 12.2786 123.709 12.651 123.287 12.9375C122.865 13.224 122.394 13.4297 121.873 13.5547V13.7109C122.441 13.7422 122.985 13.9167 123.506 14.2344C124.032 14.5469 124.462 14.9896 124.795 15.5625C125.128 16.1354 125.295 16.8281 125.295 17.6406C125.295 18.4687 125.094 19.2135 124.693 19.875C124.292 20.5312 123.688 21.0495 122.881 21.4297C122.074 21.8099 121.058 22 119.834 22H113.357ZM116.256 19.5781H119.373C120.425 19.5781 121.183 19.3776 121.646 18.9766C122.115 18.5703 122.35 18.0495 122.35 17.4141C122.35 16.9401 122.232 16.513 121.998 16.1328C121.764 15.7474 121.43 15.4453 120.998 15.2266C120.566 15.0026 120.05 14.8906 119.451 14.8906H116.256V19.5781ZM116.256 12.8047H119.123C119.623 12.8047 120.074 12.7135 120.475 12.5312C120.876 12.3437 121.191 12.0807 121.42 11.7422C121.654 11.3984 121.771 10.9922 121.771 10.5234C121.771 9.90365 121.553 9.39323 121.115 8.99219C120.683 8.59114 120.04 8.39062 119.186 8.39062H116.256V12.8047ZM127.691 22V10H130.434V12H130.559C130.777 11.3073 131.152 10.7734 131.684 10.3984C132.22 10.0182 132.832 9.82812 133.52 9.82812C133.676 9.82812 133.85 9.83594 134.043 9.85156C134.241 9.86198 134.405 9.88021 134.535 9.90625V12.5078C134.415 12.4661 134.225 12.4297 133.965 12.3984C133.71 12.362 133.462 12.3437 133.223 12.3437C132.707 12.3437 132.243 12.4557 131.832 12.6797C131.426 12.8984 131.105 13.2031 130.871 13.5937C130.637 13.9844 130.52 14.4349 130.52 14.9453V22H127.691ZM139.652 22.2422C138.892 22.2422 138.207 22.1068 137.598 21.8359C136.993 21.5599 136.514 21.1536 136.16 20.6172C135.811 20.0807 135.637 19.4193 135.637 18.6328C135.637 17.9557 135.762 17.3958 136.012 16.9531C136.262 16.5104 136.603 16.1562 137.035 15.8906C137.467 15.625 137.954 15.4245 138.496 15.2891C139.043 15.1484 139.608 15.0469 140.191 14.9844C140.895 14.9115 141.465 14.8464 141.902 14.7891C142.34 14.7266 142.658 14.6328 142.855 14.5078C143.059 14.3776 143.16 14.1771 143.16 13.9062V13.8594C143.16 13.2708 142.986 12.8151 142.637 12.4922C142.288 12.1693 141.785 12.0078 141.129 12.0078C140.436 12.0078 139.887 12.1589 139.48 12.4609C139.079 12.763 138.809 13.1198 138.668 13.5312L136.027 13.1562C136.236 12.4271 136.579 11.8177 137.059 11.3281C137.538 10.8333 138.124 10.4635 138.816 10.2187C139.509 9.96875 140.275 9.84375 141.113 9.84375C141.691 9.84375 142.267 9.91146 142.84 10.0469C143.413 10.1823 143.936 10.4062 144.41 10.7187C144.884 11.026 145.264 11.4453 145.551 11.9766C145.842 12.5078 145.988 13.1719 145.988 13.9687V22H143.27V20.3516H143.176C143.004 20.6849 142.762 20.9974 142.449 21.2891C142.142 21.5755 141.754 21.8073 141.285 21.9844C140.822 22.1563 140.277 22.2422 139.652 22.2422ZM140.387 20.1641C140.954 20.1641 141.447 20.0521 141.863 19.8281C142.28 19.599 142.6 19.2969 142.824 18.9219C143.053 18.5469 143.168 18.138 143.168 17.6953V16.2812C143.079 16.3542 142.928 16.4219 142.715 16.4844C142.507 16.5469 142.272 16.6016 142.012 16.6484C141.751 16.6953 141.493 16.737 141.238 16.7734C140.983 16.8099 140.762 16.8411 140.574 16.8672C140.152 16.9245 139.775 17.0182 139.441 17.1484C139.108 17.2786 138.845 17.4609 138.652 17.6953C138.46 17.9245 138.363 18.2214 138.363 18.5859C138.363 19.1068 138.553 19.5 138.934 19.7656C139.314 20.0312 139.798 20.1641 140.387 20.1641ZM151.66 14.9687V22H148.832V10H151.535V12.0391H151.676C151.952 11.3672 152.392 10.8333 152.996 10.4375C153.605 10.0417 154.358 9.84375 155.254 9.84375C156.082 9.84375 156.803 10.0208 157.418 10.375C158.038 10.7292 158.517 11.2422 158.855 11.9141C159.199 12.5859 159.368 13.401 159.363 14.3594V22H156.535V14.7969C156.535 13.9948 156.327 13.3672 155.91 12.9141C155.499 12.4609 154.928 12.2344 154.199 12.2344C153.704 12.2344 153.264 12.3437 152.879 12.5625C152.499 12.776 152.199 13.0859 151.98 13.4922C151.767 13.8984 151.66 14.3906 151.66 14.9687ZM166.691 22.2109C165.749 22.2109 164.905 21.9688 164.16 21.4844C163.415 21 162.827 20.2969 162.395 19.375C161.962 18.4531 161.746 17.3333 161.746 16.0156C161.746 14.6823 161.965 13.5573 162.402 12.6406C162.845 11.7187 163.441 11.0234 164.191 10.5547C164.941 10.0807 165.777 9.84375 166.699 9.84375C167.402 9.84375 167.98 9.96354 168.434 10.2031C168.887 10.4375 169.246 10.7214 169.512 11.0547C169.777 11.3828 169.983 11.6927 170.129 11.9844H170.246V6H173.082V22H170.301V20.1094H170.129C169.983 20.401 169.772 20.7109 169.496 21.0391C169.22 21.362 168.855 21.638 168.402 21.8672C167.949 22.0964 167.379 22.2109 166.691 22.2109ZM167.48 19.8906C168.079 19.8906 168.59 19.7292 169.012 19.4062C169.434 19.0781 169.754 18.6224 169.973 18.0391C170.191 17.4557 170.301 16.776 170.301 16C170.301 15.224 170.191 14.5495 169.973 13.9766C169.759 13.4036 169.441 12.9583 169.02 12.6406C168.603 12.3229 168.09 12.1641 167.48 12.1641C166.85 12.1641 166.324 12.3281 165.902 12.6562C165.48 12.9844 165.163 13.4375 164.949 14.0156C164.736 14.5937 164.629 15.2552 164.629 16C164.629 16.75 164.736 17.4193 164.949 18.0078C165.168 18.5911 165.488 19.0521 165.91 19.3906C166.337 19.724 166.861 19.8906 167.48 19.8906ZM176.096 22V10H178.924V22H176.096ZM177.518 8.29688C177.07 8.29688 176.684 8.14844 176.361 7.85156C176.038 7.54948 175.877 7.1875 175.877 6.76562C175.877 6.33854 176.038 5.97656 176.361 5.67969C176.684 5.3776 177.07 5.22656 177.518 5.22656C177.971 5.22656 178.356 5.3776 178.674 5.67969C178.997 5.97656 179.158 6.33854 179.158 6.76562C179.158 7.1875 178.997 7.54948 178.674 7.85156C178.356 8.14844 177.971 8.29688 177.518 8.29688ZM184.66 14.9687V22H181.832V10H184.535V12.0391H184.676C184.952 11.3672 185.392 10.8333 185.996 10.4375C186.605 10.0417 187.358 9.84375 188.254 9.84375C189.082 9.84375 189.803 10.0208 190.418 10.375C191.038 10.7292 191.517 11.2422 191.855 11.9141C192.199 12.5859 192.368 13.401 192.363 14.3594V22H189.535V14.7969C189.535 13.9948 189.327 13.3672 188.91 12.9141C188.499 12.4609 187.928 12.2344 187.199 12.2344C186.704 12.2344 186.264 12.3437 185.879 12.5625C185.499 12.776 185.199 13.0859 184.98 13.4922C184.767 13.8984 184.66 14.3906 184.66 14.9687ZM200.457 26.75C199.441 26.75 198.569 26.612 197.84 26.3359C197.111 26.0651 196.525 25.7005 196.082 25.2422C195.639 24.7839 195.332 24.276 195.16 23.7188L197.707 23.1016C197.822 23.3359 197.988 23.5677 198.207 23.7969C198.426 24.0313 198.72 24.224 199.09 24.375C199.465 24.5313 199.936 24.6094 200.504 24.6094C201.306 24.6094 201.97 24.4141 202.496 24.0234C203.022 23.638 203.285 23.0026 203.285 22.1172V19.8437H203.145C202.999 20.1354 202.785 20.4349 202.504 20.7422C202.228 21.0495 201.861 21.3073 201.402 21.5156C200.949 21.724 200.379 21.8281 199.691 21.8281C198.77 21.8281 197.934 21.612 197.184 21.1797C196.439 20.7422 195.845 20.0911 195.402 19.2266C194.965 18.3568 194.746 17.2682 194.746 15.9609C194.746 14.6432 194.965 13.5312 195.402 12.625C195.845 11.7135 196.441 11.0234 197.191 10.5547C197.941 10.0807 198.777 9.84375 199.699 9.84375C200.402 9.84375 200.98 9.96354 201.434 10.2031C201.892 10.4375 202.257 10.7214 202.527 11.0547C202.798 11.3828 203.004 11.6927 203.145 11.9844H203.301V10H206.09V22.1953C206.09 23.2214 205.845 24.0703 205.355 24.7422C204.866 25.4141 204.197 25.9167 203.348 26.25C202.499 26.5833 201.535 26.75 200.457 26.75ZM200.48 19.6094C201.079 19.6094 201.59 19.4635 202.012 19.1719C202.434 18.8802 202.754 18.4609 202.973 17.9141C203.191 17.3672 203.301 16.7109 203.301 15.9453C203.301 15.1901 203.191 14.5286 202.973 13.9609C202.759 13.3932 202.441 12.9531 202.02 12.6406C201.603 12.3229 201.09 12.1641 200.48 12.1641C199.85 12.1641 199.324 12.3281 198.902 12.6562C198.48 12.9844 198.163 13.4349 197.949 14.0078C197.736 14.5755 197.629 15.2214 197.629 15.9453C197.629 16.6797 197.736 17.3229 197.949 17.875C198.168 18.4219 198.488 18.849 198.91 19.1562C199.337 19.4583 199.861 19.6094 200.48 19.6094Z" fill="#1F2E54"/>
<path d="M72.0994 40.5H70.7784C70.7003 40.12 70.5636 39.7862 70.3683 39.4986C70.1765 39.2109 69.9421 38.9695 69.6651 38.7741C69.3917 38.5753 69.0881 38.4261 68.7543 38.3267C68.4205 38.2273 68.0724 38.1776 67.7102 38.1776C67.0497 38.1776 66.4513 38.3445 65.9151 38.6783C65.3825 39.0121 64.9581 39.5039 64.642 40.1538C64.3295 40.8036 64.1733 41.6009 64.1733 42.5455C64.1733 43.4901 64.3295 44.2873 64.642 44.9371C64.9581 45.587 65.3825 46.0788 65.9151 46.4126C66.4513 46.7464 67.0497 46.9134 67.7102 46.9134C68.0724 46.9134 68.4205 46.8636 68.7543 46.7642C69.0881 46.6648 69.3917 46.5174 69.6651 46.3221C69.9421 46.1232 70.1765 45.88 70.3683 45.5923C70.5636 45.3011 70.7003 44.9673 70.7784 44.5909H72.0994C72 45.1484 71.8189 45.6474 71.5561 46.0877C71.2933 46.5281 70.9666 46.9027 70.576 47.2116C70.1854 47.517 69.7468 47.7496 69.2603 47.9094C68.7773 48.0692 68.2607 48.1491 67.7102 48.1491C66.7798 48.1491 65.9524 47.9219 65.228 47.4673C64.5036 47.0128 63.9336 46.3665 63.5181 45.5284C63.1026 44.6903 62.8949 43.696 62.8949 42.5455C62.8949 41.3949 63.1026 40.4006 63.5181 39.5625C63.9336 38.7244 64.5036 38.0781 65.228 37.6236C65.9524 37.169 66.7798 36.9418 67.7102 36.9418C68.2607 36.9418 68.7773 37.0217 69.2603 37.1815C69.7468 37.3413 70.1854 37.5756 70.576 37.8846C70.9666 38.19 71.2933 38.5629 71.5561 39.0032C71.8189 39.44 72 39.9389 72.0994 40.5ZM77.3875 48.1705C76.6489 48.1705 76.0008 47.9947 75.4433 47.6431C74.8893 47.2915 74.4561 46.7997 74.1436 46.1676C73.8346 45.5355 73.6801 44.7969 73.6801 43.9517C73.6801 43.0994 73.8346 42.3555 74.1436 41.7198C74.4561 41.0842 74.8893 40.5906 75.4433 40.239C76.0008 39.8874 76.6489 39.7116 77.3875 39.7116C78.1262 39.7116 78.7725 39.8874 79.3264 40.239C79.884 40.5906 80.3172 41.0842 80.6262 41.7198C80.9387 42.3555 81.0949 43.0994 81.0949 43.9517C81.0949 44.7969 80.9387 45.5355 80.6262 46.1676C80.3172 46.7997 79.884 47.2915 79.3264 47.6431C78.7725 47.9947 78.1262 48.1705 77.3875 48.1705ZM77.3875 47.0412C77.9486 47.0412 78.4102 46.8974 78.7725 46.6097C79.1347 46.3221 79.4028 45.9439 79.5768 45.4751C79.7508 45.0064 79.8378 44.4986 79.8378 43.9517C79.8378 43.4048 79.7508 42.8952 79.5768 42.4229C79.4028 41.9506 79.1347 41.5689 78.7725 41.2777C78.4102 40.9865 77.9486 40.8409 77.3875 40.8409C76.8264 40.8409 76.3648 40.9865 76.0026 41.2777C75.6404 41.5689 75.3722 41.9506 75.1982 42.4229C75.0242 42.8952 74.9372 43.4048 74.9372 43.9517C74.9372 44.4986 75.0242 45.0064 75.1982 45.4751C75.3722 45.9439 75.6404 46.3221 76.0026 46.6097C76.3648 46.8974 76.8264 47.0412 77.3875 47.0412ZM84.271 43.0781V48H83.0138V39.8182H84.2283V41.0966H84.3349C84.5266 40.6811 84.8178 40.3473 85.2085 40.0952C85.5991 39.8395 86.1033 39.7116 86.7212 39.7116C87.2752 39.7116 87.7599 39.8253 88.1754 40.0526C88.5909 40.2763 88.9141 40.6172 89.1449 41.0753C89.3757 41.5298 89.4911 42.1051 89.4911 42.8011V48H88.234V42.8864C88.234 42.2436 88.0671 41.7429 87.7333 41.3842C87.3995 41.022 86.9414 40.8409 86.359 40.8409C85.9577 40.8409 85.5991 40.9279 85.283 41.1019C84.9705 41.2759 84.7237 41.5298 84.5426 41.8636C84.3615 42.1974 84.271 42.6023 84.271 43.0781ZM97.5837 41.6506L96.4545 41.9702C96.3834 41.782 96.2787 41.5991 96.1402 41.4215C96.0052 41.2404 95.8206 41.0913 95.5862 40.9741C95.3518 40.8569 95.0518 40.7983 94.686 40.7983C94.1853 40.7983 93.768 40.9137 93.4342 41.1445C93.104 41.3718 92.9388 41.6612 92.9388 42.0128C92.9388 42.3253 93.0525 42.5721 93.2797 42.7532C93.507 42.9343 93.8621 43.0852 94.3451 43.206L95.5596 43.5043C96.2911 43.6818 96.8362 43.9535 97.1949 44.3192C97.5535 44.6815 97.7329 45.1484 97.7329 45.7202C97.7329 46.1889 97.5979 46.608 97.328 46.9773C97.0617 47.3466 96.6888 47.6378 96.2094 47.8509C95.73 48.0639 95.1725 48.1705 94.5368 48.1705C93.7023 48.1705 93.0116 47.9893 92.4648 47.6271C91.9179 47.2649 91.5716 46.7358 91.426 46.0398L92.6192 45.7415C92.7329 46.1818 92.9477 46.5121 93.2638 46.7322C93.5834 46.9524 94.0006 47.0625 94.5155 47.0625C95.1015 47.0625 95.5667 46.9382 95.9111 46.6896C96.2591 46.4375 96.4332 46.1357 96.4332 45.7841C96.4332 45.5 96.3337 45.2621 96.1349 45.0703C95.936 44.875 95.6306 44.7294 95.2187 44.6335L93.855 44.3139C93.1057 44.1364 92.5553 43.8612 92.2037 43.4883C91.8557 43.1119 91.6817 42.6413 91.6817 42.0767C91.6817 41.6151 91.8113 41.2067 92.0706 40.8516C92.3334 40.4964 92.6903 40.2177 93.1412 40.0153C93.5958 39.8129 94.1107 39.7116 94.686 39.7116C95.4956 39.7116 96.1313 39.8892 96.593 40.2443C97.0581 40.5994 97.3884 41.0682 97.5837 41.6506ZM104.781 44.6548V39.8182H106.039V48H104.781V46.6151H104.696C104.504 47.0305 104.206 47.3839 103.801 47.6751C103.396 47.9627 102.885 48.1065 102.267 48.1065C101.756 48.1065 101.301 47.9947 100.904 47.771C100.506 47.5437 100.193 47.2028 99.9661 46.7482C99.7388 46.2901 99.6252 45.7131 99.6252 45.017V39.8182H100.882V44.9318C100.882 45.5284 101.049 46.0043 101.383 46.3594C101.72 46.7145 102.15 46.892 102.672 46.892C102.985 46.892 103.302 46.8121 103.626 46.6523C103.952 46.4925 104.226 46.2475 104.446 45.9173C104.67 45.587 104.781 45.1662 104.781 44.6548ZM109.598 37.0909V48H108.341V37.0909H109.598ZM115.459 39.8182V40.8835H111.219V39.8182H115.459ZM112.455 37.858H113.712V45.6562C113.712 46.0114 113.763 46.2777 113.866 46.4553C113.973 46.6293 114.108 46.7464 114.271 46.8068C114.438 46.8636 114.614 46.892 114.798 46.892C114.937 46.892 115.05 46.8849 115.139 46.8707C115.228 46.853 115.299 46.8388 115.352 46.8281L115.608 47.9574C115.523 47.9893 115.404 48.0213 115.251 48.0533C115.098 48.0888 114.905 48.1065 114.67 48.1065C114.315 48.1065 113.967 48.0302 113.626 47.8775C113.289 47.7248 113.009 47.4922 112.785 47.1797C112.565 46.8672 112.455 46.473 112.455 45.9972V37.858ZM119.757 48.1918C119.239 48.1918 118.768 48.0941 118.346 47.8988C117.923 47.6999 117.588 47.4141 117.339 47.0412C117.091 46.6648 116.966 46.2102 116.966 45.6776C116.966 45.2088 117.059 44.8288 117.243 44.5376C117.428 44.2429 117.675 44.0121 117.984 43.8452C118.293 43.6783 118.634 43.554 119.006 43.4723C119.383 43.3871 119.761 43.3196 120.141 43.2699C120.638 43.206 121.041 43.158 121.35 43.1261C121.663 43.0906 121.89 43.032 122.032 42.9503C122.178 42.8686 122.25 42.7266 122.25 42.5241V42.4815C122.25 41.956 122.107 41.5476 121.819 41.2564C121.535 40.9652 121.103 40.8196 120.525 40.8196C119.924 40.8196 119.454 40.951 119.113 41.2138C118.772 41.4766 118.532 41.7571 118.394 42.0554L117.201 41.6293C117.414 41.1321 117.698 40.745 118.053 40.468C118.412 40.1875 118.802 39.9922 119.225 39.8821C119.651 39.7685 120.07 39.7116 120.482 39.7116C120.745 39.7116 121.047 39.7436 121.387 39.8075C121.732 39.8679 122.064 39.994 122.384 40.1857C122.707 40.3775 122.975 40.6669 123.188 41.054C123.401 41.4411 123.507 41.9595 123.507 42.6094V48H122.25V46.892H122.186C122.101 47.0696 121.959 47.2596 121.76 47.462C121.561 47.6644 121.297 47.8366 120.967 47.9787C120.636 48.1207 120.233 48.1918 119.757 48.1918ZM119.949 47.0625C120.446 47.0625 120.865 46.9648 121.206 46.7695C121.551 46.5742 121.81 46.3221 121.984 46.0131C122.162 45.7042 122.25 45.3793 122.25 45.0384V43.8878C122.197 43.9517 122.08 44.0103 121.899 44.0636C121.721 44.1133 121.515 44.1577 121.281 44.1967C121.05 44.2322 120.825 44.2642 120.604 44.2926C120.388 44.3175 120.212 44.3388 120.077 44.3565C119.75 44.3991 119.445 44.4684 119.161 44.5643C118.88 44.6566 118.653 44.7969 118.479 44.9851C118.309 45.1697 118.223 45.4219 118.223 45.7415C118.223 46.1783 118.385 46.5085 118.708 46.7322C119.035 46.9524 119.449 47.0625 119.949 47.0625ZM127.059 43.0781V48H125.802V39.8182H127.016V41.0966H127.123C127.315 40.6811 127.606 40.3473 127.997 40.0952C128.387 39.8395 128.891 39.7116 129.509 39.7116C130.063 39.7116 130.548 39.8253 130.964 40.0526C131.379 40.2763 131.702 40.6172 131.933 41.0753C132.164 41.5298 132.279 42.1051 132.279 42.8011V48H131.022V42.8864C131.022 42.2436 130.855 41.7429 130.521 41.3842C130.188 41.022 129.729 40.8409 129.147 40.8409C128.746 40.8409 128.387 40.9279 128.071 41.1019C127.759 41.2759 127.512 41.5298 127.331 41.8636C127.15 42.1974 127.059 42.6023 127.059 43.0781ZM137.9 48.1705C137.133 48.1705 136.473 47.9893 135.919 47.6271C135.365 47.2649 134.939 46.766 134.64 46.1303C134.342 45.4947 134.193 44.7685 134.193 43.9517C134.193 43.1207 134.346 42.3874 134.651 41.7518C134.96 41.1126 135.39 40.6136 135.94 40.255C136.494 39.8928 137.14 39.7116 137.879 39.7116C138.454 39.7116 138.973 39.8182 139.434 40.0312C139.896 40.2443 140.274 40.5426 140.569 40.9261C140.864 41.3097 141.047 41.7571 141.118 42.2685H139.86C139.765 41.8956 139.551 41.5653 139.221 41.2777C138.895 40.9865 138.454 40.8409 137.9 40.8409C137.41 40.8409 136.98 40.9687 136.611 41.2244C136.245 41.4766 135.96 41.8335 135.754 42.2951C135.551 42.7532 135.45 43.2912 135.45 43.9091C135.45 44.5412 135.549 45.0916 135.748 45.5604C135.951 46.0291 136.235 46.3931 136.6 46.6523C136.97 46.9116 137.403 47.0412 137.9 47.0412C138.227 47.0412 138.523 46.9844 138.79 46.8707C139.056 46.7571 139.282 46.5938 139.466 46.3807C139.651 46.1676 139.782 45.9119 139.86 45.6136H141.118C141.047 46.0966 140.871 46.5316 140.59 46.9187C140.313 47.3022 139.946 47.6076 139.488 47.8349C139.033 48.0586 138.504 48.1705 137.9 48.1705ZM143.765 51.0682C143.552 51.0682 143.362 51.0504 143.195 51.0149C143.028 50.983 142.913 50.951 142.849 50.919L143.168 49.8111C143.474 49.8892 143.744 49.9176 143.978 49.8963C144.212 49.875 144.42 49.7702 144.601 49.582C144.786 49.3974 144.955 49.0973 145.107 48.6818L145.342 48.0426L142.316 39.8182H143.68L145.938 46.3381H146.023L148.282 39.8182H149.646L146.173 49.1932C146.016 49.6158 145.823 49.9656 145.592 50.2425C145.361 50.5231 145.093 50.7308 144.788 50.8658C144.486 51.0007 144.145 51.0682 143.765 51.0682Z" fill="#1F2E54"/>
</svg>
