<svg width="210" height="49" viewBox="0 0 210 49" fill="none" xmlns="http://www.w3.org/2000/svg">
<path fill-rule="evenodd" clip-rule="evenodd" d="M48.235 10.0901C51.1979 10.0901 53.6155 12.5088 53.6155 15.4966V38.1896C53.6155 41.1774 51.1979 43.5961 48.235 43.5961H43.7078V47.3664C43.7078 47.9355 43.3997 48.4572 42.9019 48.7418C42.4041 49.0026 41.8116 49.0026 41.3138 48.6943L33.0179 43.5961H17.8481C15.6438 43.5961 13.7476 42.2445 12.918 40.3475L8.93592 43.9755C8.46187 44.3786 7.79819 44.4972 7.22933 44.2363C6.66046 43.9992 6.30492 43.4301 6.30492 42.8136V36.4823H5.38052C2.41768 36.4823 0 34.0636 0 31.0995V8.38278C0 5.41869 2.41768 3 5.38052 3H32.8994C35.8859 3 38.3036 5.41869 38.3036 8.38278V10.0901H48.235ZM9.43368 34.9173V39.2567L15.4779 33.7553C15.7623 33.4945 16.1415 33.3522 16.5445 33.3522H32.8994C34.1556 33.3522 35.1511 32.3326 35.1511 31.0995V8.38278C35.1511 7.14972 34.1556 6.13007 32.8994 6.13007H5.38052C4.14797 6.13007 3.12876 7.14972 3.12876 8.38278V31.0995C3.12876 32.3326 4.14797 33.3522 5.38052 33.3522H7.8693C8.7463 33.3522 9.43368 34.0399 9.43368 34.9173ZM50.4868 15.4966C50.4868 14.2635 49.4676 13.2439 48.235 13.2439H38.3036V31.0995C38.3036 34.0636 35.8859 36.4823 32.8994 36.4823H17.1371L15.6201 37.8813V38.1896C15.6201 39.4464 16.6156 40.4423 17.8481 40.4423H33.4682C33.7764 40.4423 34.0608 40.5372 34.2978 40.6794L40.579 44.5446V42.0311C40.579 41.1537 41.2664 40.4423 42.1434 40.4423H48.235C49.4676 40.4423 50.4868 39.4464 50.4868 38.1896V15.4966Z" fill="#DBDEE4"/>
<path fill-rule="evenodd" clip-rule="evenodd" d="M16.7815 28.0406H9.29143C8.43813 28.0406 7.72705 27.3529 7.72705 26.4755V11.4891C7.72705 10.6118 8.43813 9.90039 9.29143 9.90039H16.7815C17.7296 9.90039 18.5829 10.2324 19.2703 10.754C19.9577 10.2324 20.8109 9.90039 21.7591 9.90039H29.2491C30.1261 9.90039 30.8135 10.6118 30.8135 11.4891V26.4755C30.8135 27.3529 30.1261 28.0406 29.2491 28.0406H21.7591C21.2613 28.0406 20.8347 28.4674 20.8347 28.9654V29.1788C20.7635 31.2418 17.777 31.2655 17.7059 29.1788V28.9654C17.7059 28.4674 17.2792 28.0406 16.7815 28.0406ZM20.8347 13.9553V25.0054C21.1349 24.9421 21.443 24.9105 21.7591 24.9105H27.6847V13.0542H21.7591C21.2613 13.0542 20.8347 13.481 20.8347 13.9553ZM10.8558 13.0542V24.9105H16.7815C17.0975 24.9105 17.4057 24.9421 17.7059 25.0054V13.9553C17.7059 13.481 17.2792 13.0542 16.7815 13.0542H10.8558Z" fill="#102c6d"/>
<path d="M72.3906 6H76.5625L80.9688 16.75H81.1563L85.5625 6H89.7344V22H86.4531V11.5859H86.3203L82.1797 21.9219H79.9453L75.8047 11.5469H75.6719V22H72.3906V6ZM97.9277 22.2344C96.6934 22.2344 95.6309 21.9844 94.7402 21.4844C93.8548 20.9792 93.1725 20.2656 92.6934 19.3437C92.2142 18.4167 91.9746 17.3203 91.9746 16.0547C91.9746 14.8203 92.2142 13.737 92.6934 12.8047C93.1725 11.8724 93.847 11.1458 94.7168 10.625C95.5918 10.1042 96.6178 9.84375 97.7949 9.84375C98.5866 9.84375 99.3236 9.97135 100.006 10.2266C100.693 10.4766 101.292 10.8542 101.803 11.3594C102.318 11.8646 102.719 12.5 103.006 13.2656C103.292 14.026 103.436 14.9167 103.436 15.9375V16.8516H93.3027V14.7891H100.303C100.303 14.3099 100.199 13.8854 99.9902 13.5156C99.7819 13.1458 99.4928 12.8568 99.123 12.6484C98.7585 12.4349 98.334 12.3281 97.8496 12.3281C97.3444 12.3281 96.8965 12.4453 96.5059 12.6797C96.1204 12.9089 95.8184 13.2187 95.5996 13.6094C95.3809 13.9948 95.2689 14.4245 95.2637 14.8984V16.8594C95.2637 17.4531 95.373 17.9661 95.5918 18.3984C95.8158 18.8307 96.1309 19.1641 96.5371 19.3984C96.9434 19.6328 97.4251 19.75 97.9824 19.75C98.3522 19.75 98.6908 19.6979 98.998 19.5938C99.3053 19.4896 99.5684 19.3333 99.7871 19.125C100.006 18.9167 100.173 18.6615 100.287 18.3594L103.365 18.5625C103.209 19.3021 102.889 19.9479 102.404 20.5C101.925 21.0469 101.305 21.474 100.545 21.7813C99.7897 22.0833 98.9173 22.2344 97.9277 22.2344ZM108.936 6V22H105.607V6H108.936ZM114.93 6V22H111.602V6H114.93ZM123.018 22.2344C121.804 22.2344 120.755 21.9766 119.869 21.4609C118.989 20.9401 118.309 20.2161 117.83 19.2891C117.351 18.3568 117.111 17.276 117.111 16.0469C117.111 14.8073 117.351 13.724 117.83 12.7969C118.309 11.8646 118.989 11.1406 119.869 10.625C120.755 10.1042 121.804 9.84375 123.018 9.84375C124.231 9.84375 125.278 10.1042 126.158 10.625C127.044 11.1406 127.726 11.8646 128.205 12.7969C128.684 13.724 128.924 14.8073 128.924 16.0469C128.924 17.276 128.684 18.3568 128.205 19.2891C127.726 20.2161 127.044 20.9401 126.158 21.4609C125.278 21.9766 124.231 22.2344 123.018 22.2344ZM123.033 19.6562C123.585 19.6562 124.046 19.5 124.416 19.1875C124.786 18.8698 125.064 18.4375 125.252 17.8906C125.445 17.3437 125.541 16.7214 125.541 16.0234C125.541 15.3255 125.445 14.7031 125.252 14.1562C125.064 13.6094 124.786 13.1771 124.416 12.8594C124.046 12.5417 123.585 12.3828 123.033 12.3828C122.476 12.3828 122.007 12.5417 121.627 12.8594C121.252 13.1771 120.968 13.6094 120.775 14.1562C120.588 14.7031 120.494 15.3255 120.494 16.0234C120.494 16.7214 120.588 17.3437 120.775 17.8906C120.968 18.4375 121.252 18.8698 121.627 19.1875C122.007 19.5 122.476 19.6562 123.033 19.6562ZM133.154 22L129.889 10H133.256L135.115 18.0625H135.225L137.162 10H140.467L142.436 18.0156H142.537L144.365 10H147.725L144.467 22H140.943L138.881 14.4531H138.732L136.67 22H133.154Z" fill="#102c6d"/>
<path d="M81.0994 37.5H79.7784C79.7003 37.12 79.5636 36.7862 79.3683 36.4986C79.1765 36.2109 78.9421 35.9695 78.6651 35.7741C78.3917 35.5753 78.0881 35.4261 77.7543 35.3267C77.4205 35.2273 77.0724 35.1776 76.7102 35.1776C76.0497 35.1776 75.4513 35.3445 74.9151 35.6783C74.3825 36.0121 73.9581 36.5039 73.642 37.1538C73.3295 37.8036 73.1733 38.6009 73.1733 39.5455C73.1733 40.4901 73.3295 41.2873 73.642 41.9371C73.9581 42.587 74.3825 43.0788 74.9151 43.4126C75.4513 43.7464 76.0497 43.9134 76.7102 43.9134C77.0724 43.9134 77.4205 43.8636 77.7543 43.7642C78.0881 43.6648 78.3917 43.5174 78.6651 43.3221C78.9421 43.1232 79.1765 42.88 79.3683 42.5923C79.5636 42.3011 79.7003 41.9673 79.7784 41.5909H81.0994C81 42.1484 80.8189 42.6474 80.5561 43.0877C80.2933 43.5281 79.9666 43.9027 79.576 44.2116C79.1854 44.517 78.7468 44.7496 78.2603 44.9094C77.7773 45.0692 77.2607 45.1491 76.7102 45.1491C75.7798 45.1491 74.9524 44.9219 74.228 44.4673C73.5036 44.0128 72.9336 43.3665 72.5181 42.5284C72.1026 41.6903 71.8949 40.696 71.8949 39.5455C71.8949 38.3949 72.1026 37.4006 72.5181 36.5625C72.9336 35.7244 73.5036 35.0781 74.228 34.6236C74.9524 34.169 75.7798 33.9418 76.7102 33.9418C77.2607 33.9418 77.7773 34.0217 78.2603 34.1815C78.7468 34.3413 79.1854 34.5756 79.576 34.8846C79.9666 35.19 80.2933 35.5629 80.5561 36.0032C80.8189 36.44 81 36.9389 81.0994 37.5ZM86.3875 45.1705C85.6489 45.1705 85.0008 44.9947 84.4433 44.6431C83.8893 44.2915 83.4561 43.7997 83.1436 43.1676C82.8346 42.5355 82.6801 41.7969 82.6801 40.9517C82.6801 40.0994 82.8346 39.3555 83.1436 38.7198C83.4561 38.0842 83.8893 37.5906 84.4433 37.239C85.0008 36.8874 85.6489 36.7116 86.3875 36.7116C87.1262 36.7116 87.7725 36.8874 88.3264 37.239C88.884 37.5906 89.3172 38.0842 89.6262 38.7198C89.9387 39.3555 90.0949 40.0994 90.0949 40.9517C90.0949 41.7969 89.9387 42.5355 89.6262 43.1676C89.3172 43.7997 88.884 44.2915 88.3264 44.6431C87.7725 44.9947 87.1262 45.1705 86.3875 45.1705ZM86.3875 44.0412C86.9486 44.0412 87.4102 43.8974 87.7725 43.6097C88.1347 43.3221 88.4028 42.9439 88.5768 42.4751C88.7508 42.0064 88.8378 41.4986 88.8378 40.9517C88.8378 40.4048 88.7508 39.8952 88.5768 39.4229C88.4028 38.9506 88.1347 38.5689 87.7725 38.2777C87.4102 37.9865 86.9486 37.8409 86.3875 37.8409C85.8264 37.8409 85.3648 37.9865 85.0026 38.2777C84.6404 38.5689 84.3722 38.9506 84.1982 39.4229C84.0242 39.8952 83.9372 40.4048 83.9372 40.9517C83.9372 41.4986 84.0242 42.0064 84.1982 42.4751C84.3722 42.9439 84.6404 43.3221 85.0026 43.6097C85.3648 43.8974 85.8264 44.0412 86.3875 44.0412ZM93.271 40.0781V45H92.0138V36.8182H93.2283V38.0966H93.3349C93.5266 37.6811 93.8178 37.3473 94.2085 37.0952C94.5991 36.8395 95.1033 36.7116 95.7212 36.7116C96.2752 36.7116 96.7599 36.8253 97.1754 37.0526C97.5909 37.2763 97.9141 37.6172 98.1449 38.0753C98.3757 38.5298 98.4911 39.1051 98.4911 39.8011V45H97.234V39.8864C97.234 39.2436 97.0671 38.7429 96.7333 38.3842C96.3995 38.022 95.9414 37.8409 95.359 37.8409C94.9577 37.8409 94.5991 37.9279 94.283 38.1019C93.9705 38.2759 93.7237 38.5298 93.5426 38.8636C93.3615 39.1974 93.271 39.6023 93.271 40.0781ZM106.584 38.6506L105.454 38.9702C105.383 38.782 105.279 38.5991 105.14 38.4215C105.005 38.2404 104.821 38.0913 104.586 37.9741C104.352 37.8569 104.052 37.7983 103.686 37.7983C103.185 37.7983 102.768 37.9137 102.434 38.1445C102.104 38.3718 101.939 38.6612 101.939 39.0128C101.939 39.3253 102.052 39.5721 102.28 39.7532C102.507 39.9343 102.862 40.0852 103.345 40.206L104.56 40.5043C105.291 40.6818 105.836 40.9535 106.195 41.3192C106.554 41.6815 106.733 42.1484 106.733 42.7202C106.733 43.1889 106.598 43.608 106.328 43.9773C106.062 44.3466 105.689 44.6378 105.209 44.8509C104.73 45.0639 104.172 45.1705 103.537 45.1705C102.702 45.1705 102.012 44.9893 101.465 44.6271C100.918 44.2649 100.572 43.7358 100.426 43.0398L101.619 42.7415C101.733 43.1818 101.948 43.5121 102.264 43.7322C102.583 43.9524 103.001 44.0625 103.516 44.0625C104.101 44.0625 104.567 43.9382 104.911 43.6896C105.259 43.4375 105.433 43.1357 105.433 42.7841C105.433 42.5 105.334 42.2621 105.135 42.0703C104.936 41.875 104.631 41.7294 104.219 41.6335L102.855 41.3139C102.106 41.1364 101.555 40.8612 101.204 40.4883C100.856 40.1119 100.682 39.6413 100.682 39.0767C100.682 38.6151 100.811 38.2067 101.071 37.8516C101.333 37.4964 101.69 37.2177 102.141 37.0153C102.596 36.8129 103.111 36.7116 103.686 36.7116C104.496 36.7116 105.131 36.8892 105.593 37.2443C106.058 37.5994 106.388 38.0682 106.584 38.6506ZM113.781 41.6548V36.8182H115.039V45H113.781V43.6151H113.696C113.504 44.0305 113.206 44.3839 112.801 44.6751C112.396 44.9627 111.885 45.1065 111.267 45.1065C110.756 45.1065 110.301 44.9947 109.904 44.771C109.506 44.5437 109.193 44.2028 108.966 43.7482C108.739 43.2901 108.625 42.7131 108.625 42.017V36.8182H109.882V41.9318C109.882 42.5284 110.049 43.0043 110.383 43.3594C110.72 43.7145 111.15 43.892 111.672 43.892C111.985 43.892 112.302 43.8121 112.626 43.6523C112.952 43.4925 113.226 43.2475 113.446 42.9173C113.67 42.587 113.781 42.1662 113.781 41.6548ZM118.598 34.0909V45H117.341V34.0909H118.598ZM124.459 36.8182V37.8835H120.219V36.8182H124.459ZM121.455 34.858H122.712V42.6562C122.712 43.0114 122.763 43.2777 122.866 43.4553C122.973 43.6293 123.108 43.7464 123.271 43.8068C123.438 43.8636 123.614 43.892 123.798 43.892C123.937 43.892 124.05 43.8849 124.139 43.8707C124.228 43.853 124.299 43.8388 124.352 43.8281L124.608 44.9574C124.523 44.9893 124.404 45.0213 124.251 45.0533C124.098 45.0888 123.905 45.1065 123.67 45.1065C123.315 45.1065 122.967 45.0302 122.626 44.8775C122.289 44.7248 122.009 44.4922 121.785 44.1797C121.565 43.8672 121.455 43.473 121.455 42.9972V34.858ZM126.35 45V36.8182H127.607V45H126.35ZM126.989 35.4545C126.744 35.4545 126.533 35.3711 126.355 35.2042C126.181 35.0373 126.094 34.8366 126.094 34.6023C126.094 34.3679 126.181 34.1673 126.355 34.0004C126.533 33.8335 126.744 33.75 126.989 33.75C127.234 33.75 127.444 33.8335 127.618 34.0004C127.795 34.1673 127.884 34.3679 127.884 34.6023C127.884 34.8366 127.795 35.0373 127.618 35.2042C127.444 35.3711 127.234 35.4545 126.989 35.4545ZM131.166 40.0781V45H129.909V36.8182H131.124V38.0966H131.23C131.422 37.6811 131.713 37.3473 132.104 37.0952C132.495 36.8395 132.999 36.7116 133.617 36.7116C134.171 36.7116 134.655 36.8253 135.071 37.0526C135.486 37.2763 135.81 37.6172 136.04 38.0753C136.271 38.5298 136.387 39.1051 136.387 39.8011V45H135.13V39.8864C135.13 39.2436 134.963 38.7429 134.629 38.3842C134.295 38.022 133.837 37.8409 133.255 37.8409C132.853 37.8409 132.495 37.9279 132.179 38.1019C131.866 38.2759 131.619 38.5298 131.438 38.8636C131.257 39.1974 131.166 39.6023 131.166 40.0781ZM141.986 48.2386C141.379 48.2386 140.857 48.1605 140.42 48.0043C139.983 47.8516 139.619 47.6491 139.328 47.397C139.041 47.1484 138.812 46.8821 138.641 46.598L139.643 45.8949C139.756 46.044 139.9 46.2145 140.074 46.4062C140.248 46.6016 140.486 46.7702 140.788 46.9123C141.093 47.0579 141.493 47.1307 141.986 47.1307C142.647 47.1307 143.192 46.9709 143.622 46.6513C144.051 46.3317 144.266 45.831 144.266 45.1491V43.4872H144.16C144.067 43.6364 143.936 43.821 143.765 44.0412C143.599 44.2578 143.357 44.4513 143.041 44.6218C142.729 44.7887 142.306 44.8722 141.773 44.8722C141.113 44.8722 140.52 44.7159 139.994 44.4034C139.472 44.0909 139.058 43.6364 138.753 43.0398C138.451 42.4432 138.3 41.7187 138.3 40.8665C138.3 40.0284 138.448 39.2987 138.742 38.6772C139.037 38.0522 139.447 37.5692 139.973 37.2283C140.498 36.8839 141.106 36.7116 141.795 36.7116C142.327 36.7116 142.75 36.8004 143.062 36.978C143.378 37.152 143.62 37.3509 143.787 37.5746C143.957 37.7947 144.089 37.9759 144.181 38.1179H144.309V36.8182H145.523V45.2344C145.523 45.9375 145.363 46.5092 145.044 46.9496C144.728 47.3935 144.302 47.7184 143.765 47.9244C143.233 48.1339 142.64 48.2386 141.986 48.2386ZM141.944 43.7429C142.448 43.7429 142.874 43.6275 143.222 43.3967C143.57 43.1658 143.835 42.8338 144.016 42.4006C144.197 41.9673 144.287 41.4489 144.287 40.8452C144.287 40.2557 144.199 39.7354 144.021 39.2844C143.844 38.8335 143.581 38.4801 143.233 38.2244C142.885 37.9687 142.455 37.8409 141.944 37.8409C141.411 37.8409 140.967 37.9759 140.612 38.2457C140.26 38.5156 139.996 38.8778 139.818 39.3324C139.644 39.7869 139.557 40.2912 139.557 40.8452C139.557 41.4134 139.646 41.9158 139.824 42.3526C140.005 42.7859 140.271 43.1268 140.623 43.3754C140.978 43.6204 141.418 43.7429 141.944 43.7429ZM158.18 36.8182C158.116 36.2784 157.856 35.8594 157.402 35.5611C156.947 35.2628 156.39 35.1136 155.729 35.1136C155.246 35.1136 154.824 35.1918 154.461 35.348C154.103 35.5043 153.822 35.7191 153.62 35.9925C153.421 36.266 153.322 36.5767 153.322 36.9247C153.322 37.2159 153.391 37.4663 153.529 37.6758C153.671 37.8817 153.852 38.054 154.073 38.1925C154.293 38.3274 154.524 38.4393 154.765 38.5281C155.007 38.6133 155.229 38.6825 155.431 38.7358L156.539 39.0341C156.823 39.1087 157.139 39.2116 157.487 39.343C157.839 39.4744 158.174 39.6538 158.494 39.881C158.817 40.1048 159.083 40.3924 159.293 40.744C159.502 41.0955 159.607 41.527 159.607 42.0384C159.607 42.6278 159.453 43.1605 159.144 43.6364C158.838 44.1122 158.391 44.4904 157.801 44.771C157.215 45.0515 156.503 45.1918 155.665 45.1918C154.884 45.1918 154.208 45.0657 153.636 44.8136C153.068 44.5614 152.62 44.2099 152.294 43.7589C151.97 43.3079 151.787 42.7841 151.745 42.1875H153.108C153.144 42.5994 153.282 42.9403 153.524 43.2102C153.769 43.4766 154.078 43.6754 154.451 43.8068C154.827 43.9347 155.232 43.9986 155.665 43.9986C156.17 43.9986 156.622 43.9169 157.024 43.7536C157.425 43.5866 157.743 43.3558 157.977 43.0611C158.211 42.7628 158.329 42.4148 158.329 42.017C158.329 41.6548 158.227 41.3601 158.025 41.1328C157.823 40.9055 157.556 40.7209 157.226 40.5788C156.896 40.4368 156.539 40.3125 156.155 40.206L154.813 39.8224C153.961 39.5774 153.286 39.2276 152.789 38.7731C152.292 38.3185 152.043 37.7237 152.043 36.9886C152.043 36.3778 152.208 35.8452 152.539 35.3906C152.872 34.9325 153.32 34.5774 153.881 34.3253C154.445 34.0696 155.076 33.9418 155.772 33.9418C156.475 33.9418 157.1 34.0678 157.647 34.32C158.194 34.5685 158.627 34.9094 158.947 35.3427C159.27 35.7759 159.44 36.2678 159.458 36.8182H158.18ZM165.039 45.1705C164.251 45.1705 163.571 44.9964 162.999 44.6484C162.431 44.2969 161.992 43.8068 161.683 43.1783C161.378 42.5462 161.225 41.8111 161.225 40.973C161.225 40.1349 161.378 39.3963 161.683 38.7571C161.992 38.1143 162.422 37.6136 162.972 37.255C163.526 36.8928 164.172 36.7116 164.911 36.7116C165.337 36.7116 165.758 36.7827 166.174 36.9247C166.589 37.0668 166.967 37.2976 167.308 37.6172C167.649 37.9332 167.921 38.3523 168.123 38.8743C168.326 39.3963 168.427 40.0391 168.427 40.8026V41.3352H162.12V40.2486H167.148C167.148 39.7869 167.056 39.375 166.871 39.0128C166.69 38.6506 166.431 38.3647 166.094 38.1552C165.76 37.9457 165.366 37.8409 164.911 37.8409C164.41 37.8409 163.977 37.9652 163.611 38.2138C163.249 38.4588 162.97 38.7784 162.775 39.1726C162.58 39.5668 162.482 39.9893 162.482 40.4403V41.1648C162.482 41.7827 162.589 42.3065 162.802 42.7362C163.018 43.1623 163.318 43.4872 163.702 43.7109C164.085 43.9311 164.531 44.0412 165.039 44.0412C165.369 44.0412 165.668 43.995 165.934 43.9027C166.204 43.8068 166.436 43.6648 166.632 43.4766C166.827 43.2848 166.978 43.0469 167.084 42.7628L168.299 43.1037C168.171 43.5156 167.956 43.8778 167.654 44.1903C167.353 44.4993 166.98 44.7408 166.536 44.9148C166.092 45.0852 165.593 45.1705 165.039 45.1705ZM170.339 45V36.8182H171.554V38.054H171.639C171.788 37.6491 172.058 37.3207 172.448 37.0685C172.839 36.8164 173.279 36.6903 173.769 36.6903C173.862 36.6903 173.977 36.6921 174.116 36.6957C174.254 36.6992 174.359 36.7045 174.43 36.7116V37.9901C174.387 37.9794 174.29 37.9634 174.137 37.9421C173.988 37.9173 173.83 37.9048 173.663 37.9048C173.265 37.9048 172.91 37.9883 172.598 38.1552C172.289 38.3185 172.044 38.5458 171.862 38.837C171.685 39.1246 171.596 39.4531 171.596 39.8224V45H170.339ZM182.859 36.8182L179.834 45H178.555L175.53 36.8182H176.894L179.152 43.3381H179.237L181.496 36.8182H182.859ZM184.519 45V36.8182H185.776V45H184.519ZM185.158 35.4545C184.913 35.4545 184.702 35.3711 184.524 35.2042C184.35 35.0373 184.263 34.8366 184.263 34.6023C184.263 34.3679 184.35 34.1673 184.524 34.0004C184.702 33.8335 184.913 33.75 185.158 33.75C185.403 33.75 185.612 33.8335 185.786 34.0004C185.964 34.1673 186.053 34.3679 186.053 34.6023C186.053 34.8366 185.964 35.0373 185.786 35.2042C185.612 35.3711 185.403 35.4545 185.158 35.4545ZM191.402 45.1705C190.635 45.1705 189.975 44.9893 189.421 44.6271C188.867 44.2649 188.441 43.766 188.142 43.1303C187.844 42.4947 187.695 41.7685 187.695 40.9517C187.695 40.1207 187.847 39.3874 188.153 38.7518C188.462 38.1126 188.892 37.6136 189.442 37.255C189.996 36.8928 190.642 36.7116 191.381 36.7116C191.956 36.7116 192.475 36.8182 192.936 37.0312C193.398 37.2443 193.776 37.5426 194.071 37.9261C194.366 38.3097 194.548 38.7571 194.619 39.2685H193.362C193.267 38.8956 193.053 38.5653 192.723 38.2777C192.396 37.9865 191.956 37.8409 191.402 37.8409C190.912 37.8409 190.482 37.9687 190.113 38.2244C189.747 38.4766 189.461 38.8335 189.256 39.2951C189.053 39.7532 188.952 40.2912 188.952 40.9091C188.952 41.5412 189.051 42.0916 189.25 42.5604C189.453 43.0291 189.737 43.3931 190.102 43.6523C190.472 43.9116 190.905 44.0412 191.402 44.0412C191.729 44.0412 192.025 43.9844 192.292 43.8707C192.558 43.7571 192.784 43.5938 192.968 43.3807C193.153 43.1676 193.284 42.9119 193.362 42.6136H194.619C194.548 43.0966 194.373 43.5316 194.092 43.9187C193.815 44.3022 193.448 44.6076 192.99 44.8349C192.535 45.0586 192.006 45.1705 191.402 45.1705ZM199.888 45.1705C199.099 45.1705 198.419 44.9964 197.847 44.6484C197.279 44.2969 196.841 43.8068 196.532 43.1783C196.226 42.5462 196.074 41.8111 196.074 40.973C196.074 40.1349 196.226 39.3963 196.532 38.7571C196.841 38.1143 197.27 37.6136 197.821 37.255C198.375 36.8928 199.021 36.7116 199.76 36.7116C200.186 36.7116 200.607 36.7827 201.022 36.9247C201.438 37.0668 201.816 37.2976 202.157 37.6172C202.498 37.9332 202.769 38.3523 202.972 38.8743C203.174 39.3963 203.275 40.0391 203.275 40.8026V41.3352H196.969V40.2486H201.997C201.997 39.7869 201.905 39.375 201.72 39.0128C201.539 38.6506 201.28 38.3647 200.942 38.1552C200.608 37.9457 200.214 37.8409 199.76 37.8409C199.259 37.8409 198.826 37.9652 198.46 38.2138C198.098 38.4588 197.819 38.7784 197.624 39.1726C197.428 39.5668 197.331 39.9893 197.331 40.4403V41.1648C197.331 41.7827 197.437 42.3065 197.65 42.7362C197.867 43.1623 198.167 43.4872 198.551 43.7109C198.934 43.9311 199.38 44.0412 199.888 44.0412C200.218 44.0412 200.516 43.995 200.782 43.9027C201.052 43.8068 201.285 43.6648 201.48 43.4766C201.676 43.2848 201.827 43.0469 201.933 42.7628L203.148 43.1037C203.02 43.5156 202.805 43.8778 202.503 44.1903C202.201 44.4993 201.828 44.7408 201.384 44.9148C200.941 45.0852 200.442 45.1705 199.888 45.1705Z" fill="#102c6d"/>
</svg>
