<svg width="31" height="32" viewBox="0 0 31 32" fill="none" xmlns="http://www.w3.org/2000/svg">
<path d="M13.2372 0.0675392C12.9035 0.188869 12.6063 0.407265 12.4303 0.66206C12.1513 1.06245 12.1027 1.35365 12.1027 2.72468C12.1027 3.6832 12.0845 3.99259 12.0299 4.01079C11.7387 4.08965 10.762 4.47184 10.2888 4.69631L9.71252 4.95717L8.74188 3.99866C7.6317 2.90061 7.46791 2.80355 6.81272 2.84601C6.60039 2.85815 6.32133 2.91881 6.18787 2.98554C5.86027 3.13721 3.12427 5.87321 2.9726 6.20081C2.90587 6.33427 2.84521 6.61333 2.83307 6.82566C2.79061 7.48085 2.88767 7.64464 3.98571 8.75482L4.95636 9.73153L4.79863 10.0349C4.5863 10.4595 4.21624 11.3513 4.09491 11.7517L3.98571 12.0853L2.60254 12.1157C1.3589 12.1399 1.18297 12.1581 0.940313 12.2734C0.61272 12.4251 0.31546 12.7102 0.133464 13.0499C0 13.2926 0 13.3472 0 15.5129C0 17.6787 0 17.7333 0.133464 17.976C0.31546 18.3157 0.61272 18.6008 0.940313 18.7525C1.18297 18.8677 1.3589 18.8859 2.60254 18.9102L3.98571 18.9405L4.09491 19.2742C4.21624 19.6746 4.5863 20.5664 4.79863 20.991L4.95636 21.2943L3.98571 22.2711C2.88767 23.3812 2.79061 23.545 2.83307 24.2002C2.84521 24.4125 2.91194 24.6916 2.9726 24.8251C3.03933 24.9767 3.61566 25.6016 4.48924 26.4812C5.79961 27.7977 5.90274 27.8887 6.109 27.8887C6.4184 27.8887 6.60646 27.7188 6.60646 27.4397C6.60646 27.2335 6.52153 27.1304 5.19902 25.8079L3.79158 24.3943V24.1032V23.812L4.91389 22.6715C5.74501 21.8282 6.0362 21.5006 6.0362 21.3914C6.0362 21.3065 5.86027 20.9 5.65401 20.4814C5.44168 20.0628 5.15049 19.3591 5.00489 18.9223C4.82896 18.3824 4.70157 18.0852 4.61663 18.0306C4.51957 17.9578 4.21018 17.9396 3.01507 17.9396C1.38317 17.9396 1.20117 17.9092 1.03738 17.5816C0.897847 17.3147 0.891781 13.7172 1.03131 13.4503C1.20724 13.1106 1.32857 13.0863 2.98474 13.0863C4.20411 13.0863 4.5135 13.0681 4.61663 12.9953C4.70157 12.9407 4.82896 12.6435 5.00489 12.1035C5.15049 11.6668 5.44168 10.963 5.65401 10.5444C5.86027 10.1259 6.0362 9.7194 6.0362 9.63447C6.0362 9.52527 5.74501 9.19768 4.91389 8.35443L3.79158 7.21392V6.92273V6.62547L5.20509 5.21803L6.61252 3.80453H6.90978H7.20098L8.34149 4.92683C9.17867 5.75188 9.51233 6.04914 9.62153 6.04914C9.70039 6.04914 10.119 5.87321 10.5436 5.66088C10.9744 5.44249 11.6781 5.1513 12.1088 5.01177C12.6366 4.8419 12.9278 4.71451 12.9824 4.62957C13.0552 4.52644 13.0734 4.21705 13.0734 2.99768C13.0734 1.34151 13.0977 1.22018 13.4374 1.04425C13.7043 0.904722 17.3018 0.910788 17.5687 1.05032C17.8963 1.21412 17.9266 1.39611 17.9266 3.02801C17.9266 4.22312 17.9448 4.53251 18.0176 4.62957C18.0722 4.71451 18.3695 4.8419 18.9094 5.01783C19.3462 5.16343 20.0499 5.45462 20.4685 5.66695C20.8871 5.87321 21.2935 6.04914 21.3785 6.04914C21.4877 6.04914 21.8153 5.75795 22.6585 4.92683L23.799 3.80453H24.0902H24.3875L25.7949 5.21803L27.2084 6.62547V6.92273V7.21392L26.0861 8.35443C25.255 9.19768 24.9638 9.52527 24.9638 9.63447C24.9638 9.7194 25.1397 10.1259 25.346 10.5444C25.5583 10.963 25.8495 11.6668 25.9951 12.1035C26.171 12.6435 26.2984 12.9407 26.3834 12.9953C26.4865 13.0681 26.7959 13.0863 28.0153 13.0863C29.6714 13.0863 29.7928 13.1106 29.9687 13.4503C30.1082 13.7172 30.1022 17.3147 29.9626 17.5816C29.7988 17.9092 29.6168 17.9396 27.9849 17.9396C26.7898 17.9396 26.4804 17.9578 26.3834 18.0306C26.2984 18.0852 26.171 18.3824 25.9951 18.9223C25.8495 19.3591 25.5583 20.0628 25.346 20.4814C25.1397 20.9 24.9638 21.3065 24.9638 21.3914C24.9638 21.5006 25.255 21.8282 26.0861 22.6715L27.2084 23.812V24.1032V24.3943L25.801 25.8079C24.4785 27.1304 24.3935 27.2335 24.3935 27.4397C24.3935 27.7188 24.5816 27.8887 24.891 27.8887C25.0973 27.8887 25.2004 27.7977 26.5108 26.4752C27.3843 25.6016 27.9607 24.9767 28.0274 24.8251C28.0881 24.6916 28.1548 24.4125 28.1669 24.2002C28.2094 23.545 28.1123 23.3812 27.0143 22.2711L26.0436 21.2943L26.2014 20.991C26.4137 20.5664 26.7838 19.6746 26.9051 19.2742L27.0143 18.9405L28.3975 18.9102C29.6411 18.8859 29.817 18.8677 30.0597 18.7525C30.3873 18.6008 30.6845 18.3157 30.8665 17.976C31 17.7333 31 17.6787 31 15.5129C31 13.3472 31 13.2926 30.8665 13.0499C30.6845 12.7102 30.3873 12.4251 30.0597 12.2734C29.817 12.1581 29.6411 12.1399 28.3975 12.1157L27.0143 12.0853L26.9051 11.7517C26.7838 11.3513 26.4137 10.4595 26.2014 10.0349L26.0436 9.73153L27.0143 8.75482C28.1123 7.64464 28.2094 7.48085 28.1669 6.82566C28.1548 6.61333 28.0941 6.33427 28.0274 6.20081C27.9607 6.04914 27.3843 5.42429 26.4562 4.49611C24.8485 2.88848 24.7697 2.83388 24.0599 2.83388C23.4957 2.83995 23.2712 2.98554 22.2339 4.02292L21.2875 4.96323L20.7172 4.69024C20.4018 4.54464 19.8618 4.32018 19.5221 4.19885L18.9033 3.96832L18.8851 2.59728C18.8669 1.35971 18.8548 1.20198 18.7395 0.953255C18.5879 0.62566 18.3027 0.328402 17.963 0.146404C17.7204 0.0190067 17.6536 0.0129414 15.591 0.000806808C13.9166 -0.0113258 13.4192 0.000806808 13.2372 0.0675392Z" fill="#102c6d"/>
<path d="M14.438 7.32916C13.4613 7.45655 12.3027 7.84478 11.4231 8.34828C7.61348 10.526 6.16366 15.3123 8.13518 19.225C8.42029 19.7892 8.91772 20.5232 9.06331 20.6081C9.31809 20.7415 9.585 20.6506 9.72452 20.3836C9.83371 20.1774 9.81552 20.1167 9.51827 19.6678C7.52249 16.6651 7.86826 12.8797 10.3675 10.3805C11.4231 9.32494 12.7091 8.63946 14.1953 8.34828C14.8201 8.22089 16.3124 8.23909 16.9554 8.37861C19.1514 8.85178 21.0077 10.2834 22.0147 12.2792C22.8093 13.8625 22.9913 15.8037 22.4939 17.5143C22.318 18.1331 21.8691 19.0855 21.4808 19.6678C21.1836 20.1167 21.1654 20.1774 21.2746 20.3836C21.4141 20.6506 21.681 20.7415 21.9358 20.6081C22.0875 20.5232 22.5849 19.7831 22.8882 19.1825C23.1854 18.582 23.4645 17.757 23.6101 17.0472C23.7557 16.3193 23.7557 14.7239 23.6101 13.9838C23.0702 11.2661 21.2564 9.02163 18.7207 7.92365C17.4225 7.36555 15.8696 7.15324 14.438 7.32916Z" fill="#102c6d"/>
<path d="M14.8629 11.1517C13.0855 11.4126 11.575 12.7775 11.1564 14.5124C11.0169 15.0765 11.0169 16.0835 11.1564 16.6356C11.4658 17.9034 12.3454 18.9953 13.5222 19.5716C14.238 19.9234 14.6748 20.0205 15.4998 20.0205C16.3187 20.0205 16.7616 19.9234 17.4713 19.5777C18.6421 19.0014 19.5399 17.8852 19.8432 16.6356C19.9767 16.0775 19.9767 15.0705 19.8432 14.5124C19.5642 13.3598 18.7513 12.2922 17.6776 11.6734C17.2833 11.4429 16.6099 11.2245 16.07 11.1456C15.5544 11.0789 15.3785 11.0789 14.8629 11.1517ZM16.5614 12.2497C17.6654 12.6137 18.545 13.5236 18.8726 14.6337C19.0182 15.1251 19.0182 16.0289 18.8726 16.5142C18.5026 17.7639 17.4531 18.7405 16.1974 19.0014C15.4088 19.1652 14.693 19.0681 13.9226 18.692C13.6071 18.5343 13.3463 18.3402 13.043 18.0369C12.3332 17.321 12.0178 16.5688 12.0178 15.574C12.0178 14.112 12.8549 12.8806 14.238 12.3225C14.9356 12.0374 15.8395 12.007 16.5614 12.2497Z" fill="#102c6d"/>
<path d="M13.6372 20.4696C13.4734 20.4999 13.255 20.7607 13.255 20.9245C13.255 20.9913 13.4977 21.4948 13.7949 22.0468L14.3409 23.0416L14.1771 23.9212C14.0922 24.4005 14.0012 24.7766 13.9769 24.7462C13.9526 24.722 13.5947 23.8181 13.1883 22.7323C12.7819 21.6464 12.3936 20.7001 12.3269 20.6212C12.1692 20.4514 11.8841 20.4453 11.2107 20.6091C9.99747 20.9003 8.86309 21.6828 8.15334 22.708C7.91069 23.0659 7.52852 23.8788 7.39506 24.3398C7.30407 24.6613 7.28587 25.0617 7.26767 27.7187L7.24341 30.7397L7.39506 30.8913L7.54672 31.043H15.4995H23.4523L23.5979 30.8913L23.7496 30.7457V27.9371C23.7496 24.631 23.7253 24.4187 23.2097 23.3753C22.5303 21.9861 21.2624 20.9549 19.8065 20.6091C19.115 20.4453 18.8299 20.4514 18.6721 20.6212C18.6054 20.7001 18.2172 21.6464 17.8107 22.7323C17.4043 23.8181 17.0464 24.722 17.0221 24.7462C16.9979 24.7766 16.9069 24.4005 16.822 23.9212L16.6582 23.0416L17.2041 22.0468C17.5014 21.4948 17.744 20.9913 17.744 20.9185C17.744 20.8517 17.6773 20.7183 17.5984 20.6273L17.4528 20.4574L15.6087 20.4514C14.6017 20.4453 13.71 20.4514 13.6372 20.4696ZM16.4095 21.4341C16.4095 21.4523 16.2457 21.7738 16.0455 22.1378C15.8453 22.5078 15.6815 22.8839 15.6815 22.9688C15.6815 23.0538 15.8332 23.903 16.0151 24.8554L16.3427 26.5843L15.9363 27.658C15.7118 28.2525 15.5177 28.7378 15.4995 28.7378C15.4813 28.7378 15.2872 28.2525 15.0628 27.658L14.6563 26.5843L14.9839 24.8554C15.1659 23.903 15.3175 23.0538 15.3175 22.9688C15.3175 22.8839 15.1537 22.5078 14.9536 22.1378C14.7534 21.7738 14.5896 21.4523 14.5896 21.4341C14.5896 21.4159 15.0021 21.3977 15.4995 21.3977C16.003 21.3977 16.4095 21.4159 16.4095 21.4341ZM12.9214 24.7644C13.5947 26.5297 14.3227 28.4527 14.5411 29.0229L14.9414 30.0724H11.5807H8.22007V27.6277C8.22007 24.8251 8.24433 24.6613 8.6811 23.7696C9.15426 22.8111 10.0399 22.0286 11.053 21.6646C11.2774 21.5857 11.5201 21.5251 11.5807 21.5372C11.6778 21.5494 11.9205 22.1317 12.9214 24.7644ZM20.1826 21.7617C21.0926 22.1378 21.8872 22.89 22.3301 23.7938C22.7547 24.6613 22.779 24.8676 22.779 27.652V30.0724H19.4062C17.556 30.0724 16.0515 30.0481 16.0697 30.0238C16.0819 29.9996 16.7977 28.1373 17.647 25.8867C18.5023 23.6361 19.2302 21.7253 19.2606 21.6464C19.3152 21.5251 19.3516 21.513 19.5517 21.5494C19.6731 21.5736 19.9582 21.6646 20.1826 21.7617Z" fill="#102c6d"/>
</svg>
