<svg width="36" height="31" viewBox="0 0 36 31" fill="none" xmlns="http://www.w3.org/2000/svg">
<path d="M2.09583 0.0417137C1.47263 0.194052 0.904823 0.664915 0.607071 1.26042L0.43396 1.60664V13.2744V24.9421L0.62092 25.2952C0.897899 25.8215 1.10563 26.0361 1.59034 26.2993L2.02659 26.5347L7.58693 26.5555L13.1403 26.5762V27.1233C13.1403 27.5872 13.1196 27.6772 13.0296 27.6772C12.4964 27.6772 11.7208 28.2866 11.5616 28.8267C11.5131 28.986 11.4785 29.4637 11.4785 29.8861C11.4785 30.6132 11.4854 30.6686 11.6516 30.8279L11.8178 31.001H18.126H24.4341L24.6003 30.8279C24.7665 30.6686 24.7734 30.6132 24.7734 29.8861C24.7734 28.9375 24.6973 28.6605 24.3095 28.2312C24.0187 27.9127 23.5686 27.6772 23.2362 27.6772C23.1254 27.6772 23.1116 27.6149 23.1116 27.1233V26.5762L28.6719 26.5555L34.2253 26.5347L34.6616 26.2993C35.1463 26.0361 35.354 25.8215 35.631 25.2952L35.818 24.9421V13.2744V1.60664L35.5825 1.1704C35.3194 0.685688 35.1047 0.477955 34.5785 0.200975L34.2253 0.0140152L18.2644 0.000165939C9.48423 0.000165939 2.21355 0.0140152 2.09583 0.0417137ZM34.2323 1.26734C34.3361 1.34351 34.4885 1.49585 34.5646 1.59972C34.71 1.78668 34.71 1.81437 34.7308 11.4117L34.7447 21.0298H18.126H1.50725V11.5155C1.50725 4.93731 1.52802 1.93901 1.58342 1.80053C1.68036 1.54432 1.90887 1.29504 2.16508 1.18425C2.33819 1.10808 5.1149 1.09423 18.2091 1.10808L34.0453 1.12193L34.2323 1.26734ZM34.7308 23.4464C34.71 24.8798 34.6893 24.9421 34.2323 25.2814L34.0453 25.4268H18.126H2.20662L2.01966 25.2814C1.56265 24.9421 1.54187 24.8798 1.5211 23.4464L1.50033 22.1377H18.126H34.7516L34.7308 23.4464ZM22.0037 27.1233V27.6772H18.126H14.2483V27.1233V26.5693H18.126H22.0037V27.1233ZM23.4924 28.9583C23.6378 29.0967 23.6655 29.1937 23.6655 29.5122V29.8931H18.126H12.5864V29.5122C12.5864 29.1937 12.6141 29.0967 12.7595 28.9583L12.9257 28.7851H18.126H23.3262L23.4924 28.9583Z" fill="#3C2FC0"/>
<path d="M8.61169 4.47936C8.17545 4.59015 7.55225 4.96407 7.24757 5.28952C7.09523 5.45571 6.86672 5.80193 6.74901 6.05814C6.5482 6.48745 6.52743 6.59132 6.50665 7.40148L6.47895 8.28781H5.82113C5.22563 8.28781 5.15638 8.30166 5.00404 8.46092L4.83093 8.62711V12.4494C4.83093 15.2469 4.85171 16.3479 4.91403 16.5556C5.02482 16.9365 5.59955 17.5112 5.98039 17.622C6.18813 17.6843 7.116 17.7051 9.26259 17.7051C11.4092 17.7051 12.337 17.6843 12.5448 17.622C12.9256 17.5112 13.5004 16.9365 13.6111 16.5556C13.6735 16.3479 13.6942 15.2469 13.6942 12.4494V8.62711L13.5211 8.46092C13.3688 8.30166 13.2995 8.28781 12.704 8.28781H12.0462L12.0185 7.39456C11.9908 6.53592 11.9839 6.48745 11.7346 5.98889C11.2707 5.04716 10.4397 4.48628 9.41493 4.43781C9.1241 4.42396 8.76403 4.44474 8.61169 4.47936ZM9.775 5.60112C10.1558 5.71191 10.7306 6.28664 10.8414 6.66749C10.8898 6.82675 10.9245 7.25607 10.9245 7.62306V8.28781H9.26259H7.60072V7.62306C7.60072 6.73673 7.69073 6.45975 8.12005 6.03736C8.60476 5.54572 9.1241 5.41416 9.775 5.60112ZM12.5863 12.8233V16.2579L12.4132 16.4241L12.247 16.5972H9.26259H6.27814L6.11196 16.4241L5.93885 16.2579V12.8233V9.39573H9.26259H12.5863V12.8233Z" fill="#3C2FC0"/>
<path d="M17.1912 5.13648C17.0181 5.30267 17.0181 5.31652 17.0181 6.62524C17.0181 7.93396 17.0181 7.94781 17.1912 8.114L17.3574 8.28711H24.2195H31.0816L31.2478 8.114C31.4209 7.94781 31.4209 7.93396 31.4209 6.62524C31.4209 5.31652 31.4209 5.30267 31.2478 5.13648L31.0816 4.96337H24.2195H17.3574L17.1912 5.13648ZM30.313 6.62524V7.1792H24.2195H18.126V6.62524V6.07128H24.2195H30.313V6.62524Z" fill="#3C2FC0"/>
<path d="M17.1912 10.1238C17.0804 10.2277 17.0181 10.3731 17.0181 10.5046C17.0181 10.6362 17.0804 10.7816 17.1912 10.8855L17.3574 11.0586H19.7879H22.2183L22.3845 10.8855C22.4953 10.7816 22.5576 10.6362 22.5576 10.5046C22.5576 10.3731 22.4953 10.2277 22.3845 10.1238L22.2183 9.95068H19.7879H17.3574L17.1912 10.1238Z" fill="#3C2FC0"/>
<path d="M23.8386 10.1238C23.7278 10.2277 23.6655 10.3731 23.6655 10.5046C23.6655 10.6362 23.7278 10.7816 23.8386 10.8855L24.0048 11.0586H27.5432H31.0816L31.2478 10.8855C31.3586 10.7816 31.4209 10.6362 31.4209 10.5046C31.4209 10.3731 31.3586 10.2277 31.2478 10.1238L31.0816 9.95068H27.5432H24.0048L23.8386 10.1238Z" fill="#3C2FC0"/>
<path d="M17.1912 12.3406C17.0804 12.4445 17.0181 12.5899 17.0181 12.7214C17.0181 12.853 17.0804 12.9984 17.1912 13.1023L17.3574 13.2754H21.4497H25.5421L25.7083 13.1023C25.8191 12.9984 25.8814 12.853 25.8814 12.7214C25.8814 12.5899 25.8191 12.4445 25.7083 12.3406L25.5421 12.1675H21.4497H17.3574L17.1912 12.3406Z" fill="#3C2FC0"/>
<path d="M27.1625 12.3406C27.0517 12.4445 26.9894 12.5899 26.9894 12.7214C26.9894 12.853 27.0517 12.9984 27.1625 13.1023L27.3287 13.2754H29.2052H31.0817L31.2479 13.1023C31.3587 12.9984 31.421 12.853 31.421 12.7214C31.421 12.5899 31.3587 12.4445 31.2479 12.3406L31.0817 12.1675H29.2052H27.3287L27.1625 12.3406Z" fill="#3C2FC0"/>
<path d="M17.1912 14.5564C17.0804 14.6603 17.0181 14.8057 17.0181 14.9373C17.0181 15.0688 17.0804 15.2142 17.1912 15.3181L17.3574 15.4912H20.6188H23.8802L24.0464 15.3181C24.1572 15.2142 24.2195 15.0688 24.2195 14.9373C24.2195 14.8057 24.1572 14.6603 24.0464 14.5564L23.8802 14.3833H20.6188H17.3574L17.1912 14.5564Z" fill="#3C2FC0"/>
<path d="M25.5007 14.5564C25.39 14.6603 25.3276 14.8057 25.3276 14.9373C25.3276 15.0688 25.39 15.2142 25.5007 15.3181L25.6669 15.4912H28.3744H31.0819L31.2481 15.3181C31.3588 15.2142 31.4212 15.0688 31.4212 14.9373C31.4212 14.8057 31.3588 14.6603 31.2481 14.5564L31.0819 14.3833H28.3744H25.6669L25.5007 14.5564Z" fill="#3C2FC0"/>
<path d="M17.1912 16.7703C17.0804 16.8741 17.0181 17.0196 17.0181 17.1511C17.0181 17.2827 17.0804 17.4281 17.1912 17.532L17.3574 17.7051H18.9569H20.5565L20.7227 17.532C20.8334 17.4281 20.8958 17.2827 20.8958 17.1511C20.8958 17.0196 20.8334 16.8741 20.7227 16.7703L20.5565 16.5972H18.9569H17.3574L17.1912 16.7703Z" fill="#3C2FC0"/>
<path d="M22.1769 16.7703C22.0661 16.8741 22.0038 17.0196 22.0038 17.1511C22.0038 17.2827 22.0661 17.4281 22.1769 17.532L22.3431 17.7051H25.8815H29.4199L29.5861 17.532C29.6969 17.4281 29.7592 17.2827 29.7592 17.1511C29.7592 17.0196 29.6969 16.8741 29.5861 16.7703L29.4199 16.5972H25.8815H22.3431L22.1769 16.7703Z" fill="#3C2FC0"/>
<path d="M30.4863 23.4197C30.1401 23.759 30.3824 24.3545 30.8672 24.3545C31.1511 24.3545 31.4211 24.0844 31.4211 23.8005C31.4211 23.5166 31.1511 23.2466 30.8672 23.2466C30.7356 23.2466 30.5902 23.3089 30.4863 23.4197Z" fill="#3C2FC0"/>
</svg>
