<svg width="31" height="31" viewBox="0 0 31 31" fill="none" xmlns="http://www.w3.org/2000/svg">
<path d="M4.13052 0.126219C3.80359 0.289682 3.64618 0.513687 3.56748 0.925375C3.53115 1.13122 3.51299 2.68715 3.5251 5.05434L3.54326 8.85033L3.71278 8.99563C3.92468 9.17726 4.06998 9.17726 4.28187 8.99563L4.45139 8.85033L4.46955 7.51235L4.48772 6.17437H15.5064H26.519V11.1994V16.2244H25.3626C24.0852 16.2244 23.9762 16.2486 23.7583 16.6118C23.6493 16.7935 23.6432 16.9993 23.6432 21.431C23.6432 25.8627 23.6493 26.0685 23.7583 26.2501C23.9883 26.6255 24.1276 26.6679 25.3868 26.686L26.519 26.7103L26.5069 28.3812L26.4887 30.0582L25.5987 30.0885C24.8662 30.1127 24.6846 30.1369 24.5816 30.2217C24.4121 30.373 24.4182 30.7121 24.5998 30.8755C24.7269 30.9966 24.7875 31.0027 25.738 30.9845C26.7067 30.9664 26.749 30.9603 26.9852 30.8029C27.4332 30.5062 27.4574 30.4094 27.4755 28.4418L27.4998 26.7042L29.0739 26.686L30.648 26.6679L30.8235 26.4681L30.9991 26.2743V21.437V16.5997L30.8417 16.412L30.6843 16.2244H29.086H27.4877V8.7232C27.4877 4.03118 27.4634 1.107 27.4271 0.913265C27.3484 0.507633 27.1728 0.259411 26.858 0.114111C26.6159 0.00513458 26.2042 -0.000919342 15.5003 -0.000919342H4.39085L4.13052 0.126219ZM26.5069 3.09883L26.519 5.26624H15.5003H4.48166V3.12911C4.48166 1.94854 4.49983 0.967754 4.52404 0.949591C4.54221 0.925375 9.49455 0.913265 15.5245 0.919319L26.4887 0.937483L26.5069 3.09883ZM30.091 17.5866V18.0406H28.0568C25.8106 18.0406 25.8046 18.0406 25.5745 18.4281C25.4656 18.6037 25.4595 18.7792 25.4595 21.431C25.4595 24.0827 25.4656 24.2583 25.5745 24.4339C25.8228 24.8456 25.847 24.8516 28.081 24.8698L30.091 24.8879V25.342V25.79H27.3363H24.5816V21.4613V17.1325H27.3363H30.091V17.5866ZM30.091 21.4613V23.9737H28.2444H26.3979V21.4613V18.9488H28.2444H30.091V21.4613Z" fill="#102c6d"/>
<path d="M15.1551 1.93799C13.9564 2.62212 14.4468 4.43838 15.8332 4.43838C16.3841 4.44443 16.82 4.16594 17.0501 3.6695C17.6071 2.47076 16.3054 1.27808 15.1551 1.93799ZM16.1601 2.82191C16.372 3.09435 16.3054 3.37889 15.9906 3.50603C15.8453 3.56657 15.7848 3.56657 15.6334 3.48787C15.5366 3.43944 15.4397 3.34862 15.4155 3.30019C15.2338 2.81585 15.8453 2.42233 16.1601 2.82191Z" fill="#102c6d"/>
<path d="M19.0722 1.85328C18.3881 2.14993 18.0612 3.02174 18.4002 3.67559C18.6605 4.1902 19.2841 4.53529 19.7866 4.44448C20.4889 4.31734 20.949 3.78457 20.949 3.1065C20.943 2.51924 20.6463 2.05912 20.1196 1.83511C19.8593 1.73219 19.3386 1.73825 19.0722 1.85328ZM19.9198 2.78563C20.0772 2.94303 20.0772 3.27602 19.9198 3.42132C19.6353 3.68165 19.1691 3.4637 19.1812 3.07623C19.1933 2.70692 19.6595 2.52529 19.9198 2.78563Z" fill="#102c6d"/>
<path d="M22.7229 1.93799C21.5242 2.62212 22.0145 4.43838 23.401 4.43838C23.9519 4.44443 24.3878 4.16594 24.6179 3.6695C25.1748 2.47076 23.8732 1.27808 22.7229 1.93799ZM23.7279 2.82191C23.9398 3.09435 23.8732 3.37889 23.5584 3.50603C23.4131 3.56657 23.3525 3.56657 23.2012 3.48787C23.1043 3.43944 23.0074 3.34862 22.9832 3.30019C22.8016 2.81585 23.4131 2.42233 23.7279 2.82191Z" fill="#102c6d"/>
<path d="M9.52485 7.14405C8.29585 7.362 7.30901 8.27013 6.98814 9.47492C6.87311 9.89266 6.87916 10.7403 7.00025 11.1459C7.15765 11.6787 7.43615 12.1388 7.83573 12.5202C8.50169 13.1559 9.17976 13.4404 10.0516 13.4404C10.9658 13.4404 11.6923 13.1256 12.3219 12.4596C12.9515 11.7997 13.1998 11.1762 13.1998 10.2983C13.1998 9.69287 13.1089 9.31751 12.8547 8.80896C12.2492 7.62233 10.8386 6.91399 9.52485 7.14405ZM10.4875 8.05824C11.1958 8.20959 11.771 8.6576 12.0918 9.31146C12.3098 9.75947 12.3582 10.4799 12.2008 10.9885C12.1403 11.1701 12.0616 11.3457 12.0252 11.3759C11.9829 11.4123 11.8376 11.3578 11.6075 11.2125C11.329 11.0309 11.2685 10.9643 11.2987 10.8674C11.3169 10.8008 11.3472 10.5647 11.3653 10.3467C11.3895 10.0259 11.3714 9.90477 11.2745 9.70498C10.8568 8.89372 9.86994 8.67577 9.21003 9.24486C8.82862 9.57179 8.70148 9.86239 8.7378 10.3467C8.75597 10.5647 8.78624 10.8008 8.8044 10.8674C8.83467 10.9643 8.77413 11.0309 8.49564 11.2125C8.26558 11.3578 8.12027 11.4123 8.07789 11.3759C7.92049 11.2488 7.7994 10.6555 7.81756 10.153C7.83573 9.75342 7.87811 9.5839 8.01735 9.2933C8.32006 8.68182 8.82862 8.27013 9.52485 8.08245C9.91837 7.97953 10.0818 7.97348 10.4875 8.05824ZM10.318 9.93504C10.6328 10.1833 10.4572 10.716 10.0516 10.716C9.64593 10.716 9.47036 10.1833 9.78518 9.93504C9.87599 9.86239 9.99102 9.8079 10.0516 9.8079C10.1121 9.8079 10.2271 9.86239 10.318 9.93504ZM10.8507 11.8179C11.0081 11.8845 11.1776 11.9874 11.2382 12.054C11.3351 12.163 11.329 12.1751 10.9839 12.3325C10.6751 12.4778 10.5541 12.502 10.0516 12.502C9.54907 12.502 9.42798 12.4778 9.11922 12.3325C8.81045 12.1933 8.77413 12.1569 8.84678 12.0722C8.95575 11.939 9.35533 11.7453 9.64593 11.6847C9.99102 11.6121 10.5056 11.6726 10.8507 11.8179Z" fill="#102c6d"/>
<path d="M15.464 9.03971C15.2521 9.22739 15.2339 9.53615 15.4337 9.69962C15.5669 9.80254 15.7243 9.80859 17.6859 9.80859C19.7746 9.80859 19.7928 9.80859 19.9199 9.6754C20.0712 9.51194 20.0773 9.25766 19.9259 9.07603L19.8109 8.93073L17.7222 8.91257L15.6335 8.89441L15.464 9.03971Z" fill="#102c6d"/>
<path d="M3.68848 10.5288L3.54318 10.6438L3.52501 13.4348L3.50685 16.2258H1.90854H0.316284L0.158874 16.4135L0.00146484 16.6011V21.4385V26.2758L0.177037 26.4695L0.352609 26.6693L1.9267 26.6874L3.5008 26.7056L3.52501 28.4432C3.54318 30.4108 3.56739 30.5077 4.01541 30.8043L4.26363 30.9678L13.6355 30.9859L23.0135 30.998L23.1588 30.8527C23.3404 30.6711 23.3525 30.4592 23.1951 30.2655L23.0801 30.1202L13.793 30.0899L4.51185 30.0596L4.49369 28.3826L4.48158 26.7117L5.61372 26.6874C6.87299 26.6693 7.01224 26.6269 7.2423 26.2515C7.35127 26.0699 7.35733 25.8641 7.35733 21.4324C7.35733 17.0007 7.35127 16.7949 7.2423 16.6132C7.02435 16.25 6.91537 16.2258 5.63793 16.2258H4.48763L4.46947 13.4348L4.45131 10.6438L4.30601 10.5288C4.2273 10.4682 4.08806 10.4137 3.99724 10.4137C3.90643 10.4137 3.76718 10.4682 3.68848 10.5288ZM6.41893 21.4627V25.7914H3.66426H0.909596V25.3434V24.8893L2.92565 24.8712C5.1536 24.853 5.17781 24.847 5.42604 24.4353C5.53501 24.2597 5.54107 24.0841 5.54107 21.4324C5.54107 18.7807 5.53501 18.6051 5.42604 18.4295C5.19598 18.042 5.18992 18.042 2.94381 18.042H0.909596V17.588V17.1339H3.66426H6.41893V21.4627ZM4.60266 21.4627V23.9752H2.75613H0.909596V21.4627V18.9502H2.75613H4.60266V21.4627Z" fill="#102c6d"/>
<path d="M15.464 10.8561C15.2521 11.0438 15.2339 11.3526 15.4337 11.516C15.5669 11.6189 15.7667 11.625 19.1389 11.625C22.6261 11.625 22.7048 11.625 22.8259 11.5039C22.9894 11.3405 22.9833 11.0135 22.8199 10.8622C22.6988 10.7532 22.5353 10.7471 19.1631 10.729L15.6335 10.7169L15.464 10.8561Z" fill="#102c6d"/>
<path d="M8.65297 16.3284C8.56216 16.3828 8.44107 16.51 8.38053 16.6129C8.27156 16.7945 8.2655 17.0125 8.2655 21.4321C8.2655 25.8637 8.27156 26.0696 8.38053 26.2512C8.44107 26.3541 8.58032 26.4934 8.68324 26.5539C8.86487 26.6629 9.11309 26.6689 15.5003 26.6689C21.8875 26.6689 22.1357 26.6629 22.3173 26.5539C22.4202 26.4934 22.5595 26.3541 22.62 26.2512C22.729 26.0696 22.7351 25.8637 22.7351 21.4321C22.7351 17.0004 22.729 16.7945 22.62 16.6129C22.3718 16.1952 22.8864 16.2254 15.4882 16.2254C9.42186 16.2315 8.79827 16.2375 8.65297 16.3284ZM21.7967 21.4623V25.7911H15.5003H9.20391V21.4623V17.1336H15.5003H21.7967V21.4623Z" fill="#102c6d"/>
<path d="M10.4693 18.1445C10.3784 18.199 10.2574 18.3261 10.1968 18.429C10.0878 18.6046 10.0818 18.7862 10.0818 21.4319C10.0818 24.0837 10.0878 24.2592 10.1968 24.4348C10.2574 24.5377 10.3966 24.677 10.4995 24.7375C10.6812 24.8465 10.8931 24.8525 15.5003 24.8525C20.1076 24.8525 20.3195 24.8465 20.5011 24.7375C20.604 24.677 20.7432 24.5377 20.8038 24.4348C20.9128 24.2592 20.9188 24.0837 20.9188 21.4319C20.9188 18.7802 20.9128 18.6046 20.8038 18.429C20.5556 18.0173 20.8704 18.0416 15.4882 18.0416C11.0989 18.0476 10.6085 18.0537 10.4693 18.1445ZM19.9804 21.4622V23.9747H19.6293H19.2781L17.6738 22.4066C15.4277 20.2211 15.5124 20.2332 13.793 21.892C11.4016 24.2168 11.6801 23.9747 11.329 23.9747H11.0202V21.4622V18.9497H15.5003H19.9804V21.4622ZM16.7656 22.7941L17.9523 23.9747H15.4821C14.1199 23.9747 13.0181 23.9565 13.0302 23.9262C13.0847 23.8052 15.4155 21.6135 15.4942 21.6135C15.5427 21.6135 16.1178 22.1463 16.7656 22.7941Z" fill="#102c6d"/>
<path d="M12.8184 28.0211C12.6731 28.1785 12.6852 28.5357 12.8426 28.6749C13.0182 28.8323 13.6236 28.8323 13.7992 28.6749C13.9626 28.5236 13.9747 28.1542 13.8173 28.015C13.6538 27.8636 12.9516 27.8697 12.8184 28.0211Z" fill="#102c6d"/>
<path d="M14.9977 28.0211C14.8524 28.1785 14.8645 28.5357 15.0219 28.6749C15.1975 28.8323 15.8029 28.8323 15.9785 28.6749C16.1419 28.5236 16.154 28.1542 15.9966 28.015C15.8332 27.8636 15.1309 27.8697 14.9977 28.0211Z" fill="#102c6d"/>
<path d="M17.1773 28.0211C17.032 28.1785 17.0441 28.5357 17.2015 28.6749C17.377 28.8323 17.9825 28.8323 18.158 28.6749C18.3215 28.5236 18.3336 28.1542 18.1762 28.015C18.0127 27.8636 17.3104 27.8697 17.1773 28.0211Z" fill="#102c6d"/>
</svg>
