<svg width="40" height="40" viewBox="0 0 40 40" fill="none" xmlns="http://www.w3.org/2000/svg">
<rect width="40" height="40" rx="5" fill="#4D40DA"/>
<path d="M19.2039 7.05913C17.0609 7.33517 15.0885 8.29879 13.5627 9.81951C12.2528 11.1294 11.3745 12.7355 10.9629 14.5724C10.4811 16.7405 10.7572 18.7782 11.8914 21.4081C13.2315 24.5248 16.0671 28.4747 19.4348 31.9176C20.3231 32.821 20.3583 32.8361 20.7548 32.4697C21.1513 32.1083 22.6067 30.5425 23.3545 29.6742C27.2592 25.1371 29.4926 21.0668 29.9293 17.7142C30.3258 14.6376 29.0359 11.3452 26.6319 9.3126C25.5076 8.35902 24.1425 7.65136 22.7523 7.29502C21.6833 7.01898 20.2529 6.92864 19.2039 7.05913ZM21.2968 7.84207C23.9367 8.13819 26.2605 9.54849 27.736 11.7618C28.9406 13.5636 29.4424 15.9225 29.071 18.0304C28.4788 21.4232 25.8489 25.7795 21.5929 30.427C21.2014 30.8536 20.7648 31.3154 20.6243 31.4559L20.3683 31.7018L20.1124 31.4559C19.9718 31.3154 19.5352 30.8536 19.1437 30.427C14.8726 25.7595 12.2929 21.4834 11.6555 18.0053C11.52 17.2575 11.5301 15.8472 11.6756 15.0592C12.1976 12.2737 13.9341 9.98012 16.4787 8.70532C17.9291 7.97758 19.6908 7.66641 21.2968 7.84207Z" fill="white"/>
<path d="M19.792 12.2433C19.4909 12.2834 18.8836 12.4541 18.5925 12.5846C16.1734 13.6536 15.2299 16.6197 16.585 18.8933C16.9112 19.4353 17.5586 20.0828 18.1007 20.409C19.8372 21.4429 22.0606 21.1668 23.4859 19.7415C24.0481 19.1794 24.4445 18.4717 24.6654 17.6486C24.8009 17.1317 24.7959 16.0827 24.6503 15.5457C24.1886 13.8393 22.8335 12.5795 21.1471 12.2834C20.7406 12.2132 20.1534 12.1981 19.792 12.2433ZM21.0317 13.0814C21.5436 13.1818 21.91 13.3274 22.3366 13.6084C22.8435 13.9397 23.3203 14.4717 23.5763 14.9836C23.8824 15.6059 23.9577 15.9372 23.9527 16.6749C23.9477 17.212 23.9276 17.3625 23.8172 17.7038C23.6265 18.281 23.3655 18.6976 22.9037 19.1593C22.442 19.621 22.0254 19.882 21.4483 20.0727C21.107 20.1831 20.9564 20.2032 20.4194 20.2082C19.6816 20.2133 19.3504 20.138 18.728 19.8318C18.0003 19.4705 17.2876 18.6875 17.0066 17.9397C16.6201 16.9159 16.7105 15.7364 17.2425 14.818C17.4783 14.4164 18.1358 13.7489 18.5273 13.5181C19.2902 13.0714 20.1735 12.9158 21.0317 13.0814Z" fill="white"/>
</svg>
