<svg width="40" height="40" viewBox="0 0 40 40" fill="none" xmlns="http://www.w3.org/2000/svg">
<rect width="40" height="40" rx="5" fill="#4D40DA"/>
<path d="M12.539 9.06793C12.423 9.10663 11.8296 9.44201 11.2276 9.80748C9.99362 10.5556 9.72704 10.7835 9.44756 11.3081C9.13798 11.9014 8.95309 12.985 9.00469 13.9352C9.18528 17.2761 11.563 21.1931 15.953 25.3896C19.3025 28.5886 22.4069 30.4418 25.1759 30.8975C26.4572 31.1082 27.8933 30.9663 28.6887 30.5493C29.2133 30.2741 29.4412 30.0032 30.1893 28.7692C30.5548 28.1672 30.8859 27.5739 30.9289 27.4578C31.0192 27.1912 31.0235 26.959 30.9418 26.6795C30.8128 26.241 30.7698 26.2066 28.3018 24.5598C27.0334 23.7127 25.9068 22.9732 25.8036 22.9216C25.5672 22.8012 25.1802 22.7625 24.9222 22.8356C24.5395 22.9431 24.3933 23.0807 23.628 24.0653C23.2238 24.5813 22.8583 25.037 22.8153 25.0714C22.7681 25.1101 22.6477 25.1359 22.4972 25.1359C22.2779 25.1359 22.2091 25.1058 21.7404 24.8393C20.5408 24.1556 19.6852 23.4762 18.305 22.1132C16.6969 20.5267 15.91 19.5635 15.1963 18.3123C14.8394 17.6888 14.7835 17.4825 14.8996 17.2589C14.9383 17.1772 15.3382 16.8375 15.9186 16.386C16.9118 15.6121 17.0537 15.4659 17.1612 15.0746C17.2343 14.8166 17.1956 14.4297 17.0752 14.1932C17.0236 14.09 16.2841 12.9635 15.437 11.6951C13.7903 9.22702 13.7559 9.18402 13.3173 9.05503C13.0378 8.97334 12.8056 8.97764 12.539 9.06793ZM13.1883 9.79458C13.3259 9.86338 13.5538 10.1816 14.8394 12.1078C15.6606 13.3375 16.3658 14.4082 16.4088 14.4899C16.4991 14.6704 16.4776 14.9155 16.3529 15.0746C16.3056 15.1305 15.9014 15.4659 15.4585 15.8099C14.4997 16.5537 14.3965 16.6483 14.246 16.902C14.1428 17.074 14.1299 17.1385 14.1299 17.504V17.9124L14.4266 18.4499C15.2092 19.8559 15.996 20.8491 17.5697 22.4271C19.1434 24.0008 20.1409 24.7877 21.5383 25.5659C22.0285 25.8368 22.093 25.8583 22.3811 25.8798C22.7681 25.9056 23.0518 25.8196 23.2969 25.6132C23.3872 25.5315 23.7828 25.0585 24.1655 24.5598C24.8792 23.6439 25.0082 23.5235 25.2662 23.5235C25.3264 23.5235 25.4339 23.5536 25.5027 23.588C25.5672 23.6224 26.6378 24.3276 27.8761 25.1574C30.3011 26.787 30.314 26.7956 30.2624 27.1224C30.2237 27.346 29.0069 29.3368 28.7489 29.5904C28.3319 30.0075 27.6869 30.2096 26.6421 30.2569C24.3288 30.3644 21.4566 29.096 18.4726 26.6494C17.2687 25.6605 15.5875 24.061 14.5212 22.8786C11.6619 19.7226 10.1183 16.9794 9.78293 14.4383C9.65394 13.4837 9.77864 12.3013 10.0624 11.7208C10.2688 11.2995 10.5655 11.0587 11.7006 10.3793C12.2553 10.0483 12.7411 9.76448 12.7755 9.75158C12.8959 9.70859 13.0292 9.72149 13.1883 9.79458Z" fill="white"/>
<path d="M21.3752 11.9439C21.1172 12.0385 21.0269 12.3739 21.2161 12.5502C21.3021 12.6319 21.3967 12.6534 21.8568 12.6878C22.506 12.7351 22.9403 12.8211 23.4606 12.9974C25.202 13.5907 26.6123 14.9365 27.2701 16.6349C27.5066 17.2541 27.6915 18.1398 27.6958 18.6859C27.6958 18.9826 27.7603 19.1287 27.9151 19.219C28.0484 19.2921 28.2204 19.2577 28.3407 19.1287C28.4095 19.0513 28.4267 18.9783 28.4267 18.716C28.4267 18.0581 28.2333 17.0864 27.9581 16.3769C27.0551 14.0508 24.8795 12.3309 22.4286 12.0041C21.9772 11.9482 21.4569 11.9181 21.3752 11.9439Z" fill="white"/>
<path d="M21.2147 14.2448C21.0814 14.3867 21.0814 14.6189 21.219 14.7479C21.305 14.8296 21.3953 14.8511 21.7607 14.8812C22.324 14.9328 22.7626 15.0532 23.2441 15.2896C24.0052 15.6637 24.6458 16.2958 25.0371 17.0568C25.3209 17.6029 25.5015 18.2908 25.5015 18.8068C25.5015 18.9788 25.523 19.039 25.6262 19.1422C25.7939 19.3056 25.9443 19.3056 26.112 19.1336C26.2453 19.0046 26.2453 19.0046 26.2195 18.6305C26.1421 17.4696 25.6649 16.3904 24.8608 15.5734C24.0181 14.7135 22.9561 14.2233 21.8037 14.1631C21.3222 14.1416 21.3093 14.1416 21.2147 14.2448Z" fill="white"/>
<path d="M21.2247 16.4512C21.0183 16.6532 21.1258 16.9929 21.4053 17.0488C21.4698 17.0617 21.6288 17.0832 21.7535 17.1004C22.0889 17.1391 22.5232 17.3756 22.7898 17.6551C23.0649 17.9475 23.2068 18.2441 23.267 18.6655C23.3229 19.0482 23.3702 19.1557 23.5121 19.2202C23.6669 19.289 23.7658 19.2761 23.8905 19.1686C24.0367 19.0439 24.0668 18.816 23.9808 18.4161C23.7744 17.4315 23.0649 16.6704 22.1233 16.4297C21.6503 16.3093 21.358 16.3136 21.2247 16.4512Z" fill="white"/>
</svg>
