<svg width="40" height="40" viewBox="0 0 40 40" fill="none" xmlns="http://www.w3.org/2000/svg">
<rect width="40" height="40" rx="5" fill="#4D40DA"/>
<path d="M9.10603 12.1105L9 12.2214V20.0047C9 27.7735 9 27.7879 9.09639 27.894L9.19759 28H20.4219H31.6462L31.7475 27.894C31.8438 27.7879 31.8438 27.7735 31.8438 19.9998C31.8438 12.2262 31.8438 12.2117 31.7475 12.1057L31.6462 11.9997H20.4267H9.20723L9.10603 12.1105ZM30.4703 12.766C30.1667 13.0599 20.4412 21.3975 20.4123 21.3878C20.393 21.3782 19.6556 20.7517 18.7737 19.995C13.723 15.6576 10.4603 12.8479 10.3735 12.766C10.282 12.6744 10.4506 12.6744 20.4219 12.6744C30.4173 12.6744 30.5619 12.6744 30.4703 12.766ZM14.3736 17.1034C15.4628 18.0432 16.3447 18.8335 16.3447 18.8673C16.3399 18.9107 10.5759 25.7301 9.83375 26.5686L9.67471 26.747V19.9034V13.0599L11.0386 14.231C11.7856 14.8768 13.2892 16.1684 14.3736 17.1034ZM31.1691 19.9275V26.747L31.0101 26.5686C30.2968 25.7638 24.5039 18.9107 24.4991 18.8673C24.4943 18.8143 31.0583 13.1178 31.1354 13.1129C31.1547 13.1081 31.1691 16.1781 31.1691 19.9275ZM18.5809 20.7276C19.4725 21.4987 20.2532 22.1493 20.3159 22.1734C20.3785 22.1975 20.4653 22.1975 20.5328 22.1734C20.5906 22.1493 21.3762 21.4938 22.2726 20.7179C23.4292 19.7251 23.9256 19.3251 23.969 19.354C24.0027 19.3781 25.5401 21.1758 27.3859 23.3493L30.745 27.3012L25.5835 27.3156C22.7449 27.3205 18.099 27.3205 15.2604 27.3156L10.0988 27.3012L13.4868 23.3156C15.3519 21.1227 16.899 19.3251 16.9182 19.3251C16.9375 19.3251 17.6893 19.9565 18.5809 20.7276Z" fill="white"/>
</svg>
