<svg width="17" height="9" viewBox="0 0 17 9" fill="none" xmlns="http://www.w3.org/2000/svg">
<path d="M0.433494 0.0734301C0.122048 0.208236 -0.054594 0.561519 0.0151329 0.924099C0.0430237 1.08215 0.479979 1.53305 3.93379 4.9915C7.39224 8.44531 7.84314 8.88227 8.00119 8.91016C8.43815 8.99383 8.18248 9.21696 12.4126 4.9915C16.638 0.766051 16.4149 1.01707 16.3312 0.580112C16.2894 0.352338 16.0105 0.0734301 15.7827 0.0315943C15.3458 -0.0520782 15.5689 -0.242665 11.7153 3.60161L8.17318 7.14374L4.64965 3.62486C2.6787 1.65391 1.07498 0.0827274 1.00061 0.0548363C0.823965 -0.0102415 0.605488 -0.000945091 0.433494 0.0734301Z" fill="#102c6d"/>
</svg>
