<svg width="99" height="28" viewBox="0 0 99 28" fill="none" xmlns="http://www.w3.org/2000/svg">
<path fill-rule="evenodd" clip-rule="evenodd" d="M7.15373 7.78448L0.395996 27.0002H4.932L7.02 20.9882H17.928L19.98 27.0002H24.516L15.084 0.180176H10.9938L12.5 5L16.632 17.2082H8.244L10.2183 11.462L7.15373 7.78448ZM35.1307 27.4322C33.1867 27.4322 31.4587 26.9882 29.9467 26.1002C28.4587 25.1882 27.2707 23.9642 26.3827 22.4282C25.5187 20.8922 25.0867 19.1522 25.0867 17.2082C25.0867 15.2882 25.5187 13.5602 26.3827 12.0242C27.2467 10.4882 28.4347 9.28818 29.9467 8.42418C31.4587 7.53618 33.1867 7.09218 35.1307 7.09218C36.4507 7.09218 37.6867 7.33218 38.8387 7.81218C39.9907 8.26818 40.9867 8.90418 41.8267 9.72018C42.6907 10.5362 43.3267 11.4842 43.7347 12.5642L40.1707 14.2202C39.7627 13.2122 39.1027 12.4082 38.1907 11.8082C37.3027 11.1842 36.2827 10.8722 35.1307 10.8722C34.0267 10.8722 33.0307 11.1482 32.1427 11.7002C31.2787 12.2282 30.5947 12.9842 30.0907 13.9682C29.5867 14.9282 29.3347 16.0202 29.3347 17.2442C29.3347 18.4682 29.5867 19.5722 30.0907 20.5562C30.5947 21.5162 31.2787 22.2722 32.1427 22.8242C33.0307 23.3762 34.0267 23.6522 35.1307 23.6522C36.3067 23.6522 37.3267 23.3522 38.1907 22.7522C39.0787 22.1282 39.7387 21.3002 40.1707 20.2682L43.7347 21.9602C43.3507 22.9922 42.7267 23.9282 41.8627 24.7682C41.0227 25.5842 40.0267 26.2322 38.8747 26.7122C37.7227 27.1922 36.4747 27.4322 35.1307 27.4322ZM46.9907 7.52418V27.0002H51.0587V15.7682C51.0587 14.2322 51.4667 13.0562 52.2827 12.2402C53.1227 11.4002 54.2147 10.9802 55.5587 10.9802H57.2507V7.27218H56.0627C54.7187 7.27218 53.5667 7.56018 52.6067 8.13618C51.879 8.5546 51.303 9.17986 50.8787 10.012V7.52418H46.9907ZM68.7097 27.4322C66.8377 27.4322 65.1217 26.9882 63.5617 26.1002C62.0257 25.2122 60.8017 24.0002 59.8897 22.4642C58.9777 20.9282 58.5217 19.1882 58.5217 17.2442C58.5217 15.2762 58.9777 13.5362 59.8897 12.0242C60.8017 10.4882 62.0257 9.28818 63.5617 8.42418C65.0977 7.53618 66.8137 7.09218 68.7097 7.09218C70.6297 7.09218 72.3456 7.53618 73.8577 8.42418C75.3937 9.28818 76.6057 10.4882 77.4937 12.0242C78.4057 13.5362 78.8617 15.2762 78.8617 17.2442C78.8617 19.2122 78.4057 20.9642 77.4937 22.5002C76.5816 24.0362 75.3577 25.2482 73.8217 26.1362C72.2857 27.0002 70.5817 27.4322 68.7097 27.4322ZM68.7097 23.6522C69.8617 23.6522 70.8817 23.3762 71.7697 22.8242C72.6577 22.2722 73.3537 21.5162 73.8577 20.5562C74.3857 19.5722 74.6497 18.4682 74.6497 17.2442C74.6497 16.0202 74.3857 14.9282 73.8577 13.9682C73.3537 13.0082 72.6577 12.2522 71.7697 11.7002C70.8817 11.1482 69.8617 10.8722 68.7097 10.8722C67.5817 10.8722 66.5617 11.1482 65.6497 11.7002C64.7617 12.2522 64.0537 13.0082 63.5257 13.9682C63.0217 14.9282 62.7697 16.0202 62.7697 17.2442C62.7697 18.4682 63.0217 19.5722 63.5257 20.5562C64.0537 21.5162 64.7617 22.2722 65.6497 22.8242C66.5617 23.3762 67.5817 23.6522 68.7097 23.6522ZM82.1132 7.52418V27.0002H86.1812V15.5162C86.1812 14.5562 86.3612 13.7282 86.7212 13.0322C87.0812 12.3362 87.5852 11.8082 88.2332 11.4482C88.9052 11.0642 89.6612 10.8722 90.5012 10.8722C91.3412 10.8722 92.0852 11.0642 92.7332 11.4482C93.4052 11.8082 93.9212 12.3362 94.2812 13.0322C94.6412 13.7042 94.8212 14.5322 94.8212 15.5162V27.0002H98.8532V14.4362C98.8532 12.9962 98.5412 11.7242 97.9172 10.6202C97.2932 9.51618 96.4292 8.65218 95.3252 8.02818C94.2212 7.40418 92.9492 7.09218 91.5092 7.09218C90.1172 7.09218 88.8932 7.41618 87.8372 8.06418C87.0753 8.51441 86.4633 9.12082 86.0012 9.88342V7.52418H82.1132Z" fill="#242E45"/>
</svg>
