<svg width="80" height="80" viewBox="0 0 80 80" fill="none" xmlns="http://www.w3.org/2000/svg">
<circle cx="40" cy="40" r="40" fill="url(#paint0_linear_39_129)"/>
<path d="M61.6678 19.9016C61.5175 19.9673 51.4755 23.7061 39.3574 28.2152C27.2393 32.7242 17.2536 36.4817 17.1691 36.5569C17.0752 36.6414 17 36.8293 17 36.9984C17 37.1675 17.0752 37.3648 17.1691 37.4493C17.2536 37.5245 20.1375 38.8302 23.5757 40.3332C27.0139 41.8456 29.8414 43.1138 29.8696 43.1514C29.8978 43.1984 30.6775 47.1344 31.5981 51.9065C33.4017 61.1876 33.3547 60.9997 33.9089 60.9997C34.1156 60.9997 35.1677 60.0321 39.395 56.0022C42.2789 53.2498 44.6743 50.9859 44.7119 50.9671C44.7495 50.9577 46.7691 52.038 49.2021 53.3907C51.6352 54.734 53.73 55.8331 53.8521 55.8331C53.9742 55.8331 54.1433 55.7767 54.2373 55.711C54.3688 55.617 55.3927 51.5307 58.6336 38.1632C60.9539 28.5815 62.8796 20.6155 62.9078 20.4558C63.0111 19.8734 62.3817 19.5916 61.6678 19.9016ZM57.4406 22.9452C57.2339 23.1519 30.4708 41.8644 30.3862 41.8644C30.189 41.8644 19.4518 37.0923 19.5176 37.036C19.5551 36.9984 23.4536 35.533 28.1787 33.7669C32.9038 32.0103 41.424 28.8445 47.1073 26.7215C52.7906 24.5985 57.4593 22.87 57.4875 22.8607C57.5063 22.8607 57.4875 22.8982 57.4406 22.9452ZM60.9163 23.1613C60.8975 23.227 59.2066 30.216 57.1493 38.6893C55.1015 47.1626 53.4106 54.114 53.3824 54.1422C53.3636 54.161 53.2321 54.1234 53.0912 54.0389C52.9503 53.9637 50.1603 52.4231 46.8913 50.6195C43.6222 48.8159 40.9637 47.3035 40.9825 47.2565C41.0107 47.172 60.8881 23.0485 60.9351 23.0485C60.9445 23.0485 60.9445 23.1049 60.9163 23.1613ZM49.0612 35.3545C43.857 41.6672 39.5265 46.9183 39.4419 47.031C39.3574 47.1438 38.1644 49.6707 36.7835 52.6392C35.4026 55.6076 34.2377 58.0688 34.2095 58.1064C34.172 58.144 33.4768 54.7434 32.6596 50.5444C31.5323 44.7014 31.2129 42.9071 31.2975 42.8602C31.3632 42.8226 37.5068 38.5202 44.9467 33.3066C52.3867 28.093 58.4927 23.8376 58.5021 23.8564C58.5209 23.8658 54.2748 29.0418 49.0612 35.3545ZM42.0628 49.4453C42.8425 49.8774 43.4907 50.2531 43.4813 50.2813C43.4813 50.3095 42.1849 51.5589 40.6162 53.0619C37.2719 56.2464 35.9192 57.5146 35.9944 57.3831C36.0226 57.3267 36.9244 55.4104 37.9953 53.1089C40.4471 47.8389 40.1653 48.365 40.4189 48.5341C40.5316 48.5998 41.2737 49.0132 42.0628 49.4453Z" fill="#3C2FC0"/>
<defs>
<linearGradient id="paint0_linear_39_129" x1="14" y1="2" x2="68" y2="84" gradientUnits="userSpaceOnUse">
<stop stop-color="#EFEDFF"/>
<stop offset="0.76197" stop-color="#EFEDFF" stop-opacity="0"/>
</linearGradient>
</defs>
</svg>
