<svg width="43" height="28" viewBox="0 0 43 28" fill="none" xmlns="http://www.w3.org/2000/svg">
<path d="M20.7998 0.0289345C20.0006 0.103865 19.0515 0.411905 18.3355 0.828175C17.6695 1.21114 16.5622 2.3101 16.1792 2.95948C15.0553 4.85768 15.047 7.38028 16.1459 9.24517C16.5455 9.9112 17.3198 10.7604 17.861 11.1267C18.1357 11.3182 18.2439 11.4264 18.1607 11.4514C17.478 11.6928 16.8786 11.9343 16.5039 12.1258C15.9461 12.4088 14.7389 13.1914 14.5891 13.3746C14.5308 13.4412 14.4559 13.4995 14.4142 13.4995C14.3809 13.4995 14.0562 13.2913 13.7066 13.0416C13.1488 12.6419 12.233 12.1424 11.7335 11.9676C11.6003 11.926 11.6669 11.8177 12.1914 11.2682C13.4235 9.95283 13.8481 8.38765 13.4235 6.72257C12.3828 2.65977 7.0296 1.72732 4.70681 5.19902C4.12403 6.06486 3.89092 6.8308 3.89924 7.8798C3.89924 9.30345 4.39877 10.4773 5.39782 11.4181L5.91399 11.8927L5.43945 12.0841C4.41542 12.5004 3.66613 13.0166 2.72536 13.9574C1.1019 15.5808 0.327641 17.3125 0.211085 19.5937L0.161133 20.5761H5.33121H10.5013L10.4597 21.675C10.4014 22.9738 10.5263 23.7314 10.9425 24.5723C11.3005 25.3049 12.2163 26.2124 12.9323 26.5454C13.973 27.0449 13.7482 27.0283 21.5408 27.0283H28.7007L29.2918 26.8451C30.3907 26.4954 31.4813 25.5713 31.9975 24.5639C32.4055 23.748 32.5137 23.1153 32.4721 21.7583L32.4304 20.5761H37.6338H42.8372L42.7873 19.6353C42.6957 17.8703 42.2295 16.4966 41.2137 15.023C40.3979 13.8408 38.8743 12.6003 37.6421 12.1174L37.0927 11.901L37.6921 11.3015C38.6495 10.3275 39.0991 9.22852 39.0991 7.83817C39.0908 5.7818 37.7754 3.97518 35.7773 3.2925C34.9447 3.00111 33.7459 2.96781 32.9466 3.20924C31.2732 3.70877 29.9245 5.11576 29.5332 6.77252C29.1502 8.38765 29.6081 10.0111 30.807 11.2599L31.4064 11.901L30.9485 12.0841C30.3824 12.3172 29.4916 12.8417 29.0087 13.2247C28.8172 13.3829 28.6091 13.4995 28.5508 13.4745C28.4925 13.4495 28.1595 13.233 27.8182 12.9833C27.0855 12.4588 25.9116 11.8344 25.2456 11.6262C24.9958 11.543 24.7544 11.4597 24.7211 11.4431C24.6795 11.4181 24.8377 11.2766 25.0624 11.1267C25.5953 10.7604 26.3779 9.90288 26.7692 9.24517C27.8598 7.39693 27.8598 4.8993 26.7608 3.00943C26.3612 2.31842 25.2706 1.22779 24.5796 0.828175C23.4806 0.187119 22.1486 -0.0959454 20.7998 0.0289345ZM22.6064 1.47756C24.3215 1.9188 25.7202 3.3258 26.1198 5.01586C26.6693 7.38028 25.3622 9.78632 23.0394 10.6688C22.3567 10.9269 21.0829 10.9935 20.3336 10.802C19.4012 10.5689 18.7684 10.2026 18.0857 9.51158C17.07 8.47923 16.6538 7.49683 16.6621 6.14812C16.6621 4.74112 17.07 3.77537 18.0857 2.75135C18.7518 2.07699 19.4594 1.66072 20.2753 1.46091C20.8831 1.31937 22.007 1.31937 22.6064 1.47756ZM9.67708 4.52466C11.7002 5.13241 12.7575 7.41358 11.8916 9.29512C11.2339 10.7437 9.71038 11.5846 8.18683 11.3432C6.28031 11.0351 4.93992 9.22019 5.24796 7.37195C5.59763 5.26562 7.67066 3.92523 9.67708 4.52466ZM35.2361 4.52466C37.2509 5.13241 38.3165 7.41358 37.4507 9.29512C36.7846 10.7521 35.2694 11.5846 33.7459 11.3432C32.2057 11.0934 31.0651 9.9445 30.807 8.39598C30.5905 7.06391 31.2233 5.68189 32.4055 4.92428C33.213 4.4081 34.312 4.24992 35.2361 4.52466ZM23.1892 12.4588C24.105 12.6336 24.9875 12.9417 25.9116 13.4245C28.3094 14.6567 30.0743 16.8629 30.782 19.5021C31.0068 20.3429 31.1983 22.1496 31.115 22.6907C30.9235 24.0311 30.3324 24.8886 29.2418 25.3965L28.7839 25.6129H21.4575H14.1312L13.6067 25.3715C12.9406 25.0635 12.2663 24.3558 11.9999 23.6814C11.825 23.2485 11.8084 23.0737 11.8167 21.9914C11.8167 21.2088 11.875 20.5511 11.9666 20.1182C12.7991 16.1553 15.738 13.2497 19.7092 12.4505C20.4418 12.3089 22.415 12.3089 23.1892 12.4588ZM10.5512 12.9999C11.3089 13.2081 12.1497 13.6077 12.8574 14.0989C13.1238 14.2904 13.3403 14.4486 13.3403 14.4652C13.3403 14.4819 13.1571 14.7066 12.9406 14.9731C12.0831 16.0054 11.467 17.1127 11.0091 18.4531L10.776 19.1191L6.18041 19.1441L1.57645 19.1607L1.62641 18.7445C1.65138 18.5114 1.78459 18.0035 1.92612 17.6122C2.74201 15.2311 4.75676 13.4578 7.26271 12.9084C8.17851 12.7002 9.59383 12.7418 10.5512 12.9999ZM36.1852 13.0416C38.1999 13.6327 39.7818 14.9398 40.7142 16.788C40.9973 17.3624 41.2637 18.1867 41.347 18.7611L41.4052 19.1607H36.7597H32.1057L31.9975 18.7611C31.7394 17.7537 30.8736 16.1303 30.0244 15.073L29.5831 14.5152L29.7663 14.3486C30.4323 13.7326 31.8393 13.0915 32.9633 12.8751C33.9124 12.7002 35.2444 12.7668 36.1852 13.0416Z" fill="#102c6d"/>
</svg>
