<svg width="46" height="46" viewBox="0 0 46 46" fill="none" xmlns="http://www.w3.org/2000/svg">
<path d="M1.90555 0.188709C1.18732 0.462769 0.658105 0.963638 0.308443 1.68186L-0.00341797 2.31503V17.4356V32.5561L0.242291 33.0853C0.554152 33.7374 1.07392 34.2855 1.69764 34.5879L2.17016 34.8242L7.82146 34.8525L13.4728 34.8809L13.7468 34.5974C14.0492 34.3044 14.1154 33.8886 13.9264 33.5295C13.6901 33.0853 13.5295 33.0759 7.91596 33.0759C3.89012 33.0759 2.58597 33.0475 2.40642 32.953C2.28356 32.8868 2.07565 32.6884 1.96225 32.5183L1.74489 32.197V20.1667V8.12699H20.8818H40.0187V15.1391V22.1513L37.2592 19.4107C34.1028 16.2732 34.1406 16.3015 32.742 16.3015C32.0238 16.3015 31.8631 16.3299 31.3055 16.6134C30.5968 16.963 30.1148 17.4545 29.7935 18.1632C29.5761 18.6452 29.5289 18.6736 29.2359 18.5129C28.5838 18.1727 27.2891 18.2483 26.4764 18.6925C25.5597 19.1839 24.8037 20.3463 24.8037 21.2535V21.6221L24.2934 21.6788C23.216 21.8205 21.9875 22.7088 21.6662 23.5877C21.6095 23.7673 21.5244 23.909 21.4961 23.909C21.4677 23.909 20.4093 22.8601 19.1335 21.5843C16.6953 19.1461 16.3835 18.9004 15.429 18.7208C13.624 18.39 11.8662 19.7225 11.6205 21.6126C11.5449 22.1796 11.7528 23.0869 12.0647 23.6161C12.1686 23.8051 14.862 26.5646 18.0373 29.7399C21.2126 32.9247 23.7736 35.5329 23.7358 35.5329C23.698 35.5329 23.1026 35.4006 22.4222 35.24C20.8913 34.8714 20.1069 34.8903 19.2847 35.2872C18.6137 35.618 17.8861 36.4118 17.6309 37.0922C17.3663 37.801 17.3663 38.8406 17.6309 39.5399C17.8483 40.1447 18.5098 40.9196 19.0768 41.2504C19.5493 41.5244 28.6216 44.6998 29.7273 44.9738C35.0668 46.3063 40.7653 43.8776 43.6004 39.0674C46.2748 34.5123 45.7645 28.5775 42.3435 24.5422L41.8143 23.9185L41.7954 13.1168L41.767 2.31503L41.4552 1.68186C41.0961 0.944736 40.5668 0.462769 39.8297 0.17926C39.3667 -0.000297546 38.8941 -0.000297546 20.8535 -0.000297546C2.99234 0.00915527 2.34026 0.0186043 1.90555 0.188709ZM39.4895 1.99372C39.9715 2.37173 40.0187 2.57964 40.0187 4.53586V6.33142H20.8818H1.74489V4.53586C1.74489 2.57964 1.79214 2.37173 2.27411 1.99372L2.52927 1.79527H20.8818H39.2344L39.4895 1.99372ZM33.4413 18.1916C33.9327 18.4278 41.0205 25.6195 41.5969 26.4606C42.9011 28.3979 43.5154 30.3636 43.5154 32.6506C43.5154 34.0209 43.3452 35.1077 42.9389 36.2512C41.0772 41.5906 35.5015 44.5864 30.0014 43.2161C29.0185 42.9704 20.0596 39.8045 19.795 39.606C19.4076 39.3225 19.1902 38.85 19.1902 38.3113C19.1902 37.4136 19.8706 36.7426 20.7684 36.752C20.9858 36.752 22.3939 37.045 23.8965 37.4136C25.3991 37.7821 26.7316 38.0845 26.8544 38.0845C27.223 38.0845 27.6388 37.6026 27.6388 37.1678C27.6388 36.8182 27.4498 36.6292 20.5605 29.721C12.8868 22.0473 13.2459 22.4537 13.4066 21.5937C13.4917 21.159 13.9925 20.6487 14.4839 20.5069C15.3439 20.2423 15.1077 20.0438 21.4205 26.3472C27.0812 31.9891 27.1663 32.0836 27.5348 32.0836C28.0641 32.0836 28.3948 31.7528 28.3948 31.2425C28.3948 30.8645 28.3476 30.8078 26.0322 28.4924C24.7281 27.1883 23.5563 25.9692 23.424 25.7802C22.7624 24.8352 23.4807 23.4365 24.6147 23.4365C25.2479 23.4365 25.5786 23.7011 28.2153 26.3283C30.7102 28.8138 30.8425 28.9366 31.1827 28.9366C31.6835 28.9366 32.0332 28.5775 32.0332 28.0672C32.0332 27.6986 31.9671 27.623 29.3682 25.0242C27.3269 22.9546 26.6938 22.2647 26.5993 21.9906C26.2685 20.9416 27.1757 19.9115 28.2909 20.0817C28.7067 20.1478 28.8295 20.2518 31.4756 22.879C34.0934 25.4872 34.2351 25.6101 34.5753 25.6101C35.2369 25.6101 35.6716 24.9297 35.3786 24.3532C35.3219 24.2398 34.3863 23.2475 33.309 22.1607C31.6457 20.4786 31.3339 20.1195 31.2866 19.8265C31.1638 19.1555 31.4945 18.5129 32.1277 18.1632C32.4018 18.012 33.0916 18.0309 33.4413 18.1916Z" fill="#3C2FC0"/>
</svg>
