<svg width="39" height="38" viewBox="0 0 39 38" fill="none" xmlns="http://www.w3.org/2000/svg">
<path d="M15.548 0.0722771C15.1406 0.131687 14.8605 0.394791 14.8605 0.691845C14.8605 0.793694 15.1236 1.33688 15.4546 1.89704C16.5919 3.87457 17.2115 5.41076 17.5849 7.20157C17.7886 8.16912 17.8565 10.274 17.7207 11.3688L17.6528 11.9375L16.9993 12.3618C14.0118 14.3394 11.9664 17.7088 11.4402 21.545C11.3553 22.1646 11.2959 22.3428 11.2025 22.3174C11.1346 22.3004 10.8376 22.2155 10.532 22.1307C8.19804 21.4347 5.11716 21.6554 3.14812 22.6484C2.03629 23.2085 1.08572 24.1846 0.85656 25.0078C0.729251 25.4916 0.754713 26.2555 0.924458 26.6968C1.07723 27.0872 1.07723 27.1212 0.932945 27.5286C0.729251 28.0887 0.729251 28.9035 0.924458 29.4127C1.07723 29.8031 1.07723 29.8371 0.932945 30.2445C0.729251 30.8046 0.729251 31.6194 0.924458 32.1287C1.07723 32.5191 1.07723 32.553 0.932945 32.9604C0.720764 33.5545 0.729251 34.3269 0.958407 34.9295C1.0942 35.3029 1.28092 35.566 1.73924 36.0243C3.35181 37.6369 6.57697 38.3668 9.58146 37.7981C10.4726 37.6284 11.5929 37.2465 12.1786 36.9155L12.6284 36.6609L12.9424 36.8815C13.4092 37.1871 14.1391 37.5435 14.8181 37.7642L15.4122 37.9679L24.0692 37.9934C31.7417 38.0103 32.8026 38.0018 33.3967 37.883C36.0447 37.3483 37.9459 35.4047 38.4127 32.7737C38.5994 31.7298 38.6758 28.4452 38.5485 26.8496C38.1411 21.6893 36.5115 17.1486 34.0587 14.3478C33.5749 13.7877 32.5056 12.8541 31.8181 12.3873L31.4192 12.1242L31.869 11.4197C32.8111 9.97691 33.4561 8.44071 33.7447 6.92998C33.9144 6.05579 33.9993 4.18859 33.9144 3.17012L33.855 2.40627L33.4476 2.00737C32.3952 0.988899 30.0103 0.250507 27.2095 0.080761C25.5969 -0.0210838 24.7397 0.0553017 24.5275 0.318405C24.2984 0.598484 24.3238 0.759743 24.6973 1.5915C25.3423 3.02584 25.6309 4.39229 25.4866 5.37681C25.4357 5.75025 25.3932 5.84361 25.3508 5.7163C24.8416 4.34137 24.3663 3.52659 23.6279 2.70333C22.3208 1.27747 20.4876 0.369328 18.3149 0.080761C17.5849 -0.0210838 16.1336 -0.0295715 15.548 0.0722771ZM19.0957 1.59998C22.3293 2.38081 24.3663 4.99488 24.3663 8.37281C24.3663 9.00936 24.3832 9.09423 24.5785 9.28095C24.7906 9.50162 25.1131 9.55254 25.3932 9.40826C25.6054 9.28944 26.1741 8.16063 26.4881 7.21006C27.0398 5.57202 27.0228 4.02734 26.4457 2.29594C26.2844 1.81216 26.1486 1.41326 26.1486 1.40477C26.1486 1.33688 28.3892 1.5236 28.9918 1.63393C30.545 1.9225 32.1661 2.55056 32.4631 2.97492C32.7602 3.39928 32.5904 6.12369 32.1746 7.62593C31.9369 8.47466 31.2155 9.96842 30.5874 10.902L30.0782 11.6574L29.1955 11.9884C27.2689 12.7013 25.8091 12.939 23.8231 12.8626C22.219 12.8032 20.6998 12.4806 19.4182 11.929C19.0702 11.7847 19.0108 11.7338 19.0532 11.581C19.0872 11.4792 19.1296 10.902 19.1636 10.2909C19.2909 7.6514 18.6459 4.99488 17.22 2.28745L16.7108 1.3199L17.551 1.37083C18.0093 1.40477 18.7053 1.50662 19.0957 1.59998ZM19.5879 13.4397C20.0632 13.601 20.9204 13.8471 21.4976 13.9744C22.4566 14.1866 22.6858 14.2036 24.4087 14.1951C26.5645 14.1951 27.235 14.0847 29.187 13.4312L30.3243 13.0493L31.0118 13.4991C32.4716 14.4412 34.0757 16.3169 34.899 18.0398C36.4691 21.3329 37.2669 25.0503 37.2669 29.1072C37.2669 30.932 37.1311 32.5276 36.9274 33.1896C36.4182 34.8446 34.9838 36.1431 33.2609 36.5251C32.7092 36.6439 31.6823 36.6524 24.1117 36.6354L15.582 36.6099L14.9539 36.3808C14.6144 36.2535 14.19 36.0583 14.0118 35.9394L13.6978 35.7357L13.9948 35.1247C14.3513 34.4117 14.4022 33.7667 14.1476 32.9859C13.9948 32.5276 13.9948 32.4936 14.1391 32.1117C14.3428 31.6024 14.3428 30.8725 14.1476 30.2699C13.9948 29.8116 13.9948 29.7777 14.1391 29.3958C14.3428 28.8865 14.3428 28.1566 14.1476 27.554C14.0033 27.1127 14.0033 27.0363 14.1137 26.7477C14.572 25.602 14.1985 24.3798 13.0952 23.4207L12.6284 23.0048L12.7302 22.1731C13.0612 19.4317 13.9694 17.2759 15.5989 15.3833C16.4816 14.3563 18.2724 12.9899 18.5949 13.0917C18.6628 13.1087 19.1127 13.27 19.5879 13.4397ZM9.18256 23.2085C11.6269 23.6329 13.2395 24.889 12.9085 26.1197C12.6623 27.0533 11.2195 27.9444 9.30138 28.3433C8.52904 28.5131 6.47513 28.4876 5.60943 28.3009C3.06325 27.7662 1.65436 26.4337 2.26545 25.1436C2.68132 24.2779 4.32785 23.4207 6.08471 23.1661C6.91646 23.0473 8.33384 23.0643 9.18256 23.2085ZM2.65586 28.6149C5.18506 30.2105 9.58146 30.253 12.255 28.7083C12.6284 28.4961 12.9424 28.3433 12.9679 28.3603C13.0612 28.4622 12.8575 29.0648 12.6199 29.3788C11.5166 30.8471 8.32535 31.577 5.54153 30.9998C3.63189 30.6094 2.12965 29.5485 2.12965 28.6064C2.12965 28.4537 2.14662 28.3348 2.17209 28.3348C2.18906 28.3348 2.40973 28.4622 2.65586 28.6149ZM2.37578 31.1696C2.58796 31.3648 3.64887 31.8655 4.24298 32.0608C6.89949 32.9265 10.3283 32.6294 12.4247 31.3393C12.6963 31.1696 12.9424 31.0508 12.9594 31.0762C13.0612 31.1781 12.866 31.7722 12.6199 32.0947C11.5166 33.563 8.32535 34.2929 5.54153 33.7158C3.63189 33.3254 2.12965 32.2645 2.12965 31.3224C2.12965 31.0253 2.18057 30.9914 2.37578 31.1696ZM2.47763 33.9449C2.61342 34.0383 3.03779 34.259 3.41971 34.4457C6.06774 35.6763 10.0822 35.4981 12.4162 34.0553C12.6963 33.8855 12.9424 33.7667 12.9594 33.7922C13.0612 33.8855 12.8745 34.4711 12.6454 34.7852C11.9749 35.7103 10.4217 36.3723 8.45266 36.5845C5.89799 36.8476 3.11417 35.9734 2.34183 34.6663C2.15511 34.3438 2.04478 33.7667 2.18057 33.7667C2.20603 33.7667 2.34183 33.8431 2.47763 33.9449Z" fill="#102c6d"/>
<path d="M23.5593 17.0464C20.385 17.3858 17.5503 19.5416 16.3196 22.5631C15.8783 23.6494 15.751 24.4048 15.751 25.8307C15.7595 26.8576 15.7934 27.248 15.9462 27.8591C17.4909 34.0378 24.7984 36.6265 29.8568 32.7732C31.5033 31.5256 32.7 29.633 33.1159 27.6215C33.3196 26.6709 33.3366 25.0753 33.1583 24.1756C32.42 20.3394 29.3221 17.4877 25.4434 17.0548C24.5608 16.953 24.4504 16.953 23.5593 17.0464ZM26.1224 18.5316C28.9572 19.1851 31.2148 21.4682 31.8004 24.2775C31.9532 24.9904 31.9616 26.4248 31.8343 27.1547C31.5882 28.5042 30.9007 29.8451 29.9332 30.8551C28.9062 31.9415 27.752 32.6374 26.3346 33.0194C25.384 33.274 23.6526 33.274 22.702 33.0194C19.4769 32.1537 17.2787 29.4802 17.092 26.2126C16.9562 23.7513 17.9916 21.4512 19.9097 19.9575C21.6666 18.5741 23.9921 18.0478 26.1224 18.5316Z" fill="#102c6d"/>
<path d="M24.2127 19.5502C23.9157 19.6775 23.8563 19.8133 23.8563 20.365C23.8563 20.7469 23.8393 20.7808 23.6271 20.8317C23.2112 20.9336 22.5747 21.2901 22.1928 21.6465C21.0724 22.682 21.0555 24.4558 22.1588 25.5252C22.7105 26.0599 23.4234 26.3654 24.3231 26.4588C25.2057 26.5522 25.4179 26.6201 25.7914 26.9341C26.5382 27.5537 26.4958 28.5382 25.7065 29.1153C25.0105 29.6415 24.0769 29.6585 23.3385 29.1578C22.9821 28.9201 22.668 28.3854 22.668 28.012C22.668 27.4348 21.9975 27.1123 21.5562 27.4773C21.378 27.6131 21.3525 27.7149 21.361 28.1393C21.3695 28.8437 21.6411 29.4209 22.2522 29.981C22.685 30.3799 23.4574 30.7958 23.7714 30.7958C23.8223 30.7958 23.8563 30.9995 23.8563 31.2541C23.8563 31.7888 24.0175 32.0434 24.4164 32.1198C24.6201 32.1538 24.7304 32.1198 24.9172 31.967C25.1124 31.7973 25.1633 31.67 25.1972 31.2796C25.2142 30.9995 25.2736 30.7958 25.333 30.7958C25.384 30.7958 25.6725 30.677 25.9781 30.5327C27.3785 29.8792 28.015 28.4024 27.4973 27.019C27.0984 25.9411 25.7829 25.1093 24.4758 25.1093C23.678 25.1093 22.8208 24.5152 22.702 23.8787C22.4219 22.3595 24.6371 21.4683 25.8762 22.5971C26.1393 22.8347 26.3176 23.1827 26.3176 23.4543C26.3176 24.1248 26.9541 24.4813 27.4549 24.0824C27.6416 23.9381 27.6755 23.8362 27.6755 23.5052C27.6755 22.3934 26.8183 21.3155 25.6216 20.8996C25.2312 20.7723 25.2312 20.7723 25.1972 20.314C25.1378 19.6096 24.7644 19.321 24.2127 19.5502Z" fill="#102c6d"/>
</svg>
