<svg width="91" height="25" viewBox="0 0 91 25" fill="none" xmlns="http://www.w3.org/2000/svg">
<path fill-rule="evenodd" clip-rule="evenodd" d="M6.19926 6.97602L0 24.6037H4.16116L6.07662 19.0885H16.0832L17.9657 24.6037H22.1268L13.4742 0H9.72202L11.1034 4.42044L14.8943 15.6209H7.19947L9.01061 10.3496L6.19926 6.97602ZM31.8643 25C30.081 25 28.4958 24.5927 27.1087 23.7781C25.7437 22.9414 24.6538 21.8186 23.8392 20.4095C23.0466 19.0004 22.6503 17.4042 22.6503 15.6209C22.6503 13.8595 23.0466 12.2743 23.8392 10.8653C24.6318 9.45619 25.7216 8.35535 27.1087 7.56275C28.4958 6.74813 30.081 6.34082 31.8643 6.34082C33.0752 6.34082 34.2091 6.56099 35.2659 7.00132C36.3227 7.41964 37.2364 8.00308 38.007 8.75165C38.7996 9.50022 39.383 10.3699 39.7573 11.3606L36.4878 12.8798C36.1135 11.9551 35.5081 11.2175 34.6715 10.6671C33.8568 10.0947 32.9211 9.80845 31.8643 9.80845C30.8515 9.80845 29.9379 10.0616 29.1232 10.568C28.3306 11.0524 27.7032 11.7459 27.2408 12.6486C26.7785 13.5293 26.5473 14.531 26.5473 15.6539C26.5473 16.7768 26.7785 17.7895 27.2408 18.6922C27.7032 19.5729 28.3306 20.2664 29.1232 20.7728C29.9379 21.2792 30.8515 21.5324 31.8643 21.5324C32.9431 21.5324 33.8788 21.2572 34.6715 20.7067C35.4861 20.1343 36.0915 19.3747 36.4878 18.428L39.7573 19.9802C39.405 20.9269 38.8326 21.7856 38.04 22.5561C37.2694 23.3047 36.3557 23.8992 35.2989 24.3395C34.2421 24.7798 33.0973 25 31.8643 25ZM42.7443 6.73712V24.6037H46.4761V14.2999C46.4761 12.8908 46.8504 11.812 47.599 11.0634C48.3696 10.2928 49.3713 9.90753 50.6043 9.90753H52.1564V6.50594H51.0666C49.8337 6.50594 48.7769 6.77014 47.8962 7.29855C47.2286 7.68239 46.7002 8.25599 46.311 9.01935V6.73712H42.7443ZM62.6685 25C60.9512 25 59.377 24.5927 57.9459 23.7781C56.5368 22.9635 55.414 21.8516 54.5773 20.4425C53.7407 19.0335 53.3224 17.4373 53.3224 15.6539C53.3224 13.8485 53.7407 12.2523 54.5773 10.8653C55.414 9.45619 56.5368 8.35535 57.9459 7.56275C59.355 6.74813 60.9292 6.34082 62.6685 6.34082C64.4298 6.34082 66.004 6.74813 67.3911 7.56275C68.8001 8.35535 69.912 9.45619 70.7266 10.8653C71.5632 12.2523 71.9816 13.8485 71.9816 15.6539C71.9816 17.4593 71.5632 19.0665 70.7266 20.4756C69.89 21.8846 68.7671 22.9965 67.358 23.8111C65.949 24.6037 64.3858 25 62.6685 25ZM62.6685 21.5324C63.7253 21.5324 64.661 21.2792 65.4756 20.7728C66.2902 20.2664 66.9287 19.5729 67.3911 18.6922C67.8754 17.7895 68.1176 16.7768 68.1176 15.6539C68.1176 14.531 67.8754 13.5293 67.3911 12.6486C66.9287 11.7679 66.2902 11.0744 65.4756 10.568C64.661 10.0616 63.7253 9.80845 62.6685 9.80845C61.6337 9.80845 60.698 10.0616 59.8613 10.568C59.0467 11.0744 58.3972 11.7679 57.9129 12.6486C57.4505 13.5293 57.2193 14.531 57.2193 15.6539C57.2193 16.7768 57.4505 17.7895 57.9129 18.6922C58.3972 19.5729 59.0467 20.2664 59.8613 20.7728C60.698 21.2792 61.6337 21.5324 62.6685 21.5324ZM74.9644 6.73712V24.6037H78.6962V14.0687C78.6962 13.188 78.8614 12.4284 79.1916 11.79C79.5219 11.1515 79.9842 10.6671 80.5787 10.3369C81.1951 9.98459 81.8887 9.80845 82.6592 9.80845C83.4298 9.80845 84.1123 9.98459 84.7068 10.3369C85.3233 10.6671 85.7966 11.1515 86.1269 11.79C86.4571 12.4064 86.6223 13.166 86.6223 14.0687V24.6037H90.3211V13.0779C90.3211 11.7569 90.0348 10.59 89.4624 9.57728C88.89 8.56451 88.0974 7.77191 87.0846 7.19947C86.0718 6.62704 84.9049 6.34082 83.5839 6.34082C82.307 6.34082 81.1841 6.63805 80.2154 7.2325C79.5164 7.64552 78.955 8.20182 78.5311 8.9014V6.73712H74.9644Z" fill="#1F2E54"/>
</svg>
