<svg width="16" height="11" viewBox="0 0 16 11" fill="none" xmlns="http://www.w3.org/2000/svg">
<path d="M0.146477 0.0382872C0.107417 0.0545626 0.0585909 0.106643 0.0390606 0.148959C-0.0130202 0.262885 -0.0130202 10.6725 0.0390606 10.7832C0.0585909 10.8288 0.110672 10.8809 0.156242 10.9004C0.266914 10.9525 15.3638 10.9525 15.4745 10.9004C15.5201 10.8809 15.5722 10.8288 15.5917 10.7832C15.6438 10.6725 15.6438 0.262885 15.5917 0.152214C15.5722 0.106643 15.5201 0.0545626 15.4745 0.0350323C15.3671 -0.0137939 0.247384 -0.0105391 0.146477 0.0382872ZM14.5664 0.643726C14.4947 0.708828 13.0625 2.01736 11.3829 3.54723C9.09787 5.63372 8.29387 6.34983 8.17018 6.40517C7.93256 6.51909 7.6689 6.51258 7.43454 6.38889C7.3141 6.32705 6.34735 5.46446 4.23157 3.53096C2.56498 2.00759 1.13927 0.708828 1.06766 0.643726L0.930945 0.52329H7.81538H14.6998L14.5664 0.643726ZM3.07277 3.17941C4.43664 4.4261 5.55312 5.45469 5.55312 5.46771C5.55312 5.48724 0.748662 9.88807 0.579399 10.0215C0.527318 10.0638 0.524063 9.8067 0.524063 5.47097C0.524063 2.27125 0.533828 0.881345 0.556614 0.894365C0.576144 0.907386 1.7089 1.93598 3.07277 3.17941ZM15.1002 7.76578L15.0904 10.0638L12.584 7.77554C11.2071 6.51909 10.0776 5.48073 10.0776 5.46771C10.0776 5.45469 11.2071 4.41633 12.584 3.15663L15.0904 0.87158L15.1002 3.16965C15.1034 4.43261 15.1034 6.50282 15.1002 7.76578ZM6.50034 6.30752C7.06346 6.8153 7.26853 6.94225 7.61356 6.99759C7.88048 7.04316 8.16367 6.99433 8.42733 6.86413C8.60636 6.77624 8.95465 6.48654 9.54707 5.92993L9.66425 5.81926L12.086 8.02293C13.4141 9.23706 14.5468 10.2722 14.6022 10.321L14.6998 10.4154H7.81538L0.930945 10.4121L1.14252 10.2233C1.2597 10.1159 2.38595 9.08407 3.64891 7.93179C4.91187 6.77624 5.95349 5.83228 5.96325 5.83553C5.97627 5.83879 6.21715 6.05037 6.50034 6.30752Z" fill="#A4A4A4"/>
</svg>
