<svg width="80" height="80" viewBox="0 0 80 80" fill="none" xmlns="http://www.w3.org/2000/svg">
<circle cx="40" cy="40" r="40" fill="url(#paint0_linear_39_137)"/>
<path d="M35.8391 20.1009C35.1431 20.4849 35.4391 21.5887 36.231 21.5887C36.639 21.5887 37.0309 21.1968 37.0309 20.7968C37.0309 20.1969 36.367 19.8049 35.8391 20.1009Z" fill="#3C2FC0"/>
<path d="M31.5115 20.7568C25.8241 22.6446 21.7686 27.6841 21.1207 33.6834C20.5127 39.1949 23.1284 44.7143 27.8319 47.8579C29.3998 48.9138 31.4795 49.7617 33.4313 50.1617C34.2472 50.3217 34.5752 50.3457 36.311 50.3457C38.1268 50.3377 38.3428 50.3217 39.2707 50.1297C40.9665 49.7617 42.8943 49.0018 44.1902 48.1939L44.5101 47.9939L50.9574 54.4332C57.1488 60.6245 57.4127 60.8805 57.7407 60.9205L58.0847 60.9685L60.0445 59.0007L62.0122 57.0409L61.9642 56.697C61.9243 56.369 61.6683 56.105 55.4769 49.9137L49.0376 43.4664L49.2376 43.1464C50.0455 41.8586 50.8055 39.9308 51.1734 38.227C51.3734 37.2831 51.3894 37.1151 51.3814 35.1873C51.3734 33.3075 51.3574 33.0755 51.1734 32.2276L50.9654 31.3077L52.4053 29.8599L53.8531 28.404L54.2211 28.58C54.5251 28.716 54.741 28.748 55.4689 28.748C56.2769 28.748 56.3889 28.732 56.8288 28.516C57.4447 28.212 58.0527 27.6041 58.3566 26.9882C58.5726 26.5482 58.5886 26.4362 58.5886 25.6283C58.5886 24.8204 58.5726 24.7084 58.3566 24.2685C58.0527 23.6525 57.4447 23.0446 56.8288 22.7406C56.3889 22.5247 56.2769 22.5087 55.4689 22.5087C54.661 22.5087 54.549 22.5247 54.1091 22.7406C53.4932 23.0446 52.8852 23.6525 52.5813 24.2685C52.3653 24.7084 52.3493 24.8204 52.3493 25.6283C52.3493 26.3562 52.3813 26.5722 52.5173 26.8762L52.6932 27.2441L51.5414 28.396C50.9094 29.028 50.3815 29.5239 50.3735 29.5079C50.3575 29.4839 50.2055 29.1639 50.0295 28.796C48.2217 24.9804 44.9741 22.0767 41.0065 20.7568C39.9106 20.3889 39.5187 20.3809 39.2387 20.7168C38.7668 21.2768 39.0707 21.8687 39.9666 22.1087C43.8302 23.1566 47.3098 26.2603 48.8297 30.0198L49.1416 30.7958L47.1178 32.8195L45.0861 34.8513L44.7181 34.6753C44.1822 34.4274 42.7503 34.4274 42.2304 34.6753L41.8704 34.8513L40.4626 33.4515L39.0467 32.0436L39.2227 31.6757C39.3587 31.3717 39.3907 31.1557 39.3907 30.4278C39.3907 29.6199 39.3747 29.5079 39.1587 29.0679C38.8547 28.452 38.2468 27.8441 37.6309 27.5401C37.1909 27.3241 37.0789 27.3081 36.271 27.3081C35.4631 27.3081 35.3511 27.3241 34.9112 27.5401C34.2952 27.8441 33.6873 28.452 33.3833 29.0679C33.1674 29.5079 33.1514 29.6199 33.1514 30.4278C33.1514 31.1557 33.1834 31.3717 33.3193 31.6757L33.4953 32.0436L32.0795 33.4515L30.6716 34.8513L30.3117 34.6753C30.0157 34.5394 29.7997 34.5074 29.0718 34.5074C28.2639 34.5074 28.1519 34.5234 27.7119 34.7393C27.096 35.0433 26.4881 35.6512 26.1841 36.2672C25.9681 36.7071 25.9521 36.8191 25.9521 37.627C25.9521 38.4349 25.9681 38.5469 26.1841 38.9869C26.4881 39.6028 27.096 40.2107 27.7119 40.5147C28.1519 40.7307 28.2639 40.7467 29.0718 40.7467C29.8797 40.7467 29.9917 40.7307 30.4316 40.5147C31.0476 40.2107 31.6555 39.6028 31.9595 38.9869C32.1755 38.5469 32.1915 38.4349 32.1915 37.627C32.1915 36.8991 32.1595 36.6831 32.0235 36.3792L31.8475 36.0112L33.2633 34.6033L34.6712 33.2035L35.0312 33.3795C35.3271 33.5155 35.5431 33.5475 36.271 33.5475C36.9989 33.5475 37.2149 33.5155 37.5109 33.3795L37.8708 33.2035L39.2787 34.6033L40.6945 36.0112L40.5186 36.3792C40.3826 36.6831 40.3506 36.8991 40.3506 37.627C40.3506 38.4349 40.3666 38.5469 40.5826 38.9869C40.8865 39.6028 41.4945 40.2107 42.1104 40.5147C42.5503 40.7307 42.6623 40.7467 43.4702 40.7467C44.2782 40.7467 44.3901 40.7307 44.8301 40.5147C45.446 40.2107 46.054 39.6028 46.3579 38.9869C46.5739 38.5469 46.5899 38.4349 46.5899 37.627C46.5899 36.8991 46.5579 36.6831 46.4219 36.3792L46.2459 36.0112L47.9018 34.3554C48.8057 33.4515 49.5736 32.7076 49.5976 32.7076C49.7336 32.7076 49.8456 34.3554 49.8136 35.7072C49.7816 36.8991 49.7336 37.3151 49.5576 38.099C48.7337 41.6826 46.7739 44.5383 43.7662 46.5541C42.3664 47.49 40.9665 48.0899 39.1427 48.5138C38.2388 48.7298 38.0948 48.7458 36.271 48.7458C34.4472 48.7458 34.3032 48.7298 33.3993 48.5138C31.2956 48.0179 29.7037 47.29 28.0719 46.0741C24.7043 43.5624 22.6405 39.4428 22.6325 35.2433C22.6325 31.3717 24.3283 27.5881 27.24 25.0124C28.7438 23.6845 30.9036 22.5167 32.7034 22.0687C33.4233 21.8847 33.6793 21.1808 33.1994 20.7009C32.8874 20.3889 32.5834 20.4049 31.5115 20.7568ZM56.2769 24.2685C56.7648 24.5564 57.0288 25.0284 57.0288 25.6283C57.0288 26.2283 56.7648 26.7002 56.2769 26.9882C55.5409 27.4201 54.541 27.1722 54.1091 26.4362C53.6771 25.7003 53.9251 24.7084 54.653 24.2765C55.125 23.9885 55.7969 23.9885 56.2769 24.2685ZM37.0789 29.0679C38.0948 29.6599 38.0948 31.1957 37.0789 31.7877C36.343 32.2196 35.3431 31.9716 34.9112 31.2357C34.4792 30.4998 34.7272 29.5079 35.4551 29.0759C35.9271 28.788 36.599 28.788 37.0789 29.0679ZM29.8797 36.2672C30.8956 36.8591 30.8956 38.3949 29.8797 38.9869C29.1438 39.4188 28.1439 39.1709 27.7119 38.4349C27.28 37.699 27.528 36.7071 28.2559 36.2752C28.7278 35.9872 29.3998 35.9872 29.8797 36.2672ZM44.2782 36.2672C44.7661 36.5551 45.0301 37.0271 45.0301 37.627C45.0301 38.227 44.7661 38.6989 44.2782 38.9869C43.5422 39.4188 42.5423 39.1709 42.1104 38.4349C41.6784 37.699 41.9264 36.7071 42.6543 36.2752C43.1263 35.9872 43.7982 35.9872 44.2782 36.2672ZM48.8937 47.8419L47.7498 48.9858L46.8059 48.0419L45.854 47.09L46.9819 45.9541L48.1097 44.8102L49.0696 45.7621L50.0295 46.706L48.8937 47.8419ZM55.6529 52.3294L60.0685 56.745L58.9246 57.8888L57.7887 59.0247L53.3492 54.5852L48.9097 50.1457L50.0295 49.0258C50.6455 48.4099 51.1654 47.9059 51.1894 47.9059C51.2134 47.9059 53.2212 49.8977 55.6529 52.3294Z" fill="#3C2FC0"/>
<defs>
<linearGradient id="paint0_linear_39_137" x1="14" y1="2" x2="68" y2="84" gradientUnits="userSpaceOnUse">
<stop stop-color="#EFEDFF"/>
<stop offset="0.76197" stop-color="#EFEDFF" stop-opacity="0"/>
</linearGradient>
</defs>
</svg>
