<svg width="40" height="39" viewBox="0 0 40 39" fill="none" xmlns="http://www.w3.org/2000/svg">
<path d="M2.05968 0.929291C1.32709 1.1064 0.691098 1.60553 0.304675 2.30592L0.0309587 2.8131L0.00680724 16.193C-0.00929372 29.5407 -0.00929372 29.5729 0.151716 30.0157C0.361028 30.5711 0.89236 31.1669 1.45589 31.4728L1.88257 31.7143L7.85602 31.7385C11.6478 31.7465 13.8375 31.7868 13.8375 31.8351C13.8375 31.8834 13.4511 32.6965 12.9761 33.6464L12.1067 35.3773H10.73C8.83818 35.3773 8.96699 35.2404 8.96699 37.1886C8.96699 38.6699 8.96699 38.6941 9.1602 38.847C9.34536 38.9919 9.62713 39 19.8754 39C30.1236 39 30.4054 38.9919 30.5906 38.847C30.7838 38.6941 30.7838 38.6699 30.7838 37.1886C30.7838 35.2404 30.9126 35.3773 29.0207 35.3773H27.6441L26.7746 33.6464C26.2997 32.6965 25.9132 31.8834 25.9132 31.8351C25.9132 31.7868 28.103 31.7465 31.8948 31.7385L37.8682 31.7143L38.2949 31.4728C38.8584 31.1669 39.3897 30.5711 39.5991 30.0157C39.7601 29.5729 39.7601 29.5407 39.744 16.193L39.7198 2.8131L39.4461 2.30592C39.1402 1.74239 38.7055 1.33986 38.1017 1.06615L37.7072 0.880985L20.0364 0.864887C9.85254 0.864887 2.23679 0.889038 2.05968 0.929291ZM37.6428 2.05635C37.9165 2.16101 38.3593 2.57159 38.5364 2.8936C38.6652 3.11902 38.6733 4.06898 38.6974 14.3816L38.7135 25.6362H19.8754H1.03727L1.05337 14.3816C1.07752 1.9678 1.03727 2.95801 1.57665 2.41863C2.04358 1.94365 0.803804 1.97585 19.8512 1.9678C32.0477 1.9678 37.4818 1.99195 37.6428 2.05635ZM38.7135 27.9869C38.7135 28.6632 38.6733 29.3636 38.625 29.5407C38.5042 29.9593 37.9648 30.4987 37.5462 30.6195C37.0954 30.7402 2.66347 30.7483 2.20459 30.6195C1.76181 30.4987 1.24658 29.9513 1.13387 29.4763C1.07752 29.275 1.03727 28.5827 1.03727 27.9386V26.7633H19.8754H38.7135V27.9869ZM25.4946 33.5176C25.9857 34.4837 26.3963 35.2968 26.3963 35.329C26.3963 35.3531 23.4578 35.3773 19.8673 35.3773C15.8018 35.3773 13.3545 35.3451 13.3706 35.3048C13.3867 35.2565 13.7973 34.4434 14.2803 33.4935L15.1659 31.7546H19.8754H24.5849L25.4946 33.5176ZM29.697 37.1886V37.8729H19.8754H10.0538V37.1886V36.5044H19.8754H29.697V37.1886Z" fill="#102c6d"/>
<path d="M8.91043 4.06126C6.59994 4.47988 4.76444 5.86456 3.78228 7.92549C3.29925 8.92375 3.12214 9.71269 3.12214 10.8317C3.11409 12.8282 3.82253 14.5108 5.23941 15.8633C6.55969 17.1272 8.11343 17.7471 9.98115 17.7471C12.3721 17.7471 14.4572 16.62 15.7694 14.6235C18.2892 10.7834 16.3249 5.55865 11.865 4.26252C11.068 4.02906 9.60277 3.93245 8.91043 4.06126ZM9.57057 7.90939V10.7029L7.59015 12.6753L5.61779 14.6476L5.38432 14.3739C5.0462 13.9794 4.62758 13.1341 4.41021 12.4338C4.25726 11.9507 4.22505 11.6448 4.22505 10.9042C4.217 9.80125 4.35386 9.22966 4.83689 8.24751C5.29577 7.3056 6.33428 6.25099 7.29229 5.75991C7.94437 5.42984 8.91848 5.12392 9.35321 5.11587L9.57057 5.10782V7.90939ZM11.8247 5.40569C13.2818 5.88067 14.5458 6.98358 15.2059 8.36826C15.4313 8.83519 15.7694 9.96226 15.7694 10.236C15.7694 10.3245 15.3025 10.3406 13.2335 10.3406H10.6976V7.72423V5.10782L10.9633 5.15612C11.1002 5.18832 11.4946 5.29298 11.8247 5.40569ZM15.7694 11.5241C15.7694 11.7897 15.5279 12.6833 15.3508 13.1019C14.6665 14.7281 13.1208 16.0645 11.4222 16.5153C10.6171 16.7327 9.21635 16.7086 8.4435 16.467C7.83167 16.2819 6.95417 15.8552 6.59189 15.5734L6.39063 15.4205L8.40325 13.3998L10.4159 11.3872H13.0886C15.5923 11.3872 15.7694 11.3952 15.7694 11.5241Z" fill="#102c6d"/>
<path d="M27.6844 8.32812C27.5234 8.48912 27.5234 8.59378 27.5234 15.8956C27.5234 23.1973 27.5234 23.302 27.6844 23.463C27.8374 23.616 27.9501 23.624 29.5683 23.624H31.2991L31.4601 23.4147C31.6292 23.1973 31.6292 23.1651 31.6292 15.8795V8.56158L31.4279 8.36837C31.2347 8.16711 31.2347 8.16711 29.5361 8.16711C27.9501 8.16711 27.8374 8.17516 27.6844 8.32812ZM30.5021 15.8956V22.497H29.5361H28.57V15.8956V9.29417H29.5361H30.5021V15.8956Z" fill="#102c6d"/>
<path d="M17.621 14.6075C17.468 14.7604 17.46 14.8732 17.46 19.0191C17.46 23.1893 17.46 23.2779 17.621 23.4469C17.782 23.616 17.8383 23.624 19.5128 23.624C21.139 23.624 21.2517 23.616 21.4047 23.463C21.5577 23.3101 21.5657 23.1973 21.5657 19.0353C21.5657 14.8732 21.5577 14.7604 21.4047 14.6075C21.2517 14.4545 21.139 14.4465 19.5128 14.4465C17.8866 14.4465 17.7739 14.4545 17.621 14.6075ZM20.4386 18.995V22.497H19.5128H18.587V18.995V15.493H19.5128H20.4386V18.995Z" fill="#102c6d"/>
<path d="M32.7884 14.5109C32.5307 14.6799 32.5146 14.9295 32.5146 19.0594C32.5146 23.1249 32.5146 23.2054 32.6837 23.4147L32.8447 23.624H34.5756C36.1937 23.624 36.3064 23.616 36.4594 23.463C36.6123 23.3101 36.6204 23.1973 36.6204 19.0514C36.6204 15.3401 36.6043 14.7846 36.4916 14.6236C36.3708 14.4465 36.3386 14.4465 34.6239 14.4465C33.6659 14.4465 32.8367 14.4787 32.7884 14.5109ZM35.5577 19.0111L35.5738 22.497H34.6078H33.6417V18.995V15.485L34.5917 15.5091L35.5336 15.5333L35.5577 19.0111Z" fill="#102c6d"/>
<path d="M22.6854 18.3027L22.4922 18.4556V20.8869V23.3181L22.6854 23.4711C22.8545 23.6079 23.0155 23.624 24.537 23.624C25.9136 23.624 26.2276 23.5999 26.3806 23.4952C26.5577 23.3745 26.5577 23.3664 26.5577 20.9352C26.5577 18.9628 26.5335 18.4717 26.445 18.3429C26.3403 18.198 26.2035 18.19 24.6095 18.1658C22.9913 18.1416 22.8706 18.1497 22.6854 18.3027ZM25.5111 20.8869V22.497H24.5451H23.579V20.8869V19.2768H24.5451H25.5111V20.8869Z" fill="#102c6d"/>
<path d="M3.41197 20.4196C3.18656 20.5484 3.13021 20.645 3.13021 20.9428C3.13021 21.4742 2.88869 21.45 8.99095 21.45H14.4894L14.6907 21.2407C14.8517 21.0878 14.8839 20.9912 14.8437 20.8221C14.7309 20.3391 15.053 20.3632 9.06341 20.3471C5.05427 20.331 3.53273 20.3471 3.41197 20.4196Z" fill="#102c6d"/>
<path d="M3.45191 22.5855C3.20234 22.6902 3.12989 22.7948 3.12989 23.1168C3.12989 23.624 3.10574 23.624 6.89751 23.624H10.3029L10.4961 23.4228C10.7376 23.1893 10.7537 22.98 10.5444 22.7304L10.3914 22.5372L7.01827 22.5211C4.91709 22.5131 3.58071 22.5372 3.45191 22.5855Z" fill="#102c6d"/>
<path d="M19.3923 28.3492C18.9334 28.9289 19.7062 29.6534 20.2859 29.1865C20.5193 29.0013 20.5354 28.5344 20.3181 28.2929C20.0927 28.0433 19.6096 28.0755 19.3923 28.3492Z" fill="#102c6d"/>
</svg>
