<svg width="26" height="26" viewBox="0 0 26 26" fill="none" xmlns="http://www.w3.org/2000/svg">
<circle cx="13" cy="13" r="13" fill="white" fill-opacity="0.2"/>
<path d="M6.54333 8.34175C6.27678 8.42682 6.08679 8.61964 6.02441 8.87201C6.00456 8.95991 5.99605 10.2558 6.00172 13.2218L6.01023 17.4469L6.0953 17.6C6.14351 17.6851 6.23141 17.79 6.29096 17.8354C6.53482 18.0112 6.06127 17.9999 13.2552 17.9999C20.4492 17.9999 19.9756 18.0112 20.2195 17.8354C20.279 17.79 20.3698 17.6851 20.4152 17.6L20.5002 17.4469V13.1509V8.85499L20.4152 8.70187C20.3698 8.6168 20.279 8.51188 20.2195 8.46651C19.9756 8.29071 20.452 8.30205 13.2439 8.30488C7.91293 8.30488 6.63974 8.31339 6.54333 8.34175ZM19.4369 8.90887C19.4142 8.92872 18.09 9.92402 16.4963 11.1178C14.5539 12.5753 13.5643 13.2984 13.4906 13.3183C13.3516 13.358 13.1588 13.358 13.0199 13.3183C12.9461 13.2984 11.9565 12.5753 10.0141 11.1178C8.4205 9.92402 7.09627 8.92872 7.07359 8.90887C7.03956 8.87484 7.96397 8.86917 13.2552 8.86917C18.5465 8.86917 19.4709 8.87484 19.4369 8.90887ZM9.62564 11.5205C11.2703 12.754 12.6711 13.7861 12.7391 13.8116C12.8072 13.84 12.949 13.8769 13.0567 13.8939C13.2949 13.9336 13.587 13.8939 13.8082 13.7918C13.8847 13.7549 15.2969 12.7143 16.9415 11.4808L19.9331 9.23497L19.9416 11.1774C19.9444 12.2464 19.9444 13.996 19.9416 15.0622L19.9331 17.0046L18.3593 15.0622C17.4945 13.9931 16.7657 13.1056 16.7402 13.0914C16.6636 13.0517 16.5219 13.0602 16.4453 13.1113C16.3659 13.1651 16.312 13.3012 16.3347 13.3976C16.346 13.4373 17.072 14.3589 17.951 15.445L19.5503 17.4186L16.4028 17.4271C14.6702 17.4299 11.8403 17.4299 10.1077 17.4271L6.96016 17.4186L8.55945 15.445C9.43849 14.3589 10.1644 13.4373 10.1758 13.3976C10.1984 13.3012 10.1446 13.1651 10.0652 13.1113C9.99427 13.0659 9.86383 13.0517 9.7816 13.0829C9.75891 13.0942 9.033 13.9704 8.17381 15.0338C7.31461 16.0943 6.60004 16.9762 6.5887 16.9904C6.57452 17.0074 6.56318 15.3344 6.56318 13.1254C6.56318 10.0204 6.57168 9.2378 6.60004 9.25482C6.61705 9.26899 7.98098 10.287 9.62564 11.5205Z" fill="white"/>
</svg>
