<svg width="40" height="40" viewBox="0 0 40 40" fill="none" xmlns="http://www.w3.org/2000/svg">
<path d="M1.77307 0.8125C1.29651 0.945312 0.81995 1.27344 0.491825 1.70312C-0.0394254 2.39844 -0.000362867 1.04688 0.0152621 20.1562L0.0386996 37.4609L0.202762 37.8203C0.44495 38.3438 0.88245 38.7891 1.39026 39.0391L1.83557 39.2578H19.9996H38.1637L38.609 39.0391C39.1168 38.7891 39.5543 38.3438 39.7965 37.8203L39.9606 37.4609V20V2.53906L39.7418 2.09375C39.4918 1.58594 39.0465 1.14844 38.5231 0.90625L38.1637 0.742188L20.1559 0.726562C5.56995 0.71875 2.07776 0.734375 1.77307 0.8125ZM37.984 1.71875C38.3746 1.82812 38.7418 2.14844 38.9137 2.53906C39.0465 2.82031 39.0621 3.10156 39.0621 5.67969V8.51562H19.9996H0.937137V5.67969C0.937137 3.09375 0.952762 2.82812 1.08557 2.53906C1.1637 2.36719 1.31995 2.14062 1.42932 2.04688C1.88245 1.625 0.859013 1.64844 19.9606 1.64062C31.9293 1.64062 37.7887 1.66406 37.984 1.71875ZM39.0621 23.2969C39.0621 36.5703 39.0543 37.1641 38.9137 37.4609C38.7418 37.8516 38.3746 38.1719 37.984 38.2812C37.5778 38.3906 2.42151 38.3906 2.01526 38.2812C1.62464 38.1719 1.25745 37.8516 1.08557 37.4609C0.94495 37.1641 0.937137 36.5703 0.937137 23.2969V9.45312H19.9996H39.0621V23.2969Z" fill="#102c6d"/>
<path d="M4.80431 3.46875C3.85118 3.90625 3.48399 4.94531 3.93712 5.91406C4.55431 7.23437 6.48399 7.24219 7.14806 5.91406C7.60899 4.98437 7.23399 3.90625 6.29649 3.46875C5.78868 3.22656 5.31212 3.22656 4.80431 3.46875ZM6.15587 4.47656C6.42149 4.74219 6.46837 5.26562 6.25743 5.60156C6.06993 5.89844 5.67149 6.03906 5.28087 5.92969C4.91368 5.82812 4.74962 5.60937 4.71056 5.17969C4.64806 4.57031 5.03868 4.1875 5.65587 4.25C5.84337 4.27344 6.03087 4.35937 6.15587 4.47656Z" fill="#102c6d"/>
<path d="M9.961 3.39062C9.51568 3.55469 8.95318 4.1875 8.836 4.65625C8.54693 5.80469 9.3985 6.89844 10.586 6.89844C12.4063 6.89844 13.086 4.46875 11.5235 3.55469C11.086 3.29688 10.4141 3.22656 9.961 3.39062ZM11.0235 4.34375C11.5079 4.58594 11.6016 5.32812 11.211 5.72656C10.7344 6.19531 9.95318 5.99219 9.7735 5.33594C9.55475 4.5625 10.3047 3.96875 11.0235 4.34375Z" fill="#102c6d"/>
<path d="M15.0547 3.39023C13.8047 3.83554 13.4219 5.43711 14.3438 6.35898C15.0391 7.03867 16.0781 7.09336 16.8125 6.48398C17.3906 5.99961 17.6016 5.04648 17.2735 4.32773C16.9063 3.51523 15.8985 3.09336 15.0547 3.39023ZM16.2735 4.53086C16.5235 4.81211 16.5625 5.31992 16.3594 5.61679C15.8906 6.28086 14.7656 5.94492 14.7656 5.14023C14.7656 4.31211 15.7266 3.92148 16.2735 4.53086Z" fill="#102c6d"/>
<path d="M24.2335 4.73438C24.0382 4.86719 23.9913 5.28906 24.1554 5.45312C24.2257 5.52344 25.6085 5.54688 29.8976 5.54688H35.546L35.671 5.35156C35.8351 5.09375 35.757 4.78125 35.4992 4.6875C35.382 4.64062 33.1632 4.60938 29.8585 4.60938C25.0538 4.60938 24.3898 4.625 24.2335 4.73438Z" fill="#102c6d"/>
<path d="M6.32812 14.9922C6.27344 15.0938 6.25 18.2656 6.25 24.7188V34.2891L6.42187 34.4062C6.57812 34.5156 7.3125 34.5312 12.8125 34.5312C18.3125 34.5312 19.0469 34.5156 19.2031 34.4062C19.3672 34.2891 19.375 34.2422 19.375 32.9766V31.6641L19.7266 31.6172C20.4297 31.5156 21.0156 31.0547 21.125 30.5078C21.1562 30.3516 21.0469 29.8047 20.7812 28.8281C20.5703 28.0391 20.3906 27.3594 20.3906 27.3281C20.3906 27.1797 20.8437 27.3281 23.7891 28.4297C26.0547 29.2812 26.9453 29.5781 27.0625 29.5391C27.4766 29.3828 27.5 29.5312 25.6953 22.75C24.7578 19.2422 23.9531 16.2891 23.9141 16.1953C23.8125 15.9766 23.4844 15.8828 23.2891 16.0234C23.2031 16.0859 22.3281 17.125 21.3281 18.3359C20.3359 19.5469 19.4922 20.5625 19.4453 20.5859C19.4062 20.6172 19.375 19.5703 19.375 17.8359C19.375 15.7578 19.3516 15.0078 19.2812 14.9375C19.2109 14.8672 17.6641 14.8438 12.7969 14.8438C6.5625 14.8438 6.40625 14.8438 6.32812 14.9922ZM18.4375 18.5547V21.3203L17.9922 21.4453C17.0234 21.7188 16.7969 21.8203 16.4453 22.125C16 22.5234 15.6953 23.1016 15.6484 23.6641C15.6016 24.1875 15.9844 25.7969 16.3125 26.4609C16.5156 26.8906 16.9609 27.3594 17.3047 27.5156C17.4531 27.5781 17.5234 27.7266 17.6562 28.2344C17.75 28.5781 17.9609 29.3672 18.1328 29.9844C18.4297 31.0703 18.4375 31.1484 18.4375 32.3516V33.5938H12.8125H7.1875V24.6875V15.7812H12.8125H18.4375V18.5547ZM24.7578 22.8594C25.5391 25.8047 26.1719 28.2344 26.1484 28.2578C26.1094 28.2891 21.0156 26.4141 21.0156 26.3672C21.0156 26.3516 20.7344 25.2969 20.3984 24.0234L19.7734 21.7109L21.5078 19.6016C22.4609 18.4453 23.2578 17.5 23.2812 17.5C23.3047 17.5 23.9687 19.9141 24.7578 22.8594ZM19.5 24.3047C19.8125 25.4375 20.0391 26.3906 20.0078 26.4141C19.9844 26.4375 19.6484 26.5391 19.2734 26.6406C18.1797 26.9141 17.6328 26.7969 17.2187 26.1953C16.9844 25.8438 16.5312 24.0547 16.5859 23.6641C16.6406 23.2656 16.9531 22.8594 17.3594 22.6484C17.6875 22.4844 18.7344 22.1797 18.8672 22.2188C18.9141 22.2266 19.1953 23.1719 19.5 24.3047ZM19.8516 28.9844L20.2187 30.3516L20.0625 30.4922C19.8516 30.6719 19.5391 30.7422 19.3906 30.6484C19.2969 30.5938 18.5234 28.0703 18.5156 27.8047C18.5156 27.7422 19.1328 27.5938 19.3359 27.6094C19.4609 27.6172 19.5391 27.8203 19.8516 28.9844Z" fill="#102c6d"/>
<path d="M8.17195 19.1875C8.0157 19.3359 8.0157 19.6094 8.15633 19.8125C8.2657 19.9531 8.3907 19.9609 11.5235 19.9609C14.6563 19.9609 14.7813 19.9531 14.8907 19.8125C15.0313 19.6094 15.0313 19.3359 14.8751 19.1875C14.7735 19.0781 14.3595 19.0625 11.5235 19.0625C8.68758 19.0625 8.27351 19.0781 8.17195 19.1875Z" fill="#102c6d"/>
<path d="M8.17195 22.625C8.0157 22.7734 8.0157 23.0469 8.15633 23.25C8.2657 23.3906 8.3907 23.3984 11.5235 23.3984C14.6563 23.3984 14.7813 23.3906 14.8907 23.25C15.0391 23.0391 15.0313 22.7812 14.8595 22.6328C14.7266 22.5156 14.3829 22.5 11.5001 22.5C8.68758 22.5 8.27351 22.5156 8.17195 22.625Z" fill="#102c6d"/>
<path d="M8.17195 26.0625C8.0157 26.2109 8.0157 26.4844 8.15633 26.6875C8.2657 26.8281 8.3907 26.8359 11.5235 26.8359C14.6563 26.8359 14.7813 26.8281 14.8907 26.6875C15.0391 26.4766 15.0313 26.2188 14.8595 26.0703C14.7266 25.9531 14.3829 25.9375 11.5001 25.9375C8.68758 25.9375 8.27351 25.9531 8.17195 26.0625Z" fill="#102c6d"/>
<path d="M8.17195 29.5C8.0157 29.6484 8.0157 29.9219 8.15633 30.125C8.2657 30.2656 8.3907 30.2734 11.5235 30.2734C14.6563 30.2734 14.7813 30.2656 14.8907 30.125C15.0391 29.9141 15.0313 29.6562 14.8595 29.5078C14.7266 29.3906 14.3829 29.375 11.5001 29.375C8.68758 29.375 8.27351 29.3906 8.17195 29.5Z" fill="#102c6d"/>
<path d="M29.2493 15.8988C29.0462 16.2113 29.1555 16.4144 29.7415 16.7972C30.8508 17.516 31.8587 18.766 32.3352 19.9847C32.7102 20.9691 32.8352 21.7582 32.7883 22.8441C32.7415 23.8988 32.5774 24.6019 32.1399 25.5316C31.8196 26.2347 31.804 26.4379 32.0696 26.6097C32.4758 26.8754 32.8352 26.4691 33.2805 25.2582C33.929 23.4691 33.9055 21.391 33.2102 19.6488C32.6087 18.1566 31.6712 16.9925 30.2805 16.0238C29.7337 15.6488 29.4368 15.6097 29.2493 15.8988Z" fill="#102c6d"/>
<path d="M28.0625 18.0156C27.9453 18.0938 27.8906 18.2109 27.8906 18.3906C27.8906 18.6094 27.9453 18.6875 28.3203 18.9453C30.1406 20.1953 30.7422 22.4688 29.7891 24.4766C29.5938 24.8984 29.5859 24.9453 29.6953 25.1406C29.8281 25.375 30.1719 25.4609 30.3594 25.3047C30.5625 25.1406 30.8594 24.4766 31.0234 23.8438C31.2031 23.125 31.2188 22.0469 31.0547 21.3281C30.7734 20.1328 29.9062 18.8828 28.8984 18.2109C28.3594 17.8516 28.3125 17.8438 28.0625 18.0156Z" fill="#102c6d"/>
<path d="M26.8903 20.0469C26.6794 20.1953 26.6559 20.5781 26.8591 20.7344C26.9294 20.7969 27.1013 20.9375 27.2419 21.0547C27.8513 21.5547 28.0622 22.5703 27.7184 23.375C27.5622 23.7344 27.5622 23.7891 27.6638 23.9766C27.7497 24.1328 27.8356 24.1797 28.0466 24.1797C28.5544 24.1797 28.8669 23.4375 28.8122 22.3828C28.7575 21.3984 28.3356 20.6172 27.5856 20.1406C27.1794 19.8906 27.1247 19.8828 26.8903 20.0469Z" fill="#102c6d"/>
</svg>
