<svg width="23" height="27" viewBox="0 0 23 27" fill="none" xmlns="http://www.w3.org/2000/svg">
<path d="M12.2818 0.0569882C12.0287 0.157184 11.9971 0.283746 11.9971 1.18023C11.9971 1.99234 12.0023 2.01871 12.1236 2.14C12.3135 2.32984 12.5086 2.36148 12.7301 2.24019C12.8566 2.17164 12.941 2.07671 12.9832 1.95543C13.0729 1.69175 13.0676 0.573785 12.9779 0.352301C12.8514 0.0517149 12.5824 -0.0643008 12.2818 0.0569882Z" fill="#102c6d"/>
<path d="M6.50733 1.77076C6.33331 1.86568 6.22784 2.10826 6.2753 2.3192C6.31749 2.50904 7.26671 3.40025 7.55675 3.52154C7.71495 3.58482 7.75714 3.58482 7.92589 3.50045C8.16319 3.38443 8.27393 3.1735 8.23175 2.93092C8.20011 2.76744 7.98917 2.55123 7.18233 1.86041C6.96085 1.67584 6.73936 1.6442 6.50733 1.77076Z" fill="#102c6d"/>
<path d="M17.4339 2.19798C17.1175 2.47219 16.8275 2.77278 16.7959 2.85716C16.6535 3.18938 16.9277 3.5638 17.2968 3.55325C17.5078 3.54798 17.7293 3.3845 18.3621 2.77278C18.6521 2.49329 18.747 2.36673 18.747 2.26126C18.747 1.92903 18.5044 1.69173 18.1722 1.69173C18.0457 1.69173 17.8927 1.79719 17.4339 2.19798Z" fill="#102c6d"/>
<path d="M11.5277 4.70283C10.7367 4.85576 10.3518 5.47803 10.0723 7.0706C9.59238 9.81279 9.04922 11.263 8.0209 12.5761C7.56211 13.1614 6.5127 14.1581 6.43887 14.079C6.42832 14.0685 6.37031 13.963 6.3123 13.8417C6.2543 13.7257 6.10664 13.5411 5.98535 13.4304C5.5582 13.0454 5.62676 13.056 3.24316 13.056C1.17598 13.056 1.09688 13.0612 0.864844 13.1667C0.558984 13.3091 0.284766 13.5833 0.126563 13.905L0 14.1634V19.806V25.4485L0.147656 25.7491C0.305859 26.0708 0.485156 26.2501 0.838477 26.4399C1.04941 26.556 1.0916 26.556 3.2168 26.556C5.31035 26.556 5.38418 26.5507 5.62148 26.4452C5.92207 26.3028 6.20684 26.0233 6.3334 25.7438C6.38613 25.6226 6.44414 25.5276 6.45996 25.5276C6.48105 25.5276 6.74473 25.6437 7.04531 25.786C8.16856 26.3134 9.72949 26.7669 10.9793 26.9251C11.5594 26.9989 12.2291 27.0095 15.7412 26.9937C20.3027 26.9778 19.9969 26.9989 20.5822 26.5981C21.1148 26.2343 21.4893 25.5118 21.4893 24.8421C21.4893 24.531 21.3205 23.8718 21.2256 23.8138C21.1201 23.7505 21.1781 23.6925 21.5051 23.5343C22.1221 23.2284 22.5914 22.5956 22.7021 21.9206C22.7971 21.3405 22.5914 20.6444 22.2012 20.212L22.0061 19.9958L22.1906 19.769C22.892 18.9147 22.8973 17.7071 22.2012 16.9425L22.0061 16.721L22.1959 16.4995C23.277 15.2392 22.5914 13.2827 20.9672 12.9769C20.7932 12.9452 19.4115 12.9241 17.4498 12.9241C14.8922 12.9241 14.2119 12.9083 14.2119 12.8556C14.2119 12.8239 14.3754 12.1753 14.5758 11.4212C15.0609 9.58603 15.0768 9.51748 15.0715 8.7581C15.0662 8.23603 15.0398 7.99346 14.9344 7.5874C14.6865 6.63818 14.1434 5.75752 13.5105 5.28291C12.9146 4.83467 12.1025 4.59209 11.5277 4.70283ZM12.4031 5.86826C13.2574 6.18467 13.8797 7.17607 14.0221 8.46807C14.0854 8.99014 13.9746 9.59131 13.4684 11.4739C13.2047 12.4601 12.9885 13.3565 12.9832 13.462C12.9779 13.6149 13.0096 13.694 13.1203 13.8048L13.2627 13.9524L17.0754 13.9788L20.8828 14.0052L21.1307 14.1528C21.8531 14.5747 21.8479 15.6294 21.1201 16.0354C20.8881 16.162 20.8564 16.1673 19.4959 16.1937L18.1037 16.22L17.9771 16.3677C17.84 16.5259 17.8084 16.8054 17.9033 16.9847C18.0193 17.2009 18.1406 17.222 19.575 17.2483L20.9514 17.2747L21.1834 17.4329C21.7635 17.8442 21.8373 18.6247 21.3416 19.1099C21.0199 19.4263 20.8143 19.4632 19.3957 19.4632H18.1564L18.0035 19.6161C17.7926 19.8271 17.7926 20.0854 18.0035 20.3175L18.1564 20.4915L19.5486 20.5179C21.0938 20.5495 21.1254 20.5548 21.4312 20.9239C21.8637 21.4513 21.6686 22.295 21.0463 22.5798C20.8564 22.6642 20.6824 22.68 19.575 22.68C18.5467 22.68 18.283 22.6958 18.1406 22.7591C17.8189 22.9173 17.7504 23.3233 18.0035 23.5817C18.1564 23.7347 18.167 23.7347 18.7734 23.7347C19.5012 23.7347 19.7754 23.7927 20.0391 24.0142C20.693 24.5521 20.4715 25.6595 19.6594 25.8968C19.517 25.939 18.2461 25.9495 15.2666 25.9337C10.7209 25.9126 10.974 25.9284 9.68203 25.6015C8.62207 25.3378 7.37227 24.8368 6.71309 24.4097L6.45996 24.2515V19.8376V15.4237L7.04004 14.986C8.23184 14.1001 9.1125 13.0612 9.75059 11.8167C10.3518 10.6407 10.7051 9.48056 11.0426 7.59795C11.2957 6.19521 11.4223 5.85244 11.7334 5.73642C11.8389 5.69951 12.0656 5.7417 12.4031 5.86826ZM5.26816 14.195L5.40527 14.3005V19.806V25.3114L5.26816 25.4169C5.13105 25.5224 5.06777 25.5276 3.23789 25.5276H1.35L1.20234 25.4011L1.05469 25.2745V19.806V14.3374L1.20234 14.2108L1.35 14.0843H3.23789C5.06777 14.0843 5.13105 14.0896 5.26816 14.195Z" fill="#102c6d"/>
<path d="M3.02167 16.104C2.8371 16.2728 2.78964 16.5101 2.90039 16.7158C3.15878 17.222 3.87597 17.048 3.87597 16.4837C3.87597 16.0566 3.33281 15.8193 3.02167 16.104Z" fill="#102c6d"/>
<path d="M4.58265 6.27954C4.26624 6.40083 4.15023 6.8438 4.36644 7.10219C4.51937 7.27622 4.78832 7.32895 5.60042 7.32895C6.17523 7.33423 6.2016 7.32895 6.3598 7.18657C6.64984 6.92817 6.54964 6.45356 6.18578 6.34282C5.96429 6.27426 4.72503 6.2268 4.58265 6.27954Z" fill="#102c6d"/>
<path d="M19.4326 6.27436C18.6311 6.31655 18.4834 6.40619 18.4834 6.84916C18.4834 7.02319 18.515 7.08647 18.6469 7.19721C18.7998 7.32905 18.8367 7.33432 19.3957 7.32905C20.2078 7.32905 20.4768 7.27631 20.6297 7.10229C20.925 6.75951 20.6244 6.20053 20.1604 6.23744C20.0971 6.24272 19.7648 6.25854 19.4326 6.27436Z" fill="#102c6d"/>
</svg>
