<svg width="17" height="17" viewBox="0 0 17 17" fill="none" xmlns="http://www.w3.org/2000/svg">
<path d="M1.62847 0.0397635C1.06425 0.147627 0.458557 0.620569 0.201343 1.15989C0.0105068 1.56645 -0.0475738 2.00621 0.0395471 2.40862C0.134965 2.83593 0.288464 3.14293 0.549827 3.42503C1.8193 4.78993 4.05541 3.91042 4.05541 2.04354C4.05541 0.740879 2.90624 -0.205005 1.62847 0.0397635Z" fill="white"/>
<path d="M11.8964 5.46587C11.7014 5.50736 11.4525 5.57374 11.3363 5.61108C10.6435 5.8517 9.94655 6.38272 9.57318 6.96767L9.40724 7.21659L9.39894 6.43665L9.38649 5.65256L7.69801 5.64012L6.00537 5.63182V11.3154V16.999H7.76853H9.53169V13.9581C9.53169 10.9296 9.55244 10.4359 9.68104 9.92564C9.83454 9.32824 10.1996 8.85114 10.6601 8.63957C11.1331 8.42384 11.8923 8.39895 12.3693 8.57734C12.8298 8.75158 13.1742 9.17888 13.3235 9.76384C13.448 10.2492 13.4729 10.9213 13.4729 13.9373V16.9575H15.236H16.9992V13.6469C16.9992 10.2243 16.9743 9.46929 16.8291 8.66031C16.4889 6.7312 15.5098 5.71064 13.7342 5.44513C13.1742 5.36216 12.3403 5.37046 11.8964 5.46587Z" fill="white"/>
<path d="M0.280029 11.3154V16.999H2.04319H3.80635V11.3154V5.63182H2.04319H0.280029V11.3154Z" fill="white"/>
</svg>
