<svg width="28" height="21" viewBox="0 0 28 21" fill="none" xmlns="http://www.w3.org/2000/svg">
<path d="M1.86222 0.0561371C0.98717 0.225677 0.226967 1.00229 0.0574254 1.91016C-0.0191418 2.30393 -0.0191418 18.6838 0.0574254 19.0886C0.232436 20.0128 0.98717 20.7676 1.91691 20.9426C2.31616 21.0191 25.691 21.0191 26.0903 20.9426C27.02 20.7676 27.7747 20.0128 27.9498 19.0886C28.0263 18.6838 28.0263 2.3094 27.9498 1.90469C27.7747 0.980412 27.02 0.225677 26.0903 0.0506668C25.7238 -0.0204315 2.21771 -0.0149612 1.86222 0.0561371ZM25.784 1.19371C25.8879 1.23199 24.6355 2.40237 17.4874 8.89965C14.6107 11.5193 14.7146 11.4318 14.4685 11.5412C14.1895 11.6725 13.8176 11.6725 13.5332 11.5412C13.3254 11.4482 10.755 9.13482 4.62958 3.52901C2.56227 1.6367 2.14115 1.22652 2.22318 1.19371C2.35991 1.13902 25.6473 1.13902 25.784 1.19371ZM5.83278 6.20886C8.3595 8.51134 10.4268 10.4146 10.4377 10.4365C10.4432 10.4638 9.94006 10.9341 9.31659 11.4865C7.74149 12.8811 5.8109 14.6586 3.37716 16.9447C2.23959 18.0166 1.29344 18.8971 1.26609 18.9081C1.23875 18.919 1.20593 18.8698 1.18406 18.7987C1.1403 18.6346 1.1403 2.41331 1.18406 2.18908C1.20593 2.09611 1.22781 2.01954 1.23328 2.01954C1.24422 2.01954 3.31153 3.9009 5.83278 6.20886ZM26.8505 10.4693C26.8505 14.9813 26.8395 18.7276 26.8231 18.7987C26.8013 18.8698 26.7684 18.919 26.7411 18.9081C26.7137 18.8971 25.7676 18.0166 24.63 16.9447C22.1963 14.6586 20.2657 12.8811 18.6906 11.4865C18.0671 10.9341 17.564 10.4638 17.5694 10.4365C17.5804 10.4146 19.6532 8.50587 22.1799 6.19792C26.3528 2.38597 26.7739 2.01954 26.8067 2.13439C26.8286 2.20549 26.845 5.95728 26.8505 10.4693ZM12.0183 11.842C12.9535 12.6788 13.5387 12.914 14.3481 12.7882C14.8841 12.7061 15.2779 12.4764 15.9943 11.8365C16.5522 11.3334 16.6506 11.2678 16.7327 11.3279C17.389 11.842 20.4243 14.6039 23.5636 17.5463C25.6418 19.4933 25.9153 19.7722 25.8059 19.805C25.7348 19.8214 20.4243 19.8378 14.0036 19.8378C7.58289 19.8378 2.2724 19.8214 2.20131 19.805C2.09192 19.7722 2.37085 19.4933 4.44363 17.5463C5.74527 16.3267 7.26568 14.9102 7.82353 14.4015C8.87359 13.4335 11.3183 11.2623 11.3511 11.2623C11.362 11.2623 11.6628 11.5193 12.0183 11.842Z" fill="white"/>
</svg>
