<svg width="80" height="80" viewBox="0 0 80 80" fill="none" xmlns="http://www.w3.org/2000/svg">
<circle cx="40" cy="40" r="40" fill="url(#paint0_linear_39_142)"/>
<path d="M44.2781 23.3118L35.2578 26.6296H29.0887C25.6983 26.6296 22.6086 26.6814 22.225 26.7229C20.0477 27.0028 18.6169 28.6825 18.6169 30.9531V31.71H17.9119C16.958 31.71 16.2944 31.9485 15.7553 32.498C15.0502 33.1926 14.9673 33.6385 15.0088 36.3964C15.0399 38.5322 15.0606 38.7396 15.268 39.1232C15.7968 40.1082 16.5329 40.5229 17.7667 40.5229H18.5858L18.6376 41.5494C18.6998 42.8039 19.042 43.623 19.8196 44.4006C20.5972 45.1782 21.4163 45.5204 22.6708 45.5826L23.6973 45.6344V51.4509C23.6973 57.8896 23.7077 57.9932 24.3505 59.0715C24.7756 59.7766 25.3354 60.2639 26.1856 60.6786C26.8077 60.9793 26.9425 61 27.9482 61C28.9539 61 29.0887 60.9793 29.7315 60.6682C30.8928 60.1187 31.7119 59.1337 32.0333 57.8896C32.1784 57.3711 32.1992 56.3758 32.1992 51.4406V45.6033H33.6403H35.0919L41.9141 48.102C45.6674 49.4706 49.8146 50.9947 51.121 51.4717C52.4378 51.9486 53.5575 52.3426 53.6198 52.3426C53.682 52.3426 53.8582 52.2493 54.0137 52.1249L54.2833 51.9175V46.1217V40.3363L54.7603 40.1704C56.1911 39.6831 57.2693 38.5115 57.6011 37.0807C57.9847 35.4114 57.2279 33.5555 55.7971 32.6224C55.4549 32.3943 54.9676 32.1662 54.7291 32.0936L54.2833 31.9796V26.2149C54.2833 19.8177 54.3041 19.9836 53.6301 20.0043C53.4435 20.0043 49.2444 21.4974 44.2781 23.3118ZM52.9355 36.1164C52.9355 47.511 52.9044 50.58 52.8007 50.58C52.7385 50.5696 52.2097 50.3934 51.6394 50.1757L50.6026 49.7817L50.5715 36.2201C50.5612 26.9717 50.5819 22.6171 50.6545 22.5445C50.7478 22.4512 52.6348 21.6944 52.8525 21.6632C52.894 21.6529 52.9355 28.1641 52.9355 36.1164ZM49.1615 49.201C49.1407 49.2322 46.1547 48.1642 42.5258 46.8371L35.9317 44.4213L35.9524 36.1372L35.9835 27.8427L37.4869 27.2932C38.3164 26.9821 41.2817 25.9038 44.0707 24.8774L49.1511 23.0215L49.1822 36.0957C49.1926 43.2808 49.1822 49.1803 49.1615 49.201ZM34.4802 36.1683V44.2554L28.2904 44.2347L22.0902 44.2036L21.4889 43.9133C20.8564 43.6022 20.4935 43.2083 20.2136 42.5343C20.0581 42.1714 20.0373 41.4975 20.0373 36.1164C20.0373 29.5016 20.0166 29.74 20.6905 28.9728C21.0327 28.5892 21.437 28.33 21.9347 28.1744C22.0799 28.133 24.9622 28.0915 28.3422 28.0915L34.4802 28.0811V36.1683ZM18.6169 36.1787V39.1958L17.8289 39.1543C17.0928 39.1232 17.0202 39.0921 16.7403 38.7811L16.4396 38.4493V36.1061V33.7629L16.7403 33.4622C17.0202 33.1823 17.1031 33.1615 17.8289 33.1615H18.6169V36.1787ZM55.0402 33.794C56.8235 34.9656 56.6991 37.5058 54.8017 38.6463C54.6047 38.7603 54.4077 38.864 54.3663 38.864C54.3144 38.864 54.2833 37.6509 54.2833 36.1683C54.2833 33.991 54.3144 33.4726 54.4181 33.4726C54.501 33.4726 54.7706 33.6177 55.0402 33.794ZM30.7476 51.5961V57.5889L30.4781 58.128C30.1877 58.7086 29.8249 59.0715 29.1509 59.424C28.5496 59.7455 27.3469 59.7455 26.7455 59.424C26.0612 59.0612 25.6983 58.6983 25.3873 58.0658L25.097 57.4748L25.0659 51.5339L25.0348 45.6033H27.886H30.7476V51.5961Z" fill="#3C2FC0"/>
<path d="M60.2244 29.5534C58.8351 30.9428 58.6381 31.1709 58.6381 31.4715C58.6381 31.6996 58.7106 31.8552 58.8662 31.9588C59.3638 32.3114 59.5297 32.2077 61.1368 30.5902C62.8268 28.9106 62.9719 28.6721 62.5365 28.247C62.3913 28.0915 62.1736 27.9775 62.0492 27.9775C61.8833 27.9775 61.3234 28.4751 60.2244 29.5534Z" fill="#3C2FC0"/>
<path d="M60.7116 35.6499C60.4524 35.9091 60.442 36.3964 60.6908 36.6141C60.8567 36.7697 61.1885 36.7904 63.1273 36.7904C65.2424 36.7904 65.3876 36.78 65.5846 36.583C65.8542 36.3135 65.8438 36.0543 65.5742 35.7121L65.3669 35.4425H63.1377C61.0537 35.4425 60.9086 35.4529 60.7116 35.6499Z" fill="#3C2FC0"/>
<path d="M58.7106 40.2947C58.6069 40.3984 58.5343 40.6265 58.5343 40.7924C58.5343 41.0516 58.7831 41.3523 60.1206 42.6794C61.0849 43.6333 61.7899 44.2554 61.9143 44.2554C62.2979 44.2554 62.5779 43.9651 62.5779 43.5503C62.5779 43.2082 62.4638 43.0527 61.0434 41.6426C59.737 40.3362 59.4674 40.1081 59.1979 40.1081C59.0216 40.1081 58.8039 40.1911 58.7106 40.2947Z" fill="#3C2FC0"/>
<defs>
<linearGradient id="paint0_linear_39_142" x1="14" y1="2" x2="68" y2="84" gradientUnits="userSpaceOnUse">
<stop stop-color="#EFEDFF"/>
<stop offset="0.76197" stop-color="#EFEDFF" stop-opacity="0"/>
</linearGradient>
</defs>
</svg>
