<svg width="34" height="34" viewBox="0 0 34 34" fill="none" xmlns="http://www.w3.org/2000/svg">
<path d="M23.4615 0.369491C23.3982 0.41871 23.0889 1.10777 22.7725 1.9023C22.4561 2.69683 22.1889 3.35074 22.1818 3.3648C22.1678 3.37183 21.9779 3.2734 21.7529 3.1398C20.4381 2.34527 18.8068 2.85855 18.1459 4.27887C17.9912 4.60933 17.9561 4.77808 17.9561 5.2773C17.9561 5.81871 17.9771 5.92418 18.1881 6.34605C18.5467 7.0773 19.2076 7.58355 19.9811 7.73121C20.1709 7.76637 20.3326 7.80855 20.3607 7.82965C20.3818 7.85074 20.1428 8.51871 19.8264 9.30621C19.51 10.0937 19.2568 10.7898 19.2568 10.8461C19.2568 10.9093 19.3131 11.0218 19.3834 11.0992C19.5381 11.282 23.1451 12.7304 23.4475 12.7304C23.785 12.7304 23.9326 12.5265 23.8623 12.1539C23.6725 11.1625 23.9045 10.5437 24.6006 10.1781C25.5779 9.6648 26.717 10.2625 26.8295 11.3382C26.8928 11.9921 26.6115 12.5265 25.9928 12.9132C25.8451 13.0046 25.7115 13.1593 25.6834 13.2578C25.592 13.6304 25.7467 13.7289 27.835 14.5515C28.9811 15.0086 29.867 15.3179 29.9443 15.2968C30.0076 15.2757 30.1131 15.2054 30.1764 15.1351C30.3592 14.9312 33.9662 5.76246 34.0014 5.4109C34.0646 4.8484 33.7764 4.2859 33.3123 4.0398C32.8271 3.79371 23.8975 0.285116 23.7428 0.285116C23.6514 0.285116 23.5178 0.327304 23.4615 0.369491ZM28.4537 3.1398C30.8373 4.08902 32.8482 4.91168 32.9115 4.97496C32.9818 5.03824 33.0381 5.1648 33.0381 5.26324C33.0381 5.51637 29.5998 14.1367 29.5014 14.1367C29.4311 14.1367 27.2865 13.307 27.2162 13.2578C27.2021 13.2437 27.2936 13.082 27.4131 12.8992C27.9826 11.9992 27.9545 10.9164 27.3428 10.0304C27.0686 9.62262 26.4287 9.19371 25.9295 9.07418C25.4584 8.96168 24.7201 9.01793 24.2982 9.20777C23.5951 9.51715 22.9904 10.2836 22.8428 11.057C22.8006 11.2539 22.7584 11.4296 22.7443 11.4437C22.7303 11.4578 22.1959 11.2609 21.5561 11.0078L20.3889 10.5367L20.5225 10.2132C21.774 7.04918 21.7318 7.17574 21.6475 6.95777C21.535 6.69762 21.317 6.64137 20.8248 6.75387C20.3115 6.86637 19.8615 6.75387 19.4678 6.41637C18.9053 5.93824 18.7646 5.27027 19.074 4.6023C19.5873 3.50543 21.092 3.43512 21.76 4.47574C22.0482 4.91871 22.2662 5.01715 22.5404 4.80621C22.6811 4.70777 22.885 4.27184 23.3631 3.04137C23.7146 2.1484 24.024 1.41012 24.0592 1.41012C24.0873 1.41012 26.0631 2.19059 28.4537 3.1398Z" fill="#3C2FC0"/>
<path d="M1.11584 5.50937C0.750213 5.6289 0.180682 6.22656 0.0752129 6.61328C0.00490035 6.85937 -0.00916215 9.81953 0.00490035 19.9094L0.0259941 32.8891L0.236932 33.2336C0.370525 33.4445 0.581463 33.6555 0.7924 33.7891L1.13693 34H14.2994H27.4619L27.8065 33.7891C28.0174 33.6555 28.2283 33.4445 28.3619 33.2336L28.5729 32.8891L28.594 26.1953C28.608 19.6281 28.608 19.5016 28.4744 19.382C28.3479 19.2625 28.151 19.2555 26.1893 19.2625C25.001 19.2695 24.0377 19.2625 24.0377 19.2484C24.0377 19.2273 24.0869 19.0867 24.1362 18.925C24.8604 16.8859 23.1237 14.6641 20.9721 14.8609C18.8838 15.0578 17.6041 17.1672 18.3776 19.15C18.4268 19.2625 18.3213 19.2695 16.6127 19.2555L14.7916 19.2344L14.7776 16.8438C14.7565 14.5023 14.7565 14.4531 14.6088 14.3266C14.3838 14.1437 14.2221 14.1789 13.758 14.4883C13.2377 14.8328 12.8791 14.9383 12.3307 14.8891C11.5854 14.8328 10.9596 14.4039 10.601 13.7148C10.376 13.2789 10.369 12.4211 10.5869 11.95C11.1635 10.6844 12.7244 10.3469 13.8776 11.2258C14.1658 11.4437 14.419 11.4648 14.6158 11.2891C14.7494 11.1695 14.7565 11.057 14.7565 8.42734C14.7565 5.79062 14.7494 5.69219 14.6158 5.55859C14.4752 5.41797 14.3838 5.41797 7.92209 5.425C3.35178 5.43203 1.28459 5.45312 1.11584 5.50937ZM13.8424 8.19531C13.8424 9.17969 13.8143 9.98828 13.7791 9.98828C13.744 9.98828 13.5963 9.94609 13.4487 9.88984C12.0635 9.41172 10.376 10.1359 9.73615 11.4859C8.64631 13.7992 10.7416 16.4078 13.2096 15.7961C13.4205 15.7469 13.6526 15.6766 13.7229 15.6484C13.8354 15.5992 13.8424 15.6977 13.8283 17.4133L13.8072 19.2344L11.4307 19.2414C9.26506 19.2555 9.04006 19.2625 8.91349 19.375C8.72365 19.5508 8.74474 19.8742 8.95568 20.1273C9.44084 20.7039 9.60959 21.5266 9.38459 22.2086C9.13146 22.9609 8.36506 23.5445 7.5424 23.6148C6.50881 23.6922 5.6299 23.0523 5.36271 22.0117C5.19396 21.3508 5.36271 20.6617 5.82678 20.1414C5.93928 20.0078 6.03771 19.818 6.03771 19.7266C6.03771 19.5437 5.81974 19.2695 5.67209 19.2625C5.62287 19.2625 4.54709 19.2625 3.28146 19.2695L0.975213 19.2766V13.082C0.975213 8.98281 0.996307 6.83828 1.04553 6.7539C1.23537 6.40234 1.05959 6.40937 7.67599 6.40234H13.8424V8.19531ZM22.1182 16.0422C23.3346 16.6328 23.6932 18.1586 22.8705 19.2414C22.5822 19.6211 22.5471 19.8531 22.758 20.057C22.8916 20.1977 22.976 20.1977 25.2612 20.1906L27.6237 20.1766V26.3922C27.6237 32.5516 27.6237 32.6148 27.483 32.7906C27.3987 32.8961 27.2158 33.0086 27.0752 33.0508C26.9065 33.093 24.7127 33.1211 20.8244 33.1211H14.8268V31.293C14.8268 30.2875 14.8408 29.4648 14.8549 29.4648C14.869 29.4648 15.0096 29.507 15.1643 29.5633C15.6494 29.7391 16.1627 29.7672 16.7112 29.6477C18.6799 29.2328 19.7346 27.1445 18.8768 25.3445C18.2088 23.9312 16.5635 23.2211 15.1221 23.7273L14.8268 23.8328V22.0117V20.1836H17.1963C19.2987 20.1836 19.5729 20.1695 19.6924 20.0641C19.8893 19.8883 19.8471 19.593 19.5729 19.2344C18.9963 18.475 18.9822 17.4484 19.5307 16.6961C20.1213 15.9016 21.2393 15.6133 22.1182 16.0422ZM4.56115 20.2258C4.56115 20.2469 4.51193 20.4437 4.44865 20.6547C4.36428 20.9359 4.34318 21.2383 4.36428 21.6953C4.38537 22.2719 4.42053 22.4055 4.65256 22.8766C5.79865 25.1898 9.05412 25.1547 10.1651 22.8203C10.5377 22.0328 10.5588 21.0906 10.2213 20.3031C10.1721 20.1906 10.2705 20.1836 11.9862 20.1977L13.8072 20.2187L13.8283 22.6023C13.8424 24.7047 13.8565 25.007 13.9619 25.1195C14.1377 25.3164 14.433 25.2742 14.7846 25.007C16.1557 23.9664 18.0682 24.8102 18.1807 26.5117C18.2791 27.932 16.9291 29.057 15.5862 28.6633C15.3752 28.607 15.094 28.4734 14.9604 28.382C14.8268 28.2836 14.651 28.15 14.5666 28.0867C14.3697 27.9461 14.0112 28.0094 13.9127 28.2062C13.8635 28.2906 13.8283 29.2539 13.8213 30.7164L13.8072 33.0859L7.90099 33.107C4.65256 33.1211 1.85412 33.107 1.68537 33.0859C1.47443 33.0508 1.30568 32.9734 1.17209 32.8398L0.975213 32.643V26.4133V20.1836H2.76818C3.75256 20.1836 4.56115 20.2047 4.56115 20.2258Z" fill="#3C2FC0"/>
</svg>
