<svg width="20" height="35" viewBox="0 0 20 35" fill="none" xmlns="http://www.w3.org/2000/svg">
<path d="M8.81234 1.27434C5.85062 2.83488 3.7389 5.78332 3.04163 9.32278C2.64319 11.3614 2.63655 13.3138 3.02835 15.8638L3.18109 16.82L2.51038 17.4907C0.843585 19.1443 0.000225919 21.1763 0.000225919 23.5337C-0.00641471 24.5564 0.133038 25.3732 0.458429 26.3161C0.737335 27.113 0.916632 27.4849 1.36155 28.1622C1.72679 28.72 1.93265 28.8595 2.22484 28.7532C2.4639 28.6603 2.57679 28.4478 2.62991 28.0161C2.82249 26.4822 3.60609 24.8884 4.71507 23.8126C5.00062 23.5337 5.0471 23.5072 5.08694 23.6134C5.11351 23.6798 5.23968 24.0185 5.37249 24.3638C5.49866 24.7091 5.66468 25.0611 5.74437 25.1474L5.87718 25.2935H9.57601H13.2748L13.4076 25.1407C13.4807 25.0611 13.6866 24.6161 13.8592 24.1513L14.1713 23.3079L14.3905 23.4739C14.6694 23.6864 15.194 24.2907 15.5326 24.7954C16.1303 25.6853 16.5487 26.7611 16.708 27.8302C16.801 28.4345 16.8741 28.5872 17.1264 28.6868C17.3987 28.7864 17.6444 28.6337 17.9631 28.1556C18.5276 27.3056 18.9127 26.4224 19.1385 25.4661C19.869 22.3716 18.8596 19.1974 16.4823 17.0857C16.2432 16.8798 16.044 16.6806 16.0307 16.654C16.0174 16.6275 16.0705 16.1892 16.1436 15.6845C16.8741 10.6642 16.0041 6.77278 13.4674 3.78449C12.385 2.50286 10.26 0.982149 9.56273 0.988791C9.43655 0.988791 9.1178 1.11496 8.81234 1.27434ZM10.0276 2.34348C10.4194 2.5427 11.2561 3.14035 11.7807 3.59856C12.1725 3.94387 13.2284 5.14582 13.2284 5.25207C13.2284 5.27864 11.6147 5.3052 9.64241 5.3052C7.67015 5.3052 6.05648 5.28528 6.05648 5.25871C6.05648 5.23879 6.13616 5.11262 6.23577 4.97981C6.9928 3.96379 8.14163 2.96106 9.21077 2.37004C9.61585 2.14426 9.63577 2.14426 10.0276 2.34348ZM14.2178 6.91223C15.4795 9.64153 15.6588 12.9419 14.7889 17.2318C14.4037 19.1243 13.6135 21.8204 12.8963 23.6864L12.6838 24.231L9.56273 24.2177L6.44163 24.1978L6.18265 23.5005C6.04319 23.1154 5.92366 22.7302 5.92366 22.6439C5.92366 22.5575 5.80413 22.106 5.6514 21.6544C5.28616 20.5189 4.92093 19.1642 4.62874 17.8626C4.49593 17.265 4.34319 16.7072 4.29007 16.6275C4.09749 16.3353 3.79866 13.7521 3.79866 12.3841C3.79866 10.4318 4.26351 8.21379 4.96741 6.8259L5.19319 6.3677H9.58265H13.9655L14.2178 6.91223ZM16.283 18.3673C17.4252 19.6091 18.1092 21.1165 18.2752 22.7501C18.4014 23.9654 18.1623 25.4595 17.6709 26.5087C17.5912 26.6947 17.5846 26.688 17.3787 26.1103C16.9205 24.8353 16.3561 23.9521 15.3401 22.9427L14.6096 22.2189L14.676 21.9798C14.7158 21.847 14.935 21.0634 15.1741 20.2333C15.4131 19.4099 15.6455 18.5466 15.692 18.3275C15.7319 18.1017 15.7916 17.9224 15.8182 17.9224C15.8514 17.9224 16.0573 18.1216 16.283 18.3673ZM4.32991 21.3224L4.66194 22.3583L4.01116 23.0157C3.04163 23.9919 2.33109 25.1275 1.93929 26.3161C1.78655 26.7743 1.78655 26.7743 1.69359 26.6017C1.53421 26.2962 1.22874 25.2802 1.14241 24.7622C1.02288 24.0849 1.03616 22.863 1.16898 22.1657C1.4346 20.7646 2.0721 19.4896 3.01507 18.4802L3.42679 18.0419L3.71233 19.1642C3.87171 19.7751 4.15062 20.7447 4.32991 21.3224Z" fill="#3C2FC0"/>
<path d="M9.17773 10.4908C8.33438 10.6303 7.60391 11.1881 7.20547 11.9982C6.96641 12.483 6.95312 12.5295 6.95312 13.1736C6.95312 13.8178 6.96641 13.8643 7.20547 14.349C7.74336 15.4381 8.83906 16.0158 10.041 15.8498C10.9242 15.7303 11.7211 15.1326 12.1195 14.2893C12.3121 13.8709 12.332 13.7846 12.332 13.167C12.332 12.5295 12.3188 12.483 12.0797 11.9982C11.7211 11.2678 11.1102 10.7432 10.4062 10.5639C9.96797 10.451 9.56289 10.4311 9.17773 10.4908ZM10.3266 11.6596C10.6453 11.7857 11.1234 12.317 11.223 12.6623C11.3426 13.0674 11.316 13.4725 11.1434 13.8377C10.8445 14.4686 10.3133 14.8139 9.64258 14.8139C8.97187 14.8139 8.44063 14.4686 8.1418 13.8377C7.86289 13.2467 7.95586 12.6092 8.40078 12.1045C8.91875 11.5201 9.57617 11.3674 10.3266 11.6596Z" fill="#3C2FC0"/>
<path d="M6.74063 27.5841C6.41523 27.7235 6.38867 27.8962 6.38867 30.0743C6.38867 32.1063 6.42188 32.4052 6.6543 32.5313C6.8668 32.6442 7.15234 32.6044 7.30508 32.445C7.45117 32.2923 7.45117 32.2591 7.45117 30.0809C7.45117 28.7661 7.42461 27.8231 7.38477 27.7501C7.28516 27.5641 6.97969 27.4845 6.74063 27.5841Z" fill="#3C2FC0"/>
<path d="M12.1195 27.5845C12.0133 27.631 11.9004 27.7173 11.8738 27.7837C11.8539 27.8435 11.834 28.8861 11.834 30.1013V32.3126L11.9867 32.4521C12.2723 32.7177 12.6973 32.6181 12.8234 32.2595C12.9363 31.9275 12.923 28.1423 12.8035 27.8568C12.684 27.5712 12.4117 27.465 12.1195 27.5845Z" fill="#3C2FC0"/>
<path d="M9.25078 30.0478C9.11797 30.2204 9.11133 30.3001 9.11133 32.4317C9.11133 34.5634 9.11797 34.6431 9.25078 34.8157C9.44336 35.0614 9.8418 35.0614 10.0344 34.8157C10.1672 34.6431 10.1738 34.5634 10.1738 32.4317C10.1738 30.3001 10.1672 30.2204 10.0344 30.0478C9.92813 29.9149 9.8418 29.8751 9.64258 29.8751C9.44336 29.8751 9.35703 29.9149 9.25078 30.0478Z" fill="#3C2FC0"/>
</svg>
