<svg width="38" height="41" viewBox="0 0 38 41" fill="none" xmlns="http://www.w3.org/2000/svg">
<path d="M8.16797 0.189926C7.6875 0.430161 7.39922 0.854574 7.2791 1.51122C6.88672 3.66532 5.31719 5.45907 3.12305 6.25985C2.7627 6.39598 2.13809 6.55614 1.72969 6.62821C1.3293 6.70028 0.904883 6.80438 0.784766 6.86043C0.472461 7.0286 0.0880859 7.50106 0.0320312 7.80536C0 7.9495 -0.00800781 10.1196 0.00800781 12.6261C0.0320312 16.2696 0.0560547 17.2305 0.144141 17.4067C0.288281 17.687 0.616602 17.8231 0.896875 17.719C1.24922 17.5829 1.28125 17.4227 1.19316 16.2536C1.15312 15.669 1.11309 13.595 1.11309 11.6491C1.11309 7.66922 1.07305 7.90946 1.7377 7.82137C2.80273 7.67723 4.38027 7.08465 5.26113 6.49207C6.89473 5.37899 8.06387 3.65731 8.39219 1.87957C8.44023 1.63934 8.52031 1.38309 8.56836 1.32703C8.70449 1.15887 28.4357 1.15887 28.5719 1.31903C28.6199 1.38309 28.7 1.62332 28.74 1.86356C29.0844 3.67332 30.2375 5.37899 31.8791 6.49207C32.76 7.08465 34.3375 7.67723 35.4025 7.82137C36.0672 7.90946 36.0271 7.66121 36.0271 11.6891C36.0271 13.6591 35.9871 15.7171 35.9471 16.2696C35.875 17.1905 35.875 17.2866 36.0191 17.4708C36.2354 17.7671 36.7078 17.7511 36.94 17.4468C37.1082 17.2225 37.1082 17.1505 37.1322 12.602C37.1562 9.43895 37.1322 7.89344 37.0762 7.69325C37.0281 7.52508 36.8439 7.26883 36.6678 7.11668C36.3475 6.82039 36.2193 6.77235 35.1063 6.56414C32.4076 6.04364 30.3256 4.04168 29.8611 1.51122C29.741 0.854574 29.4527 0.422152 28.9643 0.181917L28.6119 0.0137539H18.5621H8.52031L8.16797 0.189926Z" fill="#102c6d"/>
<path d="M10.5223 2.8969C10.0179 3.13713 9.88172 3.28928 9.40926 4.1301C8.80067 5.21116 8.28817 5.8678 7.46336 6.66858C6.62254 7.47737 5.66961 8.126 4.5325 8.66253C3.57157 9.11897 3.25926 9.3512 3.01102 9.81565C2.84286 10.136 2.83485 10.208 2.84286 12.9067C2.84286 15.7334 2.90692 16.6703 3.20321 18.352C4.28426 24.51 7.67157 30.0834 12.8446 34.2395C14.7665 35.785 17.5852 37.5147 18.338 37.6188C18.8505 37.6908 19.2188 37.5627 20.3319 36.9221C27.6671 32.742 32.5919 26.0315 33.9372 18.352C34.2335 16.6864 34.2975 15.7334 34.2975 12.9067C34.3056 10.3602 34.2975 10.1199 34.1534 9.8637C33.8891 9.35921 33.6009 9.13499 32.672 8.69456C31.4628 8.126 30.5339 7.49339 29.677 6.66858C28.8522 5.8678 28.3397 5.21116 27.7311 4.1301C27.2587 3.28928 27.1225 3.13713 26.6181 2.8969C26.3057 2.74475 26.0175 2.73674 18.5702 2.73674C11.1229 2.73674 10.8347 2.74475 10.5223 2.8969ZM26.1776 3.96194C26.2977 4.01799 26.514 4.30627 26.6981 4.65862C27.9153 6.91682 29.621 8.52639 32.0393 9.68753C32.7761 10.0399 33.0003 10.184 33.0723 10.3602C33.2165 10.7045 33.1204 16.0457 32.9522 17.2309C32.4878 20.442 31.3427 23.6532 29.661 26.4479C27.8593 29.4268 25.1446 32.3016 22.1257 34.4076C20.6282 35.4567 18.8985 36.4496 18.5702 36.4496C18.1618 36.4496 15.9036 35.0883 14.238 33.8311C8.29618 29.3627 4.71668 23.1086 4.07606 16.0698C3.96395 14.8365 3.97196 10.5684 4.08407 10.3121C4.14813 10.176 4.38036 10.0239 4.82879 9.82366C7.27918 8.72659 9.20907 6.95686 10.4423 4.65862C10.6265 4.30627 10.8427 4.01799 10.9628 3.96194C11.2591 3.80979 25.8813 3.80979 26.1776 3.96194Z" fill="#102c6d"/>
<path d="M17.4089 6.21973C15.6792 6.59609 14.2938 7.67715 13.4931 9.2707C13.0046 10.2557 12.9485 10.584 12.9085 12.682L12.8685 14.5879H12.2679C11.9315 14.5879 11.5151 14.6359 11.331 14.684C10.8985 14.8121 10.306 15.4047 10.1778 15.8371C10.0497 16.2695 10.0417 24.8859 10.1698 25.3424C10.2739 25.7188 10.7224 26.2313 11.1548 26.4635L11.4831 26.6396H18.57H25.6569L26.0333 26.4555C26.2415 26.3514 26.5218 26.1432 26.6499 25.991C27.1304 25.4545 27.1384 25.3184 27.1384 20.6418C27.1384 18.0232 27.1063 16.2535 27.0503 16.0293C26.9382 15.5328 26.6179 15.1004 26.1854 14.8441C25.8731 14.66 25.697 14.6199 25.0563 14.5879L24.2956 14.5479L24.2556 12.5459C24.2075 10.6 24.1995 10.5279 23.9833 9.94336C23.1104 7.60508 20.9563 6.08359 18.554 6.10762C18.1856 6.10762 17.6731 6.16367 17.4089 6.21973ZM20.1315 7.54102C21.1485 7.89336 22.1095 8.74219 22.606 9.71914C23.0384 10.584 23.1345 11.1686 23.1345 13.0023V14.5879H18.6101H14.0856V12.9062C14.0856 11.9854 14.1257 11.0404 14.1737 10.8082C14.462 9.40684 15.6392 8.06152 17.0245 7.54102C17.9134 7.2127 19.1866 7.20469 20.1315 7.54102ZM25.745 15.9732L25.9372 16.1975V20.6018V25.0141L25.705 25.2463L25.4727 25.4785H18.57H11.6753L11.4831 25.2783L11.2829 25.0861V20.6098V16.1334L11.4671 15.9732C11.5632 15.8852 11.6993 15.7891 11.7634 15.765C11.8274 15.741 14.9585 15.725 18.7142 15.733L25.5528 15.749L25.745 15.9732Z" fill="#102c6d"/>
<path d="M18.0498 18.7367C17.6654 18.9209 17.4973 19.097 17.3211 19.5135C17.0969 20.05 17.3371 20.8267 17.8096 21.075C18.0098 21.1791 18.0098 21.1951 18.0098 22.132C18.0098 23.0369 18.0178 23.0929 18.21 23.2771C18.4262 23.5013 18.5463 23.5174 18.8426 23.3892C19.1229 23.2611 19.211 22.9328 19.211 22.0199C19.211 21.2351 19.211 21.2191 19.4512 21.0189C19.7875 20.7386 19.9317 20.4263 19.9317 19.9859C19.9317 19.001 18.9227 18.3283 18.0498 18.7367Z" fill="#102c6d"/>
<path d="M0.768663 19.8574C0.56046 20.0816 0.600499 20.466 0.960851 21.7232C2.38624 26.7841 5.213 31.3566 9.18487 35.0322C11.387 37.0662 13.5571 38.5716 16.5681 40.1652C18.1216 40.982 18.4259 41.0861 18.9224 40.9499C19.3788 40.8298 22.1175 39.3644 23.3987 38.5476C28.9882 34.9921 33.2724 29.8111 35.4505 23.9574C35.931 22.6681 36.5075 20.6822 36.5075 20.3058C36.5075 19.7693 35.915 19.513 35.5626 19.8894C35.4745 19.9935 35.3464 20.3058 35.2743 20.5941C34.7458 22.8763 33.5927 25.679 32.2714 27.8892C29.8771 31.9011 26.2816 35.4646 22.0935 37.9871C20.9644 38.6677 18.7542 39.8128 18.578 39.8128C18.4739 39.8128 17.8093 39.5005 17.1046 39.1242C13.7173 37.3224 11.4911 35.7128 9.12081 33.3345C5.60538 29.8031 3.13898 25.5349 1.92179 20.8343C1.77765 20.2658 1.63351 19.8814 1.54542 19.8173C1.33722 19.6652 0.920812 19.6892 0.768663 19.8574Z" fill="#102c6d"/>
</svg>
