<svg width="13" height="13" viewBox="0 0 13 13" fill="none" xmlns="http://www.w3.org/2000/svg">
<path d="M10.8759 0.777486C3.24989 3.80561 0.325667 4.97827 0.244026 5.03764C-0.0157397 5.23061 -0.0788256 5.64995 0.106721 5.92827C0.162385 6.01362 0.251448 6.10639 0.307112 6.13608C0.366487 6.16206 1.36473 6.57397 2.52625 7.04897C3.69149 7.52397 4.70457 7.94331 4.7825 7.98784C4.86043 8.03237 4.95692 8.11772 4.99403 8.18452C5.03485 8.2476 5.45789 9.26069 5.9366 10.4371C6.41532 11.6134 6.83465 12.6265 6.86805 12.6896C7.07215 13.083 7.7327 13.1089 7.98133 12.7304C8.0741 12.5894 12.5347 1.39721 12.5792 1.19682C12.6163 1.04096 12.5458 0.807173 12.427 0.662447C12.312 0.525142 12.0745 0.406392 11.9149 0.406392C11.8555 0.406392 11.388 0.573384 10.8759 0.777486ZM10.6347 1.90561C10.2339 2.29897 7.21317 5.2603 5.41336 7.02299L5.07567 7.35698L2.90106 6.47006C1.70614 5.98393 0.726448 5.57573 0.726448 5.5646C0.726448 5.54604 11.054 1.41948 11.1171 1.41206C11.1282 1.40835 10.9093 1.631 10.6347 1.90561ZM9.51024 7.13432C8.38582 9.96577 7.45438 12.2814 7.44324 12.2814C7.42098 12.2814 5.62489 7.92104 5.61375 7.83569C5.60633 7.79487 11.5253 1.95014 11.5475 1.97612C11.555 1.97983 10.6384 4.30288 9.51024 7.13432Z" fill="white"/>
</svg>
