<svg width="41" height="36" viewBox="0 0 41 36" fill="none" xmlns="http://www.w3.org/2000/svg">
<path d="M34.2701 0.554648C33.3064 0.521377 32.0648 1.07459 31.4911 1.80033C30.0701 3.6801 24.5237 6.53611 20.0955 7.66875C17.4227 8.35788 16.8874 8.39939 11.3506 8.47982C6.54114 8.53708 6.26998 8.56642 5.70122 9.03423C5.24268 9.42703 4.85435 9.54853 4.04146 9.53679C2.22691 9.53627 0.469898 10.819 0.110676 12.3921C-0.0866373 13.2715 -0.00456952 20.2437 0.233999 21.0809C0.626182 22.6207 2.27965 23.7553 4.15568 23.8009C4.82791 23.8152 5.39311 23.9458 6.03253 24.2867C6.73024 24.6314 7.18582 24.7373 7.91315 24.7141C8.44154 24.6898 8.89076 24.7131 8.90091 24.7372C8.90409 24.7785 8.92068 26.605 8.94187 28.8132C8.96305 31.0215 9.01964 33.0442 9.066 33.3231C9.19236 33.9945 10.0544 34.9662 10.773 35.2594C12.2786 35.8737 14.4077 34.9027 14.7594 33.4465C14.8473 33.0824 14.8977 30.9434 14.8664 28.711C14.8351 26.4786 14.8425 24.642 14.8767 24.656C14.9008 24.6458 15.2474 24.6272 15.6351 24.6055C16.033 24.6078 17.0753 24.6932 17.9458 24.8084C22.5142 25.4927 28.3207 27.9418 31.4782 30.53C33.3624 32.0786 35.1897 32.2443 36.6173 30.9871C37.6205 30.1367 37.7659 29.3362 37.7496 25.1503C37.7348 23.0246 37.7524 21.2121 37.7873 21.1264C37.8221 21.0406 38.0596 20.8975 38.2934 20.813C38.5512 20.7182 39.075 20.312 39.4752 19.9154C40.0756 19.3206 40.2972 18.9711 40.6674 17.8623C41.509 15.3462 40.7466 13.1955 38.4575 11.6616L37.6102 11.0959L37.5813 7.28479C37.5564 5.13498 37.4238 3.20122 37.2786 2.82202C36.7515 1.46716 35.6075 0.60047 34.2701 0.554648ZM35.2697 3.20211C35.5613 3.76105 35.8578 28.3377 35.5793 29.0239C35.1755 30.0189 33.6936 30.0342 33.2123 29.0579C33.0462 28.7302 32.684 7.70611 32.7851 3.96803C32.8346 2.56847 34.6318 2.02201 35.2697 3.20211ZM30.8564 14.5191C30.9016 19.6166 30.9575 24.6385 30.9617 25.6601L30.9916 27.5519L29.8053 26.8879C29.1659 26.547 27.0893 25.6197 25.2073 24.8518C22.343 23.7031 21.4325 23.3916 19.6748 23.0543C18.5235 22.8445 17.554 22.6289 17.5337 22.5807C17.5306 22.5394 17.4819 19.76 17.4539 16.3892C17.4155 12.4542 17.4729 10.298 17.6136 10.2954C18.0216 10.3219 21.2886 9.49535 23.1067 8.89742C25.0211 8.2588 28.0516 6.83577 29.6218 5.81676C30.1659 5.45886 30.634 5.18994 30.6853 5.21089C30.7436 5.21467 30.8182 9.40437 30.8564 14.5191ZM38.4447 14.3958C38.9988 15.2418 39.112 16.3878 38.743 17.2971C38.3949 18.1549 37.9694 18.7611 37.7983 18.6913C37.7299 18.6634 37.6592 17.8547 37.6582 16.8744C37.6673 15.9183 37.6465 14.7901 37.6559 14.3739C37.6371 13.4864 37.8532 13.4946 38.4447 14.3958ZM15.4291 16.5628C15.4646 19.8167 15.4074 22.5129 15.3181 22.5365C14.957 22.6891 7.35921 22.6884 7.14056 22.5392C6.93903 22.397 6.68609 11.2758 6.88799 10.7782C6.93673 10.6581 7.89782 10.5504 9.04015 10.5366C10.1584 10.5329 11.9869 10.4991 13.088 10.4885C14.1961 10.4607 15.1598 10.494 15.2384 10.5461C15.2929 10.6083 15.3935 13.3089 15.4291 16.5628ZM4.83953 16.6612C4.86472 19.351 4.88212 21.6177 4.86124 21.6692C4.78465 21.8579 3.78675 21.8107 3.20503 21.5733C2.24691 21.1824 2.06922 20.49 2.02908 16.8542C1.98434 12.8367 2.0273 12.5343 2.6993 12.0086C3.19207 11.6298 4.33558 11.4165 4.62585 11.6349C4.72154 11.6939 4.8042 13.9473 4.83953 16.6612ZM12.8485 28.8675C12.8632 32.1729 12.8173 32.974 12.5519 33.1857C12.1313 33.534 11.319 33.4225 11.1364 32.988C11.0045 32.6743 10.8575 25.0757 10.9689 24.8012C11.0316 24.6468 12.4761 24.5763 12.6776 24.7185C12.7562 24.7706 12.8172 26.6351 12.8485 28.8675Z" fill="#102c6d"/>
</svg>
