<svg width="40" height="40" viewBox="0 0 40 40" fill="none" xmlns="http://www.w3.org/2000/svg">
<path d="M6.17153 0.239525C6.01197 0.399092 5.95878 0.576387 5.91445 1.09941C5.80808 2.31389 5.31165 3.39539 4.46063 4.24641C3.61847 5.08857 2.5547 5.57613 1.34908 5.68251C0.808331 5.72684 0.631035 5.78002 0.471468 5.93959L0.267578 6.14348V9.43232V12.7212L0.489198 12.9339C0.772872 13.2265 1.18065 13.2265 1.46433 12.9339L1.68595 12.7212V9.87556V7.03883H1.94303C2.36854 7.03883 3.54755 6.63104 4.15036 6.26759C5.73716 5.32792 7.05801 3.45745 7.24417 1.88838L7.29736 1.454H10.6571H14.0169L14.2296 1.23238C14.3715 1.09941 14.4513 0.91325 14.4513 0.744819C14.4513 0.576387 14.3715 0.390226 14.2296 0.257255L14.0169 0.035635H10.1962H6.37542L6.17153 0.239525Z" fill="#3C2FC0"/>
<path d="M16.8527 0.186539C16.7463 0.275188 16.64 0.496807 16.6134 0.674103C16.5691 0.940048 16.5956 1.03756 16.7818 1.22372L17.0123 1.45421H24.9817H32.9512L33.0044 1.88858C33.1817 3.42219 34.4937 5.31039 36.0273 6.23233C36.6212 6.58692 37.8712 7.03903 38.2878 7.03903H38.5803L38.536 10.9573C38.5006 13.8472 38.4562 15.1503 38.3499 15.9038C37.7648 20.1501 36.4085 23.829 34.1125 27.3926C33.5274 28.2968 33.4831 28.5716 33.8288 28.8908C34.1568 29.1922 34.5291 29.1833 34.8217 28.8642C35.1763 28.483 36.4705 26.2934 37.0556 25.0789C38.1903 22.7475 39.0413 20.1678 39.4934 17.7566C39.8657 15.7265 39.9101 15.0528 39.9544 10.5672L39.9987 6.16141L39.786 5.94866C39.6175 5.78023 39.4491 5.72704 38.8906 5.68271C36.3641 5.46996 34.3075 3.28035 34.3075 0.815941C34.3075 0.567726 34.2455 0.408159 34.0859 0.257458L33.8731 0.0358372H25.4604C17.5708 0.0358372 17.03 0.0447025 16.8527 0.186539Z" fill="#3C2FC0"/>
<path d="M18.8921 7.96989C17.323 8.31562 15.816 9.48577 15.0891 10.9396C14.5838 11.9502 14.4508 12.6328 14.4508 14.2816V15.6379H13.9544C13.6796 15.6379 13.2895 15.6823 13.0856 15.7443C12.5981 15.8862 11.8623 16.6219 11.7204 17.1095C11.5697 17.6325 11.5697 25.6995 11.7204 26.2225C11.8623 26.7101 12.5981 27.4459 13.0856 27.5877C13.3604 27.6675 15.1511 27.6941 20.142 27.6941C27.7569 27.6941 27.3757 27.7295 28.0405 26.9849C28.2533 26.7544 28.4749 26.3998 28.5281 26.2048C28.6788 25.7084 28.6788 17.6237 28.5281 17.1272C28.4749 16.9322 28.2533 16.5776 28.0405 16.3471C27.5884 15.8507 27.0831 15.6379 26.3208 15.6379H25.8155L25.78 14.0157C25.7446 12.686 25.7002 12.3048 25.5495 11.8261C24.6365 9.03367 21.7377 7.35822 18.8921 7.96989ZM20.8335 9.34394C22.0834 9.53896 23.3067 10.4077 23.8475 11.4804C24.2553 12.2782 24.3794 12.943 24.3794 14.3703V15.6379H20.1243H15.8692V14.3703C15.8692 12.943 15.9933 12.2782 16.4011 11.4804C17.0305 10.2215 18.4932 9.33507 20.0356 9.26415C20.1597 9.26415 20.5143 9.29961 20.8335 9.34394ZM26.9945 17.2779L27.2161 17.4907V21.666V25.8413L26.9945 26.0541L26.7817 26.2757H20.1243H13.4668L13.2541 26.0541L13.0324 25.8413V21.666V17.4907L13.2541 17.2779L13.4668 17.0563H20.1243H26.7817L26.9945 17.2779Z" fill="#3C2FC0"/>
<path d="M19.3803 18.9623C18.9726 19.1041 18.485 19.5473 18.2634 19.9817C17.7669 20.9568 18.0772 22.1802 18.9726 22.7298C19.3271 22.9514 19.3271 22.9514 19.3271 23.5099C19.3271 23.9797 19.3626 24.1038 19.5488 24.2811C19.7792 24.5205 20.0009 24.556 20.3289 24.4053C20.6125 24.2723 20.7455 23.9709 20.7455 23.439C20.7455 23.0135 20.7632 22.9957 21.0912 22.8273C21.5877 22.5702 22.0398 22.0029 22.1639 21.471C22.5628 19.8222 20.976 18.3861 19.3803 18.9623ZM20.5771 20.4161C20.7366 20.5402 20.7898 20.6732 20.7898 20.9568C20.7898 21.3912 20.5328 21.666 20.125 21.666C19.7172 21.666 19.4601 21.3912 19.4601 20.9568C19.4601 20.5225 19.7172 20.2477 20.125 20.2477C20.2579 20.2477 20.4618 20.3274 20.5771 20.4161Z" fill="#3C2FC0"/>
<path d="M0.976797 15.3454C0.498098 15.5315 0.444909 15.8329 0.666529 17.2336C1.55301 22.7563 4.43407 28.4121 8.45869 32.5608C11.5436 35.7344 15.0186 37.9683 18.8748 39.2537L20.3287 39.7324L21.0467 39.4753C25.0802 37.9861 28.4931 35.8142 31.5426 32.7824C32.6862 31.6389 32.8014 31.497 32.8014 31.2134C32.8014 30.974 32.7394 30.8499 32.5266 30.6726C32.3759 30.5485 32.172 30.4421 32.0745 30.4421C31.9593 30.4421 31.4008 30.9297 30.5498 31.7541C28.6261 33.6423 27.1191 34.8036 24.9738 36.0713C23.4313 36.9666 20.5946 38.2431 20.1159 38.2431C19.8145 38.2431 17.9086 37.4453 16.5345 36.7538C15.1161 36.0269 13.1216 34.7415 11.8805 33.7575C11.4639 33.4296 10.471 32.4987 9.6643 31.692C5.59536 27.6142 3.04229 22.6677 2.0849 17.0119C1.92533 16.0989 1.81009 15.6379 1.70371 15.5315C1.53528 15.3631 1.17182 15.2656 0.976797 15.3454Z" fill="#3C2FC0"/>
</svg>
