<svg width="35" height="40" viewBox="0 0 35 40" fill="none" xmlns="http://www.w3.org/2000/svg">
<path d="M16.4453 0.0468712C15.4531 0.156246 14.75 0.273434 14.1016 0.437496C11.7188 1.03125 9.58594 2.24218 7.8125 4.02343C5.41406 6.42187 4.03906 9.46093 3.82031 12.875C3.76562 13.6562 3.75781 13.6797 3.5625 13.7187C2.01562 14.0547 1.00781 14.7656 0.46875 15.8984C0 16.8984 0 16.8828 0 21.7578C0 25.7656 0.015625 26.2578 0.140625 26.7109C0.578125 28.2969 1.67188 29.3516 3.26562 29.7187C3.65625 29.8125 4.21875 29.8437 5.42188 29.8437H7.04688L7.24219 29.6484C7.35156 29.5391 7.46094 29.3437 7.49219 29.2109C7.55469 28.8906 7.55469 14.625 7.49219 14.3047C7.46094 14.1719 7.35156 13.9766 7.25 13.8672C7.07031 13.6875 6.99219 13.6719 6.17969 13.6562L5.3125 13.6328L5.33594 13.0078C5.42969 10.7656 6.24219 8.4375 7.59375 6.53906C8.50781 5.25781 10.1562 3.78906 11.5781 2.99218C13.2344 2.07031 15.5156 1.48437 17.4609 1.48437C19.4062 1.48437 21.6875 2.07031 23.3438 2.99218C24.7656 3.78906 26.4141 5.25781 27.3281 6.53906C28.6797 8.4375 29.4922 10.7656 29.5859 13.0078L29.6094 13.6328L28.7422 13.6562C27.9219 13.6719 27.8516 13.6875 27.6719 13.875C27.5469 14 27.4531 14.2031 27.4219 14.3984C27.3984 14.5781 27.3828 18.0234 27.3984 22.0547L27.4219 29.3906L27.6797 29.6172C27.9297 29.8359 27.9531 29.8437 28.7891 29.8437H29.6406L29.6016 30.25C29.3828 32.5078 28.8516 33.8828 27.8203 34.8281C26.8047 35.75 25.0781 36.3047 22.7656 36.4531L21.9375 36.5078L21.8906 36.0234C21.8281 35.4453 21.7031 35.1797 21.3359 34.8594C20.9062 34.4844 20.5078 34.4375 17.7109 34.4687C15.4688 34.4922 15.2109 34.5078 14.9609 34.6406C14.5781 34.8437 14.4219 35 14.25 35.3281C14.1172 35.5859 14.1016 35.8047 14.1016 37.2187C14.1016 38.9141 14.1328 39.1172 14.4766 39.4844C14.9453 39.9844 15.0312 40 18.0078 40C20.6562 40 20.7188 40 21.0547 39.8203C21.5469 39.5781 21.8359 39.1328 21.8906 38.5312L21.9375 38.0547L22.3359 38.0156C22.5547 37.9922 23.1406 37.9375 23.6328 37.8906C27 37.5703 29.0625 36.4062 30.1562 34.2187C30.6484 33.2344 30.9141 32.2266 31.0781 30.7109L31.1719 29.8125L31.7266 29.6797C33.3047 29.2891 34.3516 28.2734 34.7891 26.7031C34.9062 26.2578 34.9219 25.75 34.9219 21.7187C34.9219 17.6016 34.9062 17.1875 34.7812 16.7187C34.3125 15.0781 33.2344 14.125 31.3594 13.7187C31.1641 13.6797 31.1562 13.6562 31.1016 12.875C30.6875 6.44531 25.9844 1.23437 19.6484 0.187496C18.9844 0.0781212 16.9531 -0.0156288 16.4453 0.0468712ZM5.97656 21.7187V28.3594H5.21875C2.89062 28.3516 1.83594 27.6875 1.53125 26.0547C1.41406 25.4297 1.41406 18.0078 1.53125 17.3828C1.70312 16.4453 2.19531 15.7734 2.97656 15.4141C3.47656 15.1875 4.04688 15.1016 5.14062 15.0859L5.97656 15.0781V21.7187ZM31.6797 15.3437C32.4766 15.6406 33.0625 16.2422 33.2969 17.0156C33.4219 17.4219 33.4375 17.8437 33.4219 21.7187C33.4062 25.7812 33.3984 26 33.2422 26.5078C33.1016 26.9531 33 27.125 32.6328 27.5C31.9844 28.1562 31.5703 28.2969 30.1016 28.3437L28.9453 28.375V21.7578V15.1406L30.1406 15.1797C30.9766 15.2031 31.4297 15.25 31.6797 15.3437ZM20.3516 37.2656V38.5156H17.9688H15.5859V37.2656V36.0156H17.9688H20.3516V37.2656Z" fill="#3C2FC0"/>
</svg>
