<svg width="17" height="17" viewBox="0 0 17 17" fill="none" xmlns="http://www.w3.org/2000/svg">
<path d="M4.13136 0.0272369C1.95445 0.286474 0.259443 1.99809 0.0234719 4.17833C-0.0662635 5.01586 0.103237 5.93316 0.498737 6.72083L0.635002 6.98672L0.571855 7.36892C0.522002 7.67469 0.508708 7.92395 0.508708 8.61525C0.508708 9.36969 0.518679 9.53254 0.588473 9.91143C0.890914 11.6064 1.66862 13.0821 2.88836 14.2653C3.84554 15.1925 4.85257 15.8007 6.11219 16.2029C7.20231 16.5518 8.42869 16.6615 9.62184 16.5186L10.0905 16.4621L10.3231 16.5685C12.0513 17.3661 14.1252 17.0371 15.5244 15.7442C16.5647 14.7804 17.1098 13.3712 16.9835 11.982C16.9403 11.5034 16.8239 11.0248 16.6544 10.626C16.5182 10.3069 16.5215 10.3136 16.5913 9.91475C16.8804 8.29619 16.6212 6.55466 15.8668 5.05907C15.4214 4.17833 14.9893 3.59007 14.2947 2.91539C13.8361 2.46671 13.5635 2.24403 13.0816 1.92498C11.4697 0.864769 9.49222 0.412767 7.53466 0.658709L7.21228 0.698591L6.88657 0.529091C6.21522 0.186768 5.58374 0.0272369 4.84592 0.00729561C4.59998 0.000648499 4.2776 0.0106201 4.13136 0.0272369ZM9.10004 2.98186C9.69496 3.02839 10.0705 3.09486 10.5125 3.23777C11.7855 3.64657 12.623 4.44754 12.7892 5.41136C12.859 5.80686 12.7526 6.13589 12.4701 6.41839C12.2773 6.61116 12.1311 6.6876 11.8553 6.73745C11.4764 6.80725 11.1274 6.71419 10.8848 6.47822C10.8183 6.41175 10.6688 6.21566 10.5558 6.03951C10.2035 5.49113 10.1835 5.46786 10.0207 5.28839C9.69828 4.9361 9.38587 4.79983 8.75107 4.74333C8.33231 4.70345 7.83045 4.74001 7.51139 4.82974C6.76028 5.04577 6.33154 5.59083 6.52098 6.08936C6.62733 6.36189 7.03613 6.65769 7.5546 6.83716C7.64766 6.86707 8.20601 7.00998 8.80093 7.15289C10.4261 7.53842 11.0609 7.73451 11.6359 8.02034C12.8257 8.61857 13.3708 9.50928 13.311 10.7589C13.2711 11.5732 12.9786 12.2412 12.4103 12.8029C11.7622 13.4443 10.8216 13.8531 9.59857 14.0226C9.12331 14.0858 7.84707 14.0791 7.37845 14.006C5.96595 13.7867 5.00213 13.2483 4.33077 12.3044C3.9951 11.8358 3.83889 11.397 3.83557 10.9218C3.83224 10.6326 3.84221 10.5894 3.93195 10.41C4.12804 10.0244 4.51024 9.81504 5.01874 9.81504C5.2381 9.81504 5.30457 9.83166 5.49069 9.92472C5.77651 10.0643 5.92939 10.2438 6.17866 10.739C6.5808 11.5267 6.83339 11.8225 7.28207 12.0352C7.61775 12.198 7.96339 12.2612 8.50181 12.2612C9.13328 12.2612 9.5321 12.1748 9.99407 11.9421C10.2134 11.8291 10.5325 11.5267 10.6289 11.3372C10.702 11.1943 10.712 11.1312 10.712 10.842C10.712 10.4565 10.6654 10.3368 10.4228 10.1075C10.0639 9.76187 9.67501 9.61896 8.23592 9.29657C6.16204 8.8346 5.2813 8.44575 4.63654 7.70792C4.20448 7.21272 4.04495 6.74742 4.04495 5.9963C4.04827 5.53433 4.12471 5.21195 4.34074 4.79318C4.46371 4.55057 4.55677 4.43424 4.81268 4.17501C5.60036 3.38401 6.74033 3.00512 8.48519 2.95195C8.57825 2.95195 8.8541 2.96524 9.10004 2.98186Z" fill="white"/>
</svg>
