<svg width="100" height="20" viewBox="0 0 100 20" fill="none" xmlns="http://www.w3.org/2000/svg">
<path d="M9.99982 0L12.2449 6.90983H19.5104L13.6325 11.1803L15.8777 18.0902L9.99982 13.8197L4.12197 18.0902L6.36711 11.1803L0.489258 6.90983H7.75468L9.99982 0Z" fill="#F0A71C"/>
<path d="M52.0068 6.9873L52.0635 7.16016H58.7412L53.4854 10.9785L53.3389 11.085L53.3945 11.2578L55.4014 17.4346L50.1465 13.6172L50 13.5107L49.8525 13.6172L44.5967 17.4346L46.6045 11.2578L46.6611 11.085L46.5137 10.9785L41.2578 7.16016H47.9365L47.9922 6.9873L49.999 0.808594L52.0068 6.9873Z" fill="white" stroke="#F0A71C" stroke-width="0.5"/>
<path d="M32.0068 6.9873L32.0635 7.16016H38.7412L33.4854 10.9785L33.3389 11.085L33.3945 11.2578L35.4014 17.4346L30.1465 13.6172L30 13.5107L29.8525 13.6172L24.5967 17.4346L26.6045 11.2578L26.6611 11.085L26.5137 10.9785L21.2578 7.16016H27.9365L27.9922 6.9873L29.999 0.808594L32.0068 6.9873Z" fill="white" stroke="#F0A71C" stroke-width="0.5"/>
<path d="M72.0068 6.9873L72.0635 7.16016H78.7412L73.4854 10.9785L73.3389 11.085L73.3945 11.2578L75.4014 17.4346L70.1465 13.6172L70 13.5107L69.8525 13.6172L64.5967 17.4346L66.6045 11.2578L66.6611 11.085L66.5137 10.9785L61.2578 7.16016H67.9365L67.9922 6.9873L69.999 0.808594L72.0068 6.9873Z" fill="white" stroke="#F0A71C" stroke-width="0.5"/>
<path d="M92.0068 6.9873L92.0635 7.16016H98.7412L93.4854 10.9785L93.3389 11.085L93.3945 11.2578L95.4014 17.4346L90.1465 13.6172L90 13.5107L89.8525 13.6172L84.5967 17.4346L86.6045 11.2578L86.6611 11.085L86.5137 10.9785L81.2578 7.16016H87.9365L87.9922 6.9873L89.999 0.808594L92.0068 6.9873Z" fill="url(#paint0_linear_280_1833)" stroke="#F0A71C" stroke-width="0.5"/>
<defs>
<linearGradient id="paint0_linear_280_1833" x1="99.5105" y1="9.0451" x2="80.4893" y2="9.0451" gradientUnits="userSpaceOnUse">
<stop offset="0.475962" stop-color="white"/>
<stop offset="0.528846" stop-color="white"/>
</linearGradient>
</defs>
</svg>
