<svg width="100" height="20" viewBox="0 0 100 20" fill="none" xmlns="http://www.w3.org/2000/svg">
<path d="M9.99982 0L12.2449 6.90983H19.5104L13.6325 11.1803L15.8777 18.0902L9.99982 13.8197L4.12197 18.0902L6.36711 11.1803L0.489258 6.90983H7.75468L9.99982 0Z" fill="#F0A71C"/>
<path d="M49.9999 0L52.245 6.90983H59.5105L53.6326 11.1803L55.8778 18.0902L49.9999 13.8197L44.122 18.0902L46.3672 11.1803L40.4893 6.90983H47.7548L49.9999 0Z" fill="#F0A71C"/>
<path d="M29.9999 0L32.245 6.90983H39.5105L33.6326 11.1803L35.8778 18.0902L29.9999 13.8197L24.122 18.0902L26.3672 11.1803L20.4893 6.90983H27.7548L29.9999 0Z" fill="#F0A71C"/>
<path d="M69.9999 0L72.245 6.90983H79.5105L73.6326 11.1803L75.8778 18.0902L69.9999 13.8197L64.122 18.0902L66.3672 11.1803L60.4893 6.90983H67.7548L69.9999 0Z" fill="#F0A71C"/>
<path d="M92.0068 6.9873L92.0635 7.16016H98.7412L93.4854 10.9785L93.3389 11.085L93.3945 11.2578L95.4014 17.4346L90.1465 13.6172L90 13.5107L89.8525 13.6172L84.5967 17.4346L86.6045 11.2578L86.6611 11.085L86.5137 10.9785L81.2578 7.16016H87.9365L87.9922 6.9873L89.999 0.808594L92.0068 6.9873Z" fill="url(#paint0_linear_280_1845)" stroke="#F0A71C" stroke-width="0.5"/>
<defs>
<linearGradient id="paint0_linear_280_1845" x1="99.5105" y1="9.0451" x2="80.4893" y2="9.0451" gradientUnits="userSpaceOnUse">
<stop offset="0.475962" stop-color="white"/>
<stop offset="0.528846" stop-color="white"/>
</linearGradient>
</defs>
</svg>
