<svg width="37" height="41" viewBox="0 0 37 41" fill="none" xmlns="http://www.w3.org/2000/svg">
<path d="M7.96875 0.64566C7.5 0.880035 7.21875 1.2941 7.10156 1.93472C6.71875 4.03629 5.1875 5.78628 3.04688 6.56753C2.69531 6.70035 2.08594 6.8566 1.6875 6.92691C1.29688 6.99722 0.882813 7.09878 0.765625 7.15347C0.460938 7.31753 0.0859375 7.77847 0.03125 8.07535C0 8.21597 -0.0078125 10.3332 0.0078125 12.7785C0.03125 16.3332 0.0546875 17.2707 0.140625 17.4425C0.28125 17.716 0.601563 17.8488 0.875 17.7472C1.21875 17.6144 1.25 17.4582 1.16406 16.3175C1.125 15.7472 1.08594 13.7238 1.08594 11.8253C1.08594 7.94253 1.04688 8.17691 1.69531 8.09097C2.73438 7.95035 4.27344 7.37222 5.13281 6.7941C6.72656 5.70816 7.86719 4.02847 8.1875 2.2941C8.23438 2.05972 8.3125 1.80972 8.35938 1.75504C8.49219 1.59097 27.7422 1.59097 27.875 1.74722C27.9219 1.80972 28 2.0441 28.0391 2.27847C28.375 4.0441 29.5 5.70816 31.1016 6.7941C31.9609 7.37222 33.5 7.95035 34.5391 8.09097C35.1875 8.17691 35.1484 7.93472 35.1484 11.8644C35.1484 13.7863 35.1094 15.7941 35.0703 16.3332C35 17.2316 35 17.3253 35.1406 17.505C35.3516 17.7941 35.8125 17.7785 36.0391 17.4816C36.2031 17.2628 36.2031 17.1925 36.2266 12.755C36.25 9.6691 36.2266 8.16128 36.1719 7.96597C36.125 7.80191 35.9453 7.55191 35.7734 7.40347C35.4609 7.11441 35.3359 7.06753 34.25 6.86441C31.6172 6.3566 29.5859 4.40347 29.1328 1.93472C29.0156 1.2941 28.7344 0.872223 28.2578 0.637848L27.9141 0.473785H18.1094H8.3125L7.96875 0.64566Z" fill="white"/>
<path d="M10.2657 3.28621C9.77347 3.52058 9.64066 3.66902 9.17972 4.48933C8.58597 5.54402 8.08597 6.18464 7.28128 6.96589C6.46097 7.75496 5.53128 8.38777 4.42191 8.91121C3.48441 9.35652 3.17972 9.58308 2.93753 10.0362C2.77347 10.3487 2.76566 10.419 2.77347 13.0518C2.77347 15.8096 2.83597 16.7237 3.12503 18.3643C4.17972 24.3721 7.48441 29.8096 12.5313 33.8643C14.4063 35.3721 17.1563 37.0596 17.8907 37.1612C18.3907 37.2315 18.75 37.1065 19.836 36.4815C26.9922 32.4034 31.7969 25.8565 33.1094 18.3643C33.3985 16.7393 33.461 15.8096 33.461 13.0518C33.4688 10.5675 33.461 10.3331 33.3203 10.0831C33.0625 9.59089 32.7813 9.37214 31.875 8.94246C30.6953 8.38777 29.7891 7.77058 28.9532 6.96589C28.1485 6.18464 27.6485 5.54402 27.0547 4.48933C26.5938 3.66902 26.461 3.52058 25.9688 3.28621C25.6641 3.13777 25.3828 3.12996 18.1172 3.12996C10.8516 3.12996 10.5703 3.13777 10.2657 3.28621ZM25.5391 4.32527C25.6563 4.37996 25.8672 4.66121 26.0469 5.00496C27.2344 7.20808 28.8985 8.77839 31.2578 9.91121C31.9766 10.255 32.1953 10.3956 32.2657 10.5675C32.4063 10.9034 32.3125 16.1143 32.1485 17.2706C31.6953 20.4034 30.5782 23.5362 28.9375 26.2628C27.1797 29.169 24.5313 31.9737 21.586 34.0284C20.125 35.0518 18.4375 36.0206 18.1172 36.0206C17.7188 36.0206 15.5157 34.6925 13.8907 33.4659C8.09378 29.1065 4.6016 23.005 3.9766 16.1378C3.86722 14.9346 3.87503 10.7706 3.98441 10.5206C4.04691 10.3878 4.27347 10.2393 4.71097 10.044C7.1016 8.97371 8.98441 7.24714 10.1875 5.00496C10.3672 4.66121 10.5782 4.37996 10.6953 4.32527C10.9844 4.17683 25.25 4.17683 25.5391 4.32527Z" fill="white"/>
<path d="M16.9845 6.52832C15.297 6.89551 13.9454 7.9502 13.1642 9.50488C12.6876 10.4658 12.6329 10.7861 12.5938 12.833L12.5548 14.6924H11.9688C11.6407 14.6924 11.2345 14.7393 11.0548 14.7861C10.6329 14.9111 10.0548 15.4893 9.92978 15.9111C9.80478 16.333 9.79697 24.7393 9.92197 25.1846C10.0235 25.5518 10.461 26.0518 10.8829 26.2783L11.2032 26.4502H18.1173H25.0313L25.3985 26.2705C25.6017 26.1689 25.8751 25.9658 26.0001 25.8174C26.4688 25.2939 26.4767 25.1611 26.4767 20.5986C26.4767 18.0439 26.4454 16.3174 26.3907 16.0986C26.2813 15.6143 25.9688 15.1924 25.547 14.9424C25.2423 14.7627 25.0704 14.7236 24.4454 14.6924L23.7032 14.6533L23.6642 12.7002C23.6173 10.8018 23.6095 10.7314 23.3985 10.1611C22.547 7.87988 20.4454 6.39551 18.1017 6.41895C17.7423 6.41895 17.2423 6.47363 16.9845 6.52832ZM19.6407 7.81738C20.6329 8.16113 21.5704 8.98926 22.0548 9.94238C22.4767 10.7861 22.5704 11.3564 22.5704 13.1455V14.6924H18.1563H13.7423V13.0518C13.7423 12.1533 13.7813 11.2314 13.8282 11.0049C14.1095 9.6377 15.2579 8.3252 16.6095 7.81738C17.4767 7.49707 18.7188 7.48926 19.6407 7.81738ZM25.1173 16.0439L25.3048 16.2627V20.5596V24.8643L25.0782 25.0908L24.8517 25.3174H18.1173H11.3907L11.2032 25.1221L11.0079 24.9346V20.5674V16.2002L11.1876 16.0439C11.2813 15.958 11.4142 15.8643 11.4767 15.8408C11.5392 15.8174 14.5938 15.8018 18.2579 15.8096L24.9298 15.8252L25.1173 16.0439Z" fill="white"/>
<path d="M17.6091 18.7389C17.2341 18.9185 17.07 19.0904 16.8981 19.4967C16.6794 20.0201 16.9138 20.7779 17.3747 21.0201C17.57 21.1217 17.57 21.1373 17.57 22.0514C17.57 22.9342 17.5778 22.9889 17.7653 23.1685C17.9763 23.3873 18.0935 23.4029 18.3825 23.2779C18.656 23.1529 18.7419 22.8326 18.7419 21.942C18.7419 21.1764 18.7419 21.1607 18.9763 20.9654C19.3044 20.692 19.445 20.3873 19.445 19.9576C19.445 18.9967 18.4606 18.3404 17.6091 18.7389Z" fill="white"/>
<path d="M0.749963 19.833C0.546838 20.0517 0.5859 20.4267 0.937463 21.6533C2.32809 26.5908 5.0859 31.0517 8.9609 34.6377C11.1093 36.6221 13.2265 38.0908 16.164 39.6455C17.6796 40.4424 17.9765 40.5439 18.4609 40.4111C18.9062 40.2939 21.5781 38.8642 22.8281 38.0674C28.2812 34.5986 32.4609 29.5439 34.5859 23.833C35.0546 22.5752 35.6171 20.6377 35.6171 20.2705C35.6171 19.7471 35.039 19.4971 34.6953 19.8642C34.6093 19.9658 34.4843 20.2705 34.414 20.5517C33.8984 22.7783 32.7734 25.5127 31.4843 27.6689C29.1484 31.583 25.6406 35.0596 21.5547 37.5205C20.4531 38.1846 18.2968 39.3017 18.125 39.3017C18.0234 39.3017 17.375 38.9971 16.6875 38.6299C13.3828 36.8721 11.2109 35.3017 8.8984 32.9814C5.46871 29.5361 3.06246 25.3721 1.87496 20.7861C1.73434 20.2314 1.59371 19.8564 1.50778 19.7939C1.30465 19.6455 0.8984 19.6689 0.749963 19.833Z" fill="white"/>
</svg>
