<svg width="36" height="41" viewBox="0 0 36 41" fill="none" xmlns="http://www.w3.org/2000/svg">
<path d="M16.8564 0.0480423C15.8395 0.160152 15.1187 0.28027 14.4541 0.448433C12.0117 1.05703 9.82559 2.29824 8.00781 4.12402C5.54941 6.58242 4.14004 9.69746 3.91582 13.1969C3.85977 13.9977 3.85176 14.0217 3.65156 14.0617C2.06602 14.4061 1.03301 15.1348 0.480469 16.2959C0 17.3209 0 17.3049 0 22.3018C0 26.4098 0.0160156 26.9143 0.144141 27.3787C0.592578 29.0043 1.71367 30.0854 3.34727 30.4617C3.74766 30.5578 4.32422 30.5898 5.55742 30.5898H7.22305L7.42324 30.3896C7.53535 30.2775 7.64746 30.0773 7.67949 29.9412C7.74355 29.6129 7.74355 14.9906 7.67949 14.6623C7.64746 14.5262 7.53535 14.326 7.43125 14.2139C7.24707 14.0297 7.16699 14.0137 6.33418 13.9977L5.44531 13.9736L5.46934 13.333C5.56543 11.0348 6.39824 8.64843 7.78359 6.70254C8.72051 5.38926 10.4102 3.88379 11.8676 3.06699C13.5652 2.12207 15.9035 1.52148 17.8975 1.52148C19.8914 1.52148 22.2297 2.12207 23.9273 3.06699C25.3848 3.88379 27.0744 5.38926 28.0113 6.70254C29.3967 8.64843 30.2295 11.0348 30.3256 13.333L30.3496 13.9736L29.4607 13.9977C28.6199 14.0137 28.5479 14.0297 28.3637 14.2219C28.2355 14.35 28.1395 14.5582 28.1074 14.7584C28.0834 14.9426 28.0674 18.474 28.0834 22.6061L28.1074 30.1254L28.3717 30.3576C28.6279 30.5818 28.652 30.5898 29.5088 30.5898H30.3816L30.3416 31.0062C30.1174 33.3205 29.5729 34.7299 28.5158 35.6988C27.4748 36.6437 25.7051 37.2123 23.3348 37.3645L22.4859 37.4205L22.4379 36.924C22.3738 36.3314 22.2457 36.0592 21.8693 35.7309C21.4289 35.3465 21.0205 35.2984 18.1537 35.3305C15.8555 35.3545 15.5912 35.3705 15.335 35.5066C14.9426 35.7148 14.7824 35.875 14.6062 36.2113C14.4701 36.4756 14.4541 36.6998 14.4541 38.1492C14.4541 39.8869 14.4861 40.0951 14.8385 40.4715C15.3189 40.984 15.407 41 18.458 41C21.1727 41 21.2367 41 21.5811 40.8158C22.0855 40.5676 22.3818 40.1111 22.4379 39.4945L22.4859 39.0061L22.8943 38.966C23.1186 38.942 23.7191 38.8859 24.2236 38.8379C27.675 38.5096 29.7891 37.3164 30.9102 35.0742C31.4146 34.0652 31.6869 33.0322 31.8551 31.4787L31.9512 30.5578L32.5197 30.4217C34.1373 30.0213 35.2104 28.9803 35.6588 27.3707C35.7789 26.9143 35.7949 26.3937 35.7949 22.2617C35.7949 18.0416 35.7789 17.6172 35.6508 17.1367C35.1703 15.4551 34.0652 14.4781 32.1434 14.0617C31.9432 14.0217 31.9352 13.9977 31.8791 13.1969C31.4547 6.60644 26.634 1.26523 20.1396 0.192184C19.459 0.0800743 17.377 -0.0160179 16.8564 0.0480423ZM6.12598 22.2617V29.0684H5.34922C2.96289 29.0604 1.88184 28.3797 1.56953 26.7061C1.44941 26.0654 1.44941 18.458 1.56953 17.8174C1.7457 16.8564 2.2502 16.1678 3.05098 15.7994C3.56348 15.5672 4.14805 15.4791 5.26914 15.4631L6.12598 15.4551V22.2617ZM32.4717 15.7273C33.2885 16.0316 33.8891 16.6482 34.1293 17.441C34.2574 17.8574 34.2734 18.2898 34.2574 22.2617C34.2414 26.4258 34.2334 26.65 34.0732 27.1705C33.9291 27.627 33.825 27.8031 33.4486 28.1875C32.784 28.8602 32.3596 29.0043 30.8541 29.0523L29.6689 29.0844V22.3018V15.5191L30.8941 15.5592C31.751 15.5832 32.2154 15.6312 32.4717 15.7273ZM20.8604 38.1973V39.4785H18.418H15.9756V38.1973V36.916H18.418H20.8604V38.1973Z" fill="#102c6d"/>
</svg>
