<svg width="28" height="41" viewBox="0 0 28 41" fill="none" xmlns="http://www.w3.org/2000/svg">
<path d="M12.5064 0.120117C10.088 0.560547 8.08609 2.09805 7.03707 4.34824C6.51656 5.45332 6.39644 6.11797 6.3484 8.00781L6.30035 9.64941L6.02008 10.218C5.75582 10.7545 5.7398 10.8346 5.77183 11.4191C5.80387 12.1639 5.98805 12.6043 6.47652 13.1168C6.85289 13.5092 7.11715 13.6533 7.69371 13.8055L8.11012 13.9096L8.25426 14.4861C8.52652 15.5912 9.19918 16.7043 9.99996 17.377L10.4004 17.7133V18.49V19.2668L6.74078 20.6842C4.72281 21.4689 2.88101 22.2217 2.64879 22.3658C1.62379 22.9824 0.710898 24.0715 0.350546 25.1125C0.0142178 26.0895 -0.0178134 26.8422 0.00621002 33.5607L0.0302335 39.8549L0.270468 40.2393C0.430624 40.4955 0.630819 40.6877 0.863046 40.8158C1.21539 41 1.2234 41 4.35445 41C7.39742 41 7.49351 40.992 7.66168 40.8398C7.90191 40.6156 7.90191 40.1832 7.66168 39.959C7.50953 39.8229 7.38141 39.7988 6.74078 39.7988H5.99605V33.793V27.7791L5.79586 27.5869C5.5316 27.3146 5.17926 27.3227 4.96305 27.5949C4.79488 27.8031 4.79488 27.8592 4.79488 33.801V39.7988H3.13726C2.21637 39.7988 1.41559 39.7588 1.35152 39.7188C1.24742 39.6547 1.23141 38.8139 1.23141 32.9762C1.23141 26.7461 1.23941 26.2736 1.37555 25.8252C1.67183 24.8643 2.27242 24.0555 3.09723 23.5189C3.67379 23.1426 7.86988 21.4689 7.98199 21.573C8.01402 21.6051 8.47047 22.502 8.99898 23.567C9.79176 25.1686 10.008 25.5369 10.2322 25.6811C10.5685 25.9053 10.9929 25.9133 11.3453 25.7051C11.4894 25.617 11.6175 25.5449 11.6416 25.5449C11.6576 25.5449 11.7777 25.6971 11.9058 25.8893L12.1461 26.2256L11.2252 31.6309C10.4484 36.2273 10.3203 37.0762 10.3923 37.3164C10.4484 37.4926 10.8568 38.0051 11.4814 38.7018L12.4904 39.7988H11.2171C10.048 39.7988 9.91988 39.8148 9.72769 39.967C9.43941 40.1912 9.43941 40.6076 9.7357 40.8318L9.9439 41L18.288 40.984L26.6242 40.96L26.9605 40.7357C27.1447 40.6156 27.3769 40.3674 27.473 40.1752C27.6492 39.8469 27.6572 39.7748 27.6812 36.9561C27.6972 35.3705 27.6892 33.9611 27.6572 33.809C27.5611 33.2965 27.0806 33.0723 26.6962 33.3605C26.5441 33.4727 26.5361 33.6008 26.4961 36.5637C26.464 39.1822 26.44 39.6547 26.3359 39.7188C26.2718 39.7588 25.4711 39.7988 24.5582 39.7988H22.8925V33.801C22.8925 27.8592 22.8925 27.8031 22.7244 27.5949C22.5082 27.3227 22.1558 27.3146 21.8916 27.5869L21.6914 27.7791V33.793V39.7988H18.4402H15.197L16.198 38.6938C16.8386 37.9971 17.239 37.4926 17.2951 37.3164C17.3671 37.0762 17.239 36.2033 16.4623 31.6309L15.5414 26.2256L15.7816 25.8893C15.9097 25.6971 16.0298 25.5449 16.0459 25.5449C16.0699 25.5449 16.198 25.617 16.3421 25.7051C16.6785 25.9053 17.0949 25.9053 17.4232 25.7051C17.6394 25.577 17.8556 25.2006 18.6884 23.535C19.5453 21.8373 19.7214 21.533 19.8496 21.565C19.9296 21.5891 20.9146 21.9574 22.0277 22.3898C24.6943 23.4148 25.2869 23.8072 25.9355 24.9443C26.4 25.7691 26.432 26.0014 26.472 28.7721L26.5121 31.3105L26.7123 31.4707C26.9845 31.6789 27.1607 31.6709 27.433 31.4387L27.6572 31.2465L27.6812 29.2525C27.7132 26.9943 27.6252 25.9293 27.3369 25.1125C26.9765 24.0875 26.1757 23.1025 25.1507 22.4379C24.8545 22.2457 23.333 21.6131 20.9867 20.7002L17.2871 19.2668V18.466V17.6572L17.8796 17.0406C18.6724 16.2078 19.1289 15.3189 19.4011 14.0857C19.4412 13.9096 19.5052 13.8615 19.7775 13.8215C20.4742 13.7094 21.2029 13.1729 21.5232 12.5322C21.6273 12.332 21.7474 11.9316 21.7955 11.6594C21.8675 11.2029 21.8595 11.0908 21.6994 10.6023C21.6033 10.298 21.4591 9.98574 21.3871 9.89766C21.275 9.77754 21.2429 9.48125 21.2029 7.97578C21.1628 6.54239 21.1228 6.08594 20.9867 5.58945C20.33 3.16309 18.5203 1.20918 16.206 0.416409C15.0369 0.0160179 13.6755 -0.0960922 12.5064 0.120117ZM15.4293 1.44141C17.2951 1.96992 18.7685 3.26719 19.5132 5.02891C19.8736 5.86973 20.0097 6.63848 20.0097 7.84766V8.88867L19.7935 8.84063C19.4732 8.76055 19.4492 8.74453 19.4492 8.52832C19.4492 8.32012 18.9607 7.71152 17.9197 6.63848C17.4232 6.12598 17.2711 6.01387 16.9908 5.97383C16.6304 5.90977 16.6464 5.90176 15.2851 6.63047C13.5234 7.56738 11.7777 8.00781 9.78375 8.00781C8.71871 8.00781 8.38238 8.12793 8.21422 8.56836C8.13414 8.78457 7.95797 8.88867 7.66168 8.88867C7.53355 8.88867 7.51754 8.80059 7.51754 8.06387C7.51754 7.61543 7.55758 6.99082 7.59762 6.68652C7.94996 3.94785 10.032 1.77774 12.7627 1.28125C13.3953 1.16914 14.7646 1.24922 15.4293 1.44141ZM17.5513 7.98379L18.248 8.75254V11.283C18.248 13.2449 18.216 13.9096 18.1279 14.2539C17.7195 15.7914 16.5023 17.0086 14.9648 17.417C14.3802 17.5691 13.2271 17.5691 12.6105 17.409C11.2171 17.0486 10.072 15.9996 9.5275 14.5902C9.3273 14.0617 9.3273 14.0057 9.29527 11.6273L9.26324 9.20898H10.016C12.0179 9.20098 14.3962 8.56035 16.0859 7.57539C16.4142 7.38321 16.7265 7.22305 16.7666 7.22305C16.8146 7.22305 17.1589 7.56738 17.5513 7.98379ZM8.07808 11.3311C8.07808 12.7885 8.07808 12.7965 7.58961 12.4682C6.79683 11.9316 6.72476 10.8586 7.44547 10.3461C7.59762 10.242 7.93394 10.0578 8.06207 10.0178C8.07008 10.0098 8.07808 10.6023 8.07808 11.3311ZM20.0978 10.258C20.3621 10.4422 20.6503 11.0107 20.6503 11.3391C20.6423 11.8916 20.1859 12.4842 19.6654 12.6123L19.4492 12.6684V11.3311V9.99375L19.6654 10.0498C19.7855 10.0738 19.9777 10.1699 20.0978 10.258ZM13.5714 18.7223C14.3642 18.7463 14.6445 18.7303 15.173 18.5941C15.5173 18.5061 15.8697 18.41 15.9498 18.3779C16.0699 18.3299 16.0859 18.3779 16.0859 18.8984V19.483L14.9968 20.8363C14.3962 21.573 13.8757 22.1816 13.8437 22.1816C13.8037 22.1816 13.2912 21.5811 12.6906 20.8363L11.6015 19.499V18.9305V18.3539L12.106 18.5141C12.4423 18.6262 12.9068 18.6902 13.5714 18.7223ZM11.9058 21.7812C12.4904 22.502 12.9388 23.1186 12.9068 23.1426C12.7146 23.3107 10.8648 24.592 10.8408 24.568C10.7207 24.4398 9.1191 21.1086 9.15914 21.0686C9.24723 20.9885 10.6726 20.4359 10.7607 20.452C10.8007 20.468 11.3212 21.0605 11.9058 21.7812ZM17.6875 20.7082C18.1039 20.8684 18.4802 21.0285 18.5123 21.0605C18.5603 21.1006 16.9908 24.4158 16.8466 24.568C16.8306 24.584 16.3502 24.2637 15.7736 23.8553C14.8447 23.1906 14.7406 23.0945 14.8287 22.9664C15.0369 22.6701 16.8466 20.4279 16.8867 20.4279C16.9107 20.4199 17.2711 20.548 17.6875 20.7082ZM14.4843 24.4078C14.7726 24.608 15.0129 24.7762 15.0289 24.7922C15.0449 24.8002 14.9568 24.9604 14.8367 25.1365L14.6205 25.4648H13.8437H13.067L12.8427 25.1365C12.6666 24.8723 12.6505 24.7842 12.7306 24.7361C12.7947 24.7041 13.0589 24.5119 13.3232 24.3197C13.5875 24.1275 13.8437 23.9834 13.8837 24.0074C13.9318 24.0314 14.1961 24.2076 14.4843 24.4078ZM14.4363 26.8822C14.4603 27.0104 14.8447 29.2686 15.2851 31.9111C15.7336 34.5537 16.1099 36.7719 16.1259 36.8359C16.158 36.948 13.9718 39.4385 13.8437 39.4385C13.8117 39.4385 13.2752 38.8779 12.6586 38.1973C11.8177 37.2764 11.5375 36.916 11.5615 36.7959C11.5855 36.7078 11.9619 34.4896 12.4023 31.8711C12.8427 29.2525 13.2271 27.0104 13.2511 26.8822C13.2912 26.674 13.3072 26.666 13.8437 26.666C14.3802 26.666 14.3962 26.674 14.4363 26.8822Z" fill="white"/>
</svg>
