<svg width="26" height="26" viewBox="0 0 26 26" fill="none" xmlns="http://www.w3.org/2000/svg">
<circle cx="13" cy="13" r="13" fill="white" fill-opacity="0.2"/>
<path d="M12.386 5.0002C12.3264 5.00647 12.1415 5.02841 11.9786 5.04721C9.49946 5.32929 7.20841 6.88381 5.94849 9.13725C5.49091 9.9584 5.15869 10.9801 5.01765 12.0018C4.96124 12.3936 4.96124 13.6159 5.01765 14.0077C5.34674 16.3959 6.61919 18.4237 8.60937 19.7306C10.5181 20.9843 12.9251 21.351 15.1597 20.7241C18.0713 19.9093 20.3185 17.4552 20.8607 14.4966C21.3496 11.8483 20.5379 9.22501 18.6511 7.33513C17.4006 6.08774 15.8962 5.33242 14.1098 5.05975C13.7964 5.01274 12.6305 4.97199 12.386 5.0002ZM14.0784 5.52987C14.2602 5.55808 14.5987 5.62703 14.8306 5.68344C17.4884 6.34474 19.629 8.47908 20.2997 11.14C20.472 11.8263 20.5159 12.2118 20.5159 13.0048C20.5159 13.7977 20.472 14.1832 20.2997 14.8696C19.6321 17.5211 17.4978 19.6554 14.8463 20.323C14.1599 20.4953 13.7744 20.5392 12.9815 20.5392C12.1823 20.5392 11.8281 20.4985 11.1229 20.323C8.46206 19.6554 6.33399 17.5273 5.66328 14.8696C5.49091 14.1832 5.44703 13.7977 5.44703 13.0048C5.44703 12.2118 5.49091 11.8263 5.66328 11.14C6.26504 8.75802 8.05776 6.76785 10.3864 5.9091C10.9318 5.70852 11.7435 5.52987 12.386 5.47032C12.6775 5.44525 13.7619 5.48286 14.0784 5.52987Z" fill="white"/>
<path d="M12.48 6.09734C11.6777 6.16629 10.8534 6.37315 10.1764 6.67402C9.95705 6.77431 9.91003 6.82133 9.91003 6.95609C9.91003 7.19115 10.0855 7.23503 10.424 7.08459C10.9349 6.85267 11.7592 6.63955 12.292 6.59567C12.4205 6.58627 12.574 6.5706 12.6305 6.56119L12.7308 6.54552L12.7339 6.94669C12.7339 7.41054 12.7715 7.55158 12.8969 7.59546C13.0285 7.64247 13.1476 7.58605 13.1915 7.45755C13.2134 7.39487 13.2291 7.16921 13.2291 6.94669L13.2322 6.54552L13.3356 6.56119C13.3889 6.5706 13.5488 6.58627 13.6835 6.5988C14.8651 6.69283 16.266 7.30712 17.222 8.1502L17.3755 8.28183L17.059 8.59838C16.8866 8.77389 16.7362 8.95253 16.7268 8.99641C16.6986 9.11551 16.8239 9.25341 16.9587 9.25341C17.0464 9.25341 17.106 9.2064 17.3818 8.93373L17.7046 8.61405L17.8112 8.73314C18.7201 9.7392 19.3469 11.2404 19.4127 12.5662L19.4221 12.7699L18.9426 12.7856C18.5132 12.7981 18.4568 12.8075 18.4161 12.8608C18.3659 12.9329 18.3596 13.0488 18.4035 13.1303C18.4537 13.2244 18.6104 13.2557 19.0366 13.2557H19.4409L19.4253 13.356C19.4158 13.4124 19.4002 13.5722 19.3876 13.707C19.2968 14.8447 18.7044 16.2331 17.9177 17.1546L17.7077 17.399L17.3881 17.0856C17.0151 16.7158 16.9462 16.6844 16.802 16.8255C16.6609 16.9696 16.6923 17.0386 17.0621 17.4116L17.3755 17.7312L17.1311 17.9381C16.9963 18.054 16.7424 18.2452 16.5638 18.3675C16.2159 18.6057 16.1626 18.684 16.2441 18.8313C16.3162 18.9629 16.4416 18.9849 16.5951 18.9034C17.037 18.6652 17.761 18.054 18.1998 17.5432C19.0868 16.5121 19.6258 15.3368 19.8327 13.9734C19.9079 13.4814 19.9079 12.5223 19.8358 12.0334C19.5976 10.482 18.9301 9.16566 17.8362 8.07811C16.7863 7.04072 15.4606 6.37941 13.9844 6.15689C13.6616 6.10988 12.7558 6.07227 12.48 6.09734Z" fill="white"/>
<path d="M9.07948 7.29429C7.75688 8.15304 6.67561 9.7013 6.27444 11.3091C6.12086 11.9203 6.07385 12.3277 6.07385 13.0047C6.07385 13.666 6.12086 14.0765 6.26503 14.6658C6.86365 17.1261 8.81935 19.0912 11.2859 19.7117C11.8845 19.8622 12.3045 19.9123 12.9658 19.9123C13.9029 19.9154 14.6206 19.7869 15.4543 19.4673C15.7019 19.3732 15.752 19.3419 15.7865 19.2604C15.8398 19.135 15.7928 19.0065 15.6768 18.9595C15.5953 18.925 15.5358 18.9407 15.1252 19.0818C14.6426 19.251 14.0659 19.3826 13.671 19.414C13.5425 19.4234 13.3889 19.439 13.3356 19.4484L13.2322 19.4641L13.2291 19.0629C13.2291 18.5991 13.1915 18.4581 13.0692 18.4142C12.9345 18.3672 12.8154 18.4236 12.7715 18.5521C12.7495 18.6148 12.7339 18.8373 12.7339 19.0598L12.7307 19.461L12.5991 19.4453C12.0068 19.3826 11.7968 19.3513 11.4802 19.2729C10.8346 19.1131 10.1576 18.8373 9.64363 18.5207C9.38349 18.3609 8.90084 18.0067 8.71906 17.8438L8.59056 17.7278L8.91024 17.405C9.18291 17.1292 9.22992 17.0696 9.22992 16.9819C9.22992 16.8471 9.09202 16.7218 8.97292 16.75C8.92904 16.7594 8.7504 16.9098 8.57802 17.0822L8.26148 17.3925L8.16432 17.2922C8.00134 17.1198 7.63152 16.6152 7.46541 16.3394C6.99215 15.5621 6.638 14.5122 6.57531 13.7067C6.56278 13.572 6.54711 13.4121 6.5377 13.3557L6.52203 13.2554H6.92634C7.35258 13.2554 7.50928 13.2241 7.55943 13.13C7.60958 13.036 7.59704 12.9169 7.52809 12.848C7.47167 12.7916 7.42466 12.7853 7.01409 12.7853C6.76336 12.7853 6.55337 12.7759 6.54711 12.7602C6.52203 12.7195 6.58472 12.1209 6.65367 11.7667C6.86052 10.6886 7.44347 9.50385 8.13611 8.74853L8.26148 8.61376L8.58116 8.93344C8.85069 9.20298 8.91964 9.25312 9.00113 9.25312C9.12963 9.25312 9.22992 9.15283 9.22992 9.02433C9.22992 8.94284 9.17978 8.87389 8.91024 8.60436L8.58742 8.28154L8.78801 8.10917C8.8977 8.01514 9.07008 7.87724 9.17351 7.80202C9.46812 7.58576 9.53393 7.51681 9.53393 7.41966C9.53393 7.33503 9.43991 7.20654 9.38036 7.20654C9.36469 7.20654 9.33021 7.20027 9.30827 7.19086C9.2832 7.18146 9.17978 7.22847 9.07948 7.29429Z" fill="white"/>
<path d="M14.5015 11.0586C13.4579 12.0992 13.2698 12.2747 13.2165 12.2527C13.1319 12.2151 12.8467 12.2151 12.7527 12.2496C12.6837 12.2778 12.6242 12.2245 12.0067 11.6071C11.3831 10.9803 11.3298 10.9364 11.2232 10.9364C11.0853 10.9364 10.9976 11.0242 10.9976 11.1589C10.9976 11.2404 11.0884 11.347 11.6714 11.933C12.2449 12.5097 12.3452 12.6226 12.3233 12.6758C12.2731 12.7949 12.2888 13.0958 12.3515 13.218C12.6242 13.7477 13.3482 13.7383 13.6208 13.2024C13.6772 13.0927 13.6866 12.8043 13.6428 12.6821C13.6146 12.6132 13.7054 12.516 14.8337 11.3877C15.9401 10.2814 16.0529 10.1591 16.0529 10.0682C16.0529 9.93347 15.9589 9.83945 15.8273 9.83945C15.7364 9.83945 15.6047 9.95855 14.5015 11.0586ZM13.1319 12.7417C13.2228 12.8043 13.2291 13.0018 13.1382 13.0833C12.9877 13.2212 12.7621 13.1146 12.7621 12.9078C12.7621 12.773 12.8467 12.6915 12.9815 12.6915C13.0253 12.6915 13.0943 12.7134 13.1319 12.7417Z" fill="white"/>
<path d="M11.9785 15.3303C11.8625 15.4556 11.9127 15.6343 12.0851 15.7001C12.1352 15.7189 12.4956 15.7314 12.9814 15.7314C13.4672 15.7314 13.8276 15.7189 13.8778 15.7001C14.0502 15.6343 14.1003 15.4556 13.9843 15.3303C13.9217 15.2613 13.906 15.2613 12.9814 15.2613C12.0568 15.2613 12.0412 15.2613 11.9785 15.3303Z" fill="white"/>
</svg>
