<svg width="94" height="21" viewBox="0 0 94 21" fill="none" xmlns="http://www.w3.org/2000/svg">
<rect width="94" height="21" rx="10.5" fill="#00B77A"/>
<path d="M17 6L18.4695 8.97746L21.7553 9.45492L19.3776 11.7725L19.9389 15.0451L17 13.5L14.0611 15.0451L14.6224 11.7725L12.2447 9.45492L15.5305 8.97746L17 6Z" fill="white"/>
<path d="M32 6L33.4695 8.97746L36.7553 9.45492L34.3776 11.7725L34.9389 15.0451L32 13.5L29.0611 15.0451L29.6224 11.7725L27.2447 9.45492L30.5305 8.97746L32 6Z" fill="white"/>
<path d="M47 6L48.4695 8.97746L51.7553 9.45492L49.3776 11.7725L49.9389 15.0451L47 13.5L44.0611 15.0451L44.6224 11.7725L42.2447 9.45492L45.5305 8.97746L47 6Z" fill="white"/>
<path d="M62 6L63.4695 8.97746L66.7553 9.45492L64.3776 11.7725L64.9389 15.0451L62 13.5L59.0611 15.0451L59.6224 11.7725L57.2447 9.45492L60.5305 8.97746L62 6Z" fill="white"/>
<path d="M77 6L78.4695 8.97746L81.7553 9.45492L79.3776 11.7725L79.9389 15.0451L77 13.5L74.0611 15.0451L74.6224 11.7725L72.2447 9.45492L75.5305 8.97746L77 6Z" fill="white"/>
</svg>
