<svg width="18" height="19" viewBox="0 0 18 19" fill="none" xmlns="http://www.w3.org/2000/svg">
<path d="M0.0579434 0.866417C0.0920278 0.920952 1.58492 3.09213 3.37435 5.69958C5.16378 8.30703 6.62941 10.4543 6.62941 10.4714C6.62941 10.4918 5.16037 12.2165 3.36072 14.3093C1.56447 16.3987 0.0715772 18.137 0.0443097 18.1676C0 18.2222 0.0477181 18.2256 0.746448 18.2256H1.4963L4.39007 14.8615C5.98181 13.0141 7.30087 11.4939 7.31791 11.4905C7.33837 11.4837 8.39498 12.997 9.66633 14.8512L11.9807 18.2256H14.5165C16.9195 18.2256 17.049 18.2222 17.0183 18.1642C17.0013 18.1336 15.4504 15.8738 13.5758 13.147C11.7012 10.4203 10.164 8.18092 10.164 8.1707C10.164 8.15706 11.5887 6.49375 13.3304 4.47254L16.4934 0.791431L15.7606 0.781206C15.1573 0.774389 15.0176 0.781206 14.9733 0.822107C14.9426 0.849375 13.6985 2.29114 12.209 4.02263C10.7195 5.75752 9.48909 7.16862 9.47546 7.1618C9.46182 7.15157 8.46656 5.71321 7.26338 3.96128L5.07516 0.774389H2.53588H0L0.0579434 0.866417ZM9.65269 9.48635C12.5669 13.6583 14.9596 17.0838 14.963 17.1042C14.9733 17.1247 14.5608 17.1315 13.8246 17.1281L12.6726 17.1178L7.36222 9.52385C4.44119 5.3451 2.05188 1.91962 2.05188 1.91281C2.05188 1.90599 2.56996 1.89917 3.20393 1.89917L4.35257 1.90258L9.65269 9.48635Z" fill="white"/>
</svg>
